G04*
G04 #@! TF.GenerationSoftware,Altium Limited,Altium Designer,23.8.1 (32)*
G04*
G04 Layer_Color=128*
%FSLAX44Y44*%
%MOMM*%
G71*
G04*
G04 #@! TF.SameCoordinates,6629C207-265C-49F2-9D33-E76E02802E5F*
G04*
G04*
G04 #@! TF.FilePolarity,Positive*
G04*
G01*
G75*
%ADD166C,0.0508*%
D166*
X51900Y83060D02*
X61900D01*
X56900Y78060D02*
Y88060D01*
X113900Y83060D02*
X123900D01*
X118900Y78060D02*
Y88060D01*
X82400Y33560D02*
X92400D01*
X87400Y28560D02*
Y38560D01*
X12500Y334460D02*
X18500D01*
X15500Y331460D02*
Y337460D01*
X12500Y422860D02*
X18500D01*
X15500Y419860D02*
Y425860D01*
X48000Y332460D02*
X54000D01*
X51000Y329460D02*
Y335460D01*
X43000Y345460D02*
X47500D01*
X45250Y343210D02*
Y347710D01*
X43000Y411860D02*
X47500D01*
X45250Y409610D02*
Y414110D01*
X48000Y424860D02*
X54000D01*
X51000Y421860D02*
Y427860D01*
X157810Y406940D02*
X167310D01*
X162560Y402190D02*
Y411690D01*
X157810Y432340D02*
X167310D01*
X162560Y427590D02*
Y437090D01*
X183210Y406940D02*
X192710D01*
X187960Y402190D02*
Y411690D01*
X183210Y432340D02*
X192710D01*
X187960Y427590D02*
Y437090D01*
X208610Y406940D02*
X218110D01*
X213360Y402190D02*
Y411690D01*
X208610Y432340D02*
X218110D01*
X213360Y427590D02*
Y437090D01*
X224350Y25400D02*
X232850D01*
X228600Y21150D02*
Y29650D01*
X198950Y25400D02*
X207450D01*
X203200Y21150D02*
Y29650D01*
X173550Y25400D02*
X182050D01*
X177800Y21150D02*
Y29650D01*
X630751Y508000D02*
X639249D01*
X635000Y503751D02*
Y512249D01*
X605351Y508000D02*
X613849D01*
X609600Y503751D02*
Y512249D01*
X579951Y508000D02*
X588450D01*
X584200Y503751D02*
Y512249D01*
X554551Y508000D02*
X563050D01*
X558800Y503751D02*
Y512249D01*
X529151Y508000D02*
X537649D01*
X533400Y503751D02*
Y512249D01*
X503751Y508000D02*
X512249D01*
X508000Y503751D02*
Y512249D01*
X478351Y508000D02*
X486850D01*
X482600Y503751D02*
Y512249D01*
X452951Y508000D02*
X461450D01*
X457200Y503751D02*
Y512249D01*
X412311Y508000D02*
X420810D01*
X416560Y503751D02*
Y512249D01*
X386911Y508000D02*
X395410D01*
X391160Y503751D02*
Y512249D01*
X361511Y508000D02*
X370009D01*
X365760Y503751D02*
Y512249D01*
X336111Y508000D02*
X344609D01*
X340360Y503751D02*
Y512249D01*
X310711Y508000D02*
X319209D01*
X314960Y503751D02*
Y512249D01*
X285311Y508000D02*
X293810D01*
X289560Y503751D02*
Y512249D01*
X259911Y508000D02*
X268410D01*
X264160Y503751D02*
Y512249D01*
X234511Y508000D02*
X243009D01*
X238760Y503751D02*
Y512249D01*
X209111Y508000D02*
X217610D01*
X213360Y503751D02*
Y512249D01*
X183711Y508000D02*
X192209D01*
X187960Y503751D02*
Y512249D01*
X275151Y25400D02*
X283650D01*
X279400Y21151D02*
Y29650D01*
X300551Y25400D02*
X309049D01*
X304800Y21151D02*
Y29650D01*
X325951Y25400D02*
X334450D01*
X330200Y21151D02*
Y29650D01*
X351351Y25400D02*
X359850D01*
X355600Y21151D02*
Y29650D01*
X376751Y25400D02*
X385249D01*
X381000Y21151D02*
Y29650D01*
X402151Y25400D02*
X410649D01*
X406400Y21151D02*
Y29650D01*
X427551Y25400D02*
X436049D01*
X431800Y21151D02*
Y29650D01*
X452951Y25400D02*
X461450D01*
X457200Y21151D02*
Y29650D01*
X503751Y25400D02*
X512249D01*
X508000Y21151D02*
Y29650D01*
X529151Y25400D02*
X537649D01*
X533400Y21151D02*
Y29650D01*
X554551Y25400D02*
X563050D01*
X558800Y21151D02*
Y29650D01*
X579951Y25400D02*
X588450D01*
X584200Y21151D02*
Y29650D01*
X605351Y25400D02*
X613849D01*
X609600Y21151D02*
Y29650D01*
X630751Y25400D02*
X639249D01*
X635000Y21151D02*
Y29650D01*
X631520Y304800D02*
X641020D01*
X636270Y300050D02*
Y309550D01*
X656920Y304800D02*
X666420D01*
X661670Y300050D02*
Y309550D01*
X631520Y279400D02*
X641020D01*
X636270Y274650D02*
Y284150D01*
X656920Y279400D02*
X666420D01*
X661670Y274650D02*
Y284150D01*
X631520Y254000D02*
X641020D01*
X636270Y249250D02*
Y258750D01*
X656920Y254000D02*
X666420D01*
X661670Y249250D02*
Y258750D01*
X68737Y498812D02*
X71737D01*
X70237Y497312D02*
Y500312D01*
X123701Y25400D02*
X155700D01*
X139700Y9401D02*
Y41400D01*
X644401Y355600D02*
X676400D01*
X660400Y339601D02*
Y371600D01*
X644401Y76200D02*
X676400D01*
X660400Y60201D02*
Y92200D01*
X136401Y508000D02*
X168400D01*
X152400Y492001D02*
Y524000D01*
X128040Y128460D02*
X131040D01*
X129540Y126960D02*
Y129960D01*
X134961Y328992D02*
X137961D01*
X136461Y327492D02*
Y330492D01*
X143343Y319640D02*
X146343D01*
X144843Y318140D02*
Y321140D01*
X150613Y320175D02*
X153613D01*
X152113Y318675D02*
Y321675D01*
X122998Y315514D02*
X125997D01*
X124497Y314014D02*
Y317014D01*
X246750Y326823D02*
X249750D01*
X248250Y325323D02*
Y328323D01*
X285578Y240991D02*
X288578D01*
X287078Y239491D02*
Y242491D01*
X472067Y315454D02*
X475067D01*
X473567Y313954D02*
Y316954D01*
X432806Y389071D02*
X435806D01*
X434306Y387571D02*
Y390571D01*
X484904Y372833D02*
X487904D01*
X486404Y371333D02*
Y374333D01*
X485500Y401000D02*
X488500D01*
X487000Y399500D02*
Y402500D01*
X491357Y384761D02*
X494356D01*
X492856Y383261D02*
Y386261D01*
X491487Y392810D02*
X494487D01*
X492987Y391310D02*
Y394310D01*
X494322Y400696D02*
X497322D01*
X495822Y399197D02*
Y402197D01*
X528302Y368102D02*
X531301D01*
X529801Y366602D02*
Y369602D01*
X522288Y384586D02*
X525288D01*
X523788Y383087D02*
Y386087D01*
X528925Y387609D02*
X531925D01*
X530425Y386109D02*
Y389109D01*
X526080Y400810D02*
X529080D01*
X527580Y399310D02*
Y402310D01*
X512849Y403932D02*
X515849D01*
X514349Y402432D02*
Y405432D01*
X514878Y395892D02*
X517878D01*
X516378Y394392D02*
Y397392D01*
X525479Y277298D02*
X528479D01*
X526979Y275798D02*
Y278798D01*
X410908Y219482D02*
X413908D01*
X412408Y217981D02*
Y220981D01*
X418070Y211170D02*
X421071D01*
X419571Y209670D02*
Y212670D01*
X493565Y342561D02*
X496565D01*
X495065Y341061D02*
Y344061D01*
X494709Y334043D02*
X497709D01*
X496209Y332543D02*
Y335543D01*
X516569Y320010D02*
X519569D01*
X518069Y318510D02*
Y321510D01*
X523223Y333251D02*
X526223D01*
X524724Y331751D02*
Y334751D01*
X549875Y328396D02*
X552876D01*
X551376Y326896D02*
Y329896D01*
X567382Y359130D02*
X570382D01*
X568882Y357630D02*
Y360630D01*
X274111Y381536D02*
X277111D01*
X275611Y380036D02*
Y383036D01*
X223949Y353016D02*
X226949D01*
X225449Y351516D02*
Y354516D01*
X233789Y321154D02*
X236789D01*
X235289Y319654D02*
Y322654D01*
X237587Y329150D02*
X240587D01*
X239087Y327650D02*
Y330650D01*
X255063Y262994D02*
X258063D01*
X256563Y261494D02*
Y264494D01*
X233202Y240304D02*
X236201D01*
X234701Y238804D02*
Y241804D01*
X275230Y410210D02*
X278230D01*
X276730Y408710D02*
Y411710D01*
X472890Y426459D02*
X475890D01*
X474390Y424959D02*
Y427959D01*
X230491Y433491D02*
X233491D01*
X231991Y431991D02*
Y434991D01*
X199206Y412267D02*
X202206D01*
X200706Y410767D02*
Y413767D01*
X92696Y370872D02*
X95695D01*
X94195Y369372D02*
Y372372D01*
X72228Y373759D02*
X75228D01*
X73728Y372259D02*
Y375259D01*
X647946Y380985D02*
X650946D01*
X649446Y379485D02*
Y382485D01*
X630765Y374044D02*
X633765D01*
X632265Y372544D02*
Y375544D01*
X636795Y378216D02*
X639795D01*
X638295Y376716D02*
Y379716D01*
X635493Y393939D02*
X638493D01*
X636993Y392439D02*
Y395439D01*
X595899Y471913D02*
X598899D01*
X597399Y470414D02*
Y473414D01*
X588500Y470000D02*
X591500D01*
X590000Y468500D02*
Y471500D01*
X192661Y468804D02*
X195661D01*
X194161Y467304D02*
Y470304D01*
X449357Y429380D02*
X452357D01*
X450857Y427880D02*
Y430880D01*
X523477Y428838D02*
X526477D01*
X524977Y427338D02*
Y430338D01*
X163043Y380935D02*
X166043D01*
X164543Y379435D02*
Y382435D01*
X154895Y380754D02*
X157895D01*
X156395Y379254D02*
Y382254D01*
X278500Y366000D02*
X281500D01*
X280000Y364500D02*
Y367500D01*
X250813Y376891D02*
X253813D01*
X252313Y375391D02*
Y378391D01*
X219500Y377000D02*
X222500D01*
X221000Y375500D02*
Y378500D01*
X229380Y377044D02*
X232380D01*
X230880Y375544D02*
Y378544D01*
X221289Y334952D02*
X224289D01*
X222789Y333452D02*
Y336452D01*
X222731Y327596D02*
X225731D01*
X224231Y326096D02*
Y329096D01*
X225952Y321010D02*
X228952D01*
X227452Y319510D02*
Y322510D01*
X238655Y374935D02*
X241655D01*
X240155Y373435D02*
Y376435D01*
X239660Y403760D02*
X242660D01*
X241160Y402260D02*
Y405260D01*
X424013Y274771D02*
X427013D01*
X425513Y273271D02*
Y276271D01*
X419351Y269193D02*
X422351D01*
X420851Y267693D02*
Y270693D01*
X434633Y257564D02*
X437634D01*
X436133Y256064D02*
Y259064D01*
X565109Y101094D02*
X568109D01*
X566609Y99594D02*
Y102593D01*
X578531Y104963D02*
X581531D01*
X580031Y103463D02*
Y106463D01*
X495349Y106445D02*
X498349D01*
X496849Y104945D02*
Y107945D01*
X540779Y108369D02*
X543779D01*
X542279Y106869D02*
Y109869D01*
X365338Y49508D02*
X368338D01*
X366838Y48008D02*
Y51008D01*
X275250Y332371D02*
X278250D01*
X276750Y330871D02*
Y333871D01*
X186500Y244000D02*
X189500D01*
X188000Y242500D02*
Y245500D01*
X364583Y40327D02*
X367583D01*
X366083Y38827D02*
Y41827D01*
X273154Y132060D02*
X276154D01*
X274654Y130560D02*
Y133560D01*
X250867Y132060D02*
X253866D01*
X252366Y130560D02*
Y133560D01*
X261750Y147750D02*
X264750D01*
X263250Y146250D02*
Y149250D01*
X157450Y90710D02*
X160450D01*
X158950Y89210D02*
Y92210D01*
X167667Y55542D02*
X170667D01*
X169167Y54042D02*
Y57042D01*
X218500Y213000D02*
X221500D01*
X220000Y211500D02*
Y214500D01*
X322350Y115177D02*
X325350D01*
X323850Y113677D02*
Y116677D01*
X336329Y124493D02*
X339329D01*
X337829Y122993D02*
Y125993D01*
X318400Y49560D02*
X321400D01*
X319900Y48060D02*
Y51060D01*
X296750Y132060D02*
X299750D01*
X298250Y130560D02*
Y133560D01*
X250400Y49560D02*
X253400D01*
X251900Y48060D02*
Y51060D01*
X251750Y89060D02*
X254750D01*
X253250Y87560D02*
Y90560D01*
X271750Y89060D02*
X274750D01*
X273250Y87560D02*
Y90560D01*
X261750Y89060D02*
X264750D01*
X263250Y87560D02*
Y90560D01*
X284100Y80560D02*
X287100D01*
X285600Y79060D02*
Y82060D01*
X239400Y80560D02*
X242400D01*
X240900Y79060D02*
Y82060D01*
X284600Y72060D02*
X287600D01*
X286100Y70560D02*
Y73560D01*
X284100Y63560D02*
X287100D01*
X285600Y62060D02*
Y65060D01*
X239400Y63560D02*
X242400D01*
X240900Y62060D02*
Y65060D01*
X238900Y72060D02*
X241900D01*
X240400Y70560D02*
Y73560D01*
X190400Y86560D02*
X193400D01*
X191900Y85060D02*
Y88060D01*
X174400Y83560D02*
X177400D01*
X175900Y82060D02*
Y85060D01*
X221750Y289410D02*
X224750D01*
X223250Y287910D02*
Y290910D01*
X208641Y155460D02*
X211641D01*
X210141Y153960D02*
Y156960D01*
X211540Y263315D02*
X214540D01*
X213040Y261815D02*
Y264815D01*
X211449Y255954D02*
X214449D01*
X212949Y254454D02*
Y257454D01*
X330079Y256391D02*
X333079D01*
X331579Y254891D02*
Y257891D01*
X261500Y181000D02*
X264500D01*
X263000Y179500D02*
Y182500D01*
X267703Y198679D02*
X270704D01*
X269203Y197179D02*
Y200179D01*
X62909Y413958D02*
X65909D01*
X64409Y412458D02*
Y415458D01*
X93500Y448000D02*
X96500D01*
X95000Y446500D02*
Y449500D01*
X144500Y404000D02*
X147500D01*
X146000Y402500D02*
Y405500D01*
X121500Y381000D02*
X124500D01*
X123000Y379500D02*
Y382500D01*
X125538Y352362D02*
X128538D01*
X127038Y350862D02*
Y353862D01*
X140520Y379473D02*
X143520D01*
X142020Y377972D02*
Y380973D01*
X114334Y377790D02*
X117334D01*
X115834Y376290D02*
Y379290D01*
X114446Y406591D02*
X117446D01*
X115946Y405091D02*
Y408091D01*
X143500Y388000D02*
X146500D01*
X145000Y386500D02*
Y389500D01*
X145712Y440492D02*
X148712D01*
X147212Y438992D02*
Y441992D01*
X141711Y412504D02*
X144711D01*
X143211Y411004D02*
Y414004D01*
X115912Y461872D02*
X118912D01*
X117412Y460372D02*
Y463372D01*
X129750Y274660D02*
X132750D01*
X131250Y273160D02*
Y276160D01*
X59480Y294192D02*
X62480D01*
X60980Y292692D02*
Y295692D01*
X79750Y174660D02*
X82750D01*
X81250Y173160D02*
Y176160D01*
X126750Y174660D02*
X129750D01*
X128250Y173160D02*
Y176160D01*
X126750Y157660D02*
X129750D01*
X128250Y156160D02*
Y159160D01*
X46750Y317660D02*
X49750D01*
X48250Y316160D02*
Y319160D01*
X9682Y301728D02*
X12682D01*
X11182Y300229D02*
Y303228D01*
X276756Y242447D02*
X279756D01*
X278256Y240947D02*
Y243947D01*
X651500Y131000D02*
X654500D01*
X653000Y129500D02*
Y132500D01*
X106500Y275000D02*
X109500D01*
X108000Y273500D02*
Y276500D01*
X109500Y262000D02*
X112500D01*
X111000Y260500D02*
Y263500D01*
X117500Y262000D02*
X120500D01*
X119000Y260500D02*
Y263500D01*
X77543Y333816D02*
X80543D01*
X79043Y332316D02*
Y335316D01*
X93307Y294322D02*
X96307D01*
X94807Y292822D02*
Y295822D01*
X101586Y319320D02*
X104586D01*
X103085Y317820D02*
Y320820D01*
X73130Y362667D02*
X76130D01*
X74630Y361167D02*
Y364167D01*
X102131Y417778D02*
X105131D01*
X103631Y416278D02*
Y419278D01*
X35500Y352000D02*
X38500D01*
X37000Y350500D02*
Y353500D01*
X69851Y271640D02*
X72851D01*
X71351Y270140D02*
Y273140D01*
X557500Y460000D02*
X560500D01*
X559000Y458500D02*
Y461500D01*
X564500Y457000D02*
X567500D01*
X566000Y455500D02*
Y458500D01*
X621500Y259000D02*
X624500D01*
X623000Y257500D02*
Y260500D01*
X573585Y301860D02*
X576585D01*
X575085Y300360D02*
Y303360D01*
X578695Y296666D02*
X581696D01*
X580196Y295166D02*
Y298166D01*
X589083Y297388D02*
X592083D01*
X590583Y295889D02*
Y298888D01*
X643604Y241589D02*
X646604D01*
X645104Y240089D02*
Y243089D01*
X613000Y150162D02*
X616000D01*
X614500Y148661D02*
Y151662D01*
X613151Y142502D02*
X616151D01*
X614651Y141002D02*
Y144002D01*
X613000Y165161D02*
X616000D01*
X614500Y163661D02*
Y166661D01*
X613000Y179161D02*
X616000D01*
X614500Y177661D02*
Y180662D01*
X613000Y193162D02*
X616000D01*
X614500Y191661D02*
Y194662D01*
X612958Y216063D02*
X615958D01*
X614458Y214563D02*
Y217563D01*
X585500Y109000D02*
X588500D01*
X587000Y107500D02*
Y110500D01*
X551925Y101202D02*
X554925D01*
X553425Y99702D02*
Y102702D01*
X139215Y342901D02*
X142215D01*
X140715Y341401D02*
Y344402D01*
X442489Y248805D02*
X445489D01*
X443989Y247305D02*
Y250305D01*
X644500Y335000D02*
X647500D01*
X646000Y333500D02*
Y336500D01*
X63060Y403535D02*
X66060D01*
X64560Y402035D02*
Y405035D01*
X390779Y261156D02*
X393779D01*
X392279Y259656D02*
Y262656D01*
X604874Y288300D02*
X607874D01*
X606374Y286800D02*
Y289799D01*
X287092Y376669D02*
X290091D01*
X288591Y375169D02*
Y378169D01*
X201616Y353979D02*
X204615D01*
X203116Y352479D02*
Y355479D01*
X613500Y329000D02*
X616500D01*
X615000Y327500D02*
Y330500D01*
X615914Y383878D02*
X618914D01*
X617414Y382378D02*
Y385378D01*
X596500Y392000D02*
X599500D01*
X598000Y390500D02*
Y393500D01*
X596500Y400000D02*
X599500D01*
X598000Y398500D02*
Y401500D01*
X605521Y400357D02*
X608521D01*
X607021Y398857D02*
Y401857D01*
X408100Y357400D02*
X411100D01*
X409600Y355900D02*
Y358900D01*
X408100Y383400D02*
X411100D01*
X409600Y381900D02*
Y384900D01*
X489100Y57400D02*
X492100D01*
X490600Y55900D02*
Y58900D01*
X392100Y18400D02*
X395100D01*
X393600Y16900D02*
Y19900D01*
X328100Y40400D02*
X331100D01*
X329600Y38900D02*
Y41900D01*
X278100Y40400D02*
X281100D01*
X279600Y38900D02*
Y41900D01*
X211500Y248000D02*
X214500D01*
X213000Y246500D02*
Y249500D01*
X659100Y200400D02*
X662100D01*
X660600Y198900D02*
Y201900D01*
X214883Y271658D02*
X217883D01*
X216383Y270158D02*
Y273158D01*
X273250Y279371D02*
X276250D01*
X274750Y277871D02*
Y280871D01*
X266230Y272350D02*
X269230D01*
X267730Y270850D02*
Y273850D01*
X222389Y219389D02*
X225389D01*
X223889Y217889D02*
Y220889D01*
X138960Y261760D02*
X141960D01*
X140460Y260260D02*
Y263260D01*
X186960Y271760D02*
X189960D01*
X188460Y270260D02*
Y273260D01*
X453960Y348760D02*
X456960D01*
X455460Y347260D02*
Y350260D01*
X139435Y358144D02*
X142435D01*
X140935Y356644D02*
Y359644D01*
X407960Y366625D02*
X410960D01*
X409460Y365125D02*
Y368125D01*
X407960Y373895D02*
X410960D01*
X409460Y372395D02*
Y375395D01*
X449699Y316445D02*
X452699D01*
X451199Y314945D02*
Y317945D01*
X456686Y361097D02*
X459686D01*
X458186Y359597D02*
Y362597D01*
X143586Y462096D02*
X146586D01*
X145086Y460596D02*
Y463596D01*
X107090Y364620D02*
X110090D01*
X108590Y363120D02*
Y366120D01*
X166080Y449580D02*
X169080D01*
X167580Y448080D02*
Y451080D01*
X431780Y414280D02*
X434780D01*
X433280Y412780D02*
Y415780D01*
X573506Y363140D02*
X576506D01*
X575006Y361640D02*
Y364640D01*
X522704Y325469D02*
X525704D01*
X524204Y323969D02*
Y326969D01*
X526782Y311335D02*
X529782D01*
X528282Y309835D02*
Y312835D01*
X526736Y318610D02*
X529736D01*
X528236Y317110D02*
Y320110D01*
X181500Y355000D02*
X184500D01*
X183000Y353500D02*
Y356500D01*
X188943Y354003D02*
X191943D01*
X190443Y352503D02*
Y355503D01*
X566786Y166055D02*
X569785D01*
X568285Y164555D02*
Y167555D01*
X556632Y113008D02*
X559632D01*
X558133Y111508D02*
Y114508D01*
X485601Y164100D02*
X488600D01*
X487100Y162600D02*
Y165600D01*
X585792Y238698D02*
X588792D01*
X587292Y237198D02*
Y240198D01*
X587500Y231000D02*
X590500D01*
X589000Y229500D02*
Y232500D01*
X504500Y230095D02*
X507500D01*
X506000Y228594D02*
Y231595D01*
X546967Y186533D02*
X549967D01*
X548467Y185033D02*
Y188033D01*
X539517Y198046D02*
X542517D01*
X541017Y196546D02*
Y199546D01*
X539302Y258816D02*
X542302D01*
X540802Y257316D02*
Y260316D01*
X421067Y143973D02*
X424067D01*
X422567Y142473D02*
Y145473D01*
X358528Y164298D02*
X361528D01*
X360028Y162798D02*
Y165798D01*
X462174Y271308D02*
X465174D01*
X463674Y269808D02*
Y272808D01*
X399967Y270008D02*
X402967D01*
X401467Y268508D02*
Y271508D01*
X358500Y270000D02*
X361500D01*
X360000Y268500D02*
Y271500D01*
X506666Y205642D02*
X509666D01*
X508166Y204142D02*
Y207142D01*
X399717Y144828D02*
X402717D01*
X401217Y143328D02*
Y146328D01*
X568831Y248263D02*
X571831D01*
X570331Y246763D02*
Y249762D01*
X636750Y317680D02*
X639750D01*
X638250Y316180D02*
Y319180D01*
X628750Y317680D02*
X631750D01*
X630250Y316180D02*
Y319180D01*
X460500Y468000D02*
X463500D01*
X462000Y466500D02*
Y469500D01*
X159595Y353986D02*
X162596D01*
X161096Y352486D02*
Y355486D01*
X662410Y218020D02*
X665410D01*
X663910Y216520D02*
Y219520D01*
X664538Y153608D02*
X667538D01*
X666038Y152108D02*
Y155108D01*
X556647Y199020D02*
X559647D01*
X558147Y197520D02*
Y200520D01*
X585161Y139058D02*
X588161D01*
X586661Y137558D02*
Y140558D01*
X557500Y134000D02*
X560500D01*
X559000Y132500D02*
Y135500D01*
X543591Y146909D02*
X546591D01*
X545091Y145409D02*
Y148409D01*
X495500Y132516D02*
X498500D01*
X497000Y131016D02*
Y134016D01*
X482818Y124410D02*
X485818D01*
X484318Y122910D02*
Y125910D01*
X494405Y177349D02*
X497405D01*
X495905Y175849D02*
Y178849D01*
X501500Y190000D02*
X504500D01*
X503000Y188500D02*
Y191500D01*
X515693Y154648D02*
X518693D01*
X517193Y153148D02*
Y156148D01*
X556500Y156348D02*
X559500D01*
X558000Y154847D02*
Y157847D01*
X474611Y297709D02*
X477611D01*
X476111Y296209D02*
Y299209D01*
X493645Y349845D02*
X496645D01*
X495145Y348345D02*
Y351345D01*
X440500Y278000D02*
X443500D01*
X442000Y276500D02*
Y279500D01*
X474099Y217648D02*
X477099D01*
X475599Y216148D02*
Y219148D01*
X474611Y197892D02*
X477611D01*
X476111Y196392D02*
Y199392D01*
X515500Y198347D02*
X518500D01*
X517000Y196847D02*
Y199848D01*
X454824Y155569D02*
X457823D01*
X456324Y154069D02*
Y157069D01*
X442500Y208000D02*
X445500D01*
X444000Y206500D02*
Y209500D01*
X422028Y188000D02*
X425028D01*
X423527Y186500D02*
Y189500D01*
X410500Y111000D02*
X413500D01*
X412000Y109500D02*
Y112500D01*
X431653Y175000D02*
X434653D01*
X433153Y173500D02*
Y176500D01*
X368904Y197160D02*
X371904D01*
X370404Y195660D02*
Y198660D01*
X346852Y112648D02*
X349852D01*
X348352Y111148D02*
Y114148D01*
X358500Y187000D02*
X361500D01*
X360000Y185500D02*
Y188500D01*
X452500Y240000D02*
X455500D01*
X454000Y238500D02*
Y241500D01*
X443138Y229125D02*
X446138D01*
X444638Y227625D02*
Y230625D01*
X430453Y156567D02*
X433453D01*
X431953Y155067D02*
Y158067D01*
X401500Y186962D02*
X404500D01*
X403000Y185462D02*
Y188462D01*
X392053Y173876D02*
X395053D01*
X393553Y172376D02*
Y175376D01*
X377834Y145985D02*
X380834D01*
X379334Y144485D02*
Y147485D01*
X377984Y273336D02*
X380984D01*
X379484Y271836D02*
Y274836D01*
X74103Y134707D02*
X77103D01*
X75603Y133208D02*
Y136207D01*
X475389Y135388D02*
X478389D01*
X476889Y133888D02*
Y136888D01*
X500023Y149523D02*
X503023D01*
X501523Y148023D02*
Y151023D01*
X368679Y155178D02*
X371679D01*
X370178Y153679D02*
Y156678D01*
X538804Y327791D02*
X541804D01*
X540304Y326291D02*
Y329291D01*
X544394Y333580D02*
X547394D01*
X545894Y332080D02*
Y335080D01*
X533813Y333381D02*
X536813D01*
X535313Y331881D02*
Y334881D01*
X586919Y308758D02*
X589919D01*
X588419Y307258D02*
Y310258D01*
X592892Y303645D02*
X595892D01*
X594392Y302145D02*
Y305145D01*
X617427Y291321D02*
X620427D01*
X618927Y289821D02*
Y292821D01*
X169300Y478433D02*
X172300D01*
X170800Y476933D02*
Y479933D01*
X457228Y336000D02*
X460228D01*
X458728Y334500D02*
Y337500D01*
X513498Y428997D02*
X516497D01*
X514997Y427497D02*
Y430498D01*
X447500Y468000D02*
X450500D01*
X449000Y466500D02*
Y469500D01*
X454500Y476000D02*
X457500D01*
X456000Y474500D02*
Y477500D01*
X573500Y455000D02*
X576500D01*
X575000Y453500D02*
Y456500D01*
X575508Y426772D02*
X578508D01*
X577008Y425272D02*
Y428272D01*
X544500Y486000D02*
X547500D01*
X546000Y484500D02*
Y487500D01*
X519500Y486000D02*
X522500D01*
X521000Y484500D02*
Y487500D01*
X482000Y352161D02*
X485000D01*
X483500Y350662D02*
Y353661D01*
X481809Y344066D02*
X484809D01*
X483309Y342566D02*
Y345566D01*
X613000Y204161D02*
X616000D01*
X614500Y202661D02*
Y205662D01*
X670500Y321000D02*
X673500D01*
X672000Y319500D02*
Y322500D01*
X670500Y329000D02*
X673500D01*
X672000Y327500D02*
Y330500D01*
X589965Y315511D02*
X592965D01*
X591465Y314011D02*
Y317011D01*
X676500Y239000D02*
X679500D01*
X678000Y237500D02*
Y240500D01*
X238500Y194000D02*
X241500D01*
X240000Y192500D02*
Y195500D01*
X284895Y264663D02*
X287895D01*
X286395Y263163D02*
Y266163D01*
X158020Y319000D02*
X161020D01*
X159520Y317500D02*
Y320500D01*
X238868Y219032D02*
X241868D01*
X240368Y217532D02*
Y220532D01*
X279750Y221000D02*
X282750D01*
X281250Y219500D02*
Y222500D01*
X285490Y207000D02*
X288490D01*
X286990Y205500D02*
Y208500D01*
X324000Y271465D02*
X327000D01*
X325500Y269965D02*
Y272965D01*
X324000Y251965D02*
X327000D01*
X325500Y250465D02*
Y253465D01*
X324150Y232482D02*
X327150D01*
X325650Y230982D02*
Y233982D01*
X261750Y221000D02*
X264750D01*
X263250Y219500D02*
Y222500D01*
X271750Y221000D02*
X274750D01*
X273250Y219500D02*
Y222500D01*
X253750Y221000D02*
X256750D01*
X255250Y219500D02*
Y222500D01*
X245820Y237940D02*
X248820D01*
X247320Y236440D02*
Y239440D01*
X324150Y212982D02*
X327150D01*
X325650Y211482D02*
Y214482D01*
X423650Y298760D02*
X426650D01*
X425150Y297260D02*
Y300260D01*
X74607Y396309D02*
X77607D01*
X76107Y394809D02*
Y397809D01*
X69603Y381289D02*
X72603D01*
X71103Y379789D02*
Y382789D01*
X71833Y388209D02*
X74833D01*
X73333Y386709D02*
Y389709D01*
X484750Y365030D02*
X487750D01*
X486250Y363530D02*
Y366530D01*
X262891Y402171D02*
X265891D01*
X264391Y400671D02*
Y403671D01*
X257750Y397030D02*
X260750D01*
X259250Y395530D02*
Y398530D01*
X457242Y387031D02*
X460242D01*
X458742Y385531D02*
Y388531D01*
X647750Y317680D02*
X650750D01*
X649250Y316180D02*
Y319180D01*
X615341Y367951D02*
X618341D01*
X616841Y366451D02*
Y369451D01*
X602480Y426280D02*
X605480D01*
X603980Y424780D02*
Y427780D01*
X459740Y297390D02*
X462741D01*
X461241Y295890D02*
Y298890D01*
X95275Y396287D02*
X98275D01*
X96775Y394787D02*
Y397787D01*
X620960Y499760D02*
X623960D01*
X622460Y498260D02*
Y501260D01*
X185439Y377242D02*
X188439D01*
X186939Y375742D02*
Y378742D01*
X59500Y134500D02*
X62500D01*
X61000Y133000D02*
Y136000D01*
X70000Y257500D02*
X73000D01*
X71500Y256000D02*
Y259000D01*
X70000Y223500D02*
X73000D01*
X71500Y222000D02*
Y225000D01*
X70000Y240500D02*
X73000D01*
X71500Y239000D02*
Y242000D01*
X70000Y189500D02*
X73000D01*
X71500Y188000D02*
Y191000D01*
X70000Y206500D02*
X73000D01*
X71500Y205000D02*
Y208000D01*
X70000Y172500D02*
X73000D01*
X71500Y171000D02*
Y174000D01*
X70000Y155500D02*
X73000D01*
X71500Y154000D02*
Y157000D01*
X121250Y223250D02*
X124250D01*
X122750Y221750D02*
Y224750D01*
X121250Y206750D02*
X124250D01*
X122750Y205250D02*
Y208250D01*
X137750Y206750D02*
X140750D01*
X139250Y205250D02*
Y208250D01*
X137750Y223250D02*
X140750D01*
X139250Y221750D02*
Y224750D01*
X671055Y136000D02*
X674055D01*
X672555Y134500D02*
Y137500D01*
X648500Y482000D02*
X651500D01*
X650000Y480500D02*
Y483500D01*
X246500Y469000D02*
X249500D01*
X248000Y467500D02*
Y470500D01*
X56998Y438530D02*
X59998D01*
X58498Y437030D02*
Y440030D01*
X8498Y454030D02*
X11498D01*
X9998Y452530D02*
Y455530D01*
M02*
