G04*
G04 #@! TF.GenerationSoftware,Altium Limited,Altium Designer,23.8.1 (32)*
G04*
G04 Layer_Color=65280*
%FSLAX44Y44*%
%MOMM*%
G71*
G04*
G04 #@! TF.SameCoordinates,6629C207-265C-49F2-9D33-E76E02802E5F*
G04*
G04*
G04 #@! TF.FilePolarity,Positive*
G04*
G01*
G75*
%ADD117C,0.2000*%
%ADD146C,0.0500*%
D117*
X116840Y369661D02*
Y361330D01*
X118506Y359664D01*
X121839D01*
X123505Y361330D01*
Y369661D01*
X133502D02*
X130169Y367995D01*
X126837Y364663D01*
Y361330D01*
X128503Y359664D01*
X131835D01*
X133502Y361330D01*
Y362996D01*
X131835Y364663D01*
X126837D01*
X45466Y487172D02*
Y502167D01*
X52964D01*
X55463Y499668D01*
Y494670D01*
X52964Y492171D01*
X45466D01*
X60461Y502167D02*
Y487172D01*
X67959D01*
X70458Y489671D01*
Y492171D01*
X67959Y494670D01*
X60461D01*
X67959D01*
X70458Y497169D01*
Y499668D01*
X67959Y502167D01*
X60461D01*
X75457Y487172D02*
X80455D01*
X77956D01*
Y502167D01*
X75457Y499668D01*
X664588Y196310D02*
Y204307D01*
X662588Y206306D01*
X658590D01*
X656590Y204307D01*
Y196310D01*
X658590Y194310D01*
X662588D01*
X660589Y198309D02*
X664588Y194310D01*
X662588D02*
X664588Y196310D01*
X676584Y194310D02*
X668586D01*
X676584Y202308D01*
Y204307D01*
X674584Y206306D01*
X670586D01*
X668586Y204307D01*
X250698Y109483D02*
Y96987D01*
X253197Y94488D01*
X258196D01*
X260695Y96987D01*
Y109483D01*
X275690D02*
X265693D01*
Y101986D01*
X270692Y104485D01*
X273191D01*
X275690Y101986D01*
Y96987D01*
X273191Y94488D01*
X268193D01*
X265693Y96987D01*
X146050Y88958D02*
Y76962D01*
X152048D01*
X154048Y78962D01*
Y86959D01*
X152048Y88958D01*
X146050D01*
X158046Y76962D02*
X162045D01*
X160046D01*
Y88958D01*
X158046Y86959D01*
X652109Y150885D02*
X647111D01*
X649610D01*
Y138389D01*
X647111Y135890D01*
X644611D01*
X642112Y138389D01*
X667104Y135890D02*
X657107D01*
X667104Y145887D01*
Y148386D01*
X664605Y150885D01*
X659607D01*
X657107Y148386D01*
X255778Y228609D02*
Y216113D01*
X258277Y213614D01*
X263276D01*
X265775Y216113D01*
Y228609D01*
X270773Y226110D02*
X273273Y228609D01*
X278271D01*
X280770Y226110D01*
Y223611D01*
X278271Y221112D01*
X275772D01*
X278271D01*
X280770Y218613D01*
Y216113D01*
X278271Y213614D01*
X273273D01*
X270773Y216113D01*
X53431Y83575D02*
X48433D01*
X50932D01*
Y71079D01*
X48433Y68580D01*
X45933D01*
X43434Y71079D01*
X68426Y83575D02*
X58429D01*
Y76078D01*
X63428Y78577D01*
X65927D01*
X68426Y76078D01*
Y71079D01*
X65927Y68580D01*
X60929D01*
X58429Y71079D01*
X284988Y178366D02*
Y166370D01*
X292986D01*
X296984Y176367D02*
X298984Y178366D01*
X302982D01*
X304982Y176367D01*
Y174368D01*
X302982Y172368D01*
X300983D01*
X302982D01*
X304982Y170369D01*
Y168370D01*
X302982Y166370D01*
X298984D01*
X296984Y168370D01*
X176963Y337760D02*
Y327763D01*
X178962Y325764D01*
X182961D01*
X184960Y327763D01*
Y337760D01*
X194957Y325764D02*
Y337760D01*
X188959Y331762D01*
X196957D01*
X96012Y207518D02*
Y222513D01*
X101011Y217515D01*
X106009Y222513D01*
Y207518D01*
X111007D02*
X116006D01*
X113507D01*
Y222513D01*
X111007Y220014D01*
X28285Y386089D02*
X23287D01*
X25786D01*
Y373593D01*
X23287Y371094D01*
X20787D01*
X18288Y373593D01*
X33283Y371094D02*
X38282D01*
X35783D01*
Y386089D01*
X33283Y383590D01*
X517398Y366023D02*
Y353527D01*
X519897Y351028D01*
X524896D01*
X527395Y353527D01*
Y366023D01*
X532393Y351028D02*
X537392D01*
X534893D01*
Y366023D01*
X532393Y363524D01*
X186019Y427237D02*
X181021D01*
X183520D01*
Y414741D01*
X181021Y412242D01*
X178521D01*
X176022Y414741D01*
X201014Y427237D02*
X196016Y424738D01*
X191017Y419740D01*
Y414741D01*
X193517Y412242D01*
X198515D01*
X201014Y414741D01*
Y417241D01*
X198515Y419740D01*
X191017D01*
X189100Y31300D02*
X185101D01*
X187100D01*
Y21304D01*
X185101Y19304D01*
X183102D01*
X181102Y21304D01*
X199096Y31300D02*
X195098D01*
X193098Y29301D01*
Y21304D01*
X195098Y19304D01*
X199096D01*
X201096Y21304D01*
Y29301D01*
X199096Y31300D01*
X213092D02*
X205095D01*
Y25302D01*
X209093D01*
X205095D01*
Y19304D01*
X225088Y31300D02*
X217091D01*
Y25302D01*
X221089D01*
X217091D01*
Y19304D01*
X345012Y516538D02*
X341013D01*
X343012D01*
Y506541D01*
X341013Y504542D01*
X339014D01*
X337014Y506541D01*
X349011Y516538D02*
Y504542D01*
X355009D01*
X357008Y506541D01*
Y514539D01*
X355009Y516538D01*
X349011D01*
X361007D02*
X365005D01*
X363006D01*
Y504542D01*
X361007D01*
X365005D01*
X379001Y514539D02*
X377001Y516538D01*
X373003D01*
X371003Y514539D01*
Y506541D01*
X373003Y504542D01*
X377001D01*
X379001Y506541D01*
Y510540D01*
X375002D01*
X382999Y516538D02*
X386998D01*
X384999D01*
Y504542D01*
X382999D01*
X386998D01*
X392996Y516538D02*
X400994D01*
X396995D01*
Y504542D01*
X404992D02*
Y512539D01*
X408991Y516538D01*
X412990Y512539D01*
Y504542D01*
Y510540D01*
X404992D01*
X416988Y516538D02*
Y504542D01*
X424986D01*
X404891Y30128D02*
X400892D01*
X402891D01*
Y20131D01*
X400892Y18132D01*
X398892D01*
X396893Y20131D01*
X408889Y18132D02*
Y26130D01*
X412888Y30128D01*
X416887Y26130D01*
Y18132D01*
Y24130D01*
X408889D01*
X420885Y18132D02*
Y30128D01*
X428883Y18132D01*
Y30128D01*
X432881Y18132D02*
Y26130D01*
X436880Y30128D01*
X440879Y26130D01*
Y18132D01*
Y24130D01*
X432881D01*
X444878Y30128D02*
Y18132D01*
X452875D01*
X462872Y30128D02*
X458873D01*
X456874Y28129D01*
Y20131D01*
X458873Y18132D01*
X462872D01*
X464871Y20131D01*
Y28129D01*
X462872Y30128D01*
X476867Y28129D02*
X474868Y30128D01*
X470869D01*
X468870Y28129D01*
Y20131D01*
X470869Y18132D01*
X474868D01*
X476867Y20131D01*
Y24130D01*
X472868D01*
X91277Y333511D02*
X81280D01*
Y326014D01*
X86279D01*
X81280D01*
Y318516D01*
X96275D02*
X101274D01*
X98775D01*
Y333511D01*
X96275Y331012D01*
X646521Y287283D02*
X641523D01*
X644022D01*
Y274787D01*
X641523Y272288D01*
X639023D01*
X636524Y274787D01*
X651519Y284784D02*
X654019Y287283D01*
X659017D01*
X661516Y284784D01*
Y282285D01*
X659017Y279786D01*
X656518D01*
X659017D01*
X661516Y277287D01*
Y274787D01*
X659017Y272288D01*
X654019D01*
X651519Y274787D01*
X254000Y310700D02*
Y298704D01*
X259998D01*
X261998Y300704D01*
Y308701D01*
X259998Y310700D01*
X254000D01*
X273994Y298704D02*
X265996D01*
X273994Y306702D01*
Y308701D01*
X271994Y310700D01*
X267996D01*
X265996Y308701D01*
X632584Y196310D02*
Y204307D01*
X630584Y206306D01*
X626586D01*
X624586Y204307D01*
Y196310D01*
X626586Y194310D01*
X630584D01*
X628585Y198309D02*
X632584Y194310D01*
X630584D02*
X632584Y196310D01*
X636582Y194310D02*
X640581D01*
X638582D01*
Y206306D01*
X636582Y204307D01*
X116840Y397601D02*
Y389270D01*
X118506Y387604D01*
X121839D01*
X123505Y389270D01*
Y397601D01*
X133502Y387604D02*
X126837D01*
X133502Y394269D01*
Y395935D01*
X131835Y397601D01*
X128503D01*
X126837Y395935D01*
D146*
X258572Y440944D02*
Y444943D01*
X260572D01*
X261238Y444277D01*
Y442944D01*
X260572Y442277D01*
X258572D01*
X259905D02*
X261238Y440944D01*
X265237Y444943D02*
X263904Y444277D01*
X262571Y442944D01*
Y441611D01*
X263237Y440944D01*
X264570D01*
X265237Y441611D01*
Y442277D01*
X264570Y442944D01*
X262571D01*
X266570Y444277D02*
X267236Y444943D01*
X268569D01*
X269235Y444277D01*
Y441611D01*
X268569Y440944D01*
X267236D01*
X266570Y441611D01*
Y444277D01*
X571754Y116999D02*
X572421Y116332D01*
X573754D01*
X574420Y116999D01*
Y119664D01*
X573754Y120331D01*
X572421D01*
X571754Y119664D01*
Y118998D01*
X572421Y118332D01*
X574420D01*
X578419Y120331D02*
X577086Y119664D01*
X575753Y118332D01*
Y116999D01*
X576419Y116332D01*
X577752D01*
X578419Y116999D01*
Y117665D01*
X577752Y118332D01*
X575753D01*
X591820Y416241D02*
Y412242D01*
X594486D01*
X598485D02*
X595819D01*
X598485Y414908D01*
Y415574D01*
X597818Y416241D01*
X596485D01*
X595819Y415574D01*
X307466Y124999D02*
X306800Y125665D01*
X305467D01*
X304800Y124999D01*
Y122333D01*
X305467Y121666D01*
X306800D01*
X307466Y122333D01*
X311465Y121666D02*
X308799D01*
X311465Y124332D01*
Y124999D01*
X310798Y125665D01*
X309465D01*
X308799Y124999D01*
X312798D02*
X313464Y125665D01*
X314797D01*
X315464Y124999D01*
Y124332D01*
X314797Y123666D01*
X315464Y122999D01*
Y122333D01*
X314797Y121666D01*
X313464D01*
X312798Y122333D01*
Y122999D01*
X313464Y123666D01*
X312798Y124332D01*
Y124999D01*
X313464Y123666D02*
X314797D01*
X441832Y300005D02*
X441166Y300671D01*
X439833D01*
X439166Y300005D01*
Y297339D01*
X439833Y296672D01*
X441166D01*
X441832Y297339D01*
X445831Y300671D02*
X443165D01*
Y298672D01*
X444498Y299338D01*
X445164D01*
X445831Y298672D01*
Y297339D01*
X445164Y296672D01*
X443831D01*
X443165Y297339D01*
X122554Y414050D02*
X121888Y414717D01*
X120555D01*
X119888Y414050D01*
Y411385D01*
X120555Y410718D01*
X121888D01*
X122554Y411385D01*
X123887Y414050D02*
X124553Y414717D01*
X125886D01*
X126553Y414050D01*
Y413384D01*
X125886Y412718D01*
X125220D01*
X125886D01*
X126553Y412051D01*
Y411385D01*
X125886Y410718D01*
X124553D01*
X123887Y411385D01*
X127886Y414050D02*
X128552Y414717D01*
X129885D01*
X130552Y414050D01*
Y411385D01*
X129885Y410718D01*
X128552D01*
X127886Y411385D01*
Y414050D01*
X40132Y436626D02*
Y440625D01*
X42132D01*
X42798Y439958D01*
Y438626D01*
X42132Y437959D01*
X40132D01*
X41465D02*
X42798Y436626D01*
X44131Y439958D02*
X44797Y440625D01*
X46130D01*
X46797Y439958D01*
Y439292D01*
X46130Y438626D01*
X45464D01*
X46130D01*
X46797Y437959D01*
Y437293D01*
X46130Y436626D01*
X44797D01*
X44131Y437293D01*
X48130D02*
X48796Y436626D01*
X50129D01*
X50795Y437293D01*
Y439958D01*
X50129Y440625D01*
X48796D01*
X48130Y439958D01*
Y439292D01*
X48796Y438626D01*
X50795D01*
X123570Y473741D02*
X122904Y474407D01*
X121571D01*
X120904Y473741D01*
Y471075D01*
X121571Y470408D01*
X122904D01*
X123570Y471075D01*
X124903Y470408D02*
X126236D01*
X125569D01*
Y474407D01*
X124903Y473741D01*
X461898Y427513D02*
X461232Y428179D01*
X459899D01*
X459232Y427513D01*
Y424847D01*
X459899Y424180D01*
X461232D01*
X461898Y424847D01*
X463231Y428179D02*
X465897D01*
Y427513D01*
X463231Y424847D01*
Y424180D01*
X132249Y309850D02*
X128251D01*
Y311850D01*
X128917Y312516D01*
X130250D01*
X130917Y311850D01*
Y309850D01*
Y311183D02*
X132249Y312516D01*
Y313849D02*
Y315182D01*
Y314516D01*
X128251D01*
X128917Y313849D01*
X128251Y317181D02*
Y319847D01*
X128917D01*
X131583Y317181D01*
X132249D01*
X258826Y423607D02*
Y419608D01*
X260826D01*
X261492Y420275D01*
Y422940D01*
X260826Y423607D01*
X258826D01*
X262825D02*
Y419608D01*
X265491D01*
X268823D02*
Y423607D01*
X266824Y421608D01*
X269489D01*
X259588Y367727D02*
Y363728D01*
X261588D01*
X262254Y364395D01*
Y367061D01*
X261588Y367727D01*
X259588D01*
X263587D02*
Y363728D01*
X266253D01*
X267586D02*
X268918D01*
X268252D01*
Y367727D01*
X267586Y367061D01*
X258826Y344867D02*
Y340868D01*
X260826D01*
X261492Y341535D01*
Y344201D01*
X260826Y344867D01*
X258826D01*
X262825D02*
Y340868D01*
X265491D01*
X269489D02*
X266824D01*
X269489Y343534D01*
Y344201D01*
X268823Y344867D01*
X267490D01*
X266824Y344201D01*
X258826Y375158D02*
Y379157D01*
X260826D01*
X261492Y378490D01*
Y377158D01*
X260826Y376491D01*
X258826D01*
X260159D02*
X261492Y375158D01*
X265491D02*
X262825D01*
X265491Y377824D01*
Y378490D01*
X264824Y379157D01*
X263491D01*
X262825Y378490D01*
X269489Y375158D02*
X266824D01*
X269489Y377824D01*
Y378490D01*
X268823Y379157D01*
X267490D01*
X266824Y378490D01*
X16382Y442752D02*
X15716Y443419D01*
X14383D01*
X13716Y442752D01*
Y440087D01*
X14383Y439420D01*
X15716D01*
X16382Y440087D01*
X20381Y439420D02*
X17715D01*
X20381Y442086D01*
Y442752D01*
X19714Y443419D01*
X18381D01*
X17715Y442752D01*
X21714Y439420D02*
X23047D01*
X22380D01*
Y443419D01*
X21714Y442752D01*
X643636Y397445D02*
Y393446D01*
X645636D01*
X646302Y394113D01*
Y396778D01*
X645636Y397445D01*
X643636D01*
X647635D02*
Y393446D01*
X650301D01*
X651634Y396778D02*
X652300Y397445D01*
X653633D01*
X654299Y396778D01*
Y396112D01*
X653633Y395446D01*
X652967D01*
X653633D01*
X654299Y394779D01*
Y394113D01*
X653633Y393446D01*
X652300D01*
X651634Y394113D01*
X258826Y431038D02*
Y435037D01*
X260826D01*
X261492Y434370D01*
Y433038D01*
X260826Y432371D01*
X258826D01*
X260159D02*
X261492Y431038D01*
X265491D02*
X262825D01*
X265491Y433704D01*
Y434370D01*
X264824Y435037D01*
X263491D01*
X262825Y434370D01*
X269489Y435037D02*
X266824D01*
Y433038D01*
X268157Y433704D01*
X268823D01*
X269489Y433038D01*
Y431705D01*
X268823Y431038D01*
X267490D01*
X266824Y431705D01*
X217932Y327406D02*
X213934D01*
Y329406D01*
X214600Y330072D01*
X215933D01*
X216599Y329406D01*
Y327406D01*
Y328739D02*
X217932Y330072D01*
Y333404D02*
X213934D01*
X215933Y331405D01*
Y334071D01*
X217266Y335404D02*
X217932Y336070D01*
Y337403D01*
X217266Y338069D01*
X214600D01*
X213934Y337403D01*
Y336070D01*
X214600Y335404D01*
X215266D01*
X215933Y336070D01*
Y338069D01*
X441452Y321818D02*
Y325817D01*
X443452D01*
X444118Y325150D01*
Y323818D01*
X443452Y323151D01*
X441452D01*
X442785D02*
X444118Y321818D01*
X445451D02*
X446784D01*
X446117D01*
Y325817D01*
X445451Y325150D01*
X448783Y322485D02*
X449450Y321818D01*
X450783D01*
X451449Y322485D01*
Y325150D01*
X450783Y325817D01*
X449450D01*
X448783Y325150D01*
Y324484D01*
X449450Y323818D01*
X451449D01*
X638556Y417322D02*
Y421321D01*
X640556D01*
X641222Y420654D01*
Y419322D01*
X640556Y418655D01*
X638556D01*
X639889D02*
X641222Y417322D01*
X645221D02*
X642555D01*
X645221Y419988D01*
Y420654D01*
X644554Y421321D01*
X643221D01*
X642555Y420654D01*
X648553Y417322D02*
Y421321D01*
X646554Y419322D01*
X649220D01*
X121250Y308662D02*
X117251D01*
Y310661D01*
X117917Y311328D01*
X119250D01*
X119917Y310661D01*
Y308662D01*
Y309995D02*
X121250Y311328D01*
Y312661D02*
Y313993D01*
Y313327D01*
X117251D01*
X117917Y312661D01*
Y315993D02*
X117251Y316659D01*
Y317992D01*
X117917Y318659D01*
X118584D01*
X119250Y317992D01*
X119917Y318659D01*
X120583D01*
X121250Y317992D01*
Y316659D01*
X120583Y315993D01*
X119917D01*
X119250Y316659D01*
X118584Y315993D01*
X117917D01*
X119250Y316659D02*
Y317992D01*
X441452Y332740D02*
Y336739D01*
X443452D01*
X444118Y336073D01*
Y334740D01*
X443452Y334073D01*
X441452D01*
X442785D02*
X444118Y332740D01*
X445451D02*
X446784D01*
X446117D01*
Y336739D01*
X445451Y336073D01*
X451449Y336739D02*
X448783D01*
Y334740D01*
X450116Y335406D01*
X450783D01*
X451449Y334740D01*
Y333407D01*
X450783Y332740D01*
X449450D01*
X448783Y333407D01*
X85852Y402590D02*
Y406589D01*
X87852D01*
X88518Y405923D01*
Y404590D01*
X87852Y403923D01*
X85852D01*
X87185D02*
X88518Y402590D01*
X92517Y406589D02*
X89851D01*
Y404590D01*
X91184Y405256D01*
X91850D01*
X92517Y404590D01*
Y403257D01*
X91850Y402590D01*
X90517D01*
X89851Y403257D01*
X93850Y405923D02*
X94516Y406589D01*
X95849D01*
X96516Y405923D01*
Y403257D01*
X95849Y402590D01*
X94516D01*
X93850Y403257D01*
Y405923D01*
X86614Y414528D02*
Y418527D01*
X88614D01*
X89280Y417860D01*
Y416528D01*
X88614Y415861D01*
X86614D01*
X87947D02*
X89280Y414528D01*
X93279Y418527D02*
X90613D01*
Y416528D01*
X91946Y417194D01*
X92612D01*
X93279Y416528D01*
Y415195D01*
X92612Y414528D01*
X91279D01*
X90613Y415195D01*
X94612Y414528D02*
X95944D01*
X95278D01*
Y418527D01*
X94612Y417860D01*
X608710Y360202D02*
X608044Y360869D01*
X606711D01*
X606044Y360202D01*
Y357537D01*
X606711Y356870D01*
X608044D01*
X608710Y357537D01*
X612709Y356870D02*
X610043D01*
X612709Y359536D01*
Y360202D01*
X612042Y360869D01*
X610709D01*
X610043Y360202D01*
X445896Y369092D02*
X445230Y369759D01*
X443897D01*
X443230Y369092D01*
Y366427D01*
X443897Y365760D01*
X445230D01*
X445896Y366427D01*
X447229Y369092D02*
X447895Y369759D01*
X449228D01*
X449895Y369092D01*
Y368426D01*
X449228Y367760D01*
X448562D01*
X449228D01*
X449895Y367093D01*
Y366427D01*
X449228Y365760D01*
X447895D01*
X447229Y366427D01*
X591692Y427513D02*
X591026Y428179D01*
X589693D01*
X589026Y427513D01*
Y424847D01*
X589693Y424180D01*
X591026D01*
X591692Y424847D01*
X595691Y428179D02*
X594358Y427513D01*
X593025Y426180D01*
Y424847D01*
X593691Y424180D01*
X595024D01*
X595691Y424847D01*
Y425513D01*
X595024Y426180D01*
X593025D01*
X445896Y394492D02*
X445230Y395159D01*
X443897D01*
X443230Y394492D01*
Y391827D01*
X443897Y391160D01*
X445230D01*
X445896Y391827D01*
X447229Y394492D02*
X447895Y395159D01*
X449228D01*
X449895Y394492D01*
Y393826D01*
X449228Y393160D01*
X449895Y392493D01*
Y391827D01*
X449228Y391160D01*
X447895D01*
X447229Y391827D01*
Y392493D01*
X447895Y393160D01*
X447229Y393826D01*
Y394492D01*
X447895Y393160D02*
X449228D01*
X442848Y380776D02*
X442182Y381443D01*
X440849D01*
X440182Y380776D01*
Y378111D01*
X440849Y377444D01*
X442182D01*
X442848Y378111D01*
X444181D02*
X444847Y377444D01*
X446180D01*
X446847Y378111D01*
Y380776D01*
X446180Y381443D01*
X444847D01*
X444181Y380776D01*
Y380110D01*
X444847Y379444D01*
X446847D01*
X282926Y250316D02*
X282260Y249650D01*
Y248317D01*
X282926Y247650D01*
X285592D01*
X286258Y248317D01*
Y249650D01*
X285592Y250316D01*
X286258Y254315D02*
Y251649D01*
X283592Y254315D01*
X282926D01*
X282260Y253648D01*
Y252315D01*
X282926Y251649D01*
Y255648D02*
X282260Y256314D01*
Y257647D01*
X282926Y258314D01*
X285592D01*
X286258Y257647D01*
Y256314D01*
X285592Y255648D01*
X282926D01*
X253618Y197388D02*
X252952Y198055D01*
X251619D01*
X250952Y197388D01*
Y194723D01*
X251619Y194056D01*
X252952D01*
X253618Y194723D01*
X254951Y194056D02*
X256284D01*
X255617D01*
Y198055D01*
X254951Y197388D01*
X260949Y194056D02*
X258283D01*
X260949Y196722D01*
Y197388D01*
X260283Y198055D01*
X258950D01*
X258283Y197388D01*
X229742Y173766D02*
X229076Y174433D01*
X227743D01*
X227076Y173766D01*
Y171101D01*
X227743Y170434D01*
X229076D01*
X229742Y171101D01*
X231075Y170434D02*
X232408D01*
X231741D01*
Y174433D01*
X231075Y173766D01*
X234407D02*
X235074Y174433D01*
X236407D01*
X237073Y173766D01*
Y173100D01*
X236407Y172434D01*
X235740D01*
X236407D01*
X237073Y171767D01*
Y171101D01*
X236407Y170434D01*
X235074D01*
X234407Y171101D01*
X304164Y214407D02*
X303498Y215073D01*
X302165D01*
X301498Y214407D01*
Y211741D01*
X302165Y211074D01*
X303498D01*
X304164Y211741D01*
X305497Y211074D02*
X306830D01*
X306163D01*
Y215073D01*
X305497Y214407D01*
X311495Y215073D02*
X308829D01*
Y213074D01*
X310162Y213740D01*
X310829D01*
X311495Y213074D01*
Y211741D01*
X310829Y211074D01*
X309496D01*
X308829Y211741D01*
X272004Y250570D02*
X271338Y249904D01*
Y248571D01*
X272004Y247904D01*
X274670D01*
X275336Y248571D01*
Y249904D01*
X274670Y250570D01*
X275336Y251903D02*
Y253236D01*
Y252569D01*
X271338D01*
X272004Y251903D01*
X275336Y257235D02*
X271338D01*
X273337Y255235D01*
Y257901D01*
X238984Y269620D02*
X238318Y268954D01*
Y267621D01*
X238984Y266954D01*
X241650D01*
X242316Y267621D01*
Y268954D01*
X241650Y269620D01*
X242316Y273619D02*
Y270953D01*
X239650Y273619D01*
X238984D01*
X238318Y272952D01*
Y271619D01*
X238984Y270953D01*
X242316Y277617D02*
Y274952D01*
X239650Y277617D01*
X238984D01*
X238318Y276951D01*
Y275618D01*
X238984Y274952D01*
X227808Y269620D02*
X227142Y268954D01*
Y267621D01*
X227808Y266954D01*
X230474D01*
X231140Y267621D01*
Y268954D01*
X230474Y269620D01*
X231140Y273619D02*
Y270953D01*
X228474Y273619D01*
X227808D01*
X227142Y272952D01*
Y271619D01*
X227808Y270953D01*
Y274952D02*
X227142Y275618D01*
Y276951D01*
X227808Y277617D01*
X228474D01*
X229141Y276951D01*
Y276285D01*
Y276951D01*
X229807Y277617D01*
X230474D01*
X231140Y276951D01*
Y275618D01*
X230474Y274952D01*
X249808Y173766D02*
X249142Y174433D01*
X247809D01*
X247142Y173766D01*
Y171101D01*
X247809Y170434D01*
X249142D01*
X249808Y171101D01*
X251141Y170434D02*
X252474D01*
X251807D01*
Y174433D01*
X251141Y173766D01*
X254473Y171101D02*
X255140Y170434D01*
X256473D01*
X257139Y171101D01*
Y173766D01*
X256473Y174433D01*
X255140D01*
X254473Y173766D01*
Y173100D01*
X255140Y172434D01*
X257139D01*
X190470Y98170D02*
X189804Y97504D01*
Y96171D01*
X190470Y95504D01*
X193136D01*
X193802Y96171D01*
Y97504D01*
X193136Y98170D01*
X193802Y99503D02*
Y100836D01*
Y100169D01*
X189804D01*
X190470Y99503D01*
X193802Y102835D02*
Y104168D01*
Y103502D01*
X189804D01*
X190470Y102835D01*
X304164Y233710D02*
X303498Y234377D01*
X302165D01*
X301498Y233710D01*
Y231045D01*
X302165Y230378D01*
X303498D01*
X304164Y231045D01*
X305497Y230378D02*
X306830D01*
X306163D01*
Y234377D01*
X305497Y233710D01*
X311495Y234377D02*
X310162Y233710D01*
X308829Y232378D01*
Y231045D01*
X309496Y230378D01*
X310829D01*
X311495Y231045D01*
Y231711D01*
X310829Y232378D01*
X308829D01*
X457200Y416241D02*
Y412242D01*
X459866D01*
X461199D02*
X462532D01*
X461865D01*
Y416241D01*
X461199Y415574D01*
X133350Y339598D02*
X129352D01*
Y341598D01*
X130018Y342264D01*
X131351D01*
X132017Y341598D01*
Y339598D01*
Y340931D02*
X133350Y342264D01*
Y343597D02*
Y344930D01*
Y344263D01*
X129352D01*
X130018Y343597D01*
X603250Y321818D02*
Y325817D01*
X605250D01*
X605916Y325150D01*
Y323818D01*
X605250Y323151D01*
X603250D01*
X604583D02*
X605916Y321818D01*
X607249Y325817D02*
X609915D01*
Y325150D01*
X607249Y322485D01*
Y321818D01*
X603250Y310642D02*
Y314641D01*
X605250D01*
X605916Y313974D01*
Y312642D01*
X605250Y311975D01*
X603250D01*
X604583D02*
X605916Y310642D01*
X607249Y313974D02*
X607915Y314641D01*
X609248D01*
X609915Y313974D01*
Y313308D01*
X609248Y312642D01*
X609915Y311975D01*
Y311309D01*
X609248Y310642D01*
X607915D01*
X607249Y311309D01*
Y311975D01*
X607915Y312642D01*
X607249Y313308D01*
Y313974D01*
X607915Y312642D02*
X609248D01*
X231140Y247650D02*
X227142D01*
Y249650D01*
X227808Y250316D01*
X229141D01*
X229807Y249650D01*
Y247650D01*
Y248983D02*
X231140Y250316D01*
Y253648D02*
X227142D01*
X229141Y251649D01*
Y254315D01*
X227808Y255648D02*
X227142Y256314D01*
Y257647D01*
X227808Y258314D01*
X228474D01*
X229141Y257647D01*
Y256980D01*
Y257647D01*
X229807Y258314D01*
X230474D01*
X231140Y257647D01*
Y256314D01*
X230474Y255648D01*
X231140Y224790D02*
X227142D01*
Y226790D01*
X227808Y227456D01*
X229141D01*
X229807Y226790D01*
Y224790D01*
Y226123D02*
X231140Y227456D01*
Y230788D02*
X227142D01*
X229141Y228789D01*
Y231455D01*
X231140Y234787D02*
X227142D01*
X229141Y232788D01*
Y235453D01*
X274066Y270256D02*
Y274255D01*
X276066D01*
X276732Y273589D01*
Y272256D01*
X276066Y271589D01*
X274066D01*
X275399D02*
X276732Y270256D01*
X278065Y273589D02*
X278731Y274255D01*
X280064D01*
X280731Y273589D01*
Y272922D01*
X280064Y272256D01*
X279398D01*
X280064D01*
X280731Y271589D01*
Y270923D01*
X280064Y270256D01*
X278731D01*
X278065Y270923D01*
X284729Y274255D02*
X283396Y273589D01*
X282064Y272256D01*
Y270923D01*
X282730Y270256D01*
X284063D01*
X284729Y270923D01*
Y271589D01*
X284063Y272256D01*
X282064D01*
X242316Y202692D02*
X238318D01*
Y204692D01*
X238984Y205358D01*
X240317D01*
X240983Y204692D01*
Y202692D01*
Y204025D02*
X242316Y205358D01*
X238984Y206691D02*
X238318Y207357D01*
Y208690D01*
X238984Y209357D01*
X239650D01*
X240317Y208690D01*
Y208024D01*
Y208690D01*
X240983Y209357D01*
X241650D01*
X242316Y208690D01*
Y207357D01*
X241650Y206691D01*
X238318Y210690D02*
Y213356D01*
X238984D01*
X241650Y210690D01*
X242316D01*
X264160Y247650D02*
X260162D01*
Y249650D01*
X260828Y250316D01*
X262161D01*
X262827Y249650D01*
Y247650D01*
Y248983D02*
X264160Y250316D01*
X260828Y251649D02*
X260162Y252315D01*
Y253648D01*
X260828Y254315D01*
X261494D01*
X262161Y253648D01*
Y252982D01*
Y253648D01*
X262827Y254315D01*
X263494D01*
X264160Y253648D01*
Y252315D01*
X263494Y251649D01*
X260828Y255648D02*
X260162Y256314D01*
Y257647D01*
X260828Y258314D01*
X261494D01*
X262161Y257647D01*
X262827Y258314D01*
X263494D01*
X264160Y257647D01*
Y256314D01*
X263494Y255648D01*
X262827D01*
X262161Y256314D01*
X261494Y255648D01*
X260828D01*
X262161Y256314D02*
Y257647D01*
X253238Y247650D02*
X249240D01*
Y249650D01*
X249906Y250316D01*
X251239D01*
X251905Y249650D01*
Y247650D01*
Y248983D02*
X253238Y250316D01*
Y253648D02*
X249240D01*
X251239Y251649D01*
Y254315D01*
X249906Y255648D02*
X249240Y256314D01*
Y257647D01*
X249906Y258314D01*
X252572D01*
X253238Y257647D01*
Y256314D01*
X252572Y255648D01*
X249906D01*
X258826Y352298D02*
Y356297D01*
X260826D01*
X261492Y355630D01*
Y354298D01*
X260826Y353631D01*
X258826D01*
X260159D02*
X261492Y352298D01*
X265491D02*
X262825D01*
X265491Y354964D01*
Y355630D01*
X264824Y356297D01*
X263491D01*
X262825Y355630D01*
X266824D02*
X267490Y356297D01*
X268823D01*
X269489Y355630D01*
Y354964D01*
X268823Y354298D01*
X268157D01*
X268823D01*
X269489Y353631D01*
Y352965D01*
X268823Y352298D01*
X267490D01*
X266824Y352965D01*
X156688Y330072D02*
X156022Y329406D01*
Y328073D01*
X156688Y327406D01*
X159354D01*
X160020Y328073D01*
Y329406D01*
X159354Y330072D01*
X160020Y334071D02*
Y331405D01*
X157354Y334071D01*
X156688D01*
X156022Y333404D01*
Y332071D01*
X156688Y331405D01*
X156022Y338069D02*
X156688Y336736D01*
X158021Y335404D01*
X159354D01*
X160020Y336070D01*
Y337403D01*
X159354Y338069D01*
X158687D01*
X158021Y337403D01*
Y335404D01*
X191127Y363094D02*
X190461Y362428D01*
Y361095D01*
X191127Y360429D01*
X193793D01*
X194459Y361095D01*
Y362428D01*
X193793Y363094D01*
X194459Y367093D02*
Y364427D01*
X191794Y367093D01*
X191127D01*
X190461Y366427D01*
Y365094D01*
X191127Y364427D01*
X190461Y371092D02*
Y368426D01*
X192460D01*
X191794Y369759D01*
Y370425D01*
X192460Y371092D01*
X193793D01*
X194459Y370425D01*
Y369092D01*
X193793Y368426D01*
X180127Y363094D02*
X179461Y362428D01*
Y361095D01*
X180127Y360429D01*
X182793D01*
X183459Y361095D01*
Y362428D01*
X182793Y363094D01*
X183459Y367093D02*
Y364427D01*
X180794Y367093D01*
X180127D01*
X179461Y366427D01*
Y365094D01*
X180127Y364427D01*
X183459Y370425D02*
X179461D01*
X181460Y368426D01*
Y371092D01*
X173569Y101728D02*
X172902Y101061D01*
Y99728D01*
X173569Y99062D01*
X176235D01*
X176901Y99728D01*
Y101061D01*
X176235Y101728D01*
X176901Y103061D02*
Y104394D01*
Y103727D01*
X172902D01*
X173569Y103061D01*
Y106393D02*
X172902Y107059D01*
Y108392D01*
X173569Y109059D01*
X176235D01*
X176901Y108392D01*
Y107059D01*
X176235Y106393D01*
X173569D01*
X304164Y253269D02*
X303498Y253935D01*
X302165D01*
X301498Y253269D01*
Y250603D01*
X302165Y249936D01*
X303498D01*
X304164Y250603D01*
X305497Y249936D02*
X306830D01*
X306163D01*
Y253935D01*
X305497Y253269D01*
X308829Y253935D02*
X311495D01*
Y253269D01*
X308829Y250603D01*
Y249936D01*
X304164Y272826D02*
X303498Y273493D01*
X302165D01*
X301498Y272826D01*
Y270161D01*
X302165Y269494D01*
X303498D01*
X304164Y270161D01*
X305497Y269494D02*
X306830D01*
X306163D01*
Y273493D01*
X305497Y272826D01*
X308829D02*
X309496Y273493D01*
X310829D01*
X311495Y272826D01*
Y272160D01*
X310829Y271494D01*
X311495Y270827D01*
Y270161D01*
X310829Y269494D01*
X309496D01*
X308829Y270161D01*
Y270827D01*
X309496Y271494D01*
X308829Y272160D01*
Y272826D01*
X309496Y271494D02*
X310829D01*
X222758Y470408D02*
Y474407D01*
X224758D01*
X225424Y473741D01*
Y472408D01*
X224758Y471741D01*
X222758D01*
X224091D02*
X225424Y470408D01*
X229423Y474407D02*
X226757D01*
Y472408D01*
X228090Y473074D01*
X228756D01*
X229423Y472408D01*
Y471075D01*
X228756Y470408D01*
X227423D01*
X226757Y471075D01*
X197358Y470408D02*
Y474407D01*
X199358D01*
X200024Y473741D01*
Y472408D01*
X199358Y471741D01*
X197358D01*
X198691D02*
X200024Y470408D01*
X203356D02*
Y474407D01*
X201357Y472408D01*
X204023D01*
X437896Y417068D02*
Y421067D01*
X439896D01*
X440562Y420401D01*
Y419068D01*
X439896Y418401D01*
X437896D01*
X439229D02*
X440562Y417068D01*
X444561Y421067D02*
X443228Y420401D01*
X441895Y419068D01*
Y417735D01*
X442561Y417068D01*
X443894D01*
X444561Y417735D01*
Y418401D01*
X443894Y419068D01*
X441895D01*
X242316Y224790D02*
X238318D01*
Y226790D01*
X238984Y227456D01*
X240317D01*
X240983Y226790D01*
Y224790D01*
Y226123D02*
X242316Y227456D01*
Y230788D02*
X238318D01*
X240317Y228789D01*
Y231455D01*
X242316Y235453D02*
Y232788D01*
X239650Y235453D01*
X238984D01*
X238318Y234787D01*
Y233454D01*
X238984Y232788D01*
X124586Y439325D02*
Y441991D01*
X123920Y442657D01*
X122587D01*
X121920Y441991D01*
Y439325D01*
X122587Y438658D01*
X123920D01*
X123253Y439991D02*
X124586Y438658D01*
X123920D02*
X124586Y439325D01*
X125919Y441991D02*
X126585Y442657D01*
X127918D01*
X128585Y441991D01*
Y441324D01*
X127918Y440658D01*
X127252D01*
X127918D01*
X128585Y439991D01*
Y439325D01*
X127918Y438658D01*
X126585D01*
X125919Y439325D01*
X231140Y202692D02*
X227142D01*
Y204692D01*
X227808Y205358D01*
X229141D01*
X229807Y204692D01*
Y202692D01*
Y204025D02*
X231140Y205358D01*
X227808Y206691D02*
X227142Y207357D01*
Y208690D01*
X227808Y209357D01*
X228474D01*
X229141Y208690D01*
Y208024D01*
Y208690D01*
X229807Y209357D01*
X230474D01*
X231140Y208690D01*
Y207357D01*
X230474Y206691D01*
X227142Y213356D02*
Y210690D01*
X229141D01*
X228474Y212022D01*
Y212689D01*
X229141Y213356D01*
X230474D01*
X231140Y212689D01*
Y211356D01*
X230474Y210690D01*
X343408Y263398D02*
X344741D01*
X344075D01*
Y267397D01*
X343408Y266730D01*
X366394Y263398D02*
X363728D01*
X366394Y266064D01*
Y266730D01*
X365728Y267397D01*
X364395D01*
X363728Y266730D01*
X384810D02*
X385477Y267397D01*
X386810D01*
X387476Y266730D01*
Y266064D01*
X386810Y265398D01*
X386143D01*
X386810D01*
X387476Y264731D01*
Y264065D01*
X386810Y263398D01*
X385477D01*
X384810Y264065D01*
X429386Y267397D02*
X426720D01*
Y265398D01*
X428053Y266064D01*
X428720D01*
X429386Y265398D01*
Y264065D01*
X428720Y263398D01*
X427387D01*
X426720Y264065D01*
X407892Y263398D02*
Y267397D01*
X405892Y265398D01*
X408558D01*
X450468Y267397D02*
X449135Y266730D01*
X447802Y265398D01*
Y264065D01*
X448469Y263398D01*
X449802D01*
X450468Y264065D01*
Y264731D01*
X449802Y265398D01*
X447802D01*
X468884Y267397D02*
X471550D01*
Y266730D01*
X468884Y264065D01*
Y263398D01*
X510794Y264065D02*
X511461Y263398D01*
X512794D01*
X513460Y264065D01*
Y266730D01*
X512794Y267397D01*
X511461D01*
X510794Y266730D01*
Y266064D01*
X511461Y265398D01*
X513460D01*
X551688Y263398D02*
X553021D01*
X552355D01*
Y267397D01*
X551688Y266730D01*
X555020Y263398D02*
X556353D01*
X555687D01*
Y267397D01*
X555020Y266730D01*
X489712D02*
X490379Y267397D01*
X491712D01*
X492378Y266730D01*
Y266064D01*
X491712Y265398D01*
X492378Y264731D01*
Y264065D01*
X491712Y263398D01*
X490379D01*
X489712Y264065D01*
Y264731D01*
X490379Y265398D01*
X489712Y266064D01*
Y266730D01*
X490379Y265398D02*
X491712D01*
X530098Y263398D02*
X531431D01*
X530765D01*
Y267397D01*
X530098Y266730D01*
X533430D02*
X534097Y267397D01*
X535430D01*
X536096Y266730D01*
Y264065D01*
X535430Y263398D01*
X534097D01*
X533430Y264065D01*
Y266730D01*
X572008Y263398D02*
X573341D01*
X572675D01*
Y267397D01*
X572008Y266730D01*
X578006Y263398D02*
X575340D01*
X578006Y266064D01*
Y266730D01*
X577340Y267397D01*
X576007D01*
X575340Y266730D01*
X341122Y242316D02*
X342455D01*
X341789D01*
Y246315D01*
X341122Y245648D01*
X344454D02*
X345121Y246315D01*
X346454D01*
X347120Y245648D01*
Y244982D01*
X346454Y244316D01*
X345787D01*
X346454D01*
X347120Y243649D01*
Y242983D01*
X346454Y242316D01*
X345121D01*
X344454Y242983D01*
X383032Y242316D02*
X384365D01*
X383699D01*
Y246315D01*
X383032Y245648D01*
X389030Y246315D02*
X386365D01*
Y244316D01*
X387697Y244982D01*
X388364D01*
X389030Y244316D01*
Y242983D01*
X388364Y242316D01*
X387031D01*
X386365Y242983D01*
X425196Y242316D02*
X426529D01*
X425863D01*
Y246315D01*
X425196Y245648D01*
X428529Y246315D02*
X431194D01*
Y245648D01*
X428529Y242983D01*
Y242316D01*
X467106D02*
X468439D01*
X467773D01*
Y246315D01*
X467106Y245648D01*
X470438Y242983D02*
X471105Y242316D01*
X472438D01*
X473104Y242983D01*
Y245648D01*
X472438Y246315D01*
X471105D01*
X470438Y245648D01*
Y244982D01*
X471105Y244316D01*
X473104D01*
X362204Y242316D02*
X363537D01*
X362871D01*
Y246315D01*
X362204Y245648D01*
X367536Y242316D02*
Y246315D01*
X365536Y244316D01*
X368202D01*
X404114Y242316D02*
X405447D01*
X404781D01*
Y246315D01*
X404114Y245648D01*
X410112Y246315D02*
X408779Y245648D01*
X407447Y244316D01*
Y242983D01*
X408113Y242316D01*
X409446D01*
X410112Y242983D01*
Y243649D01*
X409446Y244316D01*
X407447D01*
X446024Y242316D02*
X447357D01*
X446691D01*
Y246315D01*
X446024Y245648D01*
X449356D02*
X450023Y246315D01*
X451356D01*
X452022Y245648D01*
Y244982D01*
X451356Y244316D01*
X452022Y243649D01*
Y242983D01*
X451356Y242316D01*
X450023D01*
X449356Y242983D01*
Y243649D01*
X450023Y244316D01*
X449356Y244982D01*
Y245648D01*
X450023Y244316D02*
X451356D01*
X490346Y242316D02*
X487680D01*
X490346Y244982D01*
Y245648D01*
X489680Y246315D01*
X488347D01*
X487680Y245648D01*
X491679D02*
X492345Y246315D01*
X493678D01*
X494345Y245648D01*
Y242983D01*
X493678Y242316D01*
X492345D01*
X491679Y242983D01*
Y245648D01*
X512190Y242316D02*
X509524D01*
X512190Y244982D01*
Y245648D01*
X511524Y246315D01*
X510191D01*
X509524Y245648D01*
X513523Y242316D02*
X514856D01*
X514189D01*
Y246315D01*
X513523Y245648D01*
X553338Y242316D02*
X550672D01*
X553338Y244982D01*
Y245648D01*
X552672Y246315D01*
X551339D01*
X550672Y245648D01*
X554671D02*
X555337Y246315D01*
X556670D01*
X557337Y245648D01*
Y244982D01*
X556670Y244316D01*
X556004D01*
X556670D01*
X557337Y243649D01*
Y242983D01*
X556670Y242316D01*
X555337D01*
X554671Y242983D01*
X343534Y221234D02*
X340868D01*
X343534Y223900D01*
Y224566D01*
X342868Y225233D01*
X341535D01*
X340868Y224566D01*
X347533Y225233D02*
X344867D01*
Y223234D01*
X346200Y223900D01*
X346866D01*
X347533Y223234D01*
Y221901D01*
X346866Y221234D01*
X345533D01*
X344867Y221901D01*
X385444Y221234D02*
X382778D01*
X385444Y223900D01*
Y224566D01*
X384778Y225233D01*
X383445D01*
X382778Y224566D01*
X386777Y225233D02*
X389443D01*
Y224566D01*
X386777Y221901D01*
Y221234D01*
X427354D02*
X424688D01*
X427354Y223900D01*
Y224566D01*
X426688Y225233D01*
X425355D01*
X424688Y224566D01*
X428687Y221901D02*
X429353Y221234D01*
X430686D01*
X431353Y221901D01*
Y224566D01*
X430686Y225233D01*
X429353D01*
X428687Y224566D01*
Y223900D01*
X429353Y223234D01*
X431353D01*
X532510Y242316D02*
X529844D01*
X532510Y244982D01*
Y245648D01*
X531844Y246315D01*
X530511D01*
X529844Y245648D01*
X536509Y242316D02*
X533843D01*
X536509Y244982D01*
Y245648D01*
X535842Y246315D01*
X534509D01*
X533843Y245648D01*
X574420Y242316D02*
X571754D01*
X574420Y244982D01*
Y245648D01*
X573754Y246315D01*
X572421D01*
X571754Y245648D01*
X577752Y242316D02*
Y246315D01*
X575753Y244316D01*
X578419D01*
X364362Y221234D02*
X361696D01*
X364362Y223900D01*
Y224566D01*
X363696Y225233D01*
X362363D01*
X361696Y224566D01*
X368361Y225233D02*
X367028Y224566D01*
X365695Y223234D01*
Y221901D01*
X366361Y221234D01*
X367694D01*
X368361Y221901D01*
Y222567D01*
X367694Y223234D01*
X365695D01*
X406526Y221234D02*
X403860D01*
X406526Y223900D01*
Y224566D01*
X405860Y225233D01*
X404527D01*
X403860Y224566D01*
X407859D02*
X408525Y225233D01*
X409858D01*
X410525Y224566D01*
Y223900D01*
X409858Y223234D01*
X410525Y222567D01*
Y221901D01*
X409858Y221234D01*
X408525D01*
X407859Y221901D01*
Y222567D01*
X408525Y223234D01*
X407859Y223900D01*
Y224566D01*
X408525Y223234D02*
X409858D01*
X445770Y224566D02*
X446437Y225233D01*
X447770D01*
X448436Y224566D01*
Y223900D01*
X447770Y223234D01*
X447103D01*
X447770D01*
X448436Y222567D01*
Y221901D01*
X447770Y221234D01*
X446437D01*
X445770Y221901D01*
X449769Y224566D02*
X450435Y225233D01*
X451768D01*
X452435Y224566D01*
Y221901D01*
X451768Y221234D01*
X450435D01*
X449769Y221901D01*
Y224566D01*
X467360D02*
X468027Y225233D01*
X469360D01*
X470026Y224566D01*
Y223900D01*
X469360Y223234D01*
X468693D01*
X469360D01*
X470026Y222567D01*
Y221901D01*
X469360Y221234D01*
X468027D01*
X467360Y221901D01*
X471359Y221234D02*
X472692D01*
X472025D01*
Y225233D01*
X471359Y224566D01*
X508762D02*
X509429Y225233D01*
X510762D01*
X511428Y224566D01*
Y223900D01*
X510762Y223234D01*
X510095D01*
X510762D01*
X511428Y222567D01*
Y221901D01*
X510762Y221234D01*
X509429D01*
X508762Y221901D01*
X512761Y224566D02*
X513427Y225233D01*
X514760D01*
X515427Y224566D01*
Y223900D01*
X514760Y223234D01*
X514094D01*
X514760D01*
X515427Y222567D01*
Y221901D01*
X514760Y221234D01*
X513427D01*
X512761Y221901D01*
X550672Y224566D02*
X551339Y225233D01*
X552672D01*
X553338Y224566D01*
Y223900D01*
X552672Y223234D01*
X552005D01*
X552672D01*
X553338Y222567D01*
Y221901D01*
X552672Y221234D01*
X551339D01*
X550672Y221901D01*
X557337Y225233D02*
X554671D01*
Y223234D01*
X556004Y223900D01*
X556670D01*
X557337Y223234D01*
Y221901D01*
X556670Y221234D01*
X555337D01*
X554671Y221901D01*
X340868Y203738D02*
X341535Y204405D01*
X342868D01*
X343534Y203738D01*
Y203072D01*
X342868Y202406D01*
X342201D01*
X342868D01*
X343534Y201739D01*
Y201073D01*
X342868Y200406D01*
X341535D01*
X340868Y201073D01*
X344867Y204405D02*
X347533D01*
Y203738D01*
X344867Y201073D01*
Y200406D01*
X382778Y203738D02*
X383445Y204405D01*
X384778D01*
X385444Y203738D01*
Y203072D01*
X384778Y202406D01*
X384111D01*
X384778D01*
X385444Y201739D01*
Y201073D01*
X384778Y200406D01*
X383445D01*
X382778Y201073D01*
X386777D02*
X387443Y200406D01*
X388776D01*
X389443Y201073D01*
Y203738D01*
X388776Y204405D01*
X387443D01*
X386777Y203738D01*
Y203072D01*
X387443Y202406D01*
X389443D01*
X427450Y200406D02*
Y204405D01*
X425450Y202406D01*
X428116D01*
X429449Y200406D02*
X430782D01*
X430115D01*
Y204405D01*
X429449Y203738D01*
X487680Y224566D02*
X488347Y225233D01*
X489680D01*
X490346Y224566D01*
Y223900D01*
X489680Y223234D01*
X489013D01*
X489680D01*
X490346Y222567D01*
Y221901D01*
X489680Y221234D01*
X488347D01*
X487680Y221901D01*
X494345Y221234D02*
X491679D01*
X494345Y223900D01*
Y224566D01*
X493678Y225233D01*
X492345D01*
X491679Y224566D01*
X529844D02*
X530511Y225233D01*
X531844D01*
X532510Y224566D01*
Y223900D01*
X531844Y223234D01*
X531177D01*
X531844D01*
X532510Y222567D01*
Y221901D01*
X531844Y221234D01*
X530511D01*
X529844Y221901D01*
X535842Y221234D02*
Y225233D01*
X533843Y223234D01*
X536509D01*
X571754Y224566D02*
X572421Y225233D01*
X573754D01*
X574420Y224566D01*
Y223900D01*
X573754Y223234D01*
X573087D01*
X573754D01*
X574420Y222567D01*
Y221901D01*
X573754Y221234D01*
X572421D01*
X571754Y221901D01*
X578419Y225233D02*
X577086Y224566D01*
X575753Y223234D01*
Y221901D01*
X576419Y221234D01*
X577752D01*
X578419Y221901D01*
Y222567D01*
X577752Y223234D01*
X575753D01*
X361696Y203738D02*
X362363Y204405D01*
X363696D01*
X364362Y203738D01*
Y203072D01*
X363696Y202406D01*
X363029D01*
X363696D01*
X364362Y201739D01*
Y201073D01*
X363696Y200406D01*
X362363D01*
X361696Y201073D01*
X365695Y203738D02*
X366361Y204405D01*
X367694D01*
X368361Y203738D01*
Y203072D01*
X367694Y202406D01*
X368361Y201739D01*
Y201073D01*
X367694Y200406D01*
X366361D01*
X365695Y201073D01*
Y201739D01*
X366361Y202406D01*
X365695Y203072D01*
Y203738D01*
X366361Y202406D02*
X367694D01*
X405860Y200406D02*
Y204405D01*
X403860Y202406D01*
X406526D01*
X407859Y203738D02*
X408525Y204405D01*
X409858D01*
X410525Y203738D01*
Y201073D01*
X409858Y200406D01*
X408525D01*
X407859Y201073D01*
Y203738D01*
X468852Y200406D02*
Y204405D01*
X466852Y202406D01*
X469518D01*
X470851Y203738D02*
X471517Y204405D01*
X472850D01*
X473517Y203738D01*
Y203072D01*
X472850Y202406D01*
X472184D01*
X472850D01*
X473517Y201739D01*
Y201073D01*
X472850Y200406D01*
X471517D01*
X470851Y201073D01*
X510762Y200406D02*
Y204405D01*
X508762Y202406D01*
X511428D01*
X515427Y204405D02*
X512761D01*
Y202406D01*
X514094Y203072D01*
X514760D01*
X515427Y202406D01*
Y201073D01*
X514760Y200406D01*
X513427D01*
X512761Y201073D01*
X552672Y200406D02*
Y204405D01*
X550672Y202406D01*
X553338D01*
X554671Y204405D02*
X557337D01*
Y203738D01*
X554671Y201073D01*
Y200406D01*
X342868Y179324D02*
Y183323D01*
X340868Y181324D01*
X343534D01*
X344867Y179991D02*
X345533Y179324D01*
X346866D01*
X347533Y179991D01*
Y182656D01*
X346866Y183323D01*
X345533D01*
X344867Y182656D01*
Y181990D01*
X345533Y181324D01*
X347533D01*
X386206Y183323D02*
X383540D01*
Y181324D01*
X384873Y181990D01*
X385540D01*
X386206Y181324D01*
Y179991D01*
X385540Y179324D01*
X384207D01*
X383540Y179991D01*
X387539Y179324D02*
X388872D01*
X388205D01*
Y183323D01*
X387539Y182656D01*
X427354Y183323D02*
X424688D01*
Y181324D01*
X426021Y181990D01*
X426688D01*
X427354Y181324D01*
Y179991D01*
X426688Y179324D01*
X425355D01*
X424688Y179991D01*
X428687Y182656D02*
X429353Y183323D01*
X430686D01*
X431353Y182656D01*
Y181990D01*
X430686Y181324D01*
X430020D01*
X430686D01*
X431353Y180657D01*
Y179991D01*
X430686Y179324D01*
X429353D01*
X428687Y179991D01*
X469518Y183323D02*
X466852D01*
Y181324D01*
X468185Y181990D01*
X468852D01*
X469518Y181324D01*
Y179991D01*
X468852Y179324D01*
X467519D01*
X466852Y179991D01*
X473517Y183323D02*
X470851D01*
Y181324D01*
X472184Y181990D01*
X472850D01*
X473517Y181324D01*
Y179991D01*
X472850Y179324D01*
X471517D01*
X470851Y179991D01*
X489680Y200406D02*
Y204405D01*
X487680Y202406D01*
X490346D01*
X493678Y200406D02*
Y204405D01*
X491679Y202406D01*
X494345D01*
X531844Y200406D02*
Y204405D01*
X529844Y202406D01*
X532510D01*
X536509Y204405D02*
X535176Y203738D01*
X533843Y202406D01*
Y201073D01*
X534509Y200406D01*
X535842D01*
X536509Y201073D01*
Y201739D01*
X535842Y202406D01*
X533843D01*
X573754Y200406D02*
Y204405D01*
X571754Y202406D01*
X574420D01*
X575753Y203738D02*
X576419Y204405D01*
X577752D01*
X578419Y203738D01*
Y203072D01*
X577752Y202406D01*
X578419Y201739D01*
Y201073D01*
X577752Y200406D01*
X576419D01*
X575753Y201073D01*
Y201739D01*
X576419Y202406D01*
X575753Y203072D01*
Y203738D01*
X576419Y202406D02*
X577752D01*
X364362Y183323D02*
X361696D01*
Y181324D01*
X363029Y181990D01*
X363696D01*
X364362Y181324D01*
Y179991D01*
X363696Y179324D01*
X362363D01*
X361696Y179991D01*
X365695Y182656D02*
X366361Y183323D01*
X367694D01*
X368361Y182656D01*
Y179991D01*
X367694Y179324D01*
X366361D01*
X365695Y179991D01*
Y182656D01*
X406526Y183323D02*
X403860D01*
Y181324D01*
X405193Y181990D01*
X405860D01*
X406526Y181324D01*
Y179991D01*
X405860Y179324D01*
X404527D01*
X403860Y179991D01*
X410525Y179324D02*
X407859D01*
X410525Y181990D01*
Y182656D01*
X409858Y183323D01*
X408525D01*
X407859Y182656D01*
X448436Y183323D02*
X445770D01*
Y181324D01*
X447103Y181990D01*
X447770D01*
X448436Y181324D01*
Y179991D01*
X447770Y179324D01*
X446437D01*
X445770Y179991D01*
X451768Y179324D02*
Y183323D01*
X449769Y181324D01*
X452435D01*
X594868Y147828D02*
Y151827D01*
X596868D01*
X597534Y151160D01*
Y149828D01*
X596868Y149161D01*
X594868D01*
X596201D02*
X597534Y147828D01*
X601533D02*
X598867D01*
X601533Y150494D01*
Y151160D01*
X600866Y151827D01*
X599533D01*
X598867Y151160D01*
X602866Y151827D02*
X605532D01*
Y151160D01*
X602866Y148495D01*
Y147828D01*
X594868Y161798D02*
Y165797D01*
X596868D01*
X597534Y165131D01*
Y163798D01*
X596868Y163131D01*
X594868D01*
X596201D02*
X597534Y161798D01*
X601533D02*
X598867D01*
X601533Y164464D01*
Y165131D01*
X600866Y165797D01*
X599533D01*
X598867Y165131D01*
X602866D02*
X603532Y165797D01*
X604865D01*
X605532Y165131D01*
Y164464D01*
X604865Y163798D01*
X605532Y163131D01*
Y162465D01*
X604865Y161798D01*
X603532D01*
X602866Y162465D01*
Y163131D01*
X603532Y163798D01*
X602866Y164464D01*
Y165131D01*
X603532Y163798D02*
X604865D01*
X594868Y175768D02*
Y179767D01*
X596868D01*
X597534Y179100D01*
Y177768D01*
X596868Y177101D01*
X594868D01*
X596201D02*
X597534Y175768D01*
X601533D02*
X598867D01*
X601533Y178434D01*
Y179100D01*
X600866Y179767D01*
X599533D01*
X598867Y179100D01*
X602866Y176435D02*
X603532Y175768D01*
X604865D01*
X605532Y176435D01*
Y179100D01*
X604865Y179767D01*
X603532D01*
X602866Y179100D01*
Y178434D01*
X603532Y177768D01*
X605532D01*
X594868Y189738D02*
Y193737D01*
X596868D01*
X597534Y193071D01*
Y191738D01*
X596868Y191071D01*
X594868D01*
X596201D02*
X597534Y189738D01*
X598867Y193071D02*
X599533Y193737D01*
X600866D01*
X601533Y193071D01*
Y192404D01*
X600866Y191738D01*
X600200D01*
X600866D01*
X601533Y191071D01*
Y190405D01*
X600866Y189738D01*
X599533D01*
X598867Y190405D01*
X602866Y193071D02*
X603532Y193737D01*
X604865D01*
X605532Y193071D01*
Y190405D01*
X604865Y189738D01*
X603532D01*
X602866Y190405D01*
Y193071D01*
X594868Y217678D02*
Y221677D01*
X596868D01*
X597534Y221010D01*
Y219678D01*
X596868Y219011D01*
X594868D01*
X596201D02*
X597534Y217678D01*
X598867Y221010D02*
X599533Y221677D01*
X600866D01*
X601533Y221010D01*
Y220344D01*
X600866Y219678D01*
X600200D01*
X600866D01*
X601533Y219011D01*
Y218345D01*
X600866Y217678D01*
X599533D01*
X598867Y218345D01*
X605532Y217678D02*
X602866D01*
X605532Y220344D01*
Y221010D01*
X604865Y221677D01*
X603532D01*
X602866Y221010D01*
X594868Y231902D02*
Y235901D01*
X596868D01*
X597534Y235235D01*
Y233902D01*
X596868Y233235D01*
X594868D01*
X596201D02*
X597534Y231902D01*
X598867Y235235D02*
X599533Y235901D01*
X600866D01*
X601533Y235235D01*
Y234568D01*
X600866Y233902D01*
X600200D01*
X600866D01*
X601533Y233235D01*
Y232569D01*
X600866Y231902D01*
X599533D01*
X598867Y232569D01*
X602866Y235235D02*
X603532Y235901D01*
X604865D01*
X605532Y235235D01*
Y234568D01*
X604865Y233902D01*
X604198D01*
X604865D01*
X605532Y233235D01*
Y232569D01*
X604865Y231902D01*
X603532D01*
X602866Y232569D01*
X594868Y245872D02*
Y249871D01*
X596868D01*
X597534Y249205D01*
Y247872D01*
X596868Y247205D01*
X594868D01*
X596201D02*
X597534Y245872D01*
X598867Y249205D02*
X599533Y249871D01*
X600866D01*
X601533Y249205D01*
Y248538D01*
X600866Y247872D01*
X600200D01*
X600866D01*
X601533Y247205D01*
Y246539D01*
X600866Y245872D01*
X599533D01*
X598867Y246539D01*
X604865Y245872D02*
Y249871D01*
X602866Y247872D01*
X605532D01*
X447770Y200406D02*
Y204405D01*
X445770Y202406D01*
X448436D01*
X452435Y200406D02*
X449769D01*
X452435Y203072D01*
Y203738D01*
X451768Y204405D01*
X450435D01*
X449769Y203738D01*
X595376Y203708D02*
Y207707D01*
X597376D01*
X598042Y207041D01*
Y205708D01*
X597376Y205041D01*
X595376D01*
X596709D02*
X598042Y203708D01*
X599375Y207041D02*
X600041Y207707D01*
X601374D01*
X602041Y207041D01*
Y206374D01*
X601374Y205708D01*
X600708D01*
X601374D01*
X602041Y205041D01*
Y204375D01*
X601374Y203708D01*
X600041D01*
X599375Y204375D01*
X603374Y203708D02*
X604706D01*
X604040D01*
Y207707D01*
X603374Y207041D01*
X172466Y360426D02*
X168468D01*
Y362426D01*
X169134Y363092D01*
X170467D01*
X171133Y362426D01*
Y360426D01*
Y361759D02*
X172466Y363092D01*
Y366424D02*
X168468D01*
X170467Y364425D01*
Y367091D01*
X168468Y371090D02*
Y368424D01*
X170467D01*
X169800Y369757D01*
Y370423D01*
X170467Y371090D01*
X171800D01*
X172466Y370423D01*
Y369090D01*
X171800Y368424D01*
X161544Y360426D02*
X157546D01*
Y362426D01*
X158212Y363092D01*
X159545D01*
X160211Y362426D01*
Y360426D01*
Y361759D02*
X161544Y363092D01*
Y366424D02*
X157546D01*
X159545Y364425D01*
Y367091D01*
X157546Y371090D02*
X158212Y369757D01*
X159545Y368424D01*
X160878D01*
X161544Y369090D01*
Y370423D01*
X160878Y371090D01*
X160211D01*
X159545Y370423D01*
Y368424D01*
X216408Y360426D02*
X212410D01*
Y362426D01*
X213076Y363092D01*
X214409D01*
X215075Y362426D01*
Y360426D01*
Y361759D02*
X216408Y363092D01*
Y366424D02*
X212410D01*
X214409Y364425D01*
Y367091D01*
X213076Y368424D02*
X212410Y369090D01*
Y370423D01*
X213076Y371090D01*
X213742D01*
X214409Y370423D01*
X215075Y371090D01*
X215742D01*
X216408Y370423D01*
Y369090D01*
X215742Y368424D01*
X215075D01*
X214409Y369090D01*
X213742Y368424D01*
X213076D01*
X214409Y369090D02*
Y370423D01*
X205486Y360426D02*
X201488D01*
Y362426D01*
X202154Y363092D01*
X203487D01*
X204153Y362426D01*
Y360426D01*
Y361759D02*
X205486Y363092D01*
Y366424D02*
X201488D01*
X203487Y364425D01*
Y367091D01*
X201488Y368424D02*
Y371090D01*
X202154D01*
X204820Y368424D01*
X205486D01*
X441452Y354838D02*
Y358837D01*
X443452D01*
X444118Y358171D01*
Y356838D01*
X443452Y356171D01*
X441452D01*
X442785D02*
X444118Y354838D01*
X445451D02*
X446784D01*
X446117D01*
Y358837D01*
X445451Y358171D01*
X448783D02*
X449450Y358837D01*
X450783D01*
X451449Y358171D01*
Y357504D01*
X450783Y356838D01*
X450116D01*
X450783D01*
X451449Y356171D01*
Y355505D01*
X450783Y354838D01*
X449450D01*
X448783Y355505D01*
X628650Y225044D02*
X624652D01*
Y227044D01*
X625318Y227710D01*
X626651D01*
X627317Y227044D01*
Y225044D01*
Y226377D02*
X628650Y227710D01*
X627984Y229043D02*
X628650Y229709D01*
Y231042D01*
X627984Y231709D01*
X625318D01*
X624652Y231042D01*
Y229709D01*
X625318Y229043D01*
X625984D01*
X626651Y229709D01*
Y231709D01*
X640588Y223266D02*
X636590D01*
Y225266D01*
X637256Y225932D01*
X638589D01*
X639255Y225266D01*
Y223266D01*
Y224599D02*
X640588Y225932D01*
Y227265D02*
Y228598D01*
Y227931D01*
X636590D01*
X637256Y227265D01*
Y230597D02*
X636590Y231264D01*
Y232597D01*
X637256Y233263D01*
X639922D01*
X640588Y232597D01*
Y231264D01*
X639922Y230597D01*
X637256D01*
X662686Y224028D02*
X658688D01*
Y226028D01*
X659354Y226694D01*
X660687D01*
X661353Y226028D01*
Y224028D01*
Y225361D02*
X662686Y226694D01*
Y228027D02*
Y229360D01*
Y228693D01*
X658688D01*
X659354Y228027D01*
X662686Y231359D02*
Y232692D01*
Y232026D01*
X658688D01*
X659354Y231359D01*
X674624Y223266D02*
X670626D01*
Y225266D01*
X671292Y225932D01*
X672625D01*
X673291Y225266D01*
Y223266D01*
Y224599D02*
X674624Y225932D01*
Y227265D02*
Y228598D01*
Y227931D01*
X670626D01*
X671292Y227265D01*
X674624Y233263D02*
Y230597D01*
X671958Y233263D01*
X671292D01*
X670626Y232597D01*
Y231264D01*
X671292Y230597D01*
X54864Y304546D02*
Y308545D01*
X56864D01*
X57530Y307878D01*
Y306546D01*
X56864Y305879D01*
X54864D01*
X56197D02*
X57530Y304546D01*
X61529D02*
X58863D01*
X61529Y307212D01*
Y307878D01*
X60862Y308545D01*
X59529D01*
X58863Y307878D01*
X65528Y308545D02*
X64194Y307878D01*
X62862Y306546D01*
Y305213D01*
X63528Y304546D01*
X64861D01*
X65528Y305213D01*
Y305879D01*
X64861Y306546D01*
X62862D01*
X242316Y248412D02*
X238318D01*
Y250412D01*
X238984Y251078D01*
X240317D01*
X240983Y250412D01*
Y248412D01*
Y249745D02*
X242316Y251078D01*
Y254410D02*
X238318D01*
X240317Y252411D01*
Y255077D01*
X242316Y256410D02*
Y257743D01*
Y257076D01*
X238318D01*
X238984Y256410D01*
X85852Y426720D02*
Y430719D01*
X87852D01*
X88518Y430052D01*
Y428720D01*
X87852Y428053D01*
X85852D01*
X87185D02*
X88518Y426720D01*
X92517Y430719D02*
X89851D01*
Y428720D01*
X91184Y429386D01*
X91850D01*
X92517Y428720D01*
Y427387D01*
X91850Y426720D01*
X90517D01*
X89851Y427387D01*
X96516Y426720D02*
X93850D01*
X96516Y429386D01*
Y430052D01*
X95849Y430719D01*
X94516D01*
X93850Y430052D01*
X131318Y470408D02*
Y474407D01*
X133318D01*
X133984Y473741D01*
Y472408D01*
X133318Y471741D01*
X131318D01*
X132651D02*
X133984Y470408D01*
X135317Y473741D02*
X135983Y474407D01*
X137316D01*
X137983Y473741D01*
Y473074D01*
X137316Y472408D01*
X136650D01*
X137316D01*
X137983Y471741D01*
Y471075D01*
X137316Y470408D01*
X135983D01*
X135317Y471075D01*
X117826Y339724D02*
X117160Y339058D01*
Y337725D01*
X117826Y337058D01*
X120492D01*
X121158Y337725D01*
Y339058D01*
X120492Y339724D01*
X121158Y343723D02*
Y341057D01*
X118492Y343723D01*
X117826D01*
X117160Y343056D01*
Y341723D01*
X117826Y341057D01*
X120492Y345056D02*
X121158Y345722D01*
Y347055D01*
X120492Y347721D01*
X117826D01*
X117160Y347055D01*
Y345722D01*
X117826Y345056D01*
X118492D01*
X119159Y345722D01*
Y347721D01*
X490346Y183323D02*
X487680D01*
Y181324D01*
X489013Y181990D01*
X489680D01*
X490346Y181324D01*
Y179991D01*
X489680Y179324D01*
X488347D01*
X487680Y179991D01*
X494345Y183323D02*
X493012Y182656D01*
X491679Y181324D01*
Y179991D01*
X492345Y179324D01*
X493678D01*
X494345Y179991D01*
Y180657D01*
X493678Y181324D01*
X491679D01*
X511428Y183323D02*
X508762D01*
Y181324D01*
X510095Y181990D01*
X510762D01*
X511428Y181324D01*
Y179991D01*
X510762Y179324D01*
X509429D01*
X508762Y179991D01*
X512761Y183323D02*
X515427D01*
Y182656D01*
X512761Y179991D01*
Y179324D01*
X532510Y183323D02*
X529844D01*
Y181324D01*
X531177Y181990D01*
X531844D01*
X532510Y181324D01*
Y179991D01*
X531844Y179324D01*
X530511D01*
X529844Y179991D01*
X533843Y182656D02*
X534509Y183323D01*
X535842D01*
X536509Y182656D01*
Y181990D01*
X535842Y181324D01*
X536509Y180657D01*
Y179991D01*
X535842Y179324D01*
X534509D01*
X533843Y179991D01*
Y180657D01*
X534509Y181324D01*
X533843Y181990D01*
Y182656D01*
X534509Y181324D02*
X535842D01*
X553338Y183323D02*
X550672D01*
Y181324D01*
X552005Y181990D01*
X552672D01*
X553338Y181324D01*
Y179991D01*
X552672Y179324D01*
X551339D01*
X550672Y179991D01*
X554671D02*
X555337Y179324D01*
X556670D01*
X557337Y179991D01*
Y182656D01*
X556670Y183323D01*
X555337D01*
X554671Y182656D01*
Y181990D01*
X555337Y181324D01*
X557337D01*
X574420Y183323D02*
X573087Y182656D01*
X571754Y181324D01*
Y179991D01*
X572421Y179324D01*
X573754D01*
X574420Y179991D01*
Y180657D01*
X573754Y181324D01*
X571754D01*
X575753Y182656D02*
X576419Y183323D01*
X577752D01*
X578419Y182656D01*
Y179991D01*
X577752Y179324D01*
X576419D01*
X575753Y179991D01*
Y182656D01*
X344042Y162241D02*
X342709Y161574D01*
X341376Y160242D01*
Y158909D01*
X342043Y158242D01*
X343376D01*
X344042Y158909D01*
Y159575D01*
X343376Y160242D01*
X341376D01*
X345375Y158242D02*
X346708D01*
X346041D01*
Y162241D01*
X345375Y161574D01*
X364362Y162241D02*
X363029Y161574D01*
X361696Y160242D01*
Y158909D01*
X362363Y158242D01*
X363696D01*
X364362Y158909D01*
Y159575D01*
X363696Y160242D01*
X361696D01*
X368361Y158242D02*
X365695D01*
X368361Y160908D01*
Y161574D01*
X367694Y162241D01*
X366361D01*
X365695Y161574D01*
X385444Y162241D02*
X384111Y161574D01*
X382778Y160242D01*
Y158909D01*
X383445Y158242D01*
X384778D01*
X385444Y158909D01*
Y159575D01*
X384778Y160242D01*
X382778D01*
X386777Y161574D02*
X387443Y162241D01*
X388776D01*
X389443Y161574D01*
Y160908D01*
X388776Y160242D01*
X388110D01*
X388776D01*
X389443Y159575D01*
Y158909D01*
X388776Y158242D01*
X387443D01*
X386777Y158909D01*
X406526Y162241D02*
X405193Y161574D01*
X403860Y160242D01*
Y158909D01*
X404527Y158242D01*
X405860D01*
X406526Y158909D01*
Y159575D01*
X405860Y160242D01*
X403860D01*
X409858Y158242D02*
Y162241D01*
X407859Y160242D01*
X410525D01*
X427354Y162241D02*
X426021Y161574D01*
X424688Y160242D01*
Y158909D01*
X425355Y158242D01*
X426688D01*
X427354Y158909D01*
Y159575D01*
X426688Y160242D01*
X424688D01*
X431353Y162241D02*
X428687D01*
Y160242D01*
X430020Y160908D01*
X430686D01*
X431353Y160242D01*
Y158909D01*
X430686Y158242D01*
X429353D01*
X428687Y158909D01*
X448436Y162241D02*
X447103Y161574D01*
X445770Y160242D01*
Y158909D01*
X446437Y158242D01*
X447770D01*
X448436Y158909D01*
Y159575D01*
X447770Y160242D01*
X445770D01*
X452435Y162241D02*
X451102Y161574D01*
X449769Y160242D01*
Y158909D01*
X450435Y158242D01*
X451768D01*
X452435Y158909D01*
Y159575D01*
X451768Y160242D01*
X449769D01*
X469518Y162241D02*
X468185Y161574D01*
X466852Y160242D01*
Y158909D01*
X467519Y158242D01*
X468852D01*
X469518Y158909D01*
Y159575D01*
X468852Y160242D01*
X466852D01*
X470851Y162241D02*
X473517D01*
Y161574D01*
X470851Y158909D01*
Y158242D01*
X490346Y162241D02*
X489013Y161574D01*
X487680Y160242D01*
Y158909D01*
X488347Y158242D01*
X489680D01*
X490346Y158909D01*
Y159575D01*
X489680Y160242D01*
X487680D01*
X491679Y161574D02*
X492345Y162241D01*
X493678D01*
X494345Y161574D01*
Y160908D01*
X493678Y160242D01*
X494345Y159575D01*
Y158909D01*
X493678Y158242D01*
X492345D01*
X491679Y158909D01*
Y159575D01*
X492345Y160242D01*
X491679Y160908D01*
Y161574D01*
X492345Y160242D02*
X493678D01*
X511428Y162241D02*
X510095Y161574D01*
X508762Y160242D01*
Y158909D01*
X509429Y158242D01*
X510762D01*
X511428Y158909D01*
Y159575D01*
X510762Y160242D01*
X508762D01*
X512761Y158909D02*
X513427Y158242D01*
X514760D01*
X515427Y158909D01*
Y161574D01*
X514760Y162241D01*
X513427D01*
X512761Y161574D01*
Y160908D01*
X513427Y160242D01*
X515427D01*
X529844Y162241D02*
X532510D01*
Y161574D01*
X529844Y158909D01*
Y158242D01*
X533843Y161574D02*
X534509Y162241D01*
X535842D01*
X536509Y161574D01*
Y158909D01*
X535842Y158242D01*
X534509D01*
X533843Y158909D01*
Y161574D01*
X551434Y162241D02*
X554100D01*
Y161574D01*
X551434Y158909D01*
Y158242D01*
X555433D02*
X556766D01*
X556099D01*
Y162241D01*
X555433Y161574D01*
X571754Y162241D02*
X574420D01*
Y161574D01*
X571754Y158909D01*
Y158242D01*
X578419D02*
X575753D01*
X578419Y160908D01*
Y161574D01*
X577752Y162241D01*
X576419D01*
X575753Y161574D01*
X340868Y141413D02*
X343534D01*
Y140746D01*
X340868Y138081D01*
Y137414D01*
X344867Y140746D02*
X345533Y141413D01*
X346866D01*
X347533Y140746D01*
Y140080D01*
X346866Y139414D01*
X346200D01*
X346866D01*
X347533Y138747D01*
Y138081D01*
X346866Y137414D01*
X345533D01*
X344867Y138081D01*
X361696Y141413D02*
X364362D01*
Y140746D01*
X361696Y138081D01*
Y137414D01*
X367694D02*
Y141413D01*
X365695Y139414D01*
X368361D01*
X382778Y141413D02*
X385444D01*
Y140746D01*
X382778Y138081D01*
Y137414D01*
X389443Y141413D02*
X386777D01*
Y139414D01*
X388110Y140080D01*
X388776D01*
X389443Y139414D01*
Y138081D01*
X388776Y137414D01*
X387443D01*
X386777Y138081D01*
X403860Y141413D02*
X406526D01*
Y140746D01*
X403860Y138081D01*
Y137414D01*
X410525Y141413D02*
X409192Y140746D01*
X407859Y139414D01*
Y138081D01*
X408525Y137414D01*
X409858D01*
X410525Y138081D01*
Y138747D01*
X409858Y139414D01*
X407859D01*
X424688Y141413D02*
X427354D01*
Y140746D01*
X424688Y138081D01*
Y137414D01*
X428687Y141413D02*
X431353D01*
Y140746D01*
X428687Y138081D01*
Y137414D01*
X445770Y141413D02*
X448436D01*
Y140746D01*
X445770Y138081D01*
Y137414D01*
X449769Y140746D02*
X450435Y141413D01*
X451768D01*
X452435Y140746D01*
Y140080D01*
X451768Y139414D01*
X452435Y138747D01*
Y138081D01*
X451768Y137414D01*
X450435D01*
X449769Y138081D01*
Y138747D01*
X450435Y139414D01*
X449769Y140080D01*
Y140746D01*
X450435Y139414D02*
X451768D01*
X466852Y141413D02*
X469518D01*
Y140746D01*
X466852Y138081D01*
Y137414D01*
X470851Y138081D02*
X471517Y137414D01*
X472850D01*
X473517Y138081D01*
Y140746D01*
X472850Y141413D01*
X471517D01*
X470851Y140746D01*
Y140080D01*
X471517Y139414D01*
X473517D01*
X487680Y140746D02*
X488347Y141413D01*
X489680D01*
X490346Y140746D01*
Y140080D01*
X489680Y139414D01*
X490346Y138747D01*
Y138081D01*
X489680Y137414D01*
X488347D01*
X487680Y138081D01*
Y138747D01*
X488347Y139414D01*
X487680Y140080D01*
Y140746D01*
X488347Y139414D02*
X489680D01*
X491679Y140746D02*
X492345Y141413D01*
X493678D01*
X494345Y140746D01*
Y138081D01*
X493678Y137414D01*
X492345D01*
X491679Y138081D01*
Y140746D01*
X509524D02*
X510191Y141413D01*
X511524D01*
X512190Y140746D01*
Y140080D01*
X511524Y139414D01*
X512190Y138747D01*
Y138081D01*
X511524Y137414D01*
X510191D01*
X509524Y138081D01*
Y138747D01*
X510191Y139414D01*
X509524Y140080D01*
Y140746D01*
X510191Y139414D02*
X511524D01*
X513523Y137414D02*
X514856D01*
X514189D01*
Y141413D01*
X513523Y140746D01*
X529590Y140492D02*
X530257Y141159D01*
X531590D01*
X532256Y140492D01*
Y139826D01*
X531590Y139160D01*
X532256Y138493D01*
Y137827D01*
X531590Y137160D01*
X530257D01*
X529590Y137827D01*
Y138493D01*
X530257Y139160D01*
X529590Y139826D01*
Y140492D01*
X530257Y139160D02*
X531590D01*
X536255Y137160D02*
X533589D01*
X536255Y139826D01*
Y140492D01*
X535588Y141159D01*
X534255D01*
X533589Y140492D01*
X550672Y140746D02*
X551339Y141413D01*
X552672D01*
X553338Y140746D01*
Y140080D01*
X552672Y139414D01*
X553338Y138747D01*
Y138081D01*
X552672Y137414D01*
X551339D01*
X550672Y138081D01*
Y138747D01*
X551339Y139414D01*
X550672Y140080D01*
Y140746D01*
X551339Y139414D02*
X552672D01*
X554671Y140746D02*
X555337Y141413D01*
X556670D01*
X557337Y140746D01*
Y140080D01*
X556670Y139414D01*
X556004D01*
X556670D01*
X557337Y138747D01*
Y138081D01*
X556670Y137414D01*
X555337D01*
X554671Y138081D01*
X571754Y140746D02*
X572421Y141413D01*
X573754D01*
X574420Y140746D01*
Y140080D01*
X573754Y139414D01*
X574420Y138747D01*
Y138081D01*
X573754Y137414D01*
X572421D01*
X571754Y138081D01*
Y138747D01*
X572421Y139414D01*
X571754Y140080D01*
Y140746D01*
X572421Y139414D02*
X573754D01*
X577752Y137414D02*
Y141413D01*
X575753Y139414D01*
X578419D01*
X340868Y119664D02*
X341535Y120331D01*
X342868D01*
X343534Y119664D01*
Y118998D01*
X342868Y118332D01*
X343534Y117665D01*
Y116999D01*
X342868Y116332D01*
X341535D01*
X340868Y116999D01*
Y117665D01*
X341535Y118332D01*
X340868Y118998D01*
Y119664D01*
X341535Y118332D02*
X342868D01*
X347533Y120331D02*
X344867D01*
Y118332D01*
X346200Y118998D01*
X346866D01*
X347533Y118332D01*
Y116999D01*
X346866Y116332D01*
X345533D01*
X344867Y116999D01*
X361696Y119664D02*
X362363Y120331D01*
X363696D01*
X364362Y119664D01*
Y118998D01*
X363696Y118332D01*
X364362Y117665D01*
Y116999D01*
X363696Y116332D01*
X362363D01*
X361696Y116999D01*
Y117665D01*
X362363Y118332D01*
X361696Y118998D01*
Y119664D01*
X362363Y118332D02*
X363696D01*
X368361Y120331D02*
X367028Y119664D01*
X365695Y118332D01*
Y116999D01*
X366361Y116332D01*
X367694D01*
X368361Y116999D01*
Y117665D01*
X367694Y118332D01*
X365695D01*
X382778Y119664D02*
X383445Y120331D01*
X384778D01*
X385444Y119664D01*
Y118998D01*
X384778Y118332D01*
X385444Y117665D01*
Y116999D01*
X384778Y116332D01*
X383445D01*
X382778Y116999D01*
Y117665D01*
X383445Y118332D01*
X382778Y118998D01*
Y119664D01*
X383445Y118332D02*
X384778D01*
X386777Y120331D02*
X389443D01*
Y119664D01*
X386777Y116999D01*
Y116332D01*
X403860Y119664D02*
X404527Y120331D01*
X405860D01*
X406526Y119664D01*
Y118998D01*
X405860Y118332D01*
X406526Y117665D01*
Y116999D01*
X405860Y116332D01*
X404527D01*
X403860Y116999D01*
Y117665D01*
X404527Y118332D01*
X403860Y118998D01*
Y119664D01*
X404527Y118332D02*
X405860D01*
X407859Y119664D02*
X408525Y120331D01*
X409858D01*
X410525Y119664D01*
Y118998D01*
X409858Y118332D01*
X410525Y117665D01*
Y116999D01*
X409858Y116332D01*
X408525D01*
X407859Y116999D01*
Y117665D01*
X408525Y118332D01*
X407859Y118998D01*
Y119664D01*
X408525Y118332D02*
X409858D01*
X424688Y119664D02*
X425355Y120331D01*
X426688D01*
X427354Y119664D01*
Y118998D01*
X426688Y118332D01*
X427354Y117665D01*
Y116999D01*
X426688Y116332D01*
X425355D01*
X424688Y116999D01*
Y117665D01*
X425355Y118332D01*
X424688Y118998D01*
Y119664D01*
X425355Y118332D02*
X426688D01*
X428687Y116999D02*
X429353Y116332D01*
X430686D01*
X431353Y116999D01*
Y119664D01*
X430686Y120331D01*
X429353D01*
X428687Y119664D01*
Y118998D01*
X429353Y118332D01*
X431353D01*
X445770Y116999D02*
X446437Y116332D01*
X447770D01*
X448436Y116999D01*
Y119664D01*
X447770Y120331D01*
X446437D01*
X445770Y119664D01*
Y118998D01*
X446437Y118332D01*
X448436D01*
X449769Y119664D02*
X450435Y120331D01*
X451768D01*
X452435Y119664D01*
Y116999D01*
X451768Y116332D01*
X450435D01*
X449769Y116999D01*
Y119664D01*
X467360Y116999D02*
X468027Y116332D01*
X469360D01*
X470026Y116999D01*
Y119664D01*
X469360Y120331D01*
X468027D01*
X467360Y119664D01*
Y118998D01*
X468027Y118332D01*
X470026D01*
X471359Y116332D02*
X472692D01*
X472025D01*
Y120331D01*
X471359Y119664D01*
X487680Y116999D02*
X488347Y116332D01*
X489680D01*
X490346Y116999D01*
Y119664D01*
X489680Y120331D01*
X488347D01*
X487680Y119664D01*
Y118998D01*
X488347Y118332D01*
X490346D01*
X494345Y116332D02*
X491679D01*
X494345Y118998D01*
Y119664D01*
X493678Y120331D01*
X492345D01*
X491679Y119664D01*
X508762Y116999D02*
X509429Y116332D01*
X510762D01*
X511428Y116999D01*
Y119664D01*
X510762Y120331D01*
X509429D01*
X508762Y119664D01*
Y118998D01*
X509429Y118332D01*
X511428D01*
X512761Y119664D02*
X513427Y120331D01*
X514760D01*
X515427Y119664D01*
Y118998D01*
X514760Y118332D01*
X514094D01*
X514760D01*
X515427Y117665D01*
Y116999D01*
X514760Y116332D01*
X513427D01*
X512761Y116999D01*
X529844D02*
X530511Y116332D01*
X531844D01*
X532510Y116999D01*
Y119664D01*
X531844Y120331D01*
X530511D01*
X529844Y119664D01*
Y118998D01*
X530511Y118332D01*
X532510D01*
X535842Y116332D02*
Y120331D01*
X533843Y118332D01*
X536509D01*
X550672Y116999D02*
X551339Y116332D01*
X552672D01*
X553338Y116999D01*
Y119664D01*
X552672Y120331D01*
X551339D01*
X550672Y119664D01*
Y118998D01*
X551339Y118332D01*
X553338D01*
X557337Y120331D02*
X554671D01*
Y118332D01*
X556004Y118998D01*
X556670D01*
X557337Y118332D01*
Y116999D01*
X556670Y116332D01*
X555337D01*
X554671Y116999D01*
X595884Y259080D02*
Y263079D01*
X597884D01*
X598550Y262412D01*
Y261080D01*
X597884Y260413D01*
X595884D01*
X597217D02*
X598550Y259080D01*
X602549D02*
X599883D01*
X602549Y261746D01*
Y262412D01*
X601882Y263079D01*
X600549D01*
X599883Y262412D01*
X595122Y119888D02*
Y123887D01*
X597122D01*
X597788Y123221D01*
Y121888D01*
X597122Y121221D01*
X595122D01*
X596455D02*
X597788Y119888D01*
X599121D02*
X600454D01*
X599787D01*
Y123887D01*
X599121Y123221D01*
X604453Y119888D02*
Y123887D01*
X602453Y121888D01*
X605119D01*
X595122Y133858D02*
Y137857D01*
X597122D01*
X597788Y137191D01*
Y135858D01*
X597122Y135191D01*
X595122D01*
X596455D02*
X597788Y133858D01*
X599121D02*
X600454D01*
X599787D01*
Y137857D01*
X599121Y137191D01*
X605119Y137857D02*
X603786Y137191D01*
X602453Y135858D01*
Y134525D01*
X603120Y133858D01*
X604453D01*
X605119Y134525D01*
Y135191D01*
X604453Y135858D01*
X602453D01*
X71500Y405923D02*
X70834Y406589D01*
X69501D01*
X68834Y405923D01*
Y403257D01*
X69501Y402590D01*
X70834D01*
X71500Y403257D01*
X75499Y405923D02*
X74832Y406589D01*
X73499D01*
X72833Y405923D01*
Y403257D01*
X73499Y402590D01*
X74832D01*
X75499Y403257D01*
X76832Y402590D02*
X78165D01*
X77498D01*
Y406589D01*
X76832Y405923D01*
X70738Y418623D02*
X70072Y419289D01*
X68739D01*
X68072Y418623D01*
Y415957D01*
X68739Y415290D01*
X70072D01*
X70738Y415957D01*
X74737Y418623D02*
X74070Y419289D01*
X72737D01*
X72071Y418623D01*
Y415957D01*
X72737Y415290D01*
X74070D01*
X74737Y415957D01*
X78735Y415290D02*
X76070D01*
X78735Y417956D01*
Y418623D01*
X78069Y419289D01*
X76736D01*
X76070Y418623D01*
X54864Y315722D02*
Y319721D01*
X56864D01*
X57530Y319055D01*
Y317722D01*
X56864Y317055D01*
X54864D01*
X56197D02*
X57530Y315722D01*
X61529Y319721D02*
X58863D01*
Y317722D01*
X60196Y318388D01*
X60862D01*
X61529Y317722D01*
Y316389D01*
X60862Y315722D01*
X59529D01*
X58863Y316389D01*
X65528Y319721D02*
X64194Y319055D01*
X62862Y317722D01*
Y316389D01*
X63528Y315722D01*
X64861D01*
X65528Y316389D01*
Y317055D01*
X64861Y317722D01*
X62862D01*
X30988Y315722D02*
Y319721D01*
X32988D01*
X33654Y319055D01*
Y317722D01*
X32988Y317055D01*
X30988D01*
X32321D02*
X33654Y315722D01*
X37653Y319721D02*
X34987D01*
Y317722D01*
X36320Y318388D01*
X36986D01*
X37653Y317722D01*
Y316389D01*
X36986Y315722D01*
X35653D01*
X34987Y316389D01*
X38986Y319721D02*
X41652D01*
Y319055D01*
X38986Y316389D01*
Y315722D01*
X162814Y307594D02*
Y311593D01*
X164814D01*
X165480Y310926D01*
Y309594D01*
X164814Y308927D01*
X162814D01*
X164147D02*
X165480Y307594D01*
X169479Y311593D02*
X166813D01*
Y309594D01*
X168146Y310260D01*
X168812D01*
X169479Y309594D01*
Y308261D01*
X168812Y307594D01*
X167479D01*
X166813Y308261D01*
X170812Y310926D02*
X171478Y311593D01*
X172811D01*
X173477Y310926D01*
Y310260D01*
X172811Y309594D01*
X173477Y308927D01*
Y308261D01*
X172811Y307594D01*
X171478D01*
X170812Y308261D01*
Y308927D01*
X171478Y309594D01*
X170812Y310260D01*
Y310926D01*
X171478Y309594D02*
X172811D01*
X237490Y352298D02*
Y356297D01*
X239490D01*
X240156Y355630D01*
Y354298D01*
X239490Y353631D01*
X237490D01*
X238823D02*
X240156Y352298D01*
X244155D02*
X241489D01*
X244155Y354964D01*
Y355630D01*
X243488Y356297D01*
X242155D01*
X241489Y355630D01*
X245488D02*
X246154Y356297D01*
X247487D01*
X248153Y355630D01*
Y352965D01*
X247487Y352298D01*
X246154D01*
X245488Y352965D01*
Y355630D01*
X258826Y408178D02*
Y412177D01*
X260826D01*
X261492Y411511D01*
Y410178D01*
X260826Y409511D01*
X258826D01*
X260159D02*
X261492Y408178D01*
X265491Y412177D02*
X262825D01*
Y410178D01*
X264158Y410844D01*
X264824D01*
X265491Y410178D01*
Y408845D01*
X264824Y408178D01*
X263491D01*
X262825Y408845D01*
X266824D02*
X267490Y408178D01*
X268823D01*
X269489Y408845D01*
Y411511D01*
X268823Y412177D01*
X267490D01*
X266824Y411511D01*
Y410844D01*
X267490Y410178D01*
X269489D01*
M02*
