G04*
G04 #@! TF.GenerationSoftware,Altium Limited,Altium Designer,23.8.1 (32)*
G04*
G04 Layer_Color=16711935*
%FSLAX44Y44*%
%MOMM*%
G71*
G04*
G04 #@! TF.SameCoordinates,6629C207-265C-49F2-9D33-E76E02802E5F*
G04*
G04*
G04 #@! TF.FilePolarity,Negative*
G04*
G01*
G75*
%ADD90R,2.6000X4.5000*%
%ADD91R,4.5000X2.6000*%
%ADD92O,2.4000X1.3000*%
%ADD93O,2.7000X1.1500*%
%ADD94C,0.6000*%
G04:AMPARAMS|DCode=95|XSize=1.6007mm|YSize=1.6007mm|CornerRadius=0mm|HoleSize=0mm|Usage=FLASHONLY|Rotation=180.000|XOffset=0mm|YOffset=0mm|HoleType=Round|Shape=Octagon|*
%AMOCTAGOND95*
4,1,8,-0.8004,0.4002,-0.8004,-0.4002,-0.4002,-0.8004,0.4002,-0.8004,0.8004,-0.4002,0.8004,0.4002,0.4002,0.8004,-0.4002,0.8004,-0.8004,0.4002,0.0*
%
%ADD95OCTAGOND95*%

%ADD96C,1.5220*%
%ADD97C,1.5224*%
G04:AMPARAMS|DCode=98|XSize=1.6007mm|YSize=1.6007mm|CornerRadius=0mm|HoleSize=0mm|Usage=FLASHONLY|Rotation=270.000|XOffset=0mm|YOffset=0mm|HoleType=Round|Shape=Octagon|*
%AMOCTAGOND98*
4,1,8,-0.4002,-0.8004,0.4002,-0.8004,0.8004,-0.4002,0.8004,0.4002,0.4002,0.8004,-0.4002,0.8004,-0.8004,0.4002,-0.8004,-0.4002,-0.4002,-0.8004,0.0*
%
%ADD98OCTAGOND98*%

%ADD99C,4.1999*%
%ADD100C,3.9999*%
G04:AMPARAMS|DCode=142|XSize=1.1mm|YSize=1.1mm|CornerRadius=0.55mm|HoleSize=0mm|Usage=FLASHONLY|Rotation=90.000|XOffset=0mm|YOffset=0mm|HoleType=Round|Shape=RoundedRectangle|*
%AMROUNDEDRECTD142*
21,1,1.1000,0.0000,0,0,90.0*
21,1,0.0000,1.1000,0,0,90.0*
1,1,1.1000,0.0000,0.0000*
1,1,1.1000,0.0000,0.0000*
1,1,1.1000,0.0000,0.0000*
1,1,1.1000,0.0000,0.0000*
%
%ADD142ROUNDEDRECTD142*%
G04:AMPARAMS|DCode=143|XSize=1.35mm|YSize=1.57mm|CornerRadius=0.3313mm|HoleSize=0mm|Usage=FLASHONLY|Rotation=180.000|XOffset=0mm|YOffset=0mm|HoleType=Round|Shape=RoundedRectangle|*
%AMROUNDEDRECTD143*
21,1,1.3500,0.9075,0,0,180.0*
21,1,0.6875,1.5700,0,0,180.0*
1,1,0.6625,-0.3438,0.4537*
1,1,0.6625,0.3438,0.4537*
1,1,0.6625,0.3438,-0.4537*
1,1,0.6625,-0.3438,-0.4537*
%
%ADD143ROUNDEDRECTD143*%
G04:AMPARAMS|DCode=144|XSize=1.1mm|YSize=1.1mm|CornerRadius=0.55mm|HoleSize=0mm|Usage=FLASHONLY|Rotation=180.000|XOffset=0mm|YOffset=0mm|HoleType=Round|Shape=RoundedRectangle|*
%AMROUNDEDRECTD144*
21,1,1.1000,0.0000,0,0,180.0*
21,1,0.0000,1.1000,0,0,180.0*
1,1,1.1000,0.0000,0.0000*
1,1,1.1000,0.0000,0.0000*
1,1,1.1000,0.0000,0.0000*
1,1,1.1000,0.0000,0.0000*
%
%ADD144ROUNDEDRECTD144*%
%ADD145C,1.1000*%
G36*
X28540Y93061D02*
X28606D01*
Y92995D01*
X28672D01*
Y92929D01*
X28804D01*
Y92863D01*
X28936D01*
Y92731D01*
X29069D01*
Y92664D01*
X29201D01*
Y92598D01*
X29267D01*
Y92532D01*
X29333D01*
Y92466D01*
X29399D01*
Y92400D01*
X29465D01*
Y92334D01*
X29532D01*
Y92268D01*
X29598D01*
Y92201D01*
X29796D01*
Y92135D01*
X29862D01*
Y92069D01*
X29929D01*
Y92003D01*
X29995D01*
Y91937D01*
X30061D01*
Y91871D01*
X30127D01*
Y91805D01*
X30193D01*
Y91738D01*
X30259D01*
Y91672D01*
X30325D01*
Y91606D01*
X30392D01*
Y91540D01*
X30458D01*
Y91474D01*
X30524D01*
Y91408D01*
X30590D01*
Y91341D01*
X30656D01*
Y91275D01*
X30722D01*
Y91209D01*
X30788D01*
Y91143D01*
X30855D01*
Y91077D01*
X30921D01*
Y90878D01*
X30987D01*
Y90812D01*
X31053D01*
Y90746D01*
X31119D01*
Y90680D01*
X31185D01*
Y90614D01*
X31251D01*
Y90548D01*
X31318D01*
Y90482D01*
X31384D01*
Y90283D01*
X31450D01*
Y90217D01*
X31582D01*
Y90085D01*
X31714D01*
Y89886D01*
X31781D01*
Y89820D01*
X31847D01*
Y89754D01*
X31913D01*
Y89556D01*
X31979D01*
Y89489D01*
X32045D01*
Y89423D01*
X32111D01*
Y89291D01*
X32178D01*
Y89225D01*
X32244D01*
Y89026D01*
X32310D01*
Y88828D01*
X32442D01*
Y88630D01*
X32508D01*
Y88431D01*
X32574D01*
Y88365D01*
X32641D01*
Y88233D01*
X32707D01*
Y88166D01*
X32773D01*
Y87968D01*
X32839D01*
Y87769D01*
X32971D01*
Y87439D01*
X33037D01*
Y87306D01*
X33103D01*
Y87240D01*
X33170D01*
Y86910D01*
X33302D01*
Y86513D01*
X33368D01*
Y86182D01*
X33500D01*
Y85653D01*
X33567D01*
Y85190D01*
X33633D01*
Y85124D01*
X33699D01*
Y84198D01*
X33765D01*
Y84131D01*
X33831D01*
Y82213D01*
X33765D01*
Y82147D01*
X33699D01*
Y81353D01*
X33633D01*
Y81287D01*
X33567D01*
Y80692D01*
X33500D01*
Y80295D01*
X33434D01*
Y80229D01*
X33368D01*
Y79832D01*
X33302D01*
Y79567D01*
X33236D01*
Y79501D01*
X33170D01*
Y79237D01*
X33103D01*
Y79171D01*
X33037D01*
Y78906D01*
X32971D01*
Y78708D01*
X32905D01*
Y78641D01*
X32839D01*
Y78377D01*
X32773D01*
Y78178D01*
X32707D01*
Y78112D01*
X32641D01*
Y77914D01*
X32508D01*
Y77715D01*
X32442D01*
Y77517D01*
X32376D01*
Y77451D01*
X32310D01*
Y77319D01*
X32244D01*
Y77252D01*
X32178D01*
Y77186D01*
X32111D01*
Y76988D01*
X32045D01*
Y76922D01*
X31979D01*
Y76789D01*
X31913D01*
Y76657D01*
X31781D01*
Y76459D01*
X31714D01*
Y76392D01*
X31648D01*
Y76326D01*
X31582D01*
Y76260D01*
X31516D01*
Y76194D01*
X31450D01*
Y75996D01*
X31384D01*
Y75929D01*
X31318D01*
Y75863D01*
X31251D01*
Y75797D01*
X31185D01*
Y75665D01*
X31119D01*
Y75599D01*
X31053D01*
Y75533D01*
X30987D01*
Y75466D01*
X30921D01*
Y75400D01*
X30855D01*
Y75334D01*
X30788D01*
Y75268D01*
X30722D01*
Y75202D01*
X30656D01*
Y75136D01*
X30590D01*
Y75069D01*
X30524D01*
Y75003D01*
X30458D01*
Y74937D01*
X30392D01*
Y74871D01*
X30325D01*
Y74805D01*
X30259D01*
Y74739D01*
X30193D01*
Y74673D01*
X30127D01*
Y74606D01*
X30061D01*
Y74540D01*
X29995D01*
Y74474D01*
X29929D01*
Y74408D01*
X29862D01*
Y74342D01*
X29796D01*
Y74276D01*
X29730D01*
Y74210D01*
X29664D01*
Y74144D01*
X29598D01*
Y74077D01*
X29532D01*
Y74011D01*
X29465D01*
Y73945D01*
X29399D01*
Y73879D01*
X29267D01*
Y73813D01*
X29201D01*
Y73747D01*
X29135D01*
Y73681D01*
X29069D01*
Y73614D01*
X28870D01*
Y73548D01*
X28804D01*
Y73482D01*
X28738D01*
Y73416D01*
X28672D01*
Y73350D01*
X28540D01*
Y73284D01*
X28407D01*
Y73151D01*
X28209D01*
Y73085D01*
X28143D01*
Y73019D01*
X28076D01*
Y72953D01*
X27878D01*
Y72887D01*
X27812D01*
Y72821D01*
X27680D01*
Y72754D01*
X27481D01*
Y72688D01*
X27415D01*
Y72622D01*
X27217D01*
Y72556D01*
X27084D01*
Y72490D01*
X27018D01*
Y72424D01*
X26820D01*
Y72358D01*
X26753D01*
Y72291D01*
X26621D01*
Y72225D01*
X26423D01*
Y72159D01*
X26357D01*
Y72093D01*
X26092D01*
Y72027D01*
X25828D01*
Y71961D01*
X25761D01*
Y71894D01*
X25431D01*
Y71762D01*
X25100D01*
Y71696D01*
X24703D01*
Y71564D01*
X24174D01*
Y71498D01*
X23579D01*
Y71431D01*
X23512D01*
Y71365D01*
X20403D01*
Y71431D01*
X20337D01*
Y71498D01*
X19610D01*
Y71564D01*
X19213D01*
Y71630D01*
X19147D01*
Y71696D01*
X18750D01*
Y71762D01*
X18419D01*
Y71828D01*
X18353D01*
Y71894D01*
X18022D01*
Y72027D01*
X17692D01*
Y72093D01*
X17493D01*
Y72225D01*
X17162D01*
Y72291D01*
X17030D01*
Y72358D01*
X16964D01*
Y72424D01*
X16766D01*
Y72490D01*
X16699D01*
Y72556D01*
X16567D01*
Y72622D01*
X16369D01*
Y72688D01*
X16302D01*
Y72754D01*
X16104D01*
Y72821D01*
X15972D01*
Y72887D01*
X15906D01*
Y72953D01*
X15840D01*
Y73019D01*
X15773D01*
Y73085D01*
X15575D01*
Y73151D01*
X15443D01*
Y73218D01*
X15376D01*
Y73284D01*
X15310D01*
Y73350D01*
X15112D01*
Y73416D01*
X15046D01*
Y73482D01*
X14980D01*
Y73548D01*
X14913D01*
Y73614D01*
X14847D01*
Y73681D01*
X14649D01*
Y73813D01*
X14517D01*
Y73879D01*
X14450D01*
Y74011D01*
X14318D01*
Y74144D01*
X14120D01*
Y74210D01*
X14053D01*
Y74276D01*
X13987D01*
Y74342D01*
X13921D01*
Y74408D01*
X13855D01*
Y74474D01*
X13789D01*
Y74540D01*
X13723D01*
Y74606D01*
X13657D01*
Y74673D01*
X13591D01*
Y74739D01*
X13524D01*
Y74805D01*
X13458D01*
Y74871D01*
X13392D01*
Y74937D01*
X13326D01*
Y75003D01*
X13260D01*
Y75069D01*
X13194D01*
Y75136D01*
X13127D01*
Y75202D01*
X13061D01*
Y75268D01*
X12995D01*
Y75334D01*
X12929D01*
Y75400D01*
X12863D01*
Y75599D01*
X12731D01*
Y75731D01*
X12665D01*
Y75797D01*
X12532D01*
Y75929D01*
X12400D01*
Y76128D01*
X12334D01*
Y76194D01*
X12268D01*
Y76260D01*
X12201D01*
Y76326D01*
X12135D01*
Y76525D01*
X12069D01*
Y76591D01*
X12003D01*
Y76657D01*
X11937D01*
Y76723D01*
X11871D01*
Y76856D01*
X11805D01*
Y77054D01*
X11738D01*
Y77120D01*
X11672D01*
Y77186D01*
X11606D01*
Y77385D01*
X11474D01*
Y77583D01*
X11408D01*
Y77649D01*
X11342D01*
Y77848D01*
X11275D01*
Y77980D01*
X11209D01*
Y78046D01*
X11143D01*
Y78245D01*
X11077D01*
Y78443D01*
X10945D01*
Y78774D01*
X10878D01*
Y78840D01*
X10812D01*
Y78972D01*
X10746D01*
Y79303D01*
X10614D01*
Y79634D01*
X10548D01*
Y79898D01*
X10482D01*
Y79964D01*
X10416D01*
Y80361D01*
X10349D01*
Y80427D01*
X10283D01*
Y80890D01*
X10217D01*
Y81486D01*
X10151D01*
Y81552D01*
X10085D01*
Y82676D01*
X10019D01*
Y83668D01*
X10085D01*
Y84859D01*
X10151D01*
Y84925D01*
X10217D01*
Y85521D01*
X10283D01*
Y85918D01*
X10349D01*
Y85984D01*
X10416D01*
Y86381D01*
X10482D01*
Y86447D01*
X10548D01*
Y86844D01*
X10614D01*
Y87108D01*
X10680D01*
Y87174D01*
X10746D01*
Y87373D01*
X10812D01*
Y87637D01*
X10878D01*
Y87703D01*
X10945D01*
Y87836D01*
X11011D01*
Y87902D01*
X11077D01*
Y88166D01*
X11143D01*
Y88365D01*
X11209D01*
Y88431D01*
X11275D01*
Y88630D01*
X11342D01*
Y88762D01*
X11408D01*
Y88828D01*
X11474D01*
Y89026D01*
X11540D01*
Y89093D01*
X11606D01*
Y89159D01*
X11672D01*
Y89357D01*
X11805D01*
Y89556D01*
X11871D01*
Y89622D01*
X11937D01*
Y89688D01*
X12003D01*
Y89886D01*
X12069D01*
Y89952D01*
X12135D01*
Y90019D01*
X12201D01*
Y90151D01*
X12268D01*
Y90217D01*
X12334D01*
Y90283D01*
X12400D01*
Y90349D01*
X12466D01*
Y90415D01*
X12532D01*
Y90614D01*
X12598D01*
Y90680D01*
X12665D01*
Y90746D01*
X12731D01*
Y90812D01*
X12797D01*
Y90878D01*
X12863D01*
Y90944D01*
X12929D01*
Y91011D01*
X12995D01*
Y91077D01*
X13061D01*
Y91143D01*
X13127D01*
Y91209D01*
X13194D01*
Y91341D01*
X13260D01*
Y91474D01*
X13392D01*
Y91606D01*
X13458D01*
Y91672D01*
X13591D01*
Y91805D01*
X13723D01*
Y91871D01*
X13855D01*
Y91937D01*
X13921D01*
Y92003D01*
X13987D01*
Y92069D01*
X14053D01*
Y92135D01*
X14120D01*
Y92201D01*
X14186D01*
Y92268D01*
X14252D01*
Y92334D01*
X14318D01*
Y92400D01*
X14384D01*
Y92466D01*
X14450D01*
Y92532D01*
X14649D01*
Y92598D01*
X14715D01*
Y92664D01*
X14781D01*
Y92731D01*
X14847D01*
Y92797D01*
X14913D01*
Y92863D01*
X15046D01*
Y92929D01*
X15112D01*
Y92995D01*
X15178D01*
Y93061D01*
X15376D01*
Y93127D01*
X15443D01*
Y93194D01*
X15509D01*
Y93260D01*
X15707D01*
Y93392D01*
X15840D01*
Y93458D01*
X15972D01*
Y93524D01*
X16038D01*
Y93590D01*
X16236D01*
Y93657D01*
X16302D01*
Y93723D01*
X16435D01*
Y93789D01*
X16633D01*
Y93855D01*
X16699D01*
Y93921D01*
X16898D01*
Y93987D01*
X17030D01*
Y94053D01*
X17096D01*
Y94120D01*
X17295D01*
Y94186D01*
X17361D01*
Y94252D01*
X17625D01*
Y94318D01*
X17890D01*
Y94384D01*
X17956D01*
Y94450D01*
X18155D01*
Y94516D01*
X18551D01*
Y94649D01*
X18882D01*
Y94715D01*
X18948D01*
Y94781D01*
X19411D01*
Y94847D01*
X19941D01*
Y94979D01*
X20800D01*
Y95046D01*
X23115D01*
Y94979D01*
X23909D01*
Y94913D01*
X23975D01*
Y94847D01*
X24505D01*
Y94781D01*
X24901D01*
Y94649D01*
X25298D01*
Y94583D01*
X25364D01*
Y94516D01*
X25629D01*
Y94450D01*
X25960D01*
Y94384D01*
X26026D01*
Y94318D01*
X26158D01*
Y94252D01*
X26489D01*
Y94120D01*
X26687D01*
Y94053D01*
X26753D01*
Y93987D01*
X26952D01*
Y93921D01*
X27217D01*
Y93855D01*
X27283D01*
Y93789D01*
X27481D01*
Y93723D01*
X27547D01*
Y93590D01*
X27746D01*
Y93524D01*
X27812D01*
Y93458D01*
X28010D01*
Y93392D01*
X28143D01*
Y93326D01*
X28209D01*
Y93260D01*
X28275D01*
Y93194D01*
X28473D01*
Y93127D01*
X28540D01*
Y93061D01*
D02*
G37*
G36*
X398487Y242535D02*
Y242579D01*
X398531D01*
Y242623D01*
X398575D01*
Y242667D01*
X398751D01*
Y242711D01*
X398795D01*
Y242755D01*
X398839D01*
Y242799D01*
X398884D01*
Y242843D01*
X398928D01*
Y242888D01*
X398972D01*
Y242932D01*
X399016D01*
Y242976D01*
X399148D01*
Y243020D01*
X399192D01*
Y243064D01*
X399236D01*
Y243108D01*
X399280D01*
Y243152D01*
X399324D01*
Y243196D01*
X399501D01*
Y243284D01*
X399545D01*
Y243329D01*
X399721D01*
Y243373D01*
X399765D01*
Y243417D01*
X399942D01*
Y243505D01*
X400118D01*
Y243549D01*
X400162D01*
Y243637D01*
X400339D01*
Y243681D01*
X400383D01*
Y243725D01*
X400647D01*
Y243769D01*
X400691D01*
Y243814D01*
X400736D01*
Y243858D01*
X400868D01*
Y243902D01*
X400912D01*
Y243946D01*
X401309D01*
Y244034D01*
X401397D01*
Y244078D01*
X401441D01*
Y244034D01*
X401706D01*
Y244078D01*
X401750D01*
Y244166D01*
X402455D01*
Y244210D01*
X402499D01*
Y244255D01*
X403867D01*
Y244166D01*
X404572D01*
Y244122D01*
X404616D01*
Y244078D01*
X404660D01*
Y244034D01*
X405013D01*
Y244078D01*
X405057D01*
Y244034D01*
X405101D01*
Y243990D01*
X405145D01*
Y243946D01*
X405410D01*
Y243902D01*
X405454D01*
Y243858D01*
X405498D01*
Y243814D01*
X405586D01*
Y243858D01*
X405719D01*
Y243814D01*
X405763D01*
Y243769D01*
X405807D01*
Y243725D01*
X406071D01*
Y243637D01*
X406248D01*
Y243593D01*
X406292D01*
Y243549D01*
X406336D01*
Y243505D01*
X406512D01*
Y243417D01*
X406689D01*
Y243373D01*
X406733D01*
Y243329D01*
X406865D01*
Y243284D01*
X406909D01*
Y243240D01*
X406953D01*
Y243196D01*
X406997D01*
Y243152D01*
X407042D01*
Y243108D01*
X407218D01*
Y243064D01*
X407262D01*
Y243020D01*
X407306D01*
Y242976D01*
X407350D01*
Y242888D01*
X407527D01*
Y242843D01*
X407571D01*
Y242799D01*
X407615D01*
Y242755D01*
X407659D01*
Y242711D01*
X407703D01*
Y242667D01*
X407747D01*
Y242623D01*
X407791D01*
Y242579D01*
X407835D01*
Y242535D01*
X407879D01*
Y242491D01*
X407923D01*
Y242447D01*
X408100D01*
Y242358D01*
X408188D01*
Y242270D01*
X408276D01*
Y242226D01*
X408320D01*
Y242138D01*
X408409D01*
Y242050D01*
X408497D01*
Y241961D01*
X408541D01*
Y241917D01*
X408629D01*
Y241829D01*
X408717D01*
Y241653D01*
X408761D01*
Y241609D01*
X408805D01*
Y241565D01*
X408849D01*
Y241521D01*
X408894D01*
Y241476D01*
X408938D01*
Y241432D01*
X408982D01*
Y241388D01*
X409026D01*
Y241344D01*
X409070D01*
Y241300D01*
X409114D01*
Y241256D01*
X409158D01*
Y241080D01*
X409246D01*
Y241035D01*
X409290D01*
Y240991D01*
X409334D01*
Y240947D01*
X409379D01*
Y240771D01*
X409467D01*
Y240595D01*
X409511D01*
Y240550D01*
X409555D01*
Y240506D01*
X409599D01*
Y240462D01*
X409643D01*
Y240418D01*
X409687D01*
Y240242D01*
X409776D01*
Y240065D01*
X409820D01*
Y240021D01*
X409864D01*
Y239977D01*
X409908D01*
Y239845D01*
X409864D01*
Y239801D01*
X409908D01*
Y239713D01*
X409996D01*
Y239536D01*
X410040D01*
Y239492D01*
X410084D01*
Y239448D01*
X410128D01*
Y239360D01*
X410084D01*
Y239228D01*
X410128D01*
Y239183D01*
X410172D01*
Y239139D01*
X410216D01*
Y238787D01*
X410261D01*
Y238742D01*
X410305D01*
Y238257D01*
X410349D01*
Y238213D01*
X410393D01*
Y238169D01*
X410437D01*
Y237508D01*
X410393D01*
Y237464D01*
X410437D01*
Y237375D01*
X410525D01*
Y236361D01*
X410481D01*
Y236317D01*
X410437D01*
Y235523D01*
X410393D01*
Y235479D01*
X410349D01*
Y235435D01*
X410305D01*
Y234950D01*
X410216D01*
Y234553D01*
X410172D01*
Y234509D01*
X410128D01*
Y234465D01*
X410084D01*
Y234244D01*
X410128D01*
Y234156D01*
X410084D01*
Y234112D01*
X410040D01*
Y234068D01*
X409996D01*
Y233804D01*
X409952D01*
Y233759D01*
X409908D01*
Y233715D01*
X409864D01*
Y233671D01*
X409908D01*
Y233495D01*
X409864D01*
Y233451D01*
X409776D01*
Y233142D01*
X409687D01*
Y232966D01*
X409643D01*
Y232922D01*
X409599D01*
Y232878D01*
X409555D01*
Y232745D01*
X409599D01*
Y232701D01*
X409555D01*
Y232613D01*
X409467D01*
Y232437D01*
X409423D01*
Y232392D01*
X409379D01*
Y232216D01*
X409290D01*
Y232172D01*
X409246D01*
Y231996D01*
X409158D01*
Y231819D01*
X409114D01*
Y231775D01*
X409070D01*
Y231731D01*
X409026D01*
Y231555D01*
X408938D01*
Y231378D01*
X408894D01*
Y231334D01*
X408849D01*
Y231158D01*
X408761D01*
Y231114D01*
X408717D01*
Y230937D01*
X408629D01*
Y230761D01*
X408585D01*
Y230717D01*
X408541D01*
Y230673D01*
X408497D01*
Y230629D01*
X408453D01*
Y230585D01*
X408409D01*
Y230408D01*
X408320D01*
Y230232D01*
X408276D01*
Y230188D01*
X408232D01*
Y230144D01*
X408188D01*
Y230099D01*
X408144D01*
Y230055D01*
X408100D01*
Y229879D01*
X408012D01*
Y229835D01*
X407967D01*
Y229658D01*
X407923D01*
Y229614D01*
X407879D01*
Y229570D01*
X407835D01*
Y229526D01*
X407791D01*
Y229394D01*
X407747D01*
Y229350D01*
X407703D01*
Y229306D01*
X407659D01*
Y229261D01*
X407615D01*
Y229217D01*
X407571D01*
Y229173D01*
X407527D01*
Y229129D01*
X407482D01*
Y229085D01*
X407438D01*
Y228909D01*
X407350D01*
Y228821D01*
X407262D01*
Y228644D01*
X407218D01*
Y228600D01*
X407174D01*
Y228556D01*
X407130D01*
Y228512D01*
X407086D01*
Y228468D01*
X407042D01*
Y228424D01*
X406997D01*
Y228380D01*
X406953D01*
Y228335D01*
X406909D01*
Y228203D01*
X406865D01*
Y228159D01*
X406821D01*
Y228115D01*
X406777D01*
Y228071D01*
X406733D01*
Y228027D01*
X406689D01*
Y227983D01*
X406645D01*
Y227939D01*
X406600D01*
Y227894D01*
X406556D01*
Y227850D01*
X406512D01*
Y227674D01*
X406468D01*
Y227630D01*
X406424D01*
Y227586D01*
X406380D01*
Y227542D01*
X406336D01*
Y227498D01*
X406292D01*
Y227453D01*
X406248D01*
Y227409D01*
X406204D01*
Y227365D01*
X406160D01*
Y227321D01*
X406115D01*
Y227277D01*
X406071D01*
Y227233D01*
X406027D01*
Y227189D01*
X405983D01*
Y227145D01*
X405939D01*
Y227101D01*
X405895D01*
Y227057D01*
X405851D01*
Y226924D01*
X405807D01*
Y226880D01*
X405763D01*
Y226836D01*
X405719D01*
Y226792D01*
X405674D01*
Y226748D01*
X405630D01*
Y226704D01*
X405586D01*
Y226660D01*
X405542D01*
Y226616D01*
X405498D01*
Y226572D01*
X405454D01*
Y226528D01*
X405410D01*
Y226483D01*
X405366D01*
Y226439D01*
X405322D01*
Y226395D01*
X405278D01*
Y226351D01*
X405233D01*
Y226307D01*
X405189D01*
Y226263D01*
X405145D01*
Y226219D01*
X405101D01*
Y226175D01*
X405057D01*
Y226131D01*
X405013D01*
Y226087D01*
X404969D01*
Y226042D01*
X404925D01*
Y225998D01*
X404881D01*
Y225954D01*
X404837D01*
Y225910D01*
X404793D01*
Y225866D01*
X404748D01*
Y225822D01*
X404704D01*
Y225778D01*
X404660D01*
Y225734D01*
X404616D01*
Y225690D01*
X404572D01*
Y225646D01*
X404528D01*
Y225602D01*
X404484D01*
Y225557D01*
X404440D01*
Y225513D01*
X404396D01*
Y225469D01*
X404352D01*
Y225425D01*
X404307D01*
Y225381D01*
X404263D01*
Y225337D01*
X404219D01*
Y225293D01*
X404175D01*
Y225249D01*
X404131D01*
Y225205D01*
X404087D01*
Y225161D01*
X404043D01*
Y225116D01*
X403999D01*
Y225072D01*
X403955D01*
Y225028D01*
X403911D01*
Y224984D01*
X403867D01*
Y224940D01*
X403822D01*
Y224896D01*
X403778D01*
Y224852D01*
X403734D01*
Y224808D01*
X403690D01*
Y224764D01*
X403646D01*
Y224720D01*
X403602D01*
Y224675D01*
X403558D01*
Y224631D01*
X403514D01*
Y224587D01*
X403470D01*
Y224543D01*
X403425D01*
Y224499D01*
X403381D01*
Y224455D01*
X403337D01*
Y224411D01*
X403293D01*
Y224367D01*
X403249D01*
Y224323D01*
X403205D01*
Y224279D01*
X403161D01*
Y224235D01*
X403117D01*
Y224190D01*
X403073D01*
Y224146D01*
X403029D01*
Y224102D01*
X402985D01*
Y224058D01*
X402808D01*
Y223970D01*
X402764D01*
Y223926D01*
X402720D01*
Y223882D01*
X402676D01*
Y223838D01*
X402632D01*
Y223794D01*
X402588D01*
Y223749D01*
X402543D01*
Y223705D01*
X402499D01*
Y223661D01*
X402455D01*
Y223617D01*
X402411D01*
Y223573D01*
X402367D01*
Y223529D01*
X402323D01*
Y223485D01*
X402279D01*
Y223441D01*
X402235D01*
Y223397D01*
X402058D01*
Y223353D01*
X402014D01*
Y223308D01*
X401970D01*
Y223264D01*
X401926D01*
Y223220D01*
X401882D01*
Y223176D01*
X401838D01*
Y223132D01*
X401794D01*
Y223088D01*
X401750D01*
Y223000D01*
X401573D01*
Y222956D01*
X401529D01*
Y222911D01*
X401485D01*
Y222867D01*
X401441D01*
Y222823D01*
X401397D01*
Y222779D01*
X401353D01*
Y222735D01*
X401309D01*
Y222691D01*
X401265D01*
Y222647D01*
X401221D01*
Y222603D01*
X401176D01*
Y222559D01*
X401000D01*
Y222471D01*
X400912D01*
Y222382D01*
X400868D01*
Y222338D01*
X400780D01*
Y222250D01*
X400691D01*
Y222162D01*
X400515D01*
Y222118D01*
X400471D01*
Y222074D01*
X400427D01*
Y222030D01*
X400383D01*
Y221985D01*
X400339D01*
Y221941D01*
X400295D01*
Y221897D01*
X400251D01*
Y221853D01*
X400206D01*
Y221809D01*
X400074D01*
Y221765D01*
X400030D01*
Y221721D01*
X399986D01*
Y221677D01*
X399942D01*
Y221633D01*
X399765D01*
Y221589D01*
X399721D01*
Y221544D01*
X399677D01*
Y221500D01*
X399633D01*
Y221456D01*
X399589D01*
Y221412D01*
X399545D01*
Y221368D01*
X399501D01*
Y221324D01*
X399457D01*
Y221280D01*
X399324D01*
Y221236D01*
X399280D01*
Y221192D01*
X399236D01*
Y221148D01*
X399192D01*
Y221103D01*
X399016D01*
Y221059D01*
X398972D01*
Y220971D01*
X398884D01*
Y220883D01*
X398795D01*
Y220795D01*
X398751D01*
Y220751D01*
X398575D01*
Y220707D01*
X398531D01*
Y220663D01*
X398487D01*
Y220618D01*
X398442D01*
Y220574D01*
X398398D01*
Y220530D01*
X398354D01*
Y220574D01*
X398178D01*
Y220530D01*
X398090D01*
Y220574D01*
X398046D01*
Y220618D01*
X398002D01*
Y220663D01*
X397825D01*
Y220751D01*
X397781D01*
Y220795D01*
X397737D01*
Y220839D01*
X397693D01*
Y220883D01*
X397649D01*
Y220927D01*
X397605D01*
Y220971D01*
X397428D01*
Y221015D01*
X397384D01*
Y221059D01*
X397340D01*
Y221103D01*
X397296D01*
Y221192D01*
X397120D01*
Y221236D01*
X397076D01*
Y221280D01*
X397031D01*
Y221324D01*
X396987D01*
Y221368D01*
X396943D01*
Y221412D01*
X396899D01*
Y221456D01*
X396855D01*
Y221500D01*
X396679D01*
Y221589D01*
X396634D01*
Y221633D01*
X396546D01*
Y221721D01*
X396370D01*
Y221765D01*
X396326D01*
Y221809D01*
X396282D01*
Y221853D01*
X396238D01*
Y221897D01*
X396194D01*
Y221941D01*
X396149D01*
Y221985D01*
X396105D01*
Y222030D01*
X395929D01*
Y222118D01*
X395885D01*
Y222162D01*
X395841D01*
Y222206D01*
X395797D01*
Y222250D01*
X395753D01*
Y222294D01*
X395709D01*
Y222338D01*
X395532D01*
Y222382D01*
X395488D01*
Y222426D01*
X395444D01*
Y222471D01*
X395400D01*
Y222515D01*
X395356D01*
Y222559D01*
X395312D01*
Y222603D01*
X395267D01*
Y222647D01*
X395223D01*
Y222691D01*
X395179D01*
Y222779D01*
X395003D01*
Y222823D01*
X394959D01*
Y222867D01*
X394915D01*
Y222911D01*
X394871D01*
Y222956D01*
X394827D01*
Y223000D01*
X394782D01*
Y223044D01*
X394738D01*
Y223088D01*
X394694D01*
Y223132D01*
X394650D01*
Y223176D01*
X394606D01*
Y223220D01*
X394430D01*
Y223308D01*
X394342D01*
Y223397D01*
X394253D01*
Y223441D01*
X394209D01*
Y223529D01*
X394121D01*
Y223617D01*
X394033D01*
Y223705D01*
X393989D01*
Y223749D01*
X393900D01*
Y223838D01*
X393724D01*
Y223882D01*
X393680D01*
Y223926D01*
X393636D01*
Y223970D01*
X393592D01*
Y224014D01*
X393548D01*
Y224058D01*
X393504D01*
Y224102D01*
X393460D01*
Y224146D01*
X393415D01*
Y224190D01*
X393371D01*
Y224235D01*
X393327D01*
Y224279D01*
X393283D01*
Y224323D01*
X393239D01*
Y224367D01*
X393195D01*
Y224411D01*
X393151D01*
Y224455D01*
X393107D01*
Y224499D01*
X393063D01*
Y224543D01*
X393018D01*
Y224587D01*
X392974D01*
Y224631D01*
X392930D01*
Y224675D01*
X392754D01*
Y224764D01*
X392710D01*
Y224808D01*
X392666D01*
Y224852D01*
X392622D01*
Y224896D01*
X392578D01*
Y224940D01*
X392533D01*
Y224984D01*
X392489D01*
Y225028D01*
X392445D01*
Y225072D01*
X392401D01*
Y225116D01*
X392357D01*
Y225161D01*
X392313D01*
Y225205D01*
X392269D01*
Y225249D01*
X392225D01*
Y225293D01*
X392181D01*
Y225337D01*
X392137D01*
Y225381D01*
X392093D01*
Y225425D01*
X392048D01*
Y225469D01*
X392004D01*
Y225513D01*
X391960D01*
Y225557D01*
X391916D01*
Y225602D01*
X391872D01*
Y225646D01*
X391828D01*
Y225690D01*
X391784D01*
Y225734D01*
X391740D01*
Y225778D01*
X391696D01*
Y225822D01*
X391651D01*
Y225866D01*
X391607D01*
Y225910D01*
X391563D01*
Y225954D01*
X391519D01*
Y225998D01*
X391475D01*
Y226042D01*
X391431D01*
Y226087D01*
X391387D01*
Y226131D01*
X391343D01*
Y226175D01*
X391299D01*
Y226219D01*
X391255D01*
Y226263D01*
X391166D01*
Y226439D01*
X391122D01*
Y226483D01*
X391078D01*
Y226528D01*
X391034D01*
Y226572D01*
X390990D01*
Y226616D01*
X390946D01*
Y226660D01*
X390902D01*
Y226704D01*
X390858D01*
Y226748D01*
X390814D01*
Y226792D01*
X390770D01*
Y226836D01*
X390726D01*
Y226880D01*
X390681D01*
Y226924D01*
X390637D01*
Y226968D01*
X390593D01*
Y227013D01*
X390549D01*
Y227057D01*
X390505D01*
Y227101D01*
X390461D01*
Y227145D01*
X390417D01*
Y227189D01*
X390373D01*
Y227233D01*
X390329D01*
Y227409D01*
X390285D01*
Y227453D01*
X390196D01*
Y227542D01*
X390108D01*
Y227630D01*
X390020D01*
Y227674D01*
X389976D01*
Y227762D01*
X389888D01*
Y227850D01*
X389799D01*
Y228027D01*
X389755D01*
Y228071D01*
X389711D01*
Y228115D01*
X389667D01*
Y228159D01*
X389623D01*
Y228203D01*
X389579D01*
Y228247D01*
X389535D01*
Y228291D01*
X389491D01*
Y228335D01*
X389447D01*
Y228468D01*
X389403D01*
Y228512D01*
X389358D01*
Y228556D01*
X389314D01*
Y228600D01*
X389270D01*
Y228644D01*
X389226D01*
Y228688D01*
X389182D01*
Y228732D01*
X389138D01*
Y228909D01*
X389094D01*
Y228953D01*
X389050D01*
Y228997D01*
X389006D01*
Y229041D01*
X388962D01*
Y229085D01*
X388918D01*
Y229217D01*
X388873D01*
Y229261D01*
X388829D01*
Y229306D01*
X388785D01*
Y229350D01*
X388741D01*
Y229394D01*
X388697D01*
Y229438D01*
X388653D01*
Y229482D01*
X388609D01*
Y229658D01*
X388521D01*
Y229747D01*
X388432D01*
Y229791D01*
X388388D01*
Y229967D01*
X388344D01*
Y230011D01*
X388300D01*
Y230188D01*
X388212D01*
Y230232D01*
X388168D01*
Y230276D01*
X388124D01*
Y230320D01*
X388080D01*
Y230496D01*
X387991D01*
Y230673D01*
X387947D01*
Y230717D01*
X387903D01*
Y230761D01*
X387859D01*
Y230805D01*
X387815D01*
Y230849D01*
X387771D01*
Y231025D01*
X387683D01*
Y231202D01*
X387639D01*
Y231246D01*
X387595D01*
Y231290D01*
X387551D01*
Y231466D01*
X387462D01*
Y231643D01*
X387418D01*
Y231687D01*
X387330D01*
Y231863D01*
X387286D01*
Y231907D01*
X387242D01*
Y232084D01*
X387154D01*
Y232260D01*
X387109D01*
Y232304D01*
X387065D01*
Y232348D01*
X387021D01*
Y232613D01*
X386933D01*
Y232789D01*
X386889D01*
Y232833D01*
X386845D01*
Y232878D01*
X386801D01*
Y233010D01*
X386845D01*
Y233098D01*
X386801D01*
Y233142D01*
X386757D01*
Y233186D01*
X386713D01*
Y233363D01*
X386624D01*
Y233451D01*
X386580D01*
Y233495D01*
X386624D01*
Y233627D01*
X386580D01*
Y233671D01*
X386536D01*
Y233715D01*
X386492D01*
Y233980D01*
X386448D01*
Y234024D01*
X386404D01*
Y234377D01*
X386360D01*
Y234421D01*
X386316D01*
Y234465D01*
X386272D01*
Y234730D01*
X386316D01*
Y234774D01*
X386272D01*
Y234818D01*
X386228D01*
Y234862D01*
X386184D01*
Y235259D01*
X386095D01*
Y235347D01*
X386051D01*
Y235391D01*
X386095D01*
Y235964D01*
X386051D01*
Y236008D01*
X386007D01*
Y236052D01*
X385963D01*
Y237905D01*
X386051D01*
Y237949D01*
X386095D01*
Y238434D01*
X386051D01*
Y238478D01*
X386095D01*
Y238522D01*
X386139D01*
Y238566D01*
X386184D01*
Y238963D01*
X386272D01*
Y239051D01*
X386316D01*
Y239095D01*
X386272D01*
Y239228D01*
X386316D01*
Y239272D01*
X386360D01*
Y239316D01*
X386404D01*
Y239580D01*
X386448D01*
Y239624D01*
X386492D01*
Y239801D01*
X386580D01*
Y239845D01*
X386624D01*
Y240021D01*
X386580D01*
Y240065D01*
X386624D01*
Y240110D01*
X386669D01*
Y240154D01*
X386713D01*
Y240330D01*
X386757D01*
Y240374D01*
X386801D01*
Y240506D01*
X386845D01*
Y240550D01*
X386889D01*
Y240595D01*
X386933D01*
Y240639D01*
X386977D01*
Y240683D01*
X387021D01*
Y240859D01*
X387109D01*
Y240903D01*
X387154D01*
Y240991D01*
X387242D01*
Y241168D01*
X387286D01*
Y241212D01*
X387330D01*
Y241256D01*
X387374D01*
Y241300D01*
X387418D01*
Y241344D01*
X387462D01*
Y241521D01*
X387551D01*
Y241565D01*
X387595D01*
Y241609D01*
X387639D01*
Y241653D01*
X387683D01*
Y241697D01*
X387727D01*
Y241741D01*
X387771D01*
Y241785D01*
X387815D01*
Y241829D01*
X387859D01*
Y241873D01*
X387903D01*
Y241917D01*
X387947D01*
Y241961D01*
X387991D01*
Y242006D01*
X388036D01*
Y242050D01*
X388080D01*
Y242094D01*
X388124D01*
Y242138D01*
X388168D01*
Y242182D01*
X388212D01*
Y242226D01*
X388256D01*
Y242270D01*
X388300D01*
Y242314D01*
X388344D01*
Y242358D01*
X388388D01*
Y242402D01*
X388432D01*
Y242447D01*
X388476D01*
Y242491D01*
X388521D01*
Y242535D01*
X388565D01*
Y242579D01*
X388609D01*
Y242623D01*
X388653D01*
Y242667D01*
X388697D01*
Y242711D01*
X388741D01*
Y242755D01*
X388785D01*
Y242799D01*
X388918D01*
Y242843D01*
X388962D01*
Y242888D01*
X389006D01*
Y242932D01*
X389050D01*
Y242976D01*
X389226D01*
Y243020D01*
X389270D01*
Y243108D01*
X389358D01*
Y243196D01*
X389535D01*
Y243240D01*
X389579D01*
Y243284D01*
X389623D01*
Y243329D01*
X389755D01*
Y243373D01*
X389799D01*
Y243417D01*
X389976D01*
Y243461D01*
X390020D01*
Y243505D01*
X390152D01*
Y243549D01*
X390196D01*
Y243593D01*
X390240D01*
Y243637D01*
X390417D01*
Y243725D01*
X390593D01*
Y243769D01*
X390637D01*
Y243814D01*
X390681D01*
Y243858D01*
X390814D01*
Y243814D01*
X390858D01*
Y243858D01*
X390946D01*
Y243946D01*
X391343D01*
Y243990D01*
X391387D01*
Y244034D01*
X391431D01*
Y244078D01*
X391475D01*
Y244034D01*
X391740D01*
Y244078D01*
X391784D01*
Y244122D01*
X391828D01*
Y244166D01*
X392533D01*
Y244255D01*
X393900D01*
Y244166D01*
X394606D01*
Y244122D01*
X394650D01*
Y244078D01*
X394694D01*
Y244034D01*
X395047D01*
Y244078D01*
X395091D01*
Y244034D01*
X395179D01*
Y243946D01*
X395488D01*
Y243858D01*
X395576D01*
Y243814D01*
X395620D01*
Y243858D01*
X395753D01*
Y243814D01*
X395797D01*
Y243769D01*
X395841D01*
Y243725D01*
X396105D01*
Y243681D01*
X396149D01*
Y243637D01*
X396326D01*
Y243549D01*
X396370D01*
Y243505D01*
X396546D01*
Y243461D01*
X396590D01*
Y243417D01*
X396767D01*
Y243329D01*
X396943D01*
Y243284D01*
X396987D01*
Y243240D01*
X397031D01*
Y243196D01*
X397076D01*
Y243108D01*
X397252D01*
Y243064D01*
X397296D01*
Y243020D01*
X397340D01*
Y242976D01*
X397384D01*
Y242932D01*
X397428D01*
Y242888D01*
X397605D01*
Y242799D01*
X397693D01*
Y242755D01*
X397737D01*
Y242667D01*
X397825D01*
Y242579D01*
X397913D01*
Y242491D01*
X397957D01*
Y242447D01*
X398134D01*
Y242402D01*
X398178D01*
Y242358D01*
X398310D01*
Y242402D01*
X398354D01*
Y242447D01*
X398398D01*
Y242491D01*
X398442D01*
Y242535D01*
X398487D01*
D02*
G37*
D90*
X56900Y83060D02*
D03*
X118900D02*
D03*
D91*
X87400Y33560D02*
D03*
D92*
X15500Y334460D02*
D03*
Y422860D02*
D03*
D93*
X51000Y332210D02*
D03*
Y425110D02*
D03*
D94*
X45250Y345460D02*
D03*
Y411860D02*
D03*
D95*
X162560Y406940D02*
D03*
Y432340D02*
D03*
X187960Y406940D02*
D03*
Y432340D02*
D03*
X213360Y406940D02*
D03*
Y432340D02*
D03*
D96*
X228600Y25400D02*
D03*
X203200D02*
D03*
X177800D02*
D03*
D97*
X635000Y508000D02*
D03*
X609600D02*
D03*
X584200D02*
D03*
X558800D02*
D03*
X533400D02*
D03*
X508000D02*
D03*
X482600D02*
D03*
X457200D02*
D03*
X416560D02*
D03*
X391160D02*
D03*
X365760D02*
D03*
X340360D02*
D03*
X314960D02*
D03*
X289560D02*
D03*
X264160D02*
D03*
X238760D02*
D03*
X213360D02*
D03*
X187960D02*
D03*
X279400Y25400D02*
D03*
X304800D02*
D03*
X330200D02*
D03*
X355600D02*
D03*
X381000D02*
D03*
X406400D02*
D03*
X431800D02*
D03*
X457200D02*
D03*
X508000D02*
D03*
X533400D02*
D03*
X558800D02*
D03*
X584200D02*
D03*
X609600D02*
D03*
X635000D02*
D03*
D98*
X636270Y304800D02*
D03*
X661670D02*
D03*
X636270Y279400D02*
D03*
X661670D02*
D03*
X636270Y254000D02*
D03*
X661670D02*
D03*
D99*
X139700Y25400D02*
D03*
X660400Y355600D02*
D03*
X152400Y508000D02*
D03*
D100*
X660400Y76200D02*
D03*
D142*
X398381Y233398D02*
D03*
X66150Y368750D02*
D03*
X86150Y368600D02*
D03*
X158350Y449500D02*
D03*
D143*
X100200Y340660D02*
D03*
X116300D02*
D03*
D144*
X158350Y474900D02*
D03*
X66150Y394000D02*
D03*
X86150Y394000D02*
D03*
X183750Y474900D02*
D03*
D145*
X209150D02*
D03*
Y449500D02*
D03*
X183750D02*
D03*
M02*
