G04*
G04 #@! TF.GenerationSoftware,Altium Limited,Altium Designer,23.8.1 (32)*
G04*
G04 Layer_Color=32768*
%FSLAX44Y44*%
%MOMM*%
G71*
G04*
G04 #@! TF.SameCoordinates,6629C207-265C-49F2-9D33-E76E02802E5F*
G04*
G04*
G04 #@! TF.FilePolarity,Positive*
G04*
G01*
G75*
%ADD147C,2.0000*%
D147*
X695800Y378460D02*
G03*
X692871Y385531I-10000J0D01*
G01*
X695800Y378460D02*
G03*
X692871Y385531I-10000J0D01*
G01*
X670400Y518160D02*
G03*
X667471Y525231I-10000J0D01*
G01*
X670400Y518160D02*
G03*
X667471Y525231I-10000J0D01*
G01*
X692871Y43729D02*
G03*
X695800Y50800I-7071J7071D01*
G01*
X692871Y43729D02*
G03*
X695800Y50800I-7071J7071D01*
G01*
X650400Y-10000D02*
G03*
X670400Y10000I0J20000D01*
G01*
X652231Y540471D02*
G03*
X645160Y543400I-7071J-7071D01*
G01*
X652231Y540471D02*
G03*
X645160Y543400I-7071J-7071D01*
G01*
X10000D02*
G03*
X-10000Y523400I0J-20000D01*
G01*
Y10000D02*
G03*
X10000Y-10000I20000J0D01*
G01*
X695800Y50800D02*
Y194630D01*
Y234630D02*
Y378460D01*
X-10000Y398660D02*
Y523400D01*
Y103060D02*
Y358660D01*
Y10000D02*
Y63060D01*
X670400Y408002D02*
X692871Y385531D01*
X652231Y540471D02*
X667471Y525231D01*
X670400Y408002D02*
Y518160D01*
Y21258D02*
X692871Y43729D01*
X670400Y10000D02*
Y21258D01*
X10000Y543400D02*
X645160D01*
X10000Y-10000D02*
X650400D01*
M02*
