G04*
G04 #@! TF.GenerationSoftware,Altium Limited,Altium Designer,23.8.1 (32)*
G04*
G04 Layer_Color=13391121*
%FSLAX44Y44*%
%MOMM*%
G71*
G04*
G04 #@! TF.SameCoordinates,6629C207-265C-49F2-9D33-E76E02802E5F*
G04*
G04*
G04 #@! TF.FilePolarity,Positive*
G04*
G01*
G75*
%ADD117C,0.2000*%
%ADD146C,0.0500*%
%ADD148C,0.1270*%
%ADD149C,0.1000*%
%ADD150C,0.1524*%
%ADD151C,0.1200*%
%ADD152C,0.0050*%
%ADD153R,0.6350X0.6350*%
%ADD154R,1.7780X1.7780*%
%ADD155R,0.7874X0.7874*%
%ADD156R,1.5720X1.5240*%
%ADD157R,0.7380X0.7000*%
%ADD158R,1.7780X1.0050*%
%ADD159R,1.5250X1.5000*%
%ADD160R,0.7620X0.8890*%
%ADD161R,0.7620X0.7620*%
%ADD162R,1.4440X1.4440*%
%ADD163R,1.0000X1.0000*%
%ADD164R,1.2680X1.3512*%
%ADD165R,1.1595X1.1190*%
D117*
X21590Y461010D02*
Y527050D01*
Y461010D02*
X105410D01*
Y527050D01*
X21590D02*
X105410D01*
D146*
X30000Y20000D02*
G03*
X30000Y20000I-10000J0D01*
G01*
X25000D02*
G03*
X25000Y20000I-5000J0D01*
G01*
X568500Y374161D02*
G03*
X568500Y374161I-5000J0D01*
G01*
X573500D02*
G03*
X573500Y374161I-10000J0D01*
G01*
D148*
X229126Y445040D02*
G03*
X229126Y445040I-1796J0D01*
G01*
X625366Y318770D02*
G03*
X625366Y318770I-1796J0D01*
G01*
X145060Y64010D02*
X162840D01*
X145060D02*
Y102110D01*
X162840Y64010D02*
Y102110D01*
X145060D02*
X162840D01*
X576022Y115611D02*
Y119203D01*
X572430D02*
X576022D01*
X572430D02*
X576022Y115611D01*
X255070Y323810D02*
X272850D01*
Y285710D02*
Y323810D01*
X255070Y285710D02*
Y323810D01*
Y285710D02*
X272850D01*
X265430Y419100D02*
Y424180D01*
X262890Y421640D02*
X265430Y419100D01*
X262890Y421640D02*
X265430Y424180D01*
X262890Y365760D02*
X265430Y368300D01*
X262890Y365760D02*
X265430Y363220D01*
Y368300D01*
X262890Y342900D02*
X265430Y345440D01*
X262890Y342900D02*
X265430Y340360D01*
Y345440D01*
X648072Y396427D02*
X651664Y396427D01*
X648072Y392835D02*
Y396427D01*
Y392835D02*
X651664Y396427D01*
X341430Y266203D02*
X345022Y262611D01*
X341430Y266203D02*
X345022D01*
Y262611D02*
Y266203D01*
X362430D02*
X366022Y262611D01*
X362430Y266203D02*
X366022D01*
Y262611D02*
Y266203D01*
X383430D02*
X387022Y262611D01*
X383430Y266203D02*
X387022D01*
Y262611D02*
Y266203D01*
X425430D02*
X429022Y262611D01*
X425430Y266203D02*
X429022D01*
Y262611D02*
Y266203D01*
X404430D02*
X408022Y262611D01*
X404430Y266203D02*
X408022D01*
Y262611D02*
Y266203D01*
X446430D02*
X450022Y262611D01*
X446430Y266203D02*
X450022D01*
Y262611D02*
Y266203D01*
X467430D02*
X471022Y262611D01*
X467430Y266203D02*
X471022D01*
Y262611D02*
Y266203D01*
X509430D02*
X513022Y262611D01*
X509430Y266203D02*
X513022D01*
Y262611D02*
Y266203D01*
X551430D02*
X555022Y262611D01*
X551430Y266203D02*
X555022D01*
Y262611D02*
Y266203D01*
X488430D02*
X492022Y262611D01*
X488430Y266203D02*
X492022D01*
Y262611D02*
Y266203D01*
X530430D02*
X534022Y262611D01*
X530430Y266203D02*
X534022D01*
Y262611D02*
Y266203D01*
X572430D02*
X576022Y262611D01*
X572430Y266203D02*
X576022D01*
Y262611D02*
Y266203D01*
X341430Y245203D02*
X345022Y241611D01*
X341430Y245203D02*
X345022D01*
Y241611D02*
Y245203D01*
X383430D02*
X387022Y241611D01*
X383430Y245203D02*
X387022D01*
Y241611D02*
Y245203D01*
X425430D02*
X429022Y241611D01*
X425430Y245203D02*
X429022D01*
Y241611D02*
Y245203D01*
X467430D02*
X471022Y241611D01*
X467430Y245203D02*
X471022D01*
Y241611D02*
Y245203D01*
X362430D02*
X366022Y241611D01*
X362430Y245203D02*
X366022D01*
Y241611D02*
Y245203D01*
X404430D02*
X408022Y241611D01*
X404430Y245203D02*
X408022D01*
Y241611D02*
Y245203D01*
X446430D02*
X450022Y241611D01*
X446430Y245203D02*
X450022D01*
Y241611D02*
Y245203D01*
X488430D02*
X492022Y241611D01*
X488430Y245203D02*
X492022D01*
Y241611D02*
Y245203D01*
X509430D02*
X513022Y241611D01*
X509430Y245203D02*
X513022D01*
Y241611D02*
Y245203D01*
X551430D02*
X555022Y241611D01*
X551430Y245203D02*
X555022D01*
Y241611D02*
Y245203D01*
X341430Y224203D02*
X345022Y220611D01*
X341430Y224203D02*
X345022D01*
Y220611D02*
Y224203D01*
X383430D02*
X387022Y220611D01*
X383430Y224203D02*
X387022D01*
Y220611D02*
Y224203D01*
X425430D02*
X429022Y220611D01*
X425430Y224203D02*
X429022D01*
Y220611D02*
Y224203D01*
X530429Y245203D02*
X534022Y241611D01*
X530429Y245203D02*
X534022D01*
Y241611D02*
Y245203D01*
X572430D02*
X576022Y241611D01*
X572430Y245203D02*
X576022D01*
Y241611D02*
Y245203D01*
X362430Y224203D02*
X366022Y220611D01*
X362430Y224203D02*
X366022D01*
Y220611D02*
Y224203D01*
X404430D02*
X408022Y220611D01*
X404430Y224203D02*
X408022D01*
Y220611D02*
Y224203D01*
X446430D02*
X450022Y220611D01*
X446430Y224203D02*
X450022D01*
Y220611D02*
Y224203D01*
X467430D02*
X471022Y220611D01*
X467430Y224203D02*
X471022D01*
Y220611D02*
Y224203D01*
X509430D02*
X513022Y220611D01*
X509430Y224203D02*
X513022D01*
Y220611D02*
Y224203D01*
X551430D02*
X555022Y220611D01*
X551430Y224203D02*
X555022D01*
Y220611D02*
Y224203D01*
X341430Y203203D02*
X345022Y199611D01*
X341430Y203203D02*
X345022D01*
Y199611D02*
Y203203D01*
X383430D02*
X387022Y199611D01*
X383430Y203203D02*
X387022D01*
Y199611D02*
Y203203D01*
X425430D02*
X429022Y199611D01*
X425430Y203203D02*
X429022D01*
Y199611D02*
Y203203D01*
X488430Y224203D02*
X492022Y220611D01*
X488430Y224203D02*
X492022D01*
Y220611D02*
Y224203D01*
X530430D02*
X534022Y220611D01*
X530430Y224203D02*
X534022D01*
Y220611D02*
Y224203D01*
X572430D02*
X576022Y220611D01*
X572430Y224203D02*
X576022D01*
Y220611D02*
Y224203D01*
X362430Y203203D02*
X366022Y199611D01*
X362430Y203203D02*
X366022D01*
Y199611D02*
Y203203D01*
X404430D02*
X408022Y199611D01*
X404430Y203203D02*
X408022D01*
Y199611D02*
Y203203D01*
X467430D02*
X471022Y199611D01*
X467430Y203203D02*
X471022D01*
Y199611D02*
Y203203D01*
X509430D02*
X513022Y199611D01*
X509430Y203203D02*
X513022D01*
Y199611D02*
Y203203D01*
X551430D02*
X555022Y199611D01*
X551430Y203203D02*
X555022D01*
Y199611D02*
Y203203D01*
X341430Y182203D02*
X345022Y178611D01*
X341430Y182203D02*
X345022D01*
Y178611D02*
Y182203D01*
X383430D02*
X387022Y178611D01*
X383430Y182203D02*
X387022D01*
Y178611D02*
Y182203D01*
X425430D02*
X429022Y178611D01*
X425430Y182203D02*
X429022D01*
Y178611D02*
Y182203D01*
X467430D02*
X471022Y178611D01*
X467430Y182203D02*
X471022D01*
Y178611D02*
Y182203D01*
X488430Y203203D02*
X492022Y199611D01*
X488430Y203203D02*
X492022D01*
Y199611D02*
Y203203D01*
X530430D02*
X534022Y199611D01*
X530430Y203203D02*
X534022D01*
Y199611D02*
Y203203D01*
X572430D02*
X576022Y199611D01*
X572430Y203203D02*
X576022D01*
Y199611D02*
Y203203D01*
X362430Y182203D02*
X366022Y178611D01*
X362430Y182203D02*
X366022D01*
Y178611D02*
Y182203D01*
X404430D02*
X408022Y178611D01*
X404430Y182203D02*
X408022D01*
Y178611D02*
Y182203D01*
X446430D02*
X450022Y178611D01*
X446430Y182203D02*
X450022D01*
Y178611D02*
Y182203D01*
X446430Y203203D02*
X450022Y199611D01*
X446430Y203203D02*
X450022D01*
Y199611D02*
Y203203D01*
X492022Y178611D02*
Y182203D01*
X488430D02*
X492022D01*
X488430D02*
X492022Y178611D01*
X513022D02*
Y182203D01*
X509430D02*
X513022D01*
X509430D02*
X513022Y178611D01*
X534022D02*
Y182203D01*
X530430D02*
X534022D01*
X530430D02*
X534022Y178611D01*
X555022D02*
Y182203D01*
X551430D02*
X555022D01*
X551430D02*
X555022Y178611D01*
X576022D02*
Y182203D01*
X572430D02*
X576022D01*
X572430D02*
X576022Y178611D01*
X345018Y157607D02*
Y161200D01*
X341426D02*
X345018D01*
X341426D02*
X345018Y157607D01*
X366022Y157611D02*
Y161203D01*
X362430D02*
X366022D01*
X362430D02*
X366022Y157611D01*
X387022D02*
Y161203D01*
X383430D02*
X387022D01*
X383430D02*
X387022Y157611D01*
X408022D02*
Y161203D01*
X404430D02*
X408022D01*
X404430D02*
X408022Y157611D01*
X429022D02*
Y161203D01*
X425430D02*
X429022D01*
X425430D02*
X429022Y157611D01*
X450022D02*
Y161203D01*
X446430D02*
X450022D01*
X446430D02*
X450022Y157611D01*
X471022D02*
Y161203D01*
X467430D02*
X471022D01*
X467430D02*
X471022Y157611D01*
X492022D02*
Y161203D01*
X488430D02*
X492022D01*
X488430D02*
X492022Y157611D01*
X513022D02*
Y161203D01*
X509430D02*
X513022D01*
X509430D02*
X513022Y157611D01*
X534022D02*
Y161203D01*
X530430D02*
X534022D01*
X530430D02*
X534022Y157611D01*
X555022D02*
Y161203D01*
X551430D02*
X555022D01*
X551430D02*
X555022Y157611D01*
X576022D02*
Y161203D01*
X572430D02*
X576022D01*
X572430D02*
X576022Y157611D01*
X345022Y136611D02*
Y140203D01*
X341430D02*
X345022D01*
X341430D02*
X345022Y136611D01*
X366022D02*
Y140203D01*
X362430D02*
X366022D01*
X362430D02*
X366022Y136611D01*
X387022D02*
Y140203D01*
X383430D02*
X387022D01*
X383430D02*
X387022Y136611D01*
X408022D02*
Y140203D01*
X404430D02*
X408022D01*
X404430D02*
X408022Y136611D01*
X429022D02*
Y140203D01*
X425430D02*
X429022D01*
X425430D02*
X429022Y136611D01*
X450022D02*
Y140203D01*
X446430D02*
X450022D01*
X446430D02*
X450022Y136611D01*
X471022D02*
Y140203D01*
X467430D02*
X471022D01*
X467430D02*
X471022Y136611D01*
X492022D02*
Y140203D01*
X488430D02*
X492022D01*
X488430D02*
X492022Y136611D01*
X513022D02*
Y140203D01*
X509430D02*
X513022D01*
X509430D02*
X513022Y136611D01*
X533898Y136488D02*
Y140080D01*
X530306D02*
X533898D01*
X530306D02*
X533898Y136488D01*
X555022Y136611D02*
Y140203D01*
X551430D02*
X555022D01*
X551430D02*
X555022Y136611D01*
X576022D02*
Y140203D01*
X572430D02*
X576022D01*
X572430D02*
X576022Y136611D01*
X345022Y115611D02*
Y119203D01*
X341430D02*
X345022D01*
X341430D02*
X345022Y115611D01*
X366022D02*
Y119203D01*
X362430D02*
X366022D01*
X362430D02*
X366022Y115611D01*
X387022D02*
Y119203D01*
X383430D02*
X387022D01*
X383430D02*
X387022Y115611D01*
X408022D02*
Y119203D01*
X404430D02*
X408022D01*
X404430D02*
X408022Y115611D01*
X429022D02*
Y119203D01*
X425430D02*
X429022D01*
X425430D02*
X429022Y115611D01*
X450022D02*
Y119203D01*
X446430D02*
X450022D01*
X446430D02*
X450022Y115611D01*
X471022D02*
Y119203D01*
X467430D02*
X471022D01*
X467430D02*
X471022Y115611D01*
X492022D02*
Y119203D01*
X488430D02*
X492022D01*
X488430D02*
X492022Y115611D01*
X513022D02*
Y119203D01*
X509430D02*
X513022D01*
X509430D02*
X513022Y115611D01*
X534022D02*
Y119203D01*
X530430D02*
X534022D01*
X530430D02*
X534022Y115611D01*
X555022D02*
Y119203D01*
X551430D02*
X555022D01*
X551430D02*
X555022Y115611D01*
D149*
X-6500Y336910D02*
G03*
X-1750Y348378I-11468J11468D01*
G01*
Y408943D02*
G03*
X-6500Y420410I-16218J0D01*
G01*
X132250Y353660D02*
X132250Y375660D01*
X118250Y353660D02*
Y375660D01*
Y353660D02*
X132250Y353660D01*
X118250Y375660D02*
X132250D01*
X229750Y66500D02*
X229750Y136350D01*
X296750Y66500D02*
Y136350D01*
X229750Y66500D02*
X296750D01*
X229750Y136350D02*
X296750D01*
X632945Y143460D02*
X632945Y173460D01*
X632945Y143460D02*
X632945Y113460D01*
Y173460D02*
X682195D01*
Y136710D02*
Y173460D01*
X632945Y113460D02*
X682195D01*
X682195Y136710D02*
X682195Y113460D01*
X258700Y440200D02*
X269300D01*
Y445800D01*
X258700D02*
X269300D01*
X258700Y440200D02*
Y445800D01*
X248250Y206000D02*
X288250Y206000D01*
X248250Y236000D02*
X288250Y236000D01*
X248250Y236000D02*
X248250Y206000D01*
X288250Y206000D02*
X288250Y236000D01*
X-20380Y131320D02*
X130750D01*
Y20830D02*
Y131320D01*
X-20380Y20830D02*
X130750D01*
X-20380D02*
Y131320D01*
X271083Y196482D02*
X319083D01*
X271083Y148482D02*
Y196482D01*
Y148482D02*
X319083D01*
Y196482D01*
X207280Y322600D02*
Y342920D01*
X166640Y342920D02*
X207280Y342920D01*
X166640Y322600D02*
X166640Y342920D01*
X166640Y322600D02*
X207280D01*
X2500Y292750D02*
X47500D01*
X2500D02*
X37500D01*
X2500D02*
X27500D01*
X2500D02*
X17500D01*
X2500D02*
X7500D01*
X2500Y147750D02*
Y292750D01*
Y157750D02*
Y292750D01*
Y167750D02*
Y292750D01*
Y167750D02*
X33000Y137250D01*
X2500Y157750D02*
X23000Y137250D01*
X2500Y177750D02*
Y292750D01*
X47500D02*
X53000Y287250D01*
X37500Y292750D02*
X53000Y277250D01*
X27500Y292750D02*
X53000Y267250D01*
X17500Y292750D02*
X53000Y257250D01*
X7500Y292750D02*
X53000Y247250D01*
X2500Y287750D02*
X53000Y237250D01*
X2500Y277750D02*
X53000Y227250D01*
X2500Y267750D02*
X53000Y217250D01*
X2500Y257750D02*
X53000Y207250D01*
X2500Y247750D02*
X53000Y197250D01*
X2500Y237750D02*
X53000Y187250D01*
X2500Y227750D02*
X53000Y177250D01*
X2500Y217750D02*
X53000Y167250D01*
X2500Y207750D02*
X53000Y157250D01*
X2500Y197750D02*
X53000Y147250D01*
X2500Y147750D02*
X13000Y137250D01*
X2500Y177750D02*
X43000Y137250D01*
X2500Y187750D02*
X53000Y137250D01*
Y292750D01*
X209000Y137250D02*
Y292750D01*
X2500Y137250D02*
X209000D01*
X2500Y292750D02*
X209000D01*
X2500Y137250D02*
Y292750D01*
X-1750Y348378D02*
Y348660D01*
X-6500Y330960D02*
Y336910D01*
X-1750Y348660D02*
Y408660D01*
X-6500Y420410D02*
Y426360D01*
X61500D01*
X-6500Y330960D02*
X61500D01*
Y426360D01*
X477497Y308530D02*
Y408530D01*
X577497Y308530D02*
Y408530D01*
X477497D02*
X577497D01*
X477497Y308530D02*
X577497D01*
X241300Y12700D02*
Y38100D01*
X165100Y12700D02*
Y38100D01*
Y12700D02*
X241300D01*
X165100Y38100D02*
X241300D01*
X172794Y520481D02*
X650220D01*
X172794Y495424D02*
Y520481D01*
Y495424D02*
X650220D01*
Y520481D01*
X264605Y37590D02*
X649809Y37590D01*
Y13124D02*
Y37590D01*
X264587Y13124D02*
X649809D01*
X264587D02*
Y37586D01*
X74250Y350030D02*
X74250Y302030D01*
X108250D02*
Y350030D01*
X74250Y302030D02*
X108250D01*
X74250Y350030D02*
X108250D01*
X40198Y441330D02*
X50798D01*
X40198Y435730D02*
Y441330D01*
Y435730D02*
X50798D01*
Y441330D01*
X128450Y309299D02*
Y319899D01*
Y309299D02*
X134050D01*
Y319899D01*
X128450D02*
X134050D01*
X258860Y374390D02*
X269460D01*
Y379990D01*
X258860D02*
X269460D01*
X258860Y374390D02*
Y379990D01*
Y430270D02*
X269460D01*
Y435870D01*
X258860D02*
X269460D01*
X258860Y430270D02*
Y435870D01*
X218760Y327460D02*
Y338060D01*
X213160D02*
X218760D01*
X213160Y327460D02*
Y338060D01*
Y327460D02*
X218760D01*
X441160Y320960D02*
X451760D01*
Y326560D01*
X441160D02*
X451760D01*
X441160Y320960D02*
Y326560D01*
X641044Y414105D02*
Y424706D01*
Y414105D02*
X646644D01*
Y424706D01*
X641044D02*
X646644D01*
X116450Y309360D02*
Y319960D01*
Y309360D02*
X122050D01*
Y319960D01*
X116450D02*
X122050D01*
X441160Y331960D02*
X451760D01*
Y337560D01*
X441160D02*
X451760D01*
X441160Y331960D02*
Y337560D01*
X85950Y407460D02*
X96550D01*
X85950Y401860D02*
Y407460D01*
Y401860D02*
X96550D01*
Y407460D01*
X85950Y419399D02*
X96550D01*
X85950Y413799D02*
Y419399D01*
Y413799D02*
X96550D01*
Y419399D01*
X134050Y337010D02*
Y347610D01*
X128450D02*
X134050D01*
X128450Y337010D02*
Y347610D01*
Y337010D02*
X134050D01*
X601160Y326560D02*
X611760D01*
X601160Y320960D02*
Y326560D01*
Y320960D02*
X611760D01*
Y326560D01*
X601160Y315560D02*
X611760D01*
X601160Y309960D02*
Y315560D01*
Y309960D02*
X611760D01*
Y315560D01*
X226450Y247700D02*
Y258300D01*
Y247700D02*
X232050D01*
Y258300D01*
X226450D02*
X232050D01*
Y224700D02*
Y235300D01*
X226450D02*
X232050D01*
X226450Y224700D02*
Y235300D01*
Y224700D02*
X232050D01*
X274200Y275150D02*
X284800D01*
X274200Y269550D02*
Y275150D01*
Y269550D02*
X284800D01*
Y275150D01*
X243050Y202700D02*
Y213300D01*
X237450D02*
X243050D01*
X237450Y202700D02*
Y213300D01*
Y202700D02*
X243050D01*
X259450Y247700D02*
Y258300D01*
Y247700D02*
X265050D01*
Y258300D01*
X259450D02*
X265050D01*
X248450Y247700D02*
Y258300D01*
Y247700D02*
X254050D01*
Y258300D01*
X248450D02*
X254050D01*
X258860Y351530D02*
X269460D01*
Y357130D01*
X258860D02*
X269460D01*
X258860Y351530D02*
Y357130D01*
X223260Y467140D02*
Y477740D01*
Y467140D02*
X228860D01*
Y477740D01*
X223260D02*
X228860D01*
X197860Y467140D02*
Y477740D01*
Y467140D02*
X203460D01*
Y477740D01*
X197860D02*
X203460D01*
X438348Y413730D02*
Y424330D01*
Y413730D02*
X443948D01*
Y424330D01*
X438348D02*
X443948D01*
X237450Y224700D02*
Y235300D01*
Y224700D02*
X243050D01*
Y235300D01*
X237450D02*
X243050D01*
X232050Y202700D02*
Y213300D01*
X226450D02*
X232050D01*
X226450Y202700D02*
Y213300D01*
Y202700D02*
X232050D01*
X598374Y144075D02*
X605869Y151571D01*
X601909Y155530D02*
X605869Y151571D01*
X594414Y148035D02*
X601909Y155530D01*
X594414Y148035D02*
X598374Y144075D01*
Y158075D02*
X605869Y165571D01*
X601909Y169530D02*
X605869Y165571D01*
X594414Y162035D02*
X601909Y169530D01*
X594414Y162035D02*
X598374Y158075D01*
Y172075D02*
X605869Y179571D01*
X601909Y183530D02*
X605869Y179571D01*
X594414Y176035D02*
X601909Y183530D01*
X594414Y176035D02*
X598374Y172075D01*
Y186075D02*
X605869Y193571D01*
X601909Y197530D02*
X605869Y193571D01*
X594414Y190035D02*
X601909Y197530D01*
X594414Y190035D02*
X598374Y186075D01*
Y214075D02*
X605869Y221570D01*
X601909Y225530D02*
X605869Y221570D01*
X594414Y218035D02*
X601909Y225530D01*
X594414Y218035D02*
X598374Y214075D01*
Y228075D02*
X605869Y235571D01*
X601909Y239530D02*
X605869Y235571D01*
X594414Y232035D02*
X601909Y239530D01*
X594414Y232035D02*
X598374Y228075D01*
Y242075D02*
X605869Y249571D01*
X601909Y253530D02*
X605869Y249571D01*
X594414Y246035D02*
X601909Y253530D01*
X594414Y246035D02*
X598374Y242075D01*
Y200075D02*
X605869Y207570D01*
X601909Y211530D02*
X605869Y207570D01*
X594414Y204035D02*
X601909Y211530D01*
X594414Y204035D02*
X598374Y200075D01*
X167660Y360460D02*
Y371060D01*
Y360460D02*
X173260D01*
Y371060D01*
X167660D02*
X173260D01*
X156660Y360460D02*
Y371060D01*
Y360460D02*
X162260D01*
Y371060D01*
X156660D02*
X162260D01*
X211660Y360460D02*
Y371060D01*
Y360460D02*
X217260D01*
Y371060D01*
X211660D02*
X217260D01*
X200660Y360460D02*
Y371060D01*
Y360460D02*
X206260D01*
Y371060D01*
X200660D02*
X206260D01*
X441160Y359560D02*
X451760D01*
X441160Y353960D02*
Y359560D01*
Y353960D02*
X451760D01*
Y359560D01*
X623898Y223045D02*
Y233645D01*
Y223045D02*
X629498D01*
Y233645D01*
X623898D02*
X629498D01*
X635898Y223045D02*
Y233645D01*
Y223045D02*
X641498D01*
Y233645D01*
X635898D02*
X641498D01*
X657898Y223045D02*
Y233645D01*
Y223045D02*
X663498D01*
Y233645D01*
X657898D02*
X663498D01*
X669898Y223045D02*
Y233645D01*
Y223045D02*
X675498D01*
Y233645D01*
X669898D02*
X675498D01*
X54950Y309460D02*
X65550D01*
X54950Y303860D02*
Y309460D01*
Y303860D02*
X65550D01*
Y309460D01*
X237450Y247700D02*
Y258300D01*
Y247700D02*
X243050D01*
Y258300D01*
X237450D02*
X243050D01*
X85950Y425799D02*
X96550D01*
Y431399D01*
X85950D02*
X96550D01*
X85950Y425799D02*
Y431399D01*
X131860Y467140D02*
Y477740D01*
Y467140D02*
X137460D01*
Y477740D01*
X131860D02*
X137460D01*
X132250Y381660D02*
Y403660D01*
X118250Y381660D02*
Y403660D01*
Y381660D02*
X132250D01*
X118250Y403660D02*
X132250D01*
X597438Y255392D02*
X604933Y262887D01*
X600973Y266847D02*
X604933Y262887D01*
X593478Y259352D02*
X600973Y266847D01*
X593478Y259352D02*
X597438Y255392D01*
X598374Y116075D02*
X605869Y123570D01*
X601909Y127530D02*
X605869Y123570D01*
X594414Y120035D02*
X601909Y127530D01*
X594414Y120035D02*
X598374Y116075D01*
Y130075D02*
X605869Y137570D01*
X601909Y141530D02*
X605869Y137570D01*
X594414Y134035D02*
X601909Y141530D01*
X594414Y134035D02*
X598374Y130075D01*
X124700Y403460D02*
X135300D01*
X124700Y397860D02*
Y403460D01*
Y397860D02*
X135300D01*
Y403460D01*
X124700Y375460D02*
X135300D01*
X124700Y369860D02*
Y375460D01*
Y369860D02*
X135300D01*
Y375460D01*
X128050Y390610D02*
Y401210D01*
X122450D02*
X128050D01*
X122450Y390610D02*
Y401210D01*
Y390610D02*
X128050D01*
Y362610D02*
Y373210D01*
X122450D02*
X128050D01*
X122450Y362610D02*
Y373210D01*
Y362610D02*
X128050D01*
X54950Y314860D02*
X65550D01*
Y320460D01*
X54950D02*
X65550D01*
X54950Y314860D02*
Y320460D01*
X30950Y314860D02*
X41550D01*
Y320460D01*
X30950D02*
X41550D01*
X30950Y314860D02*
Y320460D01*
X162950Y312460D02*
X173550D01*
X162950Y306860D02*
Y312460D01*
Y306860D02*
X173550D01*
Y312460D01*
X237600Y357130D02*
X248200D01*
X237600Y351530D02*
Y357130D01*
Y351530D02*
X248200D01*
Y357130D01*
X258860Y413010D02*
X269460D01*
X258860Y407410D02*
Y413010D01*
Y407410D02*
X269460D01*
Y413010D01*
D150*
X652475Y191455D02*
Y209235D01*
Y191455D02*
X680922Y191455D01*
Y209235D01*
X652475D02*
X680922D01*
X149860Y438690D02*
X156210Y445040D01*
X200660Y400590D02*
Y438690D01*
X219710Y394240D02*
X226060Y400590D01*
X156210Y445040D02*
X168910D01*
X175260Y438690D01*
Y400590D02*
X181610Y394240D01*
X226060Y400590D02*
Y438690D01*
X194310Y445040D02*
X200660Y438690D01*
X149860Y400590D02*
Y438690D01*
X175260D02*
X181610Y445040D01*
Y394240D02*
X194310D01*
X207010Y445040D02*
X219710D01*
X149860Y400590D02*
X156210Y394240D01*
X194310D02*
X200660Y400590D01*
X219710Y445040D02*
X226060Y438690D01*
X156210Y394240D02*
X168910D01*
X181610Y445040D02*
X194310D01*
X200660Y400590D02*
X207010Y394240D01*
X175260Y400590D02*
Y438690D01*
X200660D02*
X207010Y445040D01*
X168910Y394240D02*
X175260Y400590D01*
X207010Y394240D02*
X219710D01*
X674370Y298450D02*
Y311150D01*
X668020Y266700D02*
X674370Y260350D01*
X623570Y298450D02*
X629920Y292100D01*
Y266700D02*
X668020D01*
Y292100D02*
X674370Y298450D01*
X623570Y273050D02*
Y285750D01*
X674370Y247650D02*
Y260350D01*
X623570Y311150D02*
X629920Y317500D01*
X668020Y292100D02*
X674370Y285750D01*
X668020Y241300D02*
X674370Y247650D01*
X623570Y298450D02*
Y311150D01*
X674370Y273050D02*
Y285750D01*
X623570Y273050D02*
X629920Y266700D01*
Y241300D02*
X668020D01*
X623570Y285750D02*
X629920Y292100D01*
Y317500D02*
X668020D01*
Y266700D02*
X674370Y273050D01*
X623570Y260350D02*
X629920Y266700D01*
X623570Y247650D02*
Y260350D01*
X668020Y317500D02*
X674370Y311150D01*
X629920Y292100D02*
X668020D01*
X623570Y247650D02*
X629920Y241300D01*
X111026Y431770D02*
X139474D01*
X111026D02*
Y449550D01*
X139474D01*
Y431770D02*
Y449550D01*
X618474Y209235D02*
X646922D01*
Y191455D02*
Y209235D01*
X618475Y191455D02*
X646922Y191455D01*
X618474Y209235D02*
X618475Y191455D01*
D151*
X76250Y385660D02*
X106250D01*
X76250D02*
X76250Y371660D01*
X106250Y371660D01*
X106250Y385660D02*
X106250Y371660D01*
X577952Y127922D02*
X584740Y121133D01*
X572295Y108688D02*
X584740Y121133D01*
X565507Y115477D02*
X572295Y108688D01*
X565507Y115477D02*
X577952Y127922D01*
X586298Y419080D02*
X603898D01*
X586298Y409480D02*
X603898D01*
Y419080D01*
X586298Y409480D02*
Y419080D01*
X317550Y112560D02*
Y134560D01*
X302950D02*
X317550D01*
X302950Y112560D02*
Y134560D01*
Y112560D02*
X317550D01*
X433660Y293960D02*
Y303560D01*
X451260D01*
Y293960D02*
Y303560D01*
X433660Y293960D02*
X451260D01*
X130550Y409860D02*
Y415460D01*
X119950Y409860D02*
X130550D01*
X119950D02*
Y415460D01*
X130550D01*
X120860Y477740D02*
X126460D01*
Y467140D02*
Y477740D01*
X120860Y467140D02*
X126460D01*
X120860D02*
Y477740D01*
X457347Y423480D02*
Y429080D01*
X467948D01*
Y423480D02*
Y429080D01*
X457347Y423480D02*
X467948D01*
X255360Y416840D02*
X272960D01*
Y426440D01*
X255360D02*
X272960D01*
X255360Y416840D02*
Y426440D01*
X255360Y360960D02*
Y370560D01*
X272960D01*
Y360960D02*
Y370560D01*
X255360Y360960D02*
X272960D01*
X255360Y338100D02*
Y347700D01*
X272960D01*
Y338100D02*
Y347700D01*
X255360Y338100D02*
X272960D01*
X7498Y434230D02*
X29498D01*
Y448830D01*
X7498D02*
X29498D01*
X7498Y434230D02*
Y448830D01*
X639353Y398357D02*
X646142Y405146D01*
X658587Y392701D01*
X651799Y385912D02*
X658587Y392701D01*
X639353Y398357D02*
X651799Y385912D01*
X618260Y353960D02*
Y363560D01*
X600660Y353960D02*
X618260D01*
X600660D02*
Y363560D01*
X618260D01*
X441160Y364960D02*
Y370560D01*
X451760D01*
Y364960D02*
Y370560D01*
X441160Y364960D02*
X451760D01*
X587048Y423480D02*
Y429080D01*
X597648D01*
Y423480D02*
Y429080D01*
X587048Y423480D02*
X597648D01*
X441195Y390260D02*
Y395860D01*
X451795D01*
Y390260D02*
Y395860D01*
X441195Y390260D02*
X451795D01*
X434698Y374730D02*
Y384330D01*
X452298D01*
Y374730D02*
Y384330D01*
X434698Y374730D02*
X452298D01*
X281450Y247700D02*
X287050D01*
X281450D02*
Y258300D01*
X287050D01*
Y247700D02*
Y258300D01*
X250700Y193200D02*
Y198800D01*
X261300D01*
Y193200D02*
Y198800D01*
X250700Y193200D02*
X261300D01*
X239291Y161530D02*
Y183530D01*
X224691D02*
X239291D01*
X224691Y161530D02*
Y183530D01*
Y161530D02*
X239291D01*
X295600Y220282D02*
X317600D01*
X295600Y205682D02*
Y220282D01*
Y205682D02*
X317600D01*
Y220282D01*
X270450Y247700D02*
X276050D01*
X270450D02*
Y258300D01*
X276050D01*
Y247700D02*
Y258300D01*
X237450Y277650D02*
X243050D01*
Y267050D02*
Y277650D01*
X237450Y267050D02*
X243050D01*
X237450D02*
Y277650D01*
X226450Y277650D02*
X232050D01*
Y267050D02*
Y277650D01*
X226450Y267050D02*
X232050D01*
X226450D02*
Y277650D01*
X244856Y161530D02*
Y183530D01*
Y161530D02*
X259456D01*
Y183530D01*
X244856D02*
X259456D01*
X189100Y94610D02*
X194700D01*
X189100D02*
Y105210D01*
X194700D01*
Y94610D02*
Y105210D01*
X295600Y239782D02*
X317600D01*
X295600Y225182D02*
Y239782D01*
Y225182D02*
X317600D01*
Y239782D01*
X451097Y419080D02*
X468698Y419080D01*
X451097Y409480D02*
X468698D01*
X468698Y419080D02*
X468698Y409480D01*
X451097Y419080D02*
X451097Y409480D01*
X155160Y327460D02*
X160760D01*
X155160D02*
Y338060D01*
X160760D01*
Y327460D02*
Y338060D01*
X189660Y371060D02*
X195260D01*
Y360460D02*
Y371060D01*
X189660Y360460D02*
X195260D01*
X189660D02*
Y371060D01*
X178660D02*
X184260D01*
Y360460D02*
Y371060D01*
X178660Y360460D02*
X184260D01*
X178660D02*
Y371060D01*
X183200Y93060D02*
Y115060D01*
X168600D02*
X183200D01*
X168600Y93060D02*
Y115060D01*
Y93060D02*
X183200D01*
X295450Y259265D02*
X317450D01*
X295450Y244665D02*
Y259265D01*
Y244665D02*
X317450D01*
Y259265D01*
X295450Y278765D02*
X317450D01*
X295450Y264165D02*
Y278765D01*
Y264165D02*
X317450D01*
Y278765D01*
X334507Y262477D02*
X346952Y274922D01*
X334507Y262477D02*
X341295Y255688D01*
X353740Y268134D01*
X346952Y274922D02*
X353740Y268134D01*
X355507Y262477D02*
X367952Y274922D01*
X355507Y262477D02*
X362295Y255688D01*
X374740Y268134D01*
X367952Y274922D02*
X374740Y268134D01*
X376507Y262477D02*
X388952Y274922D01*
X376507Y262477D02*
X383295Y255688D01*
X395740Y268134D01*
X388952Y274922D02*
X395740Y268134D01*
X418507Y262477D02*
X430952Y274922D01*
X418507Y262477D02*
X425295Y255688D01*
X437740Y268134D01*
X430952Y274922D02*
X437740Y268134D01*
X397507Y262477D02*
X409952Y274922D01*
X397507Y262477D02*
X404295Y255688D01*
X416740Y268134D01*
X409952Y274922D02*
X416740Y268134D01*
X439507Y262477D02*
X451952Y274922D01*
X439507Y262477D02*
X446295Y255688D01*
X458740Y268134D01*
X451952Y274922D02*
X458740Y268134D01*
X460507Y262477D02*
X472952Y274922D01*
X460507Y262477D02*
X467295Y255688D01*
X479740Y268134D01*
X472952Y274922D02*
X479740Y268134D01*
X502507Y262477D02*
X514952Y274922D01*
X502507Y262477D02*
X509295Y255688D01*
X521740Y268134D01*
X514952Y274922D02*
X521740Y268134D01*
X544507Y262477D02*
X556952Y274922D01*
X544507Y262477D02*
X551295Y255688D01*
X563740Y268134D01*
X556952Y274922D02*
X563740Y268134D01*
X481507Y262477D02*
X493952Y274922D01*
X481507Y262477D02*
X488295Y255688D01*
X500740Y268134D01*
X493952Y274922D02*
X500740Y268134D01*
X523507Y262477D02*
X535952Y274922D01*
X523507Y262477D02*
X530295Y255688D01*
X542740Y268134D01*
X535952Y274922D02*
X542740Y268134D01*
X565507Y262477D02*
X577952Y274922D01*
X565507Y262477D02*
X572295Y255688D01*
X584740Y268134D01*
X577952Y274922D02*
X584740Y268134D01*
X334507Y241477D02*
X346952Y253922D01*
X334507Y241477D02*
X341295Y234688D01*
X353740Y247134D01*
X346952Y253922D02*
X353740Y247134D01*
X376507Y241477D02*
X388952Y253922D01*
X376507Y241477D02*
X383295Y234688D01*
X395740Y247134D01*
X388952Y253922D02*
X395740Y247134D01*
X418507Y241477D02*
X430952Y253922D01*
X418507Y241477D02*
X425295Y234688D01*
X437740Y247134D01*
X430952Y253922D02*
X437740Y247134D01*
X460507Y241477D02*
X472952Y253922D01*
X460507Y241477D02*
X467295Y234688D01*
X479740Y247134D01*
X472952Y253922D02*
X479740Y247134D01*
X355507Y241477D02*
X367952Y253922D01*
X355507Y241477D02*
X362295Y234688D01*
X374740Y247134D01*
X367952Y253922D02*
X374740Y247134D01*
X397507Y241477D02*
X409952Y253922D01*
X397507Y241477D02*
X404295Y234688D01*
X416740Y247134D01*
X409952Y253922D02*
X416740Y247134D01*
X439507Y241477D02*
X451952Y253922D01*
X439507Y241477D02*
X446295Y234688D01*
X458740Y247134D01*
X451952Y253922D02*
X458740Y247134D01*
X481507Y241477D02*
X493952Y253922D01*
X481507Y241477D02*
X488295Y234688D01*
X500740Y247134D01*
X493952Y253922D02*
X500740Y247134D01*
X502507Y241477D02*
X514952Y253922D01*
X502507Y241477D02*
X509295Y234688D01*
X521740Y247134D01*
X514952Y253922D02*
X521740Y247134D01*
X544507Y241477D02*
X556952Y253922D01*
X544507Y241477D02*
X551295Y234688D01*
X563740Y247134D01*
X556952Y253922D02*
X563740Y247134D01*
X334507Y220477D02*
X346952Y232922D01*
X334507Y220477D02*
X341295Y213688D01*
X353740Y226133D01*
X346952Y232922D02*
X353740Y226133D01*
X376507Y220477D02*
X388952Y232922D01*
X376507Y220477D02*
X383295Y213688D01*
X395740Y226133D01*
X388952Y232922D02*
X395740Y226133D01*
X418507Y220477D02*
X430952Y232922D01*
X418507Y220477D02*
X425295Y213688D01*
X437740Y226133D01*
X430952Y232922D02*
X437740Y226133D01*
X523507Y241477D02*
X535952Y253922D01*
X523507Y241477D02*
X530295Y234688D01*
X542740Y247134D01*
X535952Y253922D02*
X542740Y247134D01*
X565507Y241477D02*
X577952Y253922D01*
X565507Y241477D02*
X572295Y234688D01*
X584740Y247134D01*
X577952Y253922D02*
X584740Y247134D01*
X355507Y220477D02*
X367952Y232922D01*
X355507Y220477D02*
X362295Y213688D01*
X374740Y226133D01*
X367952Y232922D02*
X374740Y226133D01*
X397507Y220477D02*
X409952Y232922D01*
X397507Y220477D02*
X404295Y213688D01*
X416740Y226133D01*
X409952Y232922D02*
X416740Y226133D01*
X439507Y220477D02*
X451952Y232922D01*
X439507Y220477D02*
X446295Y213688D01*
X458740Y226133D01*
X451952Y232922D02*
X458740Y226133D01*
X460507Y220477D02*
X472952Y232922D01*
X460507Y220477D02*
X467295Y213688D01*
X479740Y226133D01*
X472952Y232922D02*
X479740Y226133D01*
X502507Y220477D02*
X514952Y232922D01*
X502507Y220477D02*
X509295Y213688D01*
X521740Y226133D01*
X514952Y232922D02*
X521740Y226133D01*
X544507Y220477D02*
X556952Y232922D01*
X544507Y220477D02*
X551295Y213688D01*
X563740Y226133D01*
X556952Y232922D02*
X563740Y226133D01*
X334507Y199477D02*
X346952Y211922D01*
X334507Y199477D02*
X341295Y192688D01*
X353740Y205133D01*
X346952Y211922D02*
X353740Y205133D01*
X376507Y199477D02*
X388952Y211922D01*
X376507Y199477D02*
X383295Y192688D01*
X395740Y205133D01*
X388952Y211922D02*
X395740Y205133D01*
X418507Y199477D02*
X430952Y211922D01*
X418507Y199477D02*
X425295Y192688D01*
X437740Y205133D01*
X430952Y211922D02*
X437740Y205133D01*
X481507Y220477D02*
X493952Y232922D01*
X481507Y220477D02*
X488295Y213688D01*
X500740Y226133D01*
X493952Y232922D02*
X500740Y226133D01*
X523507Y220477D02*
X535952Y232922D01*
X523507Y220477D02*
X530295Y213688D01*
X542740Y226133D01*
X535952Y232922D02*
X542740Y226133D01*
X565507Y220477D02*
X577952Y232922D01*
X565507Y220477D02*
X572295Y213688D01*
X584740Y226133D01*
X577952Y232922D02*
X584740Y226133D01*
X355507Y199477D02*
X367952Y211922D01*
X355507Y199477D02*
X362295Y192688D01*
X374740Y205133D01*
X367952Y211922D02*
X374740Y205133D01*
X397507Y199477D02*
X409952Y211922D01*
X397507Y199477D02*
X404295Y192688D01*
X416740Y205133D01*
X409952Y211922D02*
X416740Y205133D01*
X460507Y199477D02*
X472952Y211922D01*
X460507Y199477D02*
X467295Y192688D01*
X479740Y205133D01*
X472952Y211922D02*
X479740Y205133D01*
X502507Y199477D02*
X514952Y211922D01*
X502507Y199477D02*
X509295Y192688D01*
X521740Y205133D01*
X514952Y211922D02*
X521740Y205133D01*
X544507Y199477D02*
X556952Y211922D01*
X544507Y199477D02*
X551295Y192688D01*
X563740Y205133D01*
X556952Y211922D02*
X563740Y205133D01*
X334507Y178477D02*
X346952Y190922D01*
X334507Y178477D02*
X341295Y171688D01*
X353740Y184133D01*
X346952Y190922D02*
X353740Y184133D01*
X376507Y178477D02*
X388952Y190922D01*
X376507Y178477D02*
X383295Y171688D01*
X395740Y184133D01*
X388952Y190922D02*
X395740Y184133D01*
X418507Y178477D02*
X430952Y190922D01*
X418507Y178477D02*
X425295Y171688D01*
X437740Y184133D01*
X430952Y190922D02*
X437740Y184133D01*
X460507Y178477D02*
X472952Y190922D01*
X460507Y178477D02*
X467295Y171688D01*
X479740Y184133D01*
X472952Y190922D02*
X479740Y184133D01*
X481507Y199477D02*
X493952Y211922D01*
X481507Y199477D02*
X488295Y192688D01*
X500740Y205133D01*
X493952Y211922D02*
X500740Y205133D01*
X523507Y199477D02*
X535952Y211922D01*
X523507Y199477D02*
X530295Y192688D01*
X542740Y205133D01*
X535952Y211922D02*
X542740Y205133D01*
X565507Y199477D02*
X577952Y211922D01*
X565507Y199477D02*
X572295Y192688D01*
X584740Y205133D01*
X577952Y211922D02*
X584740Y205133D01*
X355507Y178477D02*
X367952Y190922D01*
X355507Y178477D02*
X362295Y171688D01*
X374740Y184133D01*
X367952Y190922D02*
X374740Y184133D01*
X397507Y178477D02*
X409952Y190922D01*
X397507Y178477D02*
X404295Y171688D01*
X416740Y184133D01*
X409952Y190922D02*
X416740Y184133D01*
X439507Y178477D02*
X451952Y190922D01*
X439507Y178477D02*
X446295Y171688D01*
X458740Y184133D01*
X451952Y190922D02*
X458740Y184133D01*
X439507Y199477D02*
X451952Y211922D01*
X439507Y199477D02*
X446295Y192688D01*
X458740Y205133D01*
X451952Y211922D02*
X458740Y205133D01*
X116450Y337010D02*
X122050D01*
X116450D02*
Y347610D01*
X122050D01*
Y337010D02*
Y347610D01*
X493952Y190922D02*
X500740Y184133D01*
X488295Y171688D02*
X500740Y184133D01*
X481507Y178477D02*
X488295Y171688D01*
X481507Y178477D02*
X493952Y190922D01*
X514952D02*
X521740Y184133D01*
X509295Y171688D02*
X521740Y184133D01*
X502507Y178477D02*
X509295Y171688D01*
X502507Y178477D02*
X514952Y190922D01*
X535952D02*
X542740Y184133D01*
X530295Y171688D02*
X542740Y184133D01*
X523507Y178477D02*
X530295Y171688D01*
X523507Y178477D02*
X535952Y190922D01*
X556952D02*
X563740Y184133D01*
X551295Y171688D02*
X563740Y184133D01*
X544507Y178477D02*
X551295Y171688D01*
X544507Y178477D02*
X556952Y190922D01*
X577952D02*
X584740Y184133D01*
X572295Y171688D02*
X584740Y184133D01*
X565507Y178477D02*
X572295Y171688D01*
X565507Y178477D02*
X577952Y190922D01*
X346949Y169918D02*
X353737Y163130D01*
X341292Y150685D02*
X353737Y163130D01*
X334504Y157473D02*
X341292Y150685D01*
X334504Y157473D02*
X346949Y169918D01*
X367952Y169922D02*
X374740Y163134D01*
X362295Y150688D02*
X374740Y163134D01*
X355507Y157477D02*
X362295Y150688D01*
X355507Y157477D02*
X367952Y169922D01*
X388952D02*
X395740Y163134D01*
X383295Y150688D02*
X395740Y163134D01*
X376507Y157477D02*
X383295Y150688D01*
X376507Y157477D02*
X388952Y169922D01*
X409952D02*
X416740Y163134D01*
X404295Y150688D02*
X416740Y163134D01*
X397507Y157477D02*
X404295Y150688D01*
X397507Y157477D02*
X409952Y169922D01*
X430952D02*
X437740Y163134D01*
X425295Y150688D02*
X437740Y163134D01*
X418507Y157477D02*
X425295Y150688D01*
X418507Y157477D02*
X430952Y169922D01*
X451952D02*
X458740Y163134D01*
X446295Y150688D02*
X458740Y163134D01*
X439507Y157477D02*
X446295Y150688D01*
X439507Y157477D02*
X451952Y169922D01*
X472952D02*
X479740Y163134D01*
X467295Y150688D02*
X479740Y163134D01*
X460507Y157477D02*
X467295Y150688D01*
X460507Y157477D02*
X472952Y169922D01*
X493952D02*
X500740Y163134D01*
X488295Y150688D02*
X500740Y163134D01*
X481507Y157477D02*
X488295Y150688D01*
X481507Y157477D02*
X493952Y169922D01*
X514952D02*
X521740Y163134D01*
X509295Y150688D02*
X521740Y163134D01*
X502507Y157477D02*
X509295Y150688D01*
X502507Y157477D02*
X514952Y169922D01*
X535952D02*
X542740Y163134D01*
X530295Y150688D02*
X542740Y163134D01*
X523507Y157477D02*
X530295Y150688D01*
X523507Y157477D02*
X535952Y169922D01*
X556952D02*
X563740Y163134D01*
X551295Y150688D02*
X563740Y163134D01*
X544507Y157477D02*
X551295Y150688D01*
X544507Y157477D02*
X556952Y169922D01*
X577952D02*
X584740Y163134D01*
X572295Y150688D02*
X584740Y163134D01*
X565507Y157477D02*
X572295Y150688D01*
X565507Y157477D02*
X577952Y169922D01*
X346952Y148922D02*
X353740Y142134D01*
X341295Y129688D02*
X353740Y142134D01*
X334507Y136477D02*
X341295Y129688D01*
X334507Y136477D02*
X346952Y148922D01*
X367952D02*
X374740Y142134D01*
X362295Y129688D02*
X374740Y142134D01*
X355507Y136477D02*
X362295Y129688D01*
X355507Y136477D02*
X367952Y148922D01*
X388952D02*
X395740Y142134D01*
X383295Y129688D02*
X395740Y142134D01*
X376507Y136477D02*
X383295Y129688D01*
X376507Y136477D02*
X388952Y148922D01*
X409952D02*
X416740Y142134D01*
X404295Y129688D02*
X416740Y142134D01*
X397507Y136477D02*
X404295Y129688D01*
X397507Y136477D02*
X409952Y148922D01*
X430952D02*
X437740Y142134D01*
X425295Y129688D02*
X437740Y142134D01*
X418507Y136477D02*
X425295Y129688D01*
X418507Y136477D02*
X430952Y148922D01*
X451952D02*
X458740Y142134D01*
X446295Y129688D02*
X458740Y142134D01*
X439507Y136477D02*
X446295Y129688D01*
X439507Y136477D02*
X451952Y148922D01*
X472952D02*
X479740Y142134D01*
X467295Y129688D02*
X479740Y142134D01*
X460507Y136477D02*
X467295Y129688D01*
X460507Y136477D02*
X472952Y148922D01*
X493952D02*
X500740Y142134D01*
X488295Y129688D02*
X500740Y142134D01*
X481507Y136477D02*
X488295Y129688D01*
X481507Y136477D02*
X493952Y148922D01*
X514952D02*
X521740Y142134D01*
X509295Y129688D02*
X521740Y142134D01*
X502507Y136477D02*
X509295Y129688D01*
X502507Y136477D02*
X514952Y148922D01*
X535829Y148798D02*
X542617Y142010D01*
X530172Y129565D02*
X542617Y142010D01*
X523384Y136353D02*
X530172Y129565D01*
X523384Y136353D02*
X535829Y148798D01*
X556952Y148922D02*
X563740Y142134D01*
X551295Y129688D02*
X563740Y142134D01*
X544507Y136477D02*
X551295Y129688D01*
X544507Y136477D02*
X556952Y148922D01*
X577952D02*
X584740Y142134D01*
X572295Y129688D02*
X584740Y142134D01*
X565507Y136477D02*
X572295Y129688D01*
X565507Y136477D02*
X577952Y148922D01*
X346952Y127922D02*
X353740Y121133D01*
X341295Y108688D02*
X353740Y121133D01*
X334507Y115477D02*
X341295Y108688D01*
X334507Y115477D02*
X346952Y127922D01*
X367952D02*
X374740Y121133D01*
X362295Y108688D02*
X374740Y121133D01*
X355507Y115477D02*
X362295Y108688D01*
X355507Y115477D02*
X367952Y127922D01*
X388952D02*
X395740Y121133D01*
X383295Y108688D02*
X395740Y121133D01*
X376507Y115477D02*
X383295Y108688D01*
X376507Y115477D02*
X388952Y127922D01*
X409952D02*
X416740Y121133D01*
X404295Y108688D02*
X416740Y121133D01*
X397507Y115477D02*
X404295Y108688D01*
X397507Y115477D02*
X409952Y127922D01*
X430952D02*
X437740Y121133D01*
X425295Y108688D02*
X437740Y121133D01*
X418507Y115477D02*
X425295Y108688D01*
X418507Y115477D02*
X430952Y127922D01*
X451952D02*
X458740Y121133D01*
X446295Y108688D02*
X458740Y121133D01*
X439507Y115477D02*
X446295Y108688D01*
X439507Y115477D02*
X451952Y127922D01*
X472952D02*
X479740Y121133D01*
X467295Y108688D02*
X479740Y121133D01*
X460507Y115477D02*
X467295Y108688D01*
X460507Y115477D02*
X472952Y127922D01*
X493952D02*
X500740Y121133D01*
X488295Y108688D02*
X500740Y121133D01*
X481507Y115477D02*
X488295Y108688D01*
X481507Y115477D02*
X493952Y127922D01*
X514952D02*
X521740Y121133D01*
X509295Y108688D02*
X521740Y121133D01*
X502507Y115477D02*
X509295Y108688D01*
X502507Y115477D02*
X514952Y127922D01*
X535952D02*
X542740Y121133D01*
X530295Y108688D02*
X542740Y121133D01*
X523507Y115477D02*
X530295Y108688D01*
X523507Y115477D02*
X535952Y127922D01*
X556952D02*
X563740Y121133D01*
X551295Y108688D02*
X563740Y121133D01*
X544507Y115477D02*
X551295Y108688D01*
X544507Y115477D02*
X556952Y127922D01*
D152*
X15000Y20000D02*
X25000D01*
X20000Y15000D02*
Y25000D01*
X563500Y369161D02*
Y379161D01*
X558500Y374161D02*
X568500D01*
D153*
X129075Y356834D02*
D03*
X129075Y384835D02*
D03*
D154*
X96520Y469900D02*
D03*
D155*
X676985Y205296D02*
D03*
X114963Y435707D02*
D03*
X642986Y205297D02*
D03*
D156*
X288879Y128730D02*
D03*
D157*
X102560Y382160D02*
D03*
D158*
X153950Y97085D02*
D03*
X263960Y290735D02*
D03*
D159*
X640570Y120960D02*
D03*
D160*
X251742Y210210D02*
D03*
D161*
X170446Y326413D02*
D03*
D162*
X484717Y401310D02*
D03*
D163*
X170100Y33100D02*
D03*
D164*
X643880Y502514D02*
D03*
D165*
X270402Y31995D02*
D03*
M02*
