G04*
G04 #@! TF.GenerationSoftware,Altium Limited,Altium Designer,23.8.1 (32)*
G04*
G04 Layer_Color=32768*
%FSLAX44Y44*%
%MOMM*%
G71*
G04*
G04 #@! TF.SameCoordinates,6629C207-265C-49F2-9D33-E76E02802E5F*
G04*
G04*
G04 #@! TF.FilePolarity,Positive*
G04*
G01*
G75*
%ADD146C,0.0500*%
%ADD148C,0.1270*%
%ADD149C,0.1000*%
D146*
X127792Y364660D02*
G03*
X127792Y364660I-2542J0D01*
G01*
X67516Y494030D02*
G03*
X67516Y494030I-4016J0D01*
G01*
X670291Y200345D02*
G03*
X670291Y200345I-3592J0D01*
G01*
X266842Y102060D02*
G03*
X266842Y102060I-3592J0D01*
G01*
X93750Y378660D02*
G03*
X93750Y378660I-2500J0D01*
G01*
X658438Y143460D02*
G03*
X658438Y143460I-4243J0D01*
G01*
X265650Y443000D02*
G03*
X265650Y443000I-1650J0D01*
G01*
X301433Y172482D02*
G03*
X301433Y172482I-6350J0D01*
G01*
X577299Y118305D02*
G03*
X577299Y118305I-2175J0D01*
G01*
X597273Y414280D02*
G03*
X597273Y414280I-2175J0D01*
G01*
X189460Y332760D02*
G03*
X189460Y332760I-2500J0D01*
G01*
X139485Y215000D02*
G03*
X139485Y215000I-8485J0D01*
G01*
X530337Y358530D02*
G03*
X530337Y358530I-2840J0D01*
G01*
X312750Y123560D02*
G03*
X312750Y123560I-2500J0D01*
G01*
X444960Y298760D02*
G03*
X444960Y298760I-2500J0D01*
G01*
X126900Y412660D02*
G03*
X126900Y412660I-1650J0D01*
G01*
X193348Y419640D02*
G03*
X193348Y419640I-5388J0D01*
G01*
X206183Y25400D02*
G03*
X206183Y25400I-2983J0D01*
G01*
X47148Y438530D02*
G03*
X47148Y438530I-1650J0D01*
G01*
X654358Y279400D02*
G03*
X654358Y279400I-5388J0D01*
G01*
X125310Y472440D02*
G03*
X125310Y472440I-1650J0D01*
G01*
X464297Y426280D02*
G03*
X464297Y426280I-1650J0D01*
G01*
X132900Y314599D02*
G03*
X132900Y314599I-1650J0D01*
G01*
X266335Y421640D02*
G03*
X266335Y421640I-2175J0D01*
G01*
Y365760D02*
G03*
X266335Y365760I-2175J0D01*
G01*
Y342900D02*
G03*
X266335Y342900I-2175J0D01*
G01*
X265810Y377190D02*
G03*
X265810Y377190I-1650J0D01*
G01*
X20998Y441530D02*
G03*
X20998Y441530I-2500J0D01*
G01*
X651145Y395529D02*
G03*
X651145Y395529I-2175J0D01*
G01*
X265810Y433070D02*
G03*
X265810Y433070I-1650J0D01*
G01*
X217610Y332760D02*
G03*
X217610Y332760I-1650J0D01*
G01*
X448110Y323760D02*
G03*
X448110Y323760I-1650J0D01*
G01*
X645494Y419406D02*
G03*
X645494Y419406I-1650J0D01*
G01*
X120900Y314660D02*
G03*
X120900Y314660I-1650J0D01*
G01*
X448110Y334760D02*
G03*
X448110Y334760I-1650J0D01*
G01*
X92900Y404660D02*
G03*
X92900Y404660I-1650J0D01*
G01*
X92900Y416599D02*
G03*
X92900Y416599I-1650J0D01*
G01*
X611960Y358760D02*
G03*
X611960Y358760I-2500J0D01*
G01*
X448110Y367760D02*
G03*
X448110Y367760I-1650J0D01*
G01*
X593997Y426280D02*
G03*
X593997Y426280I-1650J0D01*
G01*
X448145Y393060D02*
G03*
X448145Y393060I-1650J0D01*
G01*
X445998Y379530D02*
G03*
X445998Y379530I-2500J0D01*
G01*
X285900Y253000D02*
G03*
X285900Y253000I-1650J0D01*
G01*
X257650Y196000D02*
G03*
X257650Y196000I-1650J0D01*
G01*
X234491Y172530D02*
G03*
X234491Y172530I-2500J0D01*
G01*
X309100Y212982D02*
G03*
X309100Y212982I-2500J0D01*
G01*
X274900Y253000D02*
G03*
X274900Y253000I-1650J0D01*
G01*
X241900Y272350D02*
G03*
X241900Y272350I-1650J0D01*
G01*
X230900Y272350D02*
G03*
X230900Y272350I-1650J0D01*
G01*
X254656Y172530D02*
G03*
X254656Y172530I-2500J0D01*
G01*
X193550Y99910D02*
G03*
X193550Y99910I-1650J0D01*
G01*
X309100Y232482D02*
G03*
X309100Y232482I-2500J0D01*
G01*
X462072Y414280D02*
G03*
X462072Y414280I-2175J0D01*
G01*
X132900Y342310D02*
G03*
X132900Y342310I-1650J0D01*
G01*
X608110Y323760D02*
G03*
X608110Y323760I-1650J0D01*
G01*
Y312760D02*
G03*
X608110Y312760I-1650J0D01*
G01*
X230900Y253000D02*
G03*
X230900Y253000I-1650J0D01*
G01*
Y230000D02*
G03*
X230900Y230000I-1650J0D01*
G01*
X281150Y272350D02*
G03*
X281150Y272350I-1650J0D01*
G01*
X241900Y208000D02*
G03*
X241900Y208000I-1650J0D01*
G01*
X263900Y253000D02*
G03*
X263900Y253000I-1650J0D01*
G01*
X252900D02*
G03*
X252900Y253000I-1650J0D01*
G01*
X265810Y354330D02*
G03*
X265810Y354330I-1650J0D01*
G01*
X159610Y332760D02*
G03*
X159610Y332760I-1650J0D01*
G01*
X194110Y365760D02*
G03*
X194110Y365760I-1650J0D01*
G01*
X183110D02*
G03*
X183110Y365760I-1650J0D01*
G01*
X178400Y104060D02*
G03*
X178400Y104060I-2500J0D01*
G01*
X308950Y251965D02*
G03*
X308950Y251965I-2500J0D01*
G01*
X308950Y271465D02*
G03*
X308950Y271465I-2500J0D01*
G01*
X227710Y472440D02*
G03*
X227710Y472440I-1650J0D01*
G01*
X202310D02*
G03*
X202310Y472440I-1650J0D01*
G01*
X442798Y419030D02*
G03*
X442798Y419030I-1650J0D01*
G01*
X241900Y230000D02*
G03*
X241900Y230000I-1650J0D01*
G01*
X128842Y440660D02*
G03*
X128842Y440660I-3592J0D01*
G01*
X230900Y208000D02*
G03*
X230900Y208000I-1650J0D01*
G01*
X346299Y265305D02*
G03*
X346299Y265305I-2175J0D01*
G01*
X367299D02*
G03*
X367299Y265305I-2175J0D01*
G01*
X388299D02*
G03*
X388299Y265305I-2175J0D01*
G01*
X430299D02*
G03*
X430299Y265305I-2175J0D01*
G01*
X409299D02*
G03*
X409299Y265305I-2175J0D01*
G01*
X451299D02*
G03*
X451299Y265305I-2175J0D01*
G01*
X472299D02*
G03*
X472299Y265305I-2175J0D01*
G01*
X514299D02*
G03*
X514299Y265305I-2175J0D01*
G01*
X556299D02*
G03*
X556299Y265305I-2175J0D01*
G01*
X493299D02*
G03*
X493299Y265305I-2175J0D01*
G01*
X535299D02*
G03*
X535299Y265305I-2175J0D01*
G01*
X577299D02*
G03*
X577299Y265305I-2175J0D01*
G01*
X346299Y244305D02*
G03*
X346299Y244305I-2175J0D01*
G01*
X388299D02*
G03*
X388299Y244305I-2175J0D01*
G01*
X430299D02*
G03*
X430299Y244305I-2175J0D01*
G01*
X472299D02*
G03*
X472299Y244305I-2175J0D01*
G01*
X367299D02*
G03*
X367299Y244305I-2175J0D01*
G01*
X409299D02*
G03*
X409299Y244305I-2175J0D01*
G01*
X451299D02*
G03*
X451299Y244305I-2175J0D01*
G01*
X493299D02*
G03*
X493299Y244305I-2175J0D01*
G01*
X514299D02*
G03*
X514299Y244305I-2175J0D01*
G01*
X556299D02*
G03*
X556299Y244305I-2175J0D01*
G01*
X346299Y223305D02*
G03*
X346299Y223305I-2175J0D01*
G01*
X388299D02*
G03*
X388299Y223305I-2175J0D01*
G01*
X430299D02*
G03*
X430299Y223305I-2175J0D01*
G01*
X535299Y244305D02*
G03*
X535299Y244305I-2175J0D01*
G01*
X577299D02*
G03*
X577299Y244305I-2175J0D01*
G01*
X367299Y223305D02*
G03*
X367299Y223305I-2175J0D01*
G01*
X409299D02*
G03*
X409299Y223305I-2175J0D01*
G01*
X451299D02*
G03*
X451299Y223305I-2175J0D01*
G01*
X472299D02*
G03*
X472299Y223305I-2175J0D01*
G01*
X514299D02*
G03*
X514299Y223305I-2175J0D01*
G01*
X556299D02*
G03*
X556299Y223305I-2175J0D01*
G01*
X346299Y202305D02*
G03*
X346299Y202305I-2175J0D01*
G01*
X388299D02*
G03*
X388299Y202305I-2175J0D01*
G01*
X430299D02*
G03*
X430299Y202305I-2175J0D01*
G01*
X493299Y223305D02*
G03*
X493299Y223305I-2175J0D01*
G01*
X535299D02*
G03*
X535299Y223305I-2175J0D01*
G01*
X577299D02*
G03*
X577299Y223305I-2175J0D01*
G01*
X367299Y202305D02*
G03*
X367299Y202305I-2175J0D01*
G01*
X409299D02*
G03*
X409299Y202305I-2175J0D01*
G01*
X472299D02*
G03*
X472299Y202305I-2175J0D01*
G01*
X514299D02*
G03*
X514299Y202305I-2175J0D01*
G01*
X556299D02*
G03*
X556299Y202305I-2175J0D01*
G01*
X346299Y181305D02*
G03*
X346299Y181305I-2175J0D01*
G01*
X388299D02*
G03*
X388299Y181305I-2175J0D01*
G01*
X430299D02*
G03*
X430299Y181305I-2175J0D01*
G01*
X472299D02*
G03*
X472299Y181305I-2175J0D01*
G01*
X493299Y202305D02*
G03*
X493299Y202305I-2175J0D01*
G01*
X535299D02*
G03*
X535299Y202305I-2175J0D01*
G01*
X577299D02*
G03*
X577299Y202305I-2175J0D01*
G01*
X367299Y181305D02*
G03*
X367299Y181305I-2175J0D01*
G01*
X409299D02*
G03*
X409299Y181305I-2175J0D01*
G01*
X451299D02*
G03*
X451299Y181305I-2175J0D01*
G01*
X601791Y149803D02*
G03*
X601791Y149803I-1650J0D01*
G01*
Y163803D02*
G03*
X601791Y163803I-1650J0D01*
G01*
Y177803D02*
G03*
X601791Y177803I-1650J0D01*
G01*
Y191803D02*
G03*
X601791Y191803I-1650J0D01*
G01*
Y219803D02*
G03*
X601791Y219803I-1650J0D01*
G01*
Y233803D02*
G03*
X601791Y233803I-1650J0D01*
G01*
Y247803D02*
G03*
X601791Y247803I-1650J0D01*
G01*
X451299Y202305D02*
G03*
X451299Y202305I-2175J0D01*
G01*
X601791Y205803D02*
G03*
X601791Y205803I-1650J0D01*
G01*
X172110Y365760D02*
G03*
X172110Y365760I-1650J0D01*
G01*
X161110D02*
G03*
X161110Y365760I-1650J0D01*
G01*
X216110Y365760D02*
G03*
X216110Y365760I-1650J0D01*
G01*
X205110D02*
G03*
X205110Y365760I-1650J0D01*
G01*
X448110Y356760D02*
G03*
X448110Y356760I-1650J0D01*
G01*
X636291Y200345D02*
G03*
X636291Y200345I-3592J0D01*
G01*
X628349Y228345D02*
G03*
X628349Y228345I-1650J0D01*
G01*
X640348D02*
G03*
X640348Y228345I-1650J0D01*
G01*
X662348D02*
G03*
X662348Y228345I-1650J0D01*
G01*
X674348D02*
G03*
X674348Y228345I-1650J0D01*
G01*
X61900Y306660D02*
G03*
X61900Y306660I-1650J0D01*
G01*
X241900Y253000D02*
G03*
X241900Y253000I-1650J0D01*
G01*
X92900Y428599D02*
G03*
X92900Y428599I-1650J0D01*
G01*
X136310Y472440D02*
G03*
X136310Y472440I-1650J0D01*
G01*
X120900Y342310D02*
G03*
X120900Y342310I-1650J0D01*
G01*
X127792Y392660D02*
G03*
X127792Y392660I-2542J0D01*
G01*
X493299Y181305D02*
G03*
X493299Y181305I-2175J0D01*
G01*
X514299D02*
G03*
X514299Y181305I-2175J0D01*
G01*
X535299D02*
G03*
X535299Y181305I-2175J0D01*
G01*
X556299D02*
G03*
X556299Y181305I-2175J0D01*
G01*
X577299D02*
G03*
X577299Y181305I-2175J0D01*
G01*
X346295Y160302D02*
G03*
X346295Y160302I-2175J0D01*
G01*
X367299Y160305D02*
G03*
X367299Y160305I-2175J0D01*
G01*
X388299D02*
G03*
X388299Y160305I-2175J0D01*
G01*
X409299D02*
G03*
X409299Y160305I-2175J0D01*
G01*
X430299D02*
G03*
X430299Y160305I-2175J0D01*
G01*
X451299D02*
G03*
X451299Y160305I-2175J0D01*
G01*
X472299D02*
G03*
X472299Y160305I-2175J0D01*
G01*
X493299D02*
G03*
X493299Y160305I-2175J0D01*
G01*
X514299D02*
G03*
X514299Y160305I-2175J0D01*
G01*
X535299D02*
G03*
X535299Y160305I-2175J0D01*
G01*
X556299D02*
G03*
X556299Y160305I-2175J0D01*
G01*
X577299D02*
G03*
X577299Y160305I-2175J0D01*
G01*
X346299Y139305D02*
G03*
X346299Y139305I-2175J0D01*
G01*
X367299D02*
G03*
X367299Y139305I-2175J0D01*
G01*
X388299D02*
G03*
X388299Y139305I-2175J0D01*
G01*
X409299D02*
G03*
X409299Y139305I-2175J0D01*
G01*
X430299D02*
G03*
X430299Y139305I-2175J0D01*
G01*
X451299D02*
G03*
X451299Y139305I-2175J0D01*
G01*
X472299D02*
G03*
X472299Y139305I-2175J0D01*
G01*
X493299D02*
G03*
X493299Y139305I-2175J0D01*
G01*
X514299D02*
G03*
X514299Y139305I-2175J0D01*
G01*
X535175Y139182D02*
G03*
X535175Y139182I-2175J0D01*
G01*
X556299Y139305D02*
G03*
X556299Y139305I-2175J0D01*
G01*
X577299D02*
G03*
X577299Y139305I-2175J0D01*
G01*
X346299Y118305D02*
G03*
X346299Y118305I-2175J0D01*
G01*
X367299D02*
G03*
X367299Y118305I-2175J0D01*
G01*
X388299D02*
G03*
X388299Y118305I-2175J0D01*
G01*
X409299D02*
G03*
X409299Y118305I-2175J0D01*
G01*
X430299D02*
G03*
X430299Y118305I-2175J0D01*
G01*
X451299D02*
G03*
X451299Y118305I-2175J0D01*
G01*
X472299D02*
G03*
X472299Y118305I-2175J0D01*
G01*
X493299D02*
G03*
X493299Y118305I-2175J0D01*
G01*
X514299D02*
G03*
X514299Y118305I-2175J0D01*
G01*
X535299D02*
G03*
X535299Y118305I-2175J0D01*
G01*
X556299D02*
G03*
X556299Y118305I-2175J0D01*
G01*
X600855Y261120D02*
G03*
X600855Y261120I-1650J0D01*
G01*
X601791Y121803D02*
G03*
X601791Y121803I-1650J0D01*
G01*
Y135803D02*
G03*
X601791Y135803I-1650J0D01*
G01*
X131650Y400660D02*
G03*
X131650Y400660I-1650J0D01*
G01*
X131650Y372660D02*
G03*
X131650Y372660I-1650J0D01*
G01*
X126900Y395910D02*
G03*
X126900Y395910I-1650J0D01*
G01*
Y367910D02*
G03*
X126900Y367910I-1650J0D01*
G01*
X61900Y317660D02*
G03*
X61900Y317660I-1650J0D01*
G01*
X37900D02*
G03*
X37900Y317660I-1650J0D01*
G01*
X169900Y309660D02*
G03*
X169900Y309660I-1650J0D01*
G01*
X244550Y354330D02*
G03*
X244550Y354330I-1650J0D01*
G01*
X265810Y410210D02*
G03*
X265810Y410210I-1650J0D01*
G01*
X140490Y351960D02*
Y377360D01*
X110010Y351960D02*
Y377360D01*
Y351960D02*
X140490D01*
X110010Y377360D02*
X140490D01*
X120250Y364660D02*
X130250D01*
X125250Y359660D02*
Y369660D01*
X8890Y459740D02*
Y529590D01*
Y459740D02*
X116840D01*
Y529590D01*
X8890D02*
X116840D01*
X63500Y488950D02*
Y499110D01*
X58420Y494030D02*
X68580D01*
X666698Y200345D02*
Y206695D01*
Y200345D02*
X673048Y200345D01*
X666698Y193995D02*
X666698Y200345D01*
X660348D02*
X666698D01*
X650188Y216855D02*
X683208D01*
X650188Y183835D02*
Y216855D01*
Y183835D02*
X683208D01*
Y216855D01*
X258250Y102060D02*
X268250D01*
X263250Y97060D02*
Y107060D01*
X227250Y59560D02*
Y144560D01*
X299250Y59560D02*
Y144560D01*
X227250Y59560D02*
X299250D01*
X227250Y144560D02*
X299250D01*
X73470Y363560D02*
Y393760D01*
X109030Y363560D02*
Y393760D01*
X73470D02*
X109030D01*
X73470Y363560D02*
X109030D01*
X87750Y378660D02*
X94750D01*
X91250Y375160D02*
Y382160D01*
X625195Y179460D02*
X684195D01*
X625195Y107460D02*
Y179460D01*
Y107460D02*
X684195D01*
Y179460D01*
X647195Y143460D02*
X654195D01*
Y150460D01*
Y143460D02*
X661195D01*
X654195Y136460D02*
Y143460D01*
X264000Y440800D02*
Y445200D01*
X261800Y443000D02*
X266200D01*
X255000Y438600D02*
X273000D01*
Y447400D01*
X255000D02*
X273000D01*
X255000Y438600D02*
Y447400D01*
X246660Y201950D02*
X289840Y201950D01*
Y240050D01*
X246660D02*
X246660Y201950D01*
X246660Y240050D02*
X289840D01*
X267143Y145812D02*
Y199152D01*
X323023Y145812D02*
Y199152D01*
X267143Y145812D02*
X323023D01*
X267143Y199152D02*
X323023D01*
X295083Y172482D02*
X305083D01*
X285083D02*
X295083D01*
Y182482D01*
Y162482D02*
Y172482D01*
X579437Y130821D02*
X587640Y122618D01*
X570810Y105789D02*
X587640Y122618D01*
X562608Y113992D02*
X570810Y105789D01*
X562608Y113992D02*
X579437Y130821D01*
X573073Y116254D02*
X577174Y120356D01*
X573073D02*
X577174Y116254D01*
X592198Y414280D02*
X597998D01*
X595098Y417180D02*
X595098Y411380D01*
X583198Y408480D02*
Y420080D01*
X606998D01*
X583198Y408480D02*
X606998D01*
X606998Y420080D01*
X186960Y332760D02*
X191960D01*
X186960Y327760D02*
Y332760D01*
X181960D02*
X186960D01*
Y337760D01*
X164100Y316250D02*
X209820D01*
Y349270D01*
X164100D02*
X209820D01*
X164100Y316250D02*
Y349270D01*
X131000Y215000D02*
X151000D01*
X131000Y195000D02*
Y215000D01*
X111000D02*
X131000D01*
Y235000D01*
X1000Y135000D02*
X211000D01*
X1000D02*
Y295000D01*
X211000D01*
Y135000D02*
Y295000D01*
X460187Y291220D02*
Y425840D01*
X594808Y291220D02*
Y425840D01*
X460187D02*
X594808D01*
X460187Y291220D02*
X594808D01*
X522498Y358530D02*
X532497D01*
X527497Y353530D02*
Y363530D01*
X306750Y123560D02*
X313750D01*
X310250Y120060D02*
Y127060D01*
X319650Y107460D02*
Y139660D01*
X300850D02*
X319650D01*
X300850Y107460D02*
Y139660D01*
Y107460D02*
X319650D01*
X428560Y291860D02*
Y305660D01*
X456360D01*
Y291860D02*
Y305660D01*
X428560Y291860D02*
X456360D01*
X439010Y298760D02*
X445910D01*
X442460Y295310D02*
Y302210D01*
X134250Y408260D02*
Y417060D01*
X116250Y408260D02*
X134250D01*
X116250D02*
Y417060D01*
X134250D01*
X123050Y412660D02*
X127450D01*
X125250Y410460D02*
Y414860D01*
X147320Y391700D02*
Y447580D01*
Y391700D02*
X228600D01*
Y447580D01*
X147320D02*
X228600D01*
X187960Y419640D02*
X196850D01*
X187960D02*
Y428530D01*
X179070Y419640D02*
X187960D01*
Y410750D02*
Y419640D01*
X165200Y12700D02*
X241300D01*
X165200D02*
Y38100D01*
X241300Y12700D02*
Y38100D01*
X165200D02*
X241300D01*
X203200Y20400D02*
Y30400D01*
X198200Y25400D02*
X208200D01*
X45498Y436330D02*
Y440730D01*
X43298Y438530D02*
X47698D01*
X36498Y442930D02*
X54498D01*
X36498Y434130D02*
Y442930D01*
Y434130D02*
X54498D01*
Y442930D01*
X648970Y279400D02*
X657860D01*
X648970Y270510D02*
Y279400D01*
X640080D02*
X648970D01*
Y288290D01*
X621030Y238760D02*
Y320040D01*
X676910D01*
Y238760D02*
Y320040D01*
X621030Y238760D02*
X676910D01*
X119260Y481440D02*
X128060D01*
Y463440D02*
Y481440D01*
X119260Y463440D02*
X128060D01*
X119260D02*
Y481440D01*
X123660Y470240D02*
Y474640D01*
X121460Y472440D02*
X125860D01*
X453647Y421880D02*
Y430680D01*
X471647D01*
Y421880D02*
Y430680D01*
X453647Y421880D02*
X471647D01*
X460448Y426280D02*
X464847D01*
X462648Y424080D02*
Y428480D01*
X129050Y314599D02*
X133450D01*
X131250Y312399D02*
Y316799D01*
X126850Y305599D02*
Y323599D01*
Y305599D02*
X135650D01*
Y323599D01*
X126850D02*
X135650D01*
X264160Y418740D02*
Y424540D01*
X261260Y421640D02*
X267060D01*
X252260Y415840D02*
X276060D01*
Y427440D01*
X252260D02*
X276060D01*
X252260Y415840D02*
Y427440D01*
Y359960D02*
Y371560D01*
X276060D01*
Y359960D02*
Y371560D01*
X252260Y359960D02*
X276060D01*
X261260Y365760D02*
X267060D01*
X264160Y362860D02*
Y368660D01*
X252260Y337100D02*
Y348700D01*
X276060D01*
Y337100D02*
Y348700D01*
X252260Y337100D02*
X276060D01*
X261260Y342900D02*
X267060D01*
X264160Y340000D02*
Y345800D01*
Y374990D02*
Y379390D01*
X261960Y377190D02*
X266360D01*
X255160Y372790D02*
X273160D01*
Y381590D01*
X255160D02*
X273160D01*
X255160Y372790D02*
Y381590D01*
X18498Y438030D02*
Y445030D01*
X14998Y441530D02*
X21998D01*
X2398Y432130D02*
X34598D01*
Y450930D01*
X2398D02*
X34598D01*
X2398Y432130D02*
Y450930D01*
X636454Y399842D02*
X644657Y408045D01*
X661486Y391216D01*
X653283Y383013D02*
X661486Y391216D01*
X636454Y399842D02*
X653283Y383013D01*
X646919Y397580D02*
X651021Y393478D01*
X646919D02*
X651021Y397580D01*
X264160Y430870D02*
Y435270D01*
X261960Y433070D02*
X266360D01*
X255160Y428670D02*
X273160D01*
Y437470D01*
X255160D02*
X273160D01*
X255160Y428670D02*
Y437470D01*
X213760Y332760D02*
X218160D01*
X215960Y330560D02*
Y334960D01*
X220360Y323760D02*
Y341760D01*
X211560D02*
X220360D01*
X211560Y323760D02*
Y341760D01*
Y323760D02*
X220360D01*
X446460Y321560D02*
Y325960D01*
X444260Y323760D02*
X448660D01*
X437460Y319360D02*
X455460D01*
Y328160D01*
X437460D02*
X455460D01*
X437460Y319360D02*
Y328160D01*
X641644Y419406D02*
X646044D01*
X643844Y417206D02*
Y421605D01*
X639444Y410406D02*
Y428405D01*
Y410406D02*
X648244D01*
Y428405D01*
X639444D02*
X648244D01*
X117050Y314660D02*
X121450D01*
X119250Y312460D02*
Y316860D01*
X114850Y305660D02*
Y323660D01*
Y305660D02*
X123650D01*
Y323660D01*
X114850D02*
X123650D01*
X446460Y332560D02*
Y336960D01*
X444260Y334760D02*
X448660D01*
X437460Y330360D02*
X455460D01*
Y339160D01*
X437460D02*
X455460D01*
X437460Y330360D02*
Y339160D01*
X91250Y402460D02*
Y406860D01*
X89050Y404660D02*
X93450D01*
X82250Y409060D02*
X100250D01*
X82250Y400260D02*
Y409060D01*
Y400260D02*
X100250D01*
Y409060D01*
X91250Y414399D02*
Y418799D01*
X89050Y416599D02*
X93450D01*
X82250Y420999D02*
X100250D01*
X82250Y412199D02*
Y420999D01*
Y412199D02*
X100250D01*
Y420999D01*
X623360Y351860D02*
Y365660D01*
X595560Y351860D02*
X623360D01*
X595560D02*
Y365660D01*
X623360D01*
X606010Y358760D02*
X612910D01*
X609460Y355310D02*
Y362210D01*
X437460Y363360D02*
Y372160D01*
X455460D01*
Y363360D02*
Y372160D01*
X437460Y363360D02*
X455460D01*
X444260Y367760D02*
X448660D01*
X446460Y365560D02*
Y369960D01*
X583348Y421880D02*
Y430680D01*
X601348D01*
Y421880D02*
Y430680D01*
X583348Y421880D02*
X601348D01*
X590148Y426280D02*
X594548D01*
X592347Y424080D02*
Y428480D01*
X437495Y388660D02*
Y397460D01*
X455495D01*
Y388660D02*
Y397460D01*
X437495Y388660D02*
X455495D01*
X444295Y393060D02*
X448695D01*
X446495Y390860D02*
Y395260D01*
X429598Y372630D02*
Y386430D01*
X457398D01*
Y372630D02*
Y386430D01*
X429598Y372630D02*
X457398D01*
X440048Y379530D02*
X446948D01*
X443498Y376080D02*
Y382980D01*
X279850Y244000D02*
X288650D01*
X279850D02*
Y262000D01*
X288650D01*
Y244000D02*
Y262000D01*
X284250Y250800D02*
Y255200D01*
X282050Y253000D02*
X286450D01*
X247000Y191600D02*
Y200400D01*
X265000D01*
Y191600D02*
Y200400D01*
X247000Y191600D02*
X265000D01*
X253800Y196000D02*
X258200D01*
X256000Y193800D02*
Y198200D01*
X228491Y172530D02*
X235491D01*
X231991Y169030D02*
Y176030D01*
X241391Y156430D02*
Y188630D01*
X222591D02*
X241391D01*
X222591Y156430D02*
Y188630D01*
Y156430D02*
X241391D01*
X306600Y209482D02*
Y216482D01*
X303100Y212982D02*
X310100D01*
X290500Y222382D02*
X322700D01*
X290500Y203582D02*
Y222382D01*
Y203582D02*
X322700D01*
Y222382D01*
X268850Y244000D02*
X277650D01*
X268850D02*
Y262000D01*
X277650D01*
Y244000D02*
Y262000D01*
X273250Y250800D02*
Y255200D01*
X271050Y253000D02*
X275450D01*
X235850Y281350D02*
X244650D01*
Y263350D02*
Y281350D01*
X235850Y263350D02*
X244650D01*
X235850D02*
Y281350D01*
X240250Y270150D02*
Y274550D01*
X238050Y272350D02*
X242450D01*
X224850Y281350D02*
X233650D01*
Y263350D02*
Y281350D01*
X224850Y263350D02*
X233650D01*
X224850D02*
Y281350D01*
X229250Y270150D02*
Y274550D01*
X227050Y272350D02*
X231450D01*
X248656Y172530D02*
X255656D01*
X252156Y169030D02*
Y176030D01*
X242756Y156430D02*
Y188630D01*
Y156430D02*
X261556D01*
Y188630D01*
X242756D02*
X261556D01*
X187500Y90910D02*
X196300D01*
X187500D02*
Y108910D01*
X196300D01*
Y90910D02*
Y108910D01*
X191900Y97710D02*
Y102110D01*
X189700Y99910D02*
X194100D01*
X306600Y228982D02*
Y235982D01*
X303100Y232482D02*
X310100D01*
X290500Y241882D02*
X322700D01*
X290500Y223082D02*
Y241882D01*
Y223082D02*
X322700D01*
Y241882D01*
X456997Y414280D02*
X462798D01*
X459897Y411380D02*
X459897Y417180D01*
X447998Y408480D02*
Y420080D01*
X471797Y420080D01*
X447998Y408480D02*
X471797D01*
Y420080D01*
X129050Y342310D02*
X133450D01*
X131250Y340110D02*
Y344510D01*
X135650Y333310D02*
Y351310D01*
X126850D02*
X135650D01*
X126850Y333310D02*
Y351310D01*
Y333310D02*
X135650D01*
X606460Y321560D02*
Y325960D01*
X604260Y323760D02*
X608660D01*
X597460Y328160D02*
X615460D01*
X597460Y319360D02*
Y328160D01*
Y319360D02*
X615460D01*
Y328160D01*
X606460Y310560D02*
Y314960D01*
X604260Y312760D02*
X608660D01*
X597460Y317160D02*
X615460D01*
X597460Y308360D02*
Y317160D01*
Y308360D02*
X615460D01*
Y317160D01*
X227050Y253000D02*
X231450D01*
X229250Y250800D02*
Y255200D01*
X224850Y244000D02*
Y262000D01*
Y244000D02*
X233650D01*
Y262000D01*
X224850D02*
X233650D01*
X227050Y230000D02*
X231450D01*
X229250Y227800D02*
Y232200D01*
X233650Y221000D02*
Y239000D01*
X224850D02*
X233650D01*
X224850Y221000D02*
Y239000D01*
Y221000D02*
X233650D01*
X279500Y270150D02*
Y274550D01*
X277300Y272350D02*
X281700D01*
X270500Y276750D02*
X288500D01*
X270500Y267950D02*
Y276750D01*
Y267950D02*
X288500D01*
Y276750D01*
X238050Y208000D02*
X242450D01*
X240250Y205800D02*
Y210200D01*
X244650Y199000D02*
Y217000D01*
X235850D02*
X244650D01*
X235850Y199000D02*
Y217000D01*
Y199000D02*
X244650D01*
X260050Y253000D02*
X264450D01*
X262250Y250800D02*
Y255200D01*
X257850Y244000D02*
Y262000D01*
Y244000D02*
X266650D01*
Y262000D01*
X257850D02*
X266650D01*
X249050Y253000D02*
X253450D01*
X251250Y250800D02*
Y255200D01*
X246850Y244000D02*
Y262000D01*
Y244000D02*
X255650D01*
Y262000D01*
X246850D02*
X255650D01*
X264160Y352130D02*
Y356530D01*
X261960Y354330D02*
X266360D01*
X255160Y349930D02*
X273160D01*
Y358730D01*
X255160D02*
X273160D01*
X255160Y349930D02*
Y358730D01*
X153560Y323760D02*
X162360D01*
X153560D02*
Y341760D01*
X162360D01*
Y323760D02*
Y341760D01*
X157960Y330560D02*
Y334960D01*
X155760Y332760D02*
X160160D01*
X188060Y374760D02*
X196860D01*
Y356760D02*
Y374760D01*
X188060Y356760D02*
X196860D01*
X188060D02*
Y374760D01*
X192460Y363560D02*
Y367960D01*
X190260Y365760D02*
X194660D01*
X177060Y374760D02*
X185860D01*
Y356760D02*
Y374760D01*
X177060Y356760D02*
X185860D01*
X177060D02*
Y374760D01*
X181460Y363560D02*
Y367960D01*
X179260Y365760D02*
X183660D01*
X172400Y104060D02*
X179400D01*
X175900Y100560D02*
Y107560D01*
X185300Y87960D02*
Y120160D01*
X166500D02*
X185300D01*
X166500Y87960D02*
Y120160D01*
Y87960D02*
X185300D01*
X306450Y248465D02*
Y255465D01*
X302950Y251965D02*
X309950D01*
X290350Y261365D02*
X322550D01*
X290350Y242565D02*
Y261365D01*
Y242565D02*
X322550D01*
Y261365D01*
X306450Y267965D02*
Y274965D01*
X302950Y271465D02*
X309950D01*
X290350Y280865D02*
X322550D01*
X290350Y262065D02*
Y280865D01*
Y262065D02*
X322550D01*
Y280865D01*
X223860Y472440D02*
X228260D01*
X226060Y470240D02*
Y474640D01*
X221660Y463440D02*
Y481440D01*
Y463440D02*
X230460D01*
Y481440D01*
X221660D02*
X230460D01*
X198460Y472440D02*
X202860D01*
X200660Y470240D02*
Y474640D01*
X196260Y463440D02*
Y481440D01*
Y463440D02*
X205060D01*
Y481440D01*
X196260D02*
X205060D01*
X438948Y419030D02*
X443348D01*
X441148Y416830D02*
Y421230D01*
X436748Y410030D02*
Y428030D01*
Y410030D02*
X445548D01*
Y428030D01*
X436748D02*
X445548D01*
X238050Y230000D02*
X242450D01*
X240250Y227800D02*
Y232200D01*
X235850Y221000D02*
Y239000D01*
Y221000D02*
X244650D01*
Y239000D01*
X235850D02*
X244650D01*
X108740Y424150D02*
Y457170D01*
X141760D01*
Y424150D02*
Y457170D01*
X108740Y424150D02*
X141760D01*
X125250Y440660D02*
X131600D01*
X125250D02*
Y447010D01*
X118900Y440660D02*
X125250D01*
Y434310D02*
Y440660D01*
X227050Y208000D02*
X231450D01*
X229250Y205800D02*
Y210200D01*
X233650Y199000D02*
Y217000D01*
X224850D02*
X233650D01*
X224850Y199000D02*
Y217000D01*
Y199000D02*
X233650D01*
X342073Y267356D02*
X346174Y263254D01*
X342073D02*
X346174Y267356D01*
X331608Y260992D02*
X348437Y277821D01*
X331608Y260992D02*
X339810Y252789D01*
X356640Y269618D01*
X348437Y277821D02*
X356640Y269618D01*
X363073Y267356D02*
X367174Y263254D01*
X363073D02*
X367174Y267356D01*
X352608Y260992D02*
X369437Y277821D01*
X352608Y260992D02*
X360810Y252789D01*
X377640Y269618D01*
X369437Y277821D02*
X377640Y269618D01*
X384073Y267356D02*
X388174Y263254D01*
X384073D02*
X388174Y267356D01*
X373608Y260992D02*
X390437Y277821D01*
X373608Y260992D02*
X381810Y252789D01*
X398639Y269618D01*
X390437Y277821D02*
X398639Y269618D01*
X426073Y267356D02*
X430174Y263254D01*
X426073D02*
X430174Y267356D01*
X415608Y260992D02*
X432437Y277821D01*
X415608Y260992D02*
X423810Y252789D01*
X440639Y269618D01*
X432437Y277821D02*
X440639Y269618D01*
X405073Y267356D02*
X409174Y263254D01*
X405073D02*
X409174Y267356D01*
X394608Y260992D02*
X411437Y277821D01*
X394608Y260992D02*
X402810Y252789D01*
X419640Y269618D01*
X411437Y277821D02*
X419640Y269618D01*
X447073Y267356D02*
X451174Y263254D01*
X447073D02*
X451174Y267356D01*
X436608Y260992D02*
X453437Y277821D01*
X436608Y260992D02*
X444810Y252789D01*
X461640Y269618D01*
X453437Y277821D02*
X461640Y269618D01*
X468073Y267356D02*
X472174Y263254D01*
X468073D02*
X472174Y267356D01*
X457608Y260992D02*
X474437Y277821D01*
X457608Y260992D02*
X465810Y252789D01*
X482640Y269618D01*
X474437Y277821D02*
X482640Y269618D01*
X510073Y267356D02*
X514174Y263254D01*
X510073D02*
X514174Y267356D01*
X499608Y260992D02*
X516437Y277821D01*
X499608Y260992D02*
X507810Y252789D01*
X524640Y269618D01*
X516437Y277821D02*
X524640Y269618D01*
X552073Y267356D02*
X556174Y263254D01*
X552073D02*
X556174Y267356D01*
X541608Y260992D02*
X558437Y277821D01*
X541608Y260992D02*
X549810Y252789D01*
X566640Y269618D01*
X558437Y277821D02*
X566640Y269618D01*
X489073Y267356D02*
X493174Y263254D01*
X489073D02*
X493174Y267356D01*
X478608Y260992D02*
X495437Y277821D01*
X478608Y260992D02*
X486810Y252789D01*
X503639Y269618D01*
X495437Y277821D02*
X503639Y269618D01*
X531073Y267356D02*
X535174Y263254D01*
X531073D02*
X535174Y267356D01*
X520608Y260992D02*
X537437Y277821D01*
X520608Y260992D02*
X528810Y252789D01*
X545639Y269618D01*
X537437Y277821D02*
X545639Y269618D01*
X573073Y267356D02*
X577174Y263254D01*
X573073D02*
X577174Y267356D01*
X562608Y260992D02*
X579437Y277821D01*
X562608Y260992D02*
X570810Y252789D01*
X587640Y269618D01*
X579437Y277821D02*
X587640Y269618D01*
X342073Y246356D02*
X346174Y242254D01*
X342073D02*
X346174Y246356D01*
X331608Y239992D02*
X348437Y256821D01*
X331608Y239992D02*
X339810Y231789D01*
X356640Y248618D01*
X348437Y256821D02*
X356640Y248618D01*
X384073Y246356D02*
X388174Y242254D01*
X384073D02*
X388174Y246356D01*
X373608Y239992D02*
X390437Y256821D01*
X373608Y239992D02*
X381810Y231789D01*
X398639Y248618D01*
X390437Y256821D02*
X398639Y248618D01*
X426073Y246356D02*
X430174Y242254D01*
X426073D02*
X430174Y246356D01*
X415608Y239992D02*
X432437Y256821D01*
X415608Y239992D02*
X423810Y231789D01*
X440639Y248618D01*
X432437Y256821D02*
X440639Y248618D01*
X468073Y246356D02*
X472174Y242254D01*
X468073D02*
X472174Y246356D01*
X457608Y239992D02*
X474437Y256821D01*
X457608Y239992D02*
X465810Y231789D01*
X482639Y248618D01*
X474437Y256821D02*
X482639Y248618D01*
X363073Y246356D02*
X367174Y242254D01*
X363073D02*
X367174Y246356D01*
X352608Y239992D02*
X369437Y256821D01*
X352608Y239992D02*
X360810Y231789D01*
X377640Y248618D01*
X369437Y256821D02*
X377640Y248618D01*
X405073Y246356D02*
X409174Y242254D01*
X405073D02*
X409174Y246356D01*
X394608Y239992D02*
X411437Y256821D01*
X394608Y239992D02*
X402810Y231789D01*
X419640Y248618D01*
X411437Y256821D02*
X419640Y248618D01*
X447073Y246356D02*
X451174Y242254D01*
X447073D02*
X451174Y246356D01*
X436608Y239992D02*
X453437Y256821D01*
X436608Y239992D02*
X444810Y231789D01*
X461640Y248618D01*
X453437Y256821D02*
X461640Y248618D01*
X489073Y246356D02*
X493174Y242254D01*
X489073D02*
X493174Y246356D01*
X478608Y239992D02*
X495437Y256821D01*
X478608Y239992D02*
X486810Y231789D01*
X503639Y248618D01*
X495437Y256821D02*
X503639Y248618D01*
X510073Y246356D02*
X514174Y242254D01*
X510073D02*
X514174Y246356D01*
X499608Y239992D02*
X516437Y256821D01*
X499608Y239992D02*
X507810Y231789D01*
X524639Y248618D01*
X516437Y256821D02*
X524639Y248618D01*
X552073Y246356D02*
X556174Y242254D01*
X552073D02*
X556174Y246356D01*
X541608Y239992D02*
X558437Y256821D01*
X541608Y239992D02*
X549810Y231789D01*
X566640Y248618D01*
X558437Y256821D02*
X566640Y248618D01*
X342073Y225356D02*
X346174Y221254D01*
X342073D02*
X346174Y225356D01*
X331608Y218992D02*
X348437Y235821D01*
X331608Y218992D02*
X339810Y210789D01*
X356640Y227618D01*
X348437Y235821D02*
X356640Y227618D01*
X384073Y225356D02*
X388174Y221254D01*
X384073D02*
X388174Y225356D01*
X373608Y218992D02*
X390437Y235821D01*
X373608Y218992D02*
X381810Y210789D01*
X398639Y227618D01*
X390437Y235821D02*
X398639Y227618D01*
X426073Y225356D02*
X430174Y221254D01*
X426073D02*
X430174Y225356D01*
X415608Y218992D02*
X432437Y235821D01*
X415608Y218992D02*
X423810Y210789D01*
X440639Y227618D01*
X432437Y235821D02*
X440639Y227618D01*
X531073Y246356D02*
X535174Y242254D01*
X531073D02*
X535174Y246356D01*
X520608Y239992D02*
X537437Y256821D01*
X520608Y239992D02*
X528810Y231789D01*
X545639Y248618D01*
X537437Y256821D02*
X545639Y248618D01*
X573073Y246356D02*
X577174Y242254D01*
X573073D02*
X577174Y246356D01*
X562608Y239992D02*
X579437Y256821D01*
X562608Y239992D02*
X570810Y231789D01*
X587640Y248618D01*
X579437Y256821D02*
X587640Y248618D01*
X363073Y225356D02*
X367174Y221254D01*
X363073D02*
X367174Y225356D01*
X352608Y218992D02*
X369437Y235821D01*
X352608Y218992D02*
X360810Y210789D01*
X377640Y227618D01*
X369437Y235821D02*
X377640Y227618D01*
X405073Y225356D02*
X409174Y221254D01*
X405073D02*
X409174Y225356D01*
X394608Y218992D02*
X411437Y235821D01*
X394608Y218992D02*
X402810Y210789D01*
X419640Y227618D01*
X411437Y235821D02*
X419640Y227618D01*
X447073Y225356D02*
X451174Y221254D01*
X447073D02*
X451174Y225356D01*
X436608Y218992D02*
X453437Y235821D01*
X436608Y218992D02*
X444810Y210789D01*
X461640Y227618D01*
X453437Y235821D02*
X461640Y227618D01*
X468073Y225356D02*
X472174Y221254D01*
X468073D02*
X472174Y225356D01*
X457608Y218992D02*
X474437Y235821D01*
X457608Y218992D02*
X465810Y210789D01*
X482639Y227618D01*
X474437Y235821D02*
X482639Y227618D01*
X510073Y225356D02*
X514174Y221254D01*
X510073D02*
X514174Y225356D01*
X499608Y218992D02*
X516437Y235821D01*
X499608Y218992D02*
X507810Y210789D01*
X524639Y227618D01*
X516437Y235821D02*
X524639Y227618D01*
X552073Y225356D02*
X556174Y221254D01*
X552073D02*
X556174Y225356D01*
X541608Y218992D02*
X558437Y235821D01*
X541608Y218992D02*
X549810Y210789D01*
X566640Y227618D01*
X558437Y235821D02*
X566640Y227618D01*
X342073Y204356D02*
X346174Y200254D01*
X342073D02*
X346174Y204356D01*
X331608Y197992D02*
X348437Y214821D01*
X331608Y197992D02*
X339810Y189789D01*
X356640Y206618D01*
X348437Y214821D02*
X356640Y206618D01*
X384073Y204356D02*
X388174Y200254D01*
X384073D02*
X388174Y204356D01*
X373608Y197992D02*
X390437Y214821D01*
X373608Y197992D02*
X381810Y189789D01*
X398639Y206618D01*
X390437Y214821D02*
X398639Y206618D01*
X426073Y204356D02*
X430174Y200254D01*
X426073D02*
X430174Y204356D01*
X415608Y197992D02*
X432437Y214821D01*
X415608Y197992D02*
X423810Y189789D01*
X440639Y206618D01*
X432437Y214821D02*
X440639Y206618D01*
X489073Y225356D02*
X493174Y221254D01*
X489073D02*
X493174Y225356D01*
X478608Y218992D02*
X495437Y235821D01*
X478608Y218992D02*
X486810Y210789D01*
X503639Y227618D01*
X495437Y235821D02*
X503639Y227618D01*
X531073Y225356D02*
X535174Y221254D01*
X531073D02*
X535174Y225356D01*
X520608Y218992D02*
X537437Y235821D01*
X520608Y218992D02*
X528810Y210789D01*
X545639Y227618D01*
X537437Y235821D02*
X545639Y227618D01*
X573073Y225356D02*
X577174Y221254D01*
X573073D02*
X577174Y225356D01*
X562608Y218992D02*
X579437Y235821D01*
X562608Y218992D02*
X570810Y210789D01*
X587640Y227618D01*
X579437Y235821D02*
X587640Y227618D01*
X363073Y204356D02*
X367174Y200254D01*
X363073D02*
X367174Y204356D01*
X352608Y197992D02*
X369437Y214821D01*
X352608Y197992D02*
X360810Y189789D01*
X377640Y206618D01*
X369437Y214821D02*
X377640Y206618D01*
X405073Y204356D02*
X409174Y200254D01*
X405073D02*
X409174Y204356D01*
X394608Y197992D02*
X411437Y214821D01*
X394608Y197992D02*
X402810Y189789D01*
X419640Y206618D01*
X411437Y214821D02*
X419640Y206618D01*
X468073Y204356D02*
X472174Y200254D01*
X468073D02*
X472174Y204356D01*
X457608Y197992D02*
X474437Y214821D01*
X457608Y197992D02*
X465810Y189789D01*
X482639Y206618D01*
X474437Y214821D02*
X482639Y206618D01*
X510073Y204356D02*
X514174Y200254D01*
X510073D02*
X514174Y204356D01*
X499608Y197992D02*
X516437Y214821D01*
X499608Y197992D02*
X507810Y189789D01*
X524640Y206618D01*
X516437Y214821D02*
X524640Y206618D01*
X552073Y204356D02*
X556174Y200254D01*
X552073D02*
X556174Y204356D01*
X541608Y197992D02*
X558437Y214821D01*
X541608Y197992D02*
X549810Y189789D01*
X566640Y206618D01*
X558437Y214821D02*
X566640Y206618D01*
X342073Y183356D02*
X346174Y179254D01*
X342073D02*
X346174Y183356D01*
X331608Y176992D02*
X348437Y193821D01*
X331608Y176992D02*
X339810Y168789D01*
X356640Y185618D01*
X348437Y193821D02*
X356640Y185618D01*
X384073Y183356D02*
X388174Y179254D01*
X384073D02*
X388174Y183356D01*
X373608Y176992D02*
X390437Y193821D01*
X373608Y176992D02*
X381810Y168789D01*
X398639Y185618D01*
X390437Y193821D02*
X398639Y185618D01*
X426073Y183356D02*
X430174Y179254D01*
X426073D02*
X430174Y183356D01*
X415608Y176992D02*
X432437Y193821D01*
X415608Y176992D02*
X423810Y168789D01*
X440639Y185618D01*
X432437Y193821D02*
X440639Y185618D01*
X468073Y183356D02*
X472174Y179254D01*
X468073D02*
X472174Y183356D01*
X457608Y176992D02*
X474437Y193821D01*
X457608Y176992D02*
X465810Y168789D01*
X482639Y185618D01*
X474437Y193821D02*
X482639Y185618D01*
X489073Y204356D02*
X493174Y200254D01*
X489073D02*
X493174Y204356D01*
X478608Y197992D02*
X495437Y214821D01*
X478608Y197992D02*
X486810Y189789D01*
X503639Y206618D01*
X495437Y214821D02*
X503639Y206618D01*
X531073Y204356D02*
X535174Y200254D01*
X531073D02*
X535174Y204356D01*
X520608Y197992D02*
X537437Y214821D01*
X520608Y197992D02*
X528810Y189789D01*
X545639Y206618D01*
X537437Y214821D02*
X545639Y206618D01*
X573073Y204356D02*
X577174Y200254D01*
X573073D02*
X577174Y204356D01*
X562608Y197992D02*
X579437Y214821D01*
X562608Y197992D02*
X570810Y189789D01*
X587640Y206618D01*
X579437Y214821D02*
X587640Y206618D01*
X363073Y183356D02*
X367174Y179254D01*
X363073D02*
X367174Y183356D01*
X352608Y176992D02*
X369437Y193821D01*
X352608Y176992D02*
X360810Y168789D01*
X377640Y185618D01*
X369437Y193821D02*
X377640Y185618D01*
X405073Y183356D02*
X409174Y179254D01*
X405073D02*
X409174Y183356D01*
X394608Y176992D02*
X411437Y193821D01*
X394608Y176992D02*
X402810Y168789D01*
X419640Y185618D01*
X411437Y193821D02*
X419640Y185618D01*
X447073Y183356D02*
X451174Y179254D01*
X447073D02*
X451174Y183356D01*
X436608Y176992D02*
X453437Y193821D01*
X436608Y176992D02*
X444810Y168789D01*
X461639Y185618D01*
X453437Y193821D02*
X461639Y185618D01*
X598586Y151358D02*
X601697Y148247D01*
X598586D02*
X601697Y151358D01*
X596889Y140328D02*
X609617Y153055D01*
X603394Y159278D02*
X609617Y153055D01*
X590666Y146550D02*
X603394Y159278D01*
X590666Y146550D02*
X596889Y140328D01*
X598586Y165358D02*
X601697Y162247D01*
X598586D02*
X601697Y165358D01*
X596889Y154327D02*
X609617Y167055D01*
X603394Y173278D02*
X609617Y167055D01*
X590666Y160550D02*
X603394Y173278D01*
X590666Y160550D02*
X596889Y154327D01*
X598586Y179358D02*
X601697Y176247D01*
X598586D02*
X601697Y179358D01*
X596889Y168328D02*
X609617Y181056D01*
X603394Y187278D02*
X609617Y181056D01*
X590666Y174550D02*
X603394Y187278D01*
X590666Y174550D02*
X596889Y168328D01*
X598586Y193358D02*
X601697Y190247D01*
X598586D02*
X601697Y193358D01*
X596889Y182327D02*
X609617Y195056D01*
X603394Y201278D02*
X609617Y195056D01*
X590666Y188550D02*
X603394Y201278D01*
X590666Y188550D02*
X596889Y182327D01*
X598586Y221358D02*
X601697Y218247D01*
X598586D02*
X601697Y221358D01*
X596889Y210327D02*
X609617Y223055D01*
X603394Y229278D02*
X609617Y223055D01*
X590666Y216550D02*
X603394Y229278D01*
X590666Y216550D02*
X596889Y210327D01*
X598586Y235358D02*
X601697Y232247D01*
X598586D02*
X601697Y235358D01*
X596889Y224328D02*
X609617Y237055D01*
X603394Y243278D02*
X609617Y237055D01*
X590666Y230550D02*
X603394Y243278D01*
X590666Y230550D02*
X596889Y224328D01*
X598586Y249358D02*
X601697Y246247D01*
X598586D02*
X601697Y249358D01*
X596889Y238328D02*
X609617Y251056D01*
X603394Y257278D02*
X609617Y251056D01*
X590666Y244550D02*
X603394Y257278D01*
X590666Y244550D02*
X596889Y238328D01*
X447073Y204356D02*
X451174Y200254D01*
X447073D02*
X451174Y204356D01*
X436608Y197992D02*
X453437Y214821D01*
X436608Y197992D02*
X444810Y189789D01*
X461640Y206618D01*
X453437Y214821D02*
X461640Y206618D01*
X598586Y207358D02*
X601697Y204247D01*
X598586D02*
X601697Y207358D01*
X596889Y196327D02*
X609617Y209055D01*
X603394Y215278D02*
X609617Y209055D01*
X590666Y202550D02*
X603394Y215278D01*
X590666Y202550D02*
X596889Y196327D01*
X168260Y365760D02*
X172660D01*
X170460Y363560D02*
Y367960D01*
X166060Y356760D02*
Y374760D01*
Y356760D02*
X174860D01*
Y374760D01*
X166060D02*
X174860D01*
X157260Y365760D02*
X161660D01*
X159460Y363560D02*
Y367960D01*
X155060Y356760D02*
Y374760D01*
Y356760D02*
X163860D01*
Y374760D01*
X155060D02*
X163860D01*
X212260Y365760D02*
X216660D01*
X214460Y363560D02*
Y367960D01*
X210060Y356760D02*
Y374760D01*
Y356760D02*
X218860D01*
Y374760D01*
X210060D02*
X218860D01*
X201260Y365760D02*
X205660D01*
X203460Y363560D02*
Y367960D01*
X199060Y356760D02*
Y374760D01*
Y356760D02*
X207860D01*
Y374760D01*
X199060D02*
X207860D01*
X446460Y354560D02*
Y358960D01*
X444260Y356760D02*
X448660D01*
X437460Y361160D02*
X455460D01*
X437460Y352360D02*
Y361160D01*
Y352360D02*
X455460D01*
Y361160D01*
X649208Y183835D02*
X649208Y216855D01*
X616188Y183835D02*
X649208Y183835D01*
X616188Y183835D02*
Y216855D01*
X649208D01*
X626348Y200345D02*
X632698D01*
Y193995D02*
Y200345D01*
X639048Y200345D01*
X632698Y200345D02*
Y206695D01*
X624498Y228345D02*
X628898D01*
X626698Y226145D02*
Y230545D01*
X622299Y219345D02*
Y237345D01*
Y219345D02*
X631098D01*
Y237345D01*
X622299D02*
X631098D01*
X636498Y228345D02*
X640898D01*
X638698Y226145D02*
Y230545D01*
X634298Y219345D02*
Y237345D01*
Y219345D02*
X643098D01*
Y237345D01*
X634298D02*
X643098D01*
X658499Y228345D02*
X662898D01*
X660698Y226145D02*
Y230545D01*
X656299Y219345D02*
Y237345D01*
Y219345D02*
X665098D01*
Y237345D01*
X656299D02*
X665098D01*
X670498Y228345D02*
X674898D01*
X672698Y226145D02*
Y230545D01*
X668298Y219345D02*
Y237345D01*
Y219345D02*
X677098D01*
Y237345D01*
X668298D02*
X677098D01*
X60250Y304460D02*
Y308860D01*
X58050Y306660D02*
X62450D01*
X51250Y311060D02*
X69250D01*
X51250Y302260D02*
Y311060D01*
Y302260D02*
X69250D01*
Y311060D01*
X238050Y253000D02*
X242450D01*
X240250Y250800D02*
Y255200D01*
X235850Y244000D02*
Y262000D01*
Y244000D02*
X244650D01*
Y262000D01*
X235850D02*
X244650D01*
X91250Y426399D02*
Y430799D01*
X89050Y428599D02*
X93450D01*
X82250Y424199D02*
X100250D01*
Y432999D01*
X82250D02*
X100250D01*
X82250Y424199D02*
Y432999D01*
X132460Y472440D02*
X136860D01*
X134660Y470240D02*
Y474640D01*
X130260Y463440D02*
Y481440D01*
Y463440D02*
X139060D01*
Y481440D01*
X130260D02*
X139060D01*
X114850Y333310D02*
X123650D01*
X114850D02*
Y351310D01*
X123650D01*
Y333310D02*
Y351310D01*
X119250Y340110D02*
Y344510D01*
X117050Y342310D02*
X121450D01*
X140490Y379960D02*
Y405360D01*
X110010Y379960D02*
Y405360D01*
Y379960D02*
X140490D01*
X110010Y405360D02*
X140490D01*
X120250Y392660D02*
X130250D01*
X125250Y387660D02*
Y397660D01*
X495437Y193821D02*
X503639Y185618D01*
X486810Y168789D02*
X503639Y185618D01*
X478608Y176992D02*
X486810Y168789D01*
X478608Y176992D02*
X495437Y193821D01*
X489073Y179254D02*
X493174Y183356D01*
X489073D02*
X493174Y179254D01*
X516437Y193821D02*
X524640Y185618D01*
X507810Y168789D02*
X524640Y185618D01*
X499608Y176992D02*
X507810Y168789D01*
X499608Y176992D02*
X516437Y193821D01*
X510073Y179254D02*
X514174Y183356D01*
X510073D02*
X514174Y179254D01*
X537437Y193821D02*
X545639Y185618D01*
X528810Y168789D02*
X545639Y185618D01*
X520608Y176992D02*
X528810Y168789D01*
X520608Y176992D02*
X537437Y193821D01*
X531073Y179254D02*
X535174Y183356D01*
X531073D02*
X535174Y179254D01*
X558437Y193821D02*
X566640Y185618D01*
X549810Y168789D02*
X566640Y185618D01*
X541608Y176992D02*
X549810Y168789D01*
X541608Y176992D02*
X558437Y193821D01*
X552073Y179254D02*
X556174Y183356D01*
X552073D02*
X556174Y179254D01*
X579437Y193821D02*
X587640Y185618D01*
X570810Y168789D02*
X587640Y185618D01*
X562608Y176992D02*
X570810Y168789D01*
X562608Y176992D02*
X579437Y193821D01*
X573073Y179254D02*
X577174Y183356D01*
X573073D02*
X577174Y179254D01*
X348434Y172817D02*
X356636Y164615D01*
X339807Y147786D02*
X356636Y164615D01*
X331604Y155988D02*
X339807Y147786D01*
X331604Y155988D02*
X348434Y172817D01*
X342070Y158251D02*
X346171Y162352D01*
X342070D02*
X346171Y158251D01*
X369437Y172821D02*
X377640Y164618D01*
X360810Y147789D02*
X377640Y164618D01*
X352608Y155992D02*
X360810Y147789D01*
X352608Y155992D02*
X369437Y172821D01*
X363073Y158254D02*
X367174Y162356D01*
X363073D02*
X367174Y158254D01*
X390437Y172821D02*
X398639Y164618D01*
X381810Y147789D02*
X398639Y164618D01*
X373608Y155992D02*
X381810Y147789D01*
X373608Y155992D02*
X390437Y172821D01*
X384073Y158254D02*
X388174Y162356D01*
X384073D02*
X388174Y158254D01*
X411437Y172821D02*
X419640Y164618D01*
X402810Y147789D02*
X419640Y164618D01*
X394608Y155992D02*
X402810Y147789D01*
X394608Y155992D02*
X411437Y172821D01*
X405073Y158254D02*
X409174Y162356D01*
X405073D02*
X409174Y158254D01*
X432437Y172821D02*
X440639Y164618D01*
X423810Y147789D02*
X440639Y164618D01*
X415608Y155992D02*
X423810Y147789D01*
X415608Y155992D02*
X432437Y172821D01*
X426073Y158254D02*
X430174Y162356D01*
X426073D02*
X430174Y158254D01*
X453437Y172821D02*
X461640Y164618D01*
X444810Y147789D02*
X461640Y164618D01*
X436608Y155992D02*
X444810Y147789D01*
X436608Y155992D02*
X453437Y172821D01*
X447073Y158254D02*
X451174Y162356D01*
X447073D02*
X451174Y158254D01*
X474437Y172821D02*
X482640Y164618D01*
X465810Y147789D02*
X482640Y164618D01*
X457608Y155992D02*
X465810Y147789D01*
X457608Y155992D02*
X474437Y172821D01*
X468073Y158254D02*
X472174Y162356D01*
X468073D02*
X472174Y158254D01*
X495437Y172821D02*
X503639Y164618D01*
X486810Y147789D02*
X503639Y164618D01*
X478608Y155992D02*
X486810Y147789D01*
X478608Y155992D02*
X495437Y172821D01*
X489073Y158254D02*
X493174Y162356D01*
X489073D02*
X493174Y158254D01*
X516437Y172821D02*
X524640Y164618D01*
X507810Y147789D02*
X524640Y164618D01*
X499608Y155992D02*
X507810Y147789D01*
X499608Y155992D02*
X516437Y172821D01*
X510073Y158254D02*
X514174Y162356D01*
X510073D02*
X514174Y158254D01*
X537437Y172821D02*
X545639Y164618D01*
X528810Y147789D02*
X545639Y164618D01*
X520608Y155992D02*
X528810Y147789D01*
X520608Y155992D02*
X537437Y172821D01*
X531073Y158254D02*
X535174Y162356D01*
X531073D02*
X535174Y158254D01*
X558437Y172821D02*
X566640Y164618D01*
X549810Y147789D02*
X566640Y164618D01*
X541608Y155992D02*
X549810Y147789D01*
X541608Y155992D02*
X558437Y172821D01*
X552073Y158254D02*
X556174Y162356D01*
X552073D02*
X556174Y158254D01*
X579437Y172821D02*
X587640Y164618D01*
X570810Y147789D02*
X587640Y164618D01*
X562608Y155992D02*
X570810Y147789D01*
X562608Y155992D02*
X579437Y172821D01*
X573073Y158254D02*
X577174Y162356D01*
X573073D02*
X577174Y158254D01*
X348437Y151821D02*
X356640Y143618D01*
X339810Y126789D02*
X356640Y143618D01*
X331608Y134992D02*
X339810Y126789D01*
X331608Y134992D02*
X348437Y151821D01*
X342073Y137254D02*
X346174Y141356D01*
X342073D02*
X346174Y137254D01*
X369437Y151821D02*
X377640Y143618D01*
X360810Y126789D02*
X377640Y143618D01*
X352608Y134992D02*
X360810Y126789D01*
X352608Y134992D02*
X369437Y151821D01*
X363073Y137254D02*
X367174Y141356D01*
X363073D02*
X367174Y137254D01*
X390437Y151821D02*
X398639Y143618D01*
X381810Y126789D02*
X398639Y143618D01*
X373608Y134992D02*
X381810Y126789D01*
X373608Y134992D02*
X390437Y151821D01*
X384073Y137254D02*
X388174Y141356D01*
X384073D02*
X388174Y137254D01*
X411437Y151821D02*
X419640Y143618D01*
X402810Y126789D02*
X419640Y143618D01*
X394608Y134992D02*
X402810Y126789D01*
X394608Y134992D02*
X411437Y151821D01*
X405073Y137254D02*
X409174Y141356D01*
X405073D02*
X409174Y137254D01*
X432437Y151821D02*
X440639Y143618D01*
X423810Y126789D02*
X440639Y143618D01*
X415608Y134992D02*
X423810Y126789D01*
X415608Y134992D02*
X432437Y151821D01*
X426073Y137254D02*
X430174Y141356D01*
X426073D02*
X430174Y137254D01*
X453437Y151821D02*
X461640Y143618D01*
X444810Y126789D02*
X461640Y143618D01*
X436608Y134992D02*
X444810Y126789D01*
X436608Y134992D02*
X453437Y151821D01*
X447073Y137254D02*
X451174Y141356D01*
X447073D02*
X451174Y137254D01*
X474437Y151821D02*
X482640Y143618D01*
X465810Y126789D02*
X482640Y143618D01*
X457608Y134992D02*
X465810Y126789D01*
X457608Y134992D02*
X474437Y151821D01*
X468073Y137254D02*
X472174Y141356D01*
X468073D02*
X472174Y137254D01*
X495437Y151821D02*
X503639Y143618D01*
X486810Y126789D02*
X503639Y143618D01*
X478608Y134992D02*
X486810Y126789D01*
X478608Y134992D02*
X495437Y151821D01*
X489073Y137254D02*
X493174Y141356D01*
X489073D02*
X493174Y137254D01*
X516437Y151821D02*
X524640Y143618D01*
X507810Y126789D02*
X524640Y143618D01*
X499608Y134992D02*
X507810Y126789D01*
X499608Y134992D02*
X516437Y151821D01*
X510073Y137254D02*
X514174Y141356D01*
X510073D02*
X514174Y137254D01*
X537314Y151697D02*
X545516Y143495D01*
X528687Y126666D02*
X545516Y143495D01*
X520485Y134868D02*
X528687Y126666D01*
X520485Y134868D02*
X537314Y151697D01*
X530950Y137131D02*
X535051Y141232D01*
X530950D02*
X535051Y137131D01*
X558437Y151821D02*
X566640Y143618D01*
X549810Y126789D02*
X566640Y143618D01*
X541608Y134992D02*
X549810Y126789D01*
X541608Y134992D02*
X558437Y151821D01*
X552073Y137254D02*
X556174Y141356D01*
X552073D02*
X556174Y137254D01*
X579437Y151821D02*
X587640Y143618D01*
X570810Y126789D02*
X587640Y143618D01*
X562608Y134992D02*
X570810Y126789D01*
X562608Y134992D02*
X579437Y151821D01*
X573073Y137254D02*
X577174Y141356D01*
X573073D02*
X577174Y137254D01*
X348437Y130821D02*
X356640Y122618D01*
X339810Y105789D02*
X356640Y122618D01*
X331608Y113992D02*
X339810Y105789D01*
X331608Y113992D02*
X348437Y130821D01*
X342073Y116254D02*
X346174Y120356D01*
X342073D02*
X346174Y116254D01*
X369437Y130821D02*
X377640Y122618D01*
X360810Y105789D02*
X377640Y122618D01*
X352608Y113992D02*
X360810Y105789D01*
X352608Y113992D02*
X369437Y130821D01*
X363073Y116254D02*
X367174Y120356D01*
X363073D02*
X367174Y116254D01*
X390437Y130821D02*
X398639Y122618D01*
X381810Y105789D02*
X398639Y122618D01*
X373608Y113992D02*
X381810Y105789D01*
X373608Y113992D02*
X390437Y130821D01*
X384073Y116254D02*
X388174Y120356D01*
X384073D02*
X388174Y116254D01*
X411437Y130821D02*
X419640Y122618D01*
X402810Y105789D02*
X419640Y122618D01*
X394608Y113992D02*
X402810Y105789D01*
X394608Y113992D02*
X411437Y130821D01*
X405073Y116254D02*
X409174Y120356D01*
X405073D02*
X409174Y116254D01*
X432437Y130821D02*
X440639Y122618D01*
X423810Y105789D02*
X440639Y122618D01*
X415608Y113992D02*
X423810Y105789D01*
X415608Y113992D02*
X432437Y130821D01*
X426073Y116254D02*
X430174Y120356D01*
X426073D02*
X430174Y116254D01*
X453437Y130821D02*
X461640Y122618D01*
X444810Y105789D02*
X461640Y122618D01*
X436608Y113992D02*
X444810Y105789D01*
X436608Y113992D02*
X453437Y130821D01*
X447073Y116254D02*
X451174Y120356D01*
X447073D02*
X451174Y116254D01*
X474437Y130821D02*
X482640Y122618D01*
X465810Y105789D02*
X482640Y122618D01*
X457608Y113992D02*
X465810Y105789D01*
X457608Y113992D02*
X474437Y130821D01*
X468073Y116254D02*
X472174Y120356D01*
X468073D02*
X472174Y116254D01*
X495437Y130821D02*
X503639Y122618D01*
X486810Y105789D02*
X503639Y122618D01*
X478608Y113992D02*
X486810Y105789D01*
X478608Y113992D02*
X495437Y130821D01*
X489073Y116254D02*
X493174Y120356D01*
X489073D02*
X493174Y116254D01*
X516437Y130821D02*
X524640Y122618D01*
X507810Y105789D02*
X524640Y122618D01*
X499608Y113992D02*
X507810Y105789D01*
X499608Y113992D02*
X516437Y130821D01*
X510073Y116254D02*
X514174Y120356D01*
X510073D02*
X514174Y116254D01*
X537437Y130821D02*
X545639Y122618D01*
X528810Y105789D02*
X545639Y122618D01*
X520608Y113992D02*
X528810Y105789D01*
X520608Y113992D02*
X537437Y130821D01*
X531073Y116254D02*
X535174Y120356D01*
X531073D02*
X535174Y116254D01*
X558437Y130821D02*
X566640Y122618D01*
X549810Y105789D02*
X566640Y122618D01*
X541608Y113992D02*
X549810Y105789D01*
X541608Y113992D02*
X558437Y130821D01*
X552073Y116254D02*
X556174Y120356D01*
X552073D02*
X556174Y116254D01*
X597650Y262675D02*
X600761Y259564D01*
X597650D02*
X600761Y262675D01*
X595953Y251644D02*
X608681Y264372D01*
X602458Y270595D02*
X608681Y264372D01*
X589730Y257867D02*
X602458Y270595D01*
X589730Y257867D02*
X595953Y251644D01*
X598586Y123358D02*
X601697Y120247D01*
X598586D02*
X601697Y123358D01*
X596889Y112327D02*
X609617Y125056D01*
X603394Y131278D02*
X609617Y125056D01*
X590666Y118550D02*
X603394Y131278D01*
X590666Y118550D02*
X596889Y112327D01*
X598586Y137358D02*
X601697Y134247D01*
X598586D02*
X601697Y137358D01*
X596889Y126327D02*
X609617Y139055D01*
X603394Y145278D02*
X609617Y139055D01*
X590666Y132550D02*
X603394Y145278D01*
X590666Y132550D02*
X596889Y126327D01*
X130000Y398460D02*
Y402860D01*
X127800Y400660D02*
X132200D01*
X121000Y405060D02*
X139000D01*
X121000Y396260D02*
Y405060D01*
Y396260D02*
X139000D01*
Y405060D01*
X130000Y370460D02*
Y374860D01*
X127800Y372660D02*
X132200D01*
X121000Y377060D02*
X139000D01*
X121000Y368260D02*
Y377060D01*
Y368260D02*
X139000D01*
Y377060D01*
X123050Y395910D02*
X127450D01*
X125250Y393710D02*
Y398110D01*
X129650Y386910D02*
Y404910D01*
X120850D02*
X129650D01*
X120850Y386910D02*
Y404910D01*
Y386910D02*
X129650D01*
X123050Y367910D02*
X127450D01*
X125250Y365710D02*
Y370110D01*
X129650Y358910D02*
Y376910D01*
X120850D02*
X129650D01*
X120850Y358910D02*
Y376910D01*
Y358910D02*
X129650D01*
X60250Y315460D02*
Y319860D01*
X58050Y317660D02*
X62450D01*
X51250Y313260D02*
X69250D01*
Y322060D01*
X51250D02*
X69250D01*
X51250Y313260D02*
Y322060D01*
X36250Y315460D02*
Y319860D01*
X34050Y317660D02*
X38450D01*
X27250Y313260D02*
X45250D01*
Y322060D01*
X27250D02*
X45250D01*
X27250Y313260D02*
Y322060D01*
X168250Y307460D02*
Y311860D01*
X166050Y309660D02*
X170450D01*
X159250Y314060D02*
X177250D01*
X159250Y305260D02*
Y314060D01*
Y305260D02*
X177250D01*
Y314060D01*
X242900Y352130D02*
Y356530D01*
X240700Y354330D02*
X245100D01*
X233900Y358730D02*
X251900D01*
X233900Y349930D02*
Y358730D01*
Y349930D02*
X251900D01*
Y358730D01*
X264160Y408010D02*
Y412410D01*
X261960Y410210D02*
X266360D01*
X255160Y414610D02*
X273160D01*
X255160Y405810D02*
Y414610D01*
Y405810D02*
X273160D01*
Y414610D01*
D148*
X156790Y83060D02*
G03*
X156790Y83060I-2840J0D01*
G01*
X266800Y304760D02*
G03*
X266800Y304760I-2840J0D01*
G01*
X153950Y77980D02*
Y88140D01*
X148870Y83060D02*
X159030D01*
X164950Y59060D02*
Y107060D01*
X142950Y59060D02*
X164950D01*
X142950D02*
Y107060D01*
X164950D01*
X263960Y299680D02*
Y309840D01*
X258880Y304760D02*
X269040D01*
X252960Y280760D02*
Y328760D01*
X274960D01*
Y280760D02*
Y328760D01*
X252960Y280760D02*
X274960D01*
D149*
X68214Y83060D02*
G03*
X68214Y83060I-11314J0D01*
G01*
X40375Y378660D02*
G03*
X40375Y378660I-5000J0D01*
G01*
X466358Y508000D02*
G03*
X466358Y508000I-9158J0D01*
G01*
X466181Y25400D02*
G03*
X466181Y25400I-8981J0D01*
G01*
X268250Y216000D02*
Y226000D01*
X263250Y221000D02*
X273250D01*
X-23100Y135060D02*
X134900D01*
Y17060D02*
Y135060D01*
X-23100Y17060D02*
X134900D01*
X-23100D02*
Y135060D01*
X56900Y83060D02*
X76900D01*
X56900D02*
Y103060D01*
X36900Y83060D02*
X56900D01*
Y63060D02*
Y83060D01*
X28375Y378660D02*
X35375D01*
Y385660D01*
Y378660D02*
X42375D01*
X35375Y371660D02*
Y378660D01*
X65375Y324660D02*
Y432660D01*
X-625Y324660D02*
X65375D01*
X-8625D02*
X-625D01*
X-8625D02*
Y428660D01*
Y432660D01*
X65375D01*
X171450Y521736D02*
X651235D01*
Y494263D02*
Y521736D01*
X171450Y494263D02*
Y521736D01*
Y494263D02*
X651235D01*
X444500Y508000D02*
X468630D01*
X457200D02*
X468630D01*
X457200Y497840D02*
Y519430D01*
X263119Y12007D02*
X650926D01*
X263119D02*
Y38676D01*
X446200Y25400D02*
X468545D01*
X457200Y14615D02*
Y36400D01*
X263119Y38676D02*
X650926D01*
Y12007D02*
Y38676D01*
X86250Y326030D02*
X96250D01*
X91250Y321030D02*
Y331030D01*
X73750Y299030D02*
Y353030D01*
X108750Y299030D02*
Y353030D01*
X73750Y299030D02*
X108750D01*
X73750Y353030D02*
X108750D01*
M02*
