G04*
G04 #@! TF.GenerationSoftware,Altium Limited,Altium Designer,23.8.1 (32)*
G04*
G04 Layer_Color=2752767*
%FSLAX44Y44*%
%MOMM*%
G71*
G04*
G04 #@! TF.SameCoordinates,6629C207-265C-49F2-9D33-E76E02802E5F*
G04*
G04*
G04 #@! TF.FilePolarity,Positive*
G04*
G01*
G75*
%ADD166C,0.0508*%
%ADD167C,0.0677*%
D166*
X56900Y81028D02*
X54868Y85092D01*
X58932D01*
X56900Y81028D01*
Y82044D02*
X55884Y84076D01*
X57916D01*
X56900Y82044D01*
X118900Y81028D02*
X116868Y85092D01*
X120932D01*
X118900Y81028D01*
Y82044D02*
X117884Y84076D01*
X119916D01*
X118900Y82044D01*
X87400Y31528D02*
X85368Y35592D01*
X89432D01*
X87400Y31528D01*
Y32544D02*
X86384Y34576D01*
X88416D01*
X87400Y32544D01*
X13468Y332428D02*
X14484Y334460D01*
X13468Y336492D01*
X15500Y335476D01*
X17532Y336492D01*
X16516Y334460D01*
X17532Y332428D01*
X15500Y333444D01*
X13468Y332428D01*
Y420828D02*
X14484Y422860D01*
X13468Y424892D01*
X15500Y423876D01*
X17532Y424892D01*
X16516Y422860D01*
X17532Y420828D01*
X15500Y421844D01*
X13468Y420828D01*
X51000Y330428D02*
X48968Y334492D01*
X53032D01*
X51000Y330428D01*
X45250Y343428D02*
X46266Y344444D01*
X47282D01*
X46266Y345460D01*
X47282Y346476D01*
X46266D01*
X45250Y347492D01*
X44234Y346476D01*
X43218D01*
X44234Y345460D01*
X43218Y344444D01*
X44234D01*
X45250Y343428D01*
Y344444D02*
X45758Y344952D01*
X46266D01*
X45758Y345460D01*
X46266Y345968D01*
X45758D01*
X45250Y346476D01*
X44742Y345968D01*
X44234D01*
X44742Y345460D01*
X44234Y344952D01*
X44742D01*
X45250Y344444D01*
Y409828D02*
X46266Y410844D01*
X47282D01*
X46266Y411860D01*
X47282Y412876D01*
X46266D01*
X45250Y413892D01*
X44234Y412876D01*
X43218D01*
X44234Y411860D01*
X43218Y410844D01*
X44234D01*
X45250Y409828D01*
Y410844D02*
X45758Y411352D01*
X46266D01*
X45758Y411860D01*
X46266Y412368D01*
X45758D01*
X45250Y412876D01*
X44742Y412368D01*
X44234D01*
X44742Y411860D01*
X44234Y411352D01*
X44742D01*
X45250Y410844D01*
X51000Y422828D02*
X48968Y426892D01*
X53032D01*
X51000Y422828D01*
X161544Y405924D02*
Y404908D01*
X163576D01*
Y405924D01*
X164592D01*
Y407956D01*
X163576D01*
Y408972D01*
X161544D01*
Y407956D01*
X160528D01*
Y405924D01*
X161544D01*
Y431324D02*
Y430308D01*
X163576D01*
Y431324D01*
X164592D01*
Y433356D01*
X163576D01*
Y434372D01*
X161544D01*
Y433356D01*
X160528D01*
Y431324D01*
X161544D01*
X186944Y405924D02*
Y404908D01*
X188976D01*
Y405924D01*
X189992D01*
Y407956D01*
X188976D01*
Y408972D01*
X186944D01*
Y407956D01*
X185928D01*
Y405924D01*
X186944D01*
Y431324D02*
Y430308D01*
X188976D01*
Y431324D01*
X189992D01*
Y433356D01*
X188976D01*
Y434372D01*
X186944D01*
Y433356D01*
X185928D01*
Y431324D01*
X186944D01*
X212344Y405924D02*
Y404908D01*
X214376D01*
Y405924D01*
X215392D01*
Y407956D01*
X214376D01*
Y408972D01*
X212344D01*
Y407956D01*
X211328D01*
Y405924D01*
X212344D01*
Y431324D02*
Y430308D01*
X214376D01*
Y431324D01*
X215392D01*
Y433356D01*
X214376D01*
Y434372D01*
X212344D01*
Y433356D01*
X211328D01*
Y431324D01*
X212344D01*
X228600Y23368D02*
X229616Y24384D01*
X230632D01*
X229616Y25400D01*
X230632Y26416D01*
X229616D01*
X228600Y27432D01*
X227584Y26416D01*
X226568D01*
X227584Y25400D01*
X226568Y24384D01*
X227584D01*
X228600Y23368D01*
X203200D02*
X204216Y24384D01*
X205232D01*
X204216Y25400D01*
X205232Y26416D01*
X204216D01*
X203200Y27432D01*
X202184Y26416D01*
X201168D01*
X202184Y25400D01*
X201168Y24384D01*
X202184D01*
X203200Y23368D01*
X177800D02*
X178816Y24384D01*
X179832D01*
X178816Y25400D01*
X179832Y26416D01*
X178816D01*
X177800Y27432D01*
X176784Y26416D01*
X175768D01*
X176784Y25400D01*
X175768Y24384D01*
X176784D01*
X177800Y23368D01*
X635254Y303784D02*
Y302768D01*
X637286D01*
Y303784D01*
X638302D01*
Y305816D01*
X637286D01*
Y306832D01*
X635254D01*
Y305816D01*
X634238D01*
Y303784D01*
X635254D01*
X660654D02*
Y302768D01*
X662686D01*
Y303784D01*
X663702D01*
Y305816D01*
X662686D01*
Y306832D01*
X660654D01*
Y305816D01*
X659638D01*
Y303784D01*
X660654D01*
X635254Y278384D02*
Y277368D01*
X637286D01*
Y278384D01*
X638302D01*
Y280416D01*
X637286D01*
Y281432D01*
X635254D01*
Y280416D01*
X634238D01*
Y278384D01*
X635254D01*
X660654D02*
Y277368D01*
X662686D01*
Y278384D01*
X663702D01*
Y280416D01*
X662686D01*
Y281432D01*
X660654D01*
Y280416D01*
X659638D01*
Y278384D01*
X660654D01*
X635254Y252984D02*
Y251968D01*
X637286D01*
Y252984D01*
X638302D01*
Y255016D01*
X637286D01*
Y256032D01*
X635254D01*
Y255016D01*
X634238D01*
Y252984D01*
X635254D01*
X660654D02*
Y251968D01*
X662686D01*
Y252984D01*
X663702D01*
Y255016D01*
X662686D01*
Y256032D01*
X660654D01*
Y255016D01*
X659638D01*
Y252984D01*
X660654D01*
X68205Y496780D02*
X69221D01*
X70237Y497796D01*
X71253Y496780D01*
X72269D01*
Y497796D01*
X71253Y498812D01*
X72269Y499828D01*
Y500844D01*
X71253D01*
X70237Y499828D01*
X69221Y500844D01*
X68205D01*
Y499828D01*
X69221Y498812D01*
X68205Y497796D01*
Y496780D01*
X137668Y23368D02*
Y27432D01*
X141732D01*
Y23368D01*
X137668D01*
X658368Y353568D02*
Y357632D01*
X662432D01*
Y353568D01*
X658368D01*
Y74168D02*
Y78232D01*
X662432D01*
Y74168D01*
X658368D01*
X150368Y505968D02*
Y510032D01*
X154432D01*
Y505968D01*
X150368D01*
X127508Y126428D02*
X128524D01*
X129540Y127444D01*
X130556Y126428D01*
X131572D01*
Y127444D01*
X130556Y128460D01*
X131572Y129476D01*
Y130492D01*
X130556D01*
X129540Y129476D01*
X128524Y130492D01*
X127508D01*
Y129476D01*
X128524Y128460D01*
X127508Y127444D01*
Y126428D01*
X134429Y326960D02*
X135445D01*
X136461Y327976D01*
X137477Y326960D01*
X138493D01*
Y327976D01*
X137477Y328992D01*
X138493Y330008D01*
Y331024D01*
X137477D01*
X136461Y330008D01*
X135445Y331024D01*
X134429D01*
Y330008D01*
X135445Y328992D01*
X134429Y327976D01*
Y326960D01*
X142811Y317608D02*
X143827D01*
X144843Y318624D01*
X145859Y317608D01*
X146875D01*
Y318624D01*
X145859Y319640D01*
X146875Y320656D01*
Y321672D01*
X145859D01*
X144843Y320656D01*
X143827Y321672D01*
X142811D01*
Y320656D01*
X143827Y319640D01*
X142811Y318624D01*
Y317608D01*
X150081Y318143D02*
X151097D01*
X152113Y319159D01*
X153129Y318143D01*
X154145D01*
Y319159D01*
X153129Y320175D01*
X154145Y321191D01*
Y322207D01*
X153129D01*
X152113Y321191D01*
X151097Y322207D01*
X150081D01*
Y321191D01*
X151097Y320175D01*
X150081Y319159D01*
Y318143D01*
X122465Y313482D02*
X123482D01*
X124497Y314498D01*
X125513Y313482D01*
X126530D01*
Y314498D01*
X125513Y315514D01*
X126530Y316530D01*
Y317546D01*
X125513D01*
X124497Y316530D01*
X123482Y317546D01*
X122465D01*
Y316530D01*
X123482Y315514D01*
X122465Y314498D01*
Y313482D01*
X246218Y324791D02*
X247234D01*
X248250Y325807D01*
X249266Y324791D01*
X250282D01*
Y325807D01*
X249266Y326823D01*
X250282Y327839D01*
Y328855D01*
X249266D01*
X248250Y327839D01*
X247234Y328855D01*
X246218D01*
Y327839D01*
X247234Y326823D01*
X246218Y325807D01*
Y324791D01*
X285046Y238958D02*
X286062D01*
X287078Y239974D01*
X288094Y238958D01*
X289110D01*
Y239974D01*
X288094Y240991D01*
X289110Y242006D01*
Y243022D01*
X288094D01*
X287078Y242006D01*
X286062Y243022D01*
X285046D01*
Y242006D01*
X286062Y240991D01*
X285046Y239974D01*
Y238958D01*
X471535Y313422D02*
X472551D01*
X473567Y314438D01*
X474583Y313422D01*
X475599D01*
Y314438D01*
X474583Y315454D01*
X475599Y316470D01*
Y317486D01*
X474583D01*
X473567Y316470D01*
X472551Y317486D01*
X471535D01*
Y316470D01*
X472551Y315454D01*
X471535Y314438D01*
Y313422D01*
X432274Y387039D02*
X433290D01*
X434306Y388055D01*
X435322Y387039D01*
X436338D01*
Y388055D01*
X435322Y389071D01*
X436338Y390087D01*
Y391103D01*
X435322D01*
X434306Y390087D01*
X433290Y391103D01*
X432274D01*
Y390087D01*
X433290Y389071D01*
X432274Y388055D01*
Y387039D01*
X484372Y370801D02*
X485388D01*
X486404Y371817D01*
X487420Y370801D01*
X488436D01*
Y371817D01*
X487420Y372833D01*
X488436Y373849D01*
Y374865D01*
X487420D01*
X486404Y373849D01*
X485388Y374865D01*
X484372D01*
Y373849D01*
X485388Y372833D01*
X484372Y371817D01*
Y370801D01*
X484968Y398968D02*
X485984D01*
X487000Y399984D01*
X488016Y398968D01*
X489032D01*
Y399984D01*
X488016Y401000D01*
X489032Y402016D01*
Y403032D01*
X488016D01*
X487000Y402016D01*
X485984Y403032D01*
X484968D01*
Y402016D01*
X485984Y401000D01*
X484968Y399984D01*
Y398968D01*
X490825Y382729D02*
X491841D01*
X492856Y383745D01*
X493872Y382729D01*
X494888D01*
Y383745D01*
X493872Y384761D01*
X494888Y385777D01*
Y386793D01*
X493872D01*
X492856Y385777D01*
X491841Y386793D01*
X490825D01*
Y385777D01*
X491841Y384761D01*
X490825Y383745D01*
Y382729D01*
X490955Y390778D02*
X491971D01*
X492987Y391794D01*
X494003Y390778D01*
X495019D01*
Y391794D01*
X494003Y392810D01*
X495019Y393826D01*
Y394842D01*
X494003D01*
X492987Y393826D01*
X491971Y394842D01*
X490955D01*
Y393826D01*
X491971Y392810D01*
X490955Y391794D01*
Y390778D01*
X493790Y398665D02*
X494806D01*
X495822Y399680D01*
X496838Y398665D01*
X497854D01*
Y399680D01*
X496838Y400696D01*
X497854Y401712D01*
Y402729D01*
X496838D01*
X495822Y401712D01*
X494806Y402729D01*
X493790D01*
Y401712D01*
X494806Y400696D01*
X493790Y399680D01*
Y398665D01*
X527770Y366070D02*
X528786D01*
X529801Y367086D01*
X530817Y366070D01*
X531833D01*
Y367086D01*
X530817Y368102D01*
X531833Y369118D01*
Y370134D01*
X530817D01*
X529801Y369118D01*
X528786Y370134D01*
X527770D01*
Y369118D01*
X528786Y368102D01*
X527770Y367086D01*
Y366070D01*
X521756Y382555D02*
X522772D01*
X523788Y383571D01*
X524804Y382555D01*
X525820D01*
Y383571D01*
X524804Y384586D01*
X525820Y385602D01*
Y386618D01*
X524804D01*
X523788Y385602D01*
X522772Y386618D01*
X521756D01*
Y385602D01*
X522772Y384586D01*
X521756Y383571D01*
Y382555D01*
X528393Y385577D02*
X529409D01*
X530425Y386593D01*
X531441Y385577D01*
X532457D01*
Y386593D01*
X531441Y387609D01*
X532457Y388625D01*
Y389641D01*
X531441D01*
X530425Y388625D01*
X529409Y389641D01*
X528393D01*
Y388625D01*
X529409Y387609D01*
X528393Y386593D01*
Y385577D01*
X525548Y398778D02*
X526564D01*
X527580Y399794D01*
X528596Y398778D01*
X529612D01*
Y399794D01*
X528596Y400810D01*
X529612Y401826D01*
Y402842D01*
X528596D01*
X527580Y401826D01*
X526564Y402842D01*
X525548D01*
Y401826D01*
X526564Y400810D01*
X525548Y399794D01*
Y398778D01*
X512317Y401900D02*
X513333D01*
X514349Y402916D01*
X515365Y401900D01*
X516381D01*
Y402916D01*
X515365Y403932D01*
X516381Y404948D01*
Y405964D01*
X515365D01*
X514349Y404948D01*
X513333Y405964D01*
X512317D01*
Y404948D01*
X513333Y403932D01*
X512317Y402916D01*
Y401900D01*
X514346Y393860D02*
X515362D01*
X516378Y394876D01*
X517394Y393860D01*
X518410D01*
Y394876D01*
X517394Y395892D01*
X518410Y396908D01*
Y397924D01*
X517394D01*
X516378Y396908D01*
X515362Y397924D01*
X514346D01*
Y396908D01*
X515362Y395892D01*
X514346Y394876D01*
Y393860D01*
X524947Y275266D02*
X525963D01*
X526979Y276282D01*
X527995Y275266D01*
X529011D01*
Y276282D01*
X527995Y277298D01*
X529011Y278314D01*
Y279330D01*
X527995D01*
X526979Y278314D01*
X525963Y279330D01*
X524947D01*
Y278314D01*
X525963Y277298D01*
X524947Y276282D01*
Y275266D01*
X410376Y217449D02*
X411392D01*
X412408Y218465D01*
X413424Y217449D01*
X414440D01*
Y218465D01*
X413424Y219482D01*
X414440Y220497D01*
Y221514D01*
X413424D01*
X412408Y220497D01*
X411392Y221514D01*
X410376D01*
Y220497D01*
X411392Y219482D01*
X410376Y218465D01*
Y217449D01*
X417538Y209138D02*
X418554D01*
X419571Y210154D01*
X420587Y209138D01*
X421603D01*
Y210154D01*
X420587Y211170D01*
X421603Y212186D01*
Y213202D01*
X420587D01*
X419571Y212186D01*
X418554Y213202D01*
X417538D01*
Y212186D01*
X418554Y211170D01*
X417538Y210154D01*
Y209138D01*
X493033Y340529D02*
X494049D01*
X495065Y341545D01*
X496081Y340529D01*
X497097D01*
Y341545D01*
X496081Y342561D01*
X497097Y343577D01*
Y344593D01*
X496081D01*
X495065Y343577D01*
X494049Y344593D01*
X493033D01*
Y343577D01*
X494049Y342561D01*
X493033Y341545D01*
Y340529D01*
X494177Y332011D02*
X495193D01*
X496209Y333027D01*
X497225Y332011D01*
X498241D01*
Y333027D01*
X497225Y334043D01*
X498241Y335059D01*
Y336075D01*
X497225D01*
X496209Y335059D01*
X495193Y336075D01*
X494177D01*
Y335059D01*
X495193Y334043D01*
X494177Y333027D01*
Y332011D01*
X516037Y317978D02*
X517053D01*
X518069Y318994D01*
X519085Y317978D01*
X520101D01*
Y318994D01*
X519085Y320010D01*
X520101Y321026D01*
Y322042D01*
X519085D01*
X518069Y321026D01*
X517053Y322042D01*
X516037D01*
Y321026D01*
X517053Y320010D01*
X516037Y318994D01*
Y317978D01*
X522691Y331219D02*
X523708D01*
X524724Y332235D01*
X525740Y331219D01*
X526755D01*
Y332235D01*
X525740Y333251D01*
X526755Y334267D01*
Y335283D01*
X525740D01*
X524724Y334267D01*
X523708Y335283D01*
X522691D01*
Y334267D01*
X523708Y333251D01*
X522691Y332235D01*
Y331219D01*
X549343Y326364D02*
X550359D01*
X551376Y327380D01*
X552392Y326364D01*
X553408D01*
Y327380D01*
X552392Y328396D01*
X553408Y329412D01*
Y330428D01*
X552392D01*
X551376Y329412D01*
X550359Y330428D01*
X549343D01*
Y329412D01*
X550359Y328396D01*
X549343Y327380D01*
Y326364D01*
X566850Y357098D02*
X567866D01*
X568882Y358114D01*
X569898Y357098D01*
X570914D01*
Y358114D01*
X569898Y359130D01*
X570914Y360146D01*
Y361162D01*
X569898D01*
X568882Y360146D01*
X567866Y361162D01*
X566850D01*
Y360146D01*
X567866Y359130D01*
X566850Y358114D01*
Y357098D01*
X273579Y379504D02*
X274595D01*
X275611Y380520D01*
X276627Y379504D01*
X277643D01*
Y380520D01*
X276627Y381536D01*
X277643Y382552D01*
Y383568D01*
X276627D01*
X275611Y382552D01*
X274595Y383568D01*
X273579D01*
Y382552D01*
X274595Y381536D01*
X273579Y380520D01*
Y379504D01*
X223417Y350984D02*
X224433D01*
X225449Y352000D01*
X226465Y350984D01*
X227481D01*
Y352000D01*
X226465Y353016D01*
X227481Y354032D01*
Y355048D01*
X226465D01*
X225449Y354032D01*
X224433Y355048D01*
X223417D01*
Y354032D01*
X224433Y353016D01*
X223417Y352000D01*
Y350984D01*
X233257Y319122D02*
X234273D01*
X235289Y320138D01*
X236305Y319122D01*
X237321D01*
Y320138D01*
X236305Y321154D01*
X237321Y322170D01*
Y323186D01*
X236305D01*
X235289Y322170D01*
X234273Y323186D01*
X233257D01*
Y322170D01*
X234273Y321154D01*
X233257Y320138D01*
Y319122D01*
X237055Y327118D02*
X238071D01*
X239087Y328134D01*
X240103Y327118D01*
X241119D01*
Y328134D01*
X240103Y329150D01*
X241119Y330166D01*
Y331182D01*
X240103D01*
X239087Y330166D01*
X238071Y331182D01*
X237055D01*
Y330166D01*
X238071Y329150D01*
X237055Y328134D01*
Y327118D01*
X254531Y260962D02*
X255547D01*
X256563Y261978D01*
X257579Y260962D01*
X258595D01*
Y261978D01*
X257579Y262994D01*
X258595Y264010D01*
Y265026D01*
X257579D01*
X256563Y264010D01*
X255547Y265026D01*
X254531D01*
Y264010D01*
X255547Y262994D01*
X254531Y261978D01*
Y260962D01*
X232670Y238272D02*
X233685D01*
X234701Y239288D01*
X235718Y238272D01*
X236733D01*
Y239288D01*
X235718Y240304D01*
X236733Y241320D01*
Y242336D01*
X235718D01*
X234701Y241320D01*
X233685Y242336D01*
X232670D01*
Y241320D01*
X233685Y240304D01*
X232670Y239288D01*
Y238272D01*
X274698Y408178D02*
X275714D01*
X276730Y409194D01*
X277746Y408178D01*
X278762D01*
Y409194D01*
X277746Y410210D01*
X278762Y411226D01*
Y412242D01*
X277746D01*
X276730Y411226D01*
X275714Y412242D01*
X274698D01*
Y411226D01*
X275714Y410210D01*
X274698Y409194D01*
Y408178D01*
X472358Y424427D02*
X473374D01*
X474390Y425443D01*
X475406Y424427D01*
X476422D01*
Y425443D01*
X475406Y426459D01*
X476422Y427475D01*
Y428491D01*
X475406D01*
X474390Y427475D01*
X473374Y428491D01*
X472358D01*
Y427475D01*
X473374Y426459D01*
X472358Y425443D01*
Y424427D01*
X229959Y431459D02*
X230975D01*
X231991Y432475D01*
X233007Y431459D01*
X234023D01*
Y432475D01*
X233007Y433491D01*
X234023Y434507D01*
Y435523D01*
X233007D01*
X231991Y434507D01*
X230975Y435523D01*
X229959D01*
Y434507D01*
X230975Y433491D01*
X229959Y432475D01*
Y431459D01*
X198674Y410235D02*
X199690D01*
X200706Y411251D01*
X201722Y410235D01*
X202738D01*
Y411251D01*
X201722Y412267D01*
X202738Y413283D01*
Y414299D01*
X201722D01*
X200706Y413283D01*
X199690Y414299D01*
X198674D01*
Y413283D01*
X199690Y412267D01*
X198674Y411251D01*
Y410235D01*
X92163Y368840D02*
X93180D01*
X94195Y369856D01*
X95211Y368840D01*
X96228D01*
Y369856D01*
X95211Y370872D01*
X96228Y371888D01*
Y372904D01*
X95211D01*
X94195Y371888D01*
X93180Y372904D01*
X92163D01*
Y371888D01*
X93180Y370872D01*
X92163Y369856D01*
Y368840D01*
X71696Y371727D02*
X72712D01*
X73728Y372743D01*
X74744Y371727D01*
X75760D01*
Y372743D01*
X74744Y373759D01*
X75760Y374775D01*
Y375791D01*
X74744D01*
X73728Y374775D01*
X72712Y375791D01*
X71696D01*
Y374775D01*
X72712Y373759D01*
X71696Y372743D01*
Y371727D01*
X647414Y378953D02*
X648430D01*
X649446Y379969D01*
X650462Y378953D01*
X651478D01*
Y379969D01*
X650462Y380985D01*
X651478Y382001D01*
Y383017D01*
X650462D01*
X649446Y382001D01*
X648430Y383017D01*
X647414D01*
Y382001D01*
X648430Y380985D01*
X647414Y379969D01*
Y378953D01*
X630233Y372012D02*
X631249D01*
X632265Y373028D01*
X633281Y372012D01*
X634297D01*
Y373028D01*
X633281Y374044D01*
X634297Y375060D01*
Y376076D01*
X633281D01*
X632265Y375060D01*
X631249Y376076D01*
X630233D01*
Y375060D01*
X631249Y374044D01*
X630233Y373028D01*
Y372012D01*
X636263Y376184D02*
X637279D01*
X638295Y377200D01*
X639311Y376184D01*
X640327D01*
Y377200D01*
X639311Y378216D01*
X640327Y379232D01*
Y380248D01*
X639311D01*
X638295Y379232D01*
X637279Y380248D01*
X636263D01*
Y379232D01*
X637279Y378216D01*
X636263Y377200D01*
Y376184D01*
X634961Y391907D02*
X635977D01*
X636993Y392923D01*
X638009Y391907D01*
X639025D01*
Y392923D01*
X638009Y393939D01*
X639025Y394955D01*
Y395971D01*
X638009D01*
X636993Y394955D01*
X635977Y395971D01*
X634961D01*
Y394955D01*
X635977Y393939D01*
X634961Y392923D01*
Y391907D01*
X595367Y469882D02*
X596383D01*
X597399Y470897D01*
X598415Y469882D01*
X599431D01*
Y470897D01*
X598415Y471913D01*
X599431Y472929D01*
Y473946D01*
X598415D01*
X597399Y472929D01*
X596383Y473946D01*
X595367D01*
Y472929D01*
X596383Y471913D01*
X595367Y470897D01*
Y469882D01*
X587968Y467968D02*
X588984D01*
X590000Y468984D01*
X591016Y467968D01*
X592032D01*
Y468984D01*
X591016Y470000D01*
X592032Y471016D01*
Y472032D01*
X591016D01*
X590000Y471016D01*
X588984Y472032D01*
X587968D01*
Y471016D01*
X588984Y470000D01*
X587968Y468984D01*
Y467968D01*
X192129Y466772D02*
X193145D01*
X194161Y467788D01*
X195177Y466772D01*
X196193D01*
Y467788D01*
X195177Y468804D01*
X196193Y469820D01*
Y470836D01*
X195177D01*
X194161Y469820D01*
X193145Y470836D01*
X192129D01*
Y469820D01*
X193145Y468804D01*
X192129Y467788D01*
Y466772D01*
X448825Y427348D02*
X449841D01*
X450857Y428364D01*
X451873Y427348D01*
X452889D01*
Y428364D01*
X451873Y429380D01*
X452889Y430396D01*
Y431412D01*
X451873D01*
X450857Y430396D01*
X449841Y431412D01*
X448825D01*
Y430396D01*
X449841Y429380D01*
X448825Y428364D01*
Y427348D01*
X522945Y426806D02*
X523961D01*
X524977Y427822D01*
X525993Y426806D01*
X527009D01*
Y427822D01*
X525993Y428838D01*
X527009Y429854D01*
Y430870D01*
X525993D01*
X524977Y429854D01*
X523961Y430870D01*
X522945D01*
Y429854D01*
X523961Y428838D01*
X522945Y427822D01*
Y426806D01*
X162511Y378903D02*
X163527D01*
X164543Y379919D01*
X165559Y378903D01*
X166575D01*
Y379919D01*
X165559Y380935D01*
X166575Y381951D01*
Y382967D01*
X165559D01*
X164543Y381951D01*
X163527Y382967D01*
X162511D01*
Y381951D01*
X163527Y380935D01*
X162511Y379919D01*
Y378903D01*
X154363Y378722D02*
X155379D01*
X156395Y379738D01*
X157411Y378722D01*
X158427D01*
Y379738D01*
X157411Y380754D01*
X158427Y381770D01*
Y382786D01*
X157411D01*
X156395Y381770D01*
X155379Y382786D01*
X154363D01*
Y381770D01*
X155379Y380754D01*
X154363Y379738D01*
Y378722D01*
X277968Y363968D02*
X278984D01*
X280000Y364984D01*
X281016Y363968D01*
X282032D01*
Y364984D01*
X281016Y366000D01*
X282032Y367016D01*
Y368032D01*
X281016D01*
X280000Y367016D01*
X278984Y368032D01*
X277968D01*
Y367016D01*
X278984Y366000D01*
X277968Y364984D01*
Y363968D01*
X250281Y374859D02*
X251297D01*
X252313Y375875D01*
X253329Y374859D01*
X254345D01*
Y375875D01*
X253329Y376891D01*
X254345Y377907D01*
Y378923D01*
X253329D01*
X252313Y377907D01*
X251297Y378923D01*
X250281D01*
Y377907D01*
X251297Y376891D01*
X250281Y375875D01*
Y374859D01*
X218968Y374968D02*
X219984D01*
X221000Y375984D01*
X222016Y374968D01*
X223032D01*
Y375984D01*
X222016Y377000D01*
X223032Y378016D01*
Y379032D01*
X222016D01*
X221000Y378016D01*
X219984Y379032D01*
X218968D01*
Y378016D01*
X219984Y377000D01*
X218968Y375984D01*
Y374968D01*
X228848Y375012D02*
X229864D01*
X230880Y376028D01*
X231896Y375012D01*
X232912D01*
Y376028D01*
X231896Y377044D01*
X232912Y378060D01*
Y379076D01*
X231896D01*
X230880Y378060D01*
X229864Y379076D01*
X228848D01*
Y378060D01*
X229864Y377044D01*
X228848Y376028D01*
Y375012D01*
X220757Y332920D02*
X221773D01*
X222789Y333936D01*
X223805Y332920D01*
X224821D01*
Y333936D01*
X223805Y334952D01*
X224821Y335968D01*
Y336984D01*
X223805D01*
X222789Y335968D01*
X221773Y336984D01*
X220757D01*
Y335968D01*
X221773Y334952D01*
X220757Y333936D01*
Y332920D01*
X222199Y325564D02*
X223215D01*
X224231Y326580D01*
X225247Y325564D01*
X226263D01*
Y326580D01*
X225247Y327596D01*
X226263Y328612D01*
Y329628D01*
X225247D01*
X224231Y328612D01*
X223215Y329628D01*
X222199D01*
Y328612D01*
X223215Y327596D01*
X222199Y326580D01*
Y325564D01*
X225420Y318978D02*
X226436D01*
X227452Y319994D01*
X228468Y318978D01*
X229484D01*
Y319994D01*
X228468Y321010D01*
X229484Y322026D01*
Y323042D01*
X228468D01*
X227452Y322026D01*
X226436Y323042D01*
X225420D01*
Y322026D01*
X226436Y321010D01*
X225420Y319994D01*
Y318978D01*
X238123Y372903D02*
X239139D01*
X240155Y373919D01*
X241171Y372903D01*
X242187D01*
Y373919D01*
X241171Y374935D01*
X242187Y375951D01*
Y376967D01*
X241171D01*
X240155Y375951D01*
X239139Y376967D01*
X238123D01*
Y375951D01*
X239139Y374935D01*
X238123Y373919D01*
Y372903D01*
X239128Y401728D02*
X240144D01*
X241160Y402744D01*
X242176Y401728D01*
X243192D01*
Y402744D01*
X242176Y403760D01*
X243192Y404776D01*
Y405792D01*
X242176D01*
X241160Y404776D01*
X240144Y405792D01*
X239128D01*
Y404776D01*
X240144Y403760D01*
X239128Y402744D01*
Y401728D01*
X423481Y272739D02*
X424497D01*
X425513Y273755D01*
X426529Y272739D01*
X427545D01*
Y273755D01*
X426529Y274771D01*
X427545Y275787D01*
Y276803D01*
X426529D01*
X425513Y275787D01*
X424497Y276803D01*
X423481D01*
Y275787D01*
X424497Y274771D01*
X423481Y273755D01*
Y272739D01*
X418819Y267161D02*
X419835D01*
X420851Y268177D01*
X421867Y267161D01*
X422883D01*
Y268177D01*
X421867Y269193D01*
X422883Y270209D01*
Y271225D01*
X421867D01*
X420851Y270209D01*
X419835Y271225D01*
X418819D01*
Y270209D01*
X419835Y269193D01*
X418819Y268177D01*
Y267161D01*
X434101Y255532D02*
X435117D01*
X436133Y256548D01*
X437150Y255532D01*
X438166D01*
Y256548D01*
X437150Y257564D01*
X438166Y258580D01*
Y259596D01*
X437150D01*
X436133Y258580D01*
X435117Y259596D01*
X434101D01*
Y258580D01*
X435117Y257564D01*
X434101Y256548D01*
Y255532D01*
X564577Y99061D02*
X565593D01*
X566609Y100077D01*
X567625Y99061D01*
X568641D01*
Y100077D01*
X567625Y101094D01*
X568641Y102109D01*
Y103125D01*
X567625D01*
X566609Y102109D01*
X565593Y103125D01*
X564577D01*
Y102109D01*
X565593Y101094D01*
X564577Y100077D01*
Y99061D01*
X577999Y102931D02*
X579015D01*
X580031Y103947D01*
X581047Y102931D01*
X582063D01*
Y103947D01*
X581047Y104963D01*
X582063Y105979D01*
Y106995D01*
X581047D01*
X580031Y105979D01*
X579015Y106995D01*
X577999D01*
Y105979D01*
X579015Y104963D01*
X577999Y103947D01*
Y102931D01*
X494817Y104413D02*
X495833D01*
X496849Y105429D01*
X497865Y104413D01*
X498881D01*
Y105429D01*
X497865Y106445D01*
X498881Y107461D01*
Y108477D01*
X497865D01*
X496849Y107461D01*
X495833Y108477D01*
X494817D01*
Y107461D01*
X495833Y106445D01*
X494817Y105429D01*
Y104413D01*
X540247Y106337D02*
X541263D01*
X542279Y107353D01*
X543295Y106337D01*
X544311D01*
Y107353D01*
X543295Y108369D01*
X544311Y109385D01*
Y110401D01*
X543295D01*
X542279Y109385D01*
X541263Y110401D01*
X540247D01*
Y109385D01*
X541263Y108369D01*
X540247Y107353D01*
Y106337D01*
X364806Y47476D02*
X365822D01*
X366838Y48492D01*
X367854Y47476D01*
X368870D01*
Y48492D01*
X367854Y49508D01*
X368870Y50524D01*
Y51540D01*
X367854D01*
X366838Y50524D01*
X365822Y51540D01*
X364806D01*
Y50524D01*
X365822Y49508D01*
X364806Y48492D01*
Y47476D01*
X274718Y330339D02*
X275734D01*
X276750Y331355D01*
X277766Y330339D01*
X278782D01*
Y331355D01*
X277766Y332371D01*
X278782Y333387D01*
Y334403D01*
X277766D01*
X276750Y333387D01*
X275734Y334403D01*
X274718D01*
Y333387D01*
X275734Y332371D01*
X274718Y331355D01*
Y330339D01*
X185968Y241968D02*
X186984D01*
X188000Y242984D01*
X189016Y241968D01*
X190032D01*
Y242984D01*
X189016Y244000D01*
X190032Y245016D01*
Y246032D01*
X189016D01*
X188000Y245016D01*
X186984Y246032D01*
X185968D01*
Y245016D01*
X186984Y244000D01*
X185968Y242984D01*
Y241968D01*
X364051Y38295D02*
X365067D01*
X366083Y39311D01*
X367099Y38295D01*
X368115D01*
Y39311D01*
X367099Y40327D01*
X368115Y41343D01*
Y42359D01*
X367099D01*
X366083Y41343D01*
X365067Y42359D01*
X364051D01*
Y41343D01*
X365067Y40327D01*
X364051Y39311D01*
Y38295D01*
X272622Y130028D02*
X273638D01*
X274654Y131044D01*
X275670Y130028D01*
X276686D01*
Y131044D01*
X275670Y132060D01*
X276686Y133076D01*
Y134092D01*
X275670D01*
X274654Y133076D01*
X273638Y134092D01*
X272622D01*
Y133076D01*
X273638Y132060D01*
X272622Y131044D01*
Y130028D01*
X250334D02*
X251350D01*
X252366Y131044D01*
X253382Y130028D01*
X254398D01*
Y131044D01*
X253382Y132060D01*
X254398Y133076D01*
Y134092D01*
X253382D01*
X252366Y133076D01*
X251350Y134092D01*
X250334D01*
Y133076D01*
X251350Y132060D01*
X250334Y131044D01*
Y130028D01*
X261218Y145718D02*
X262234D01*
X263250Y146734D01*
X264266Y145718D01*
X265282D01*
Y146734D01*
X264266Y147750D01*
X265282Y148766D01*
Y149782D01*
X264266D01*
X263250Y148766D01*
X262234Y149782D01*
X261218D01*
Y148766D01*
X262234Y147750D01*
X261218Y146734D01*
Y145718D01*
X156918Y88678D02*
X157934D01*
X158950Y89694D01*
X159966Y88678D01*
X160982D01*
Y89694D01*
X159966Y90710D01*
X160982Y91726D01*
Y92742D01*
X159966D01*
X158950Y91726D01*
X157934Y92742D01*
X156918D01*
Y91726D01*
X157934Y90710D01*
X156918Y89694D01*
Y88678D01*
X167135Y53510D02*
X168151D01*
X169167Y54526D01*
X170183Y53510D01*
X171199D01*
Y54526D01*
X170183Y55542D01*
X171199Y56558D01*
Y57574D01*
X170183D01*
X169167Y56558D01*
X168151Y57574D01*
X167135D01*
Y56558D01*
X168151Y55542D01*
X167135Y54526D01*
Y53510D01*
X217968Y210968D02*
X218984D01*
X220000Y211984D01*
X221016Y210968D01*
X222032D01*
Y211984D01*
X221016Y213000D01*
X222032Y214016D01*
Y215032D01*
X221016D01*
X220000Y214016D01*
X218984Y215032D01*
X217968D01*
Y214016D01*
X218984Y213000D01*
X217968Y211984D01*
Y210968D01*
X321818Y113145D02*
X322834D01*
X323850Y114161D01*
X324866Y113145D01*
X325882D01*
Y114161D01*
X324866Y115177D01*
X325882Y116193D01*
Y117209D01*
X324866D01*
X323850Y116193D01*
X322834Y117209D01*
X321818D01*
Y116193D01*
X322834Y115177D01*
X321818Y114161D01*
Y113145D01*
X335797Y122461D02*
X336813D01*
X337829Y123477D01*
X338845Y122461D01*
X339861D01*
Y123477D01*
X338845Y124493D01*
X339861Y125509D01*
Y126525D01*
X338845D01*
X337829Y125509D01*
X336813Y126525D01*
X335797D01*
Y125509D01*
X336813Y124493D01*
X335797Y123477D01*
Y122461D01*
X317868Y47528D02*
X318884D01*
X319900Y48544D01*
X320916Y47528D01*
X321932D01*
Y48544D01*
X320916Y49560D01*
X321932Y50576D01*
Y51592D01*
X320916D01*
X319900Y50576D01*
X318884Y51592D01*
X317868D01*
Y50576D01*
X318884Y49560D01*
X317868Y48544D01*
Y47528D01*
X296218Y130028D02*
X297234D01*
X298250Y131044D01*
X299266Y130028D01*
X300282D01*
Y131044D01*
X299266Y132060D01*
X300282Y133076D01*
Y134092D01*
X299266D01*
X298250Y133076D01*
X297234Y134092D01*
X296218D01*
Y133076D01*
X297234Y132060D01*
X296218Y131044D01*
Y130028D01*
X249868Y47528D02*
X250884D01*
X251900Y48544D01*
X252916Y47528D01*
X253932D01*
Y48544D01*
X252916Y49560D01*
X253932Y50576D01*
Y51592D01*
X252916D01*
X251900Y50576D01*
X250884Y51592D01*
X249868D01*
Y50576D01*
X250884Y49560D01*
X249868Y48544D01*
Y47528D01*
X251218Y87028D02*
X252234D01*
X253250Y88044D01*
X254266Y87028D01*
X255282D01*
Y88044D01*
X254266Y89060D01*
X255282Y90076D01*
Y91092D01*
X254266D01*
X253250Y90076D01*
X252234Y91092D01*
X251218D01*
Y90076D01*
X252234Y89060D01*
X251218Y88044D01*
Y87028D01*
X271218D02*
X272234D01*
X273250Y88044D01*
X274266Y87028D01*
X275282D01*
Y88044D01*
X274266Y89060D01*
X275282Y90076D01*
Y91092D01*
X274266D01*
X273250Y90076D01*
X272234Y91092D01*
X271218D01*
Y90076D01*
X272234Y89060D01*
X271218Y88044D01*
Y87028D01*
X261218D02*
X262234D01*
X263250Y88044D01*
X264266Y87028D01*
X265282D01*
Y88044D01*
X264266Y89060D01*
X265282Y90076D01*
Y91092D01*
X264266D01*
X263250Y90076D01*
X262234Y91092D01*
X261218D01*
Y90076D01*
X262234Y89060D01*
X261218Y88044D01*
Y87028D01*
X283568Y78528D02*
X284584D01*
X285600Y79544D01*
X286616Y78528D01*
X287632D01*
Y79544D01*
X286616Y80560D01*
X287632Y81576D01*
Y82592D01*
X286616D01*
X285600Y81576D01*
X284584Y82592D01*
X283568D01*
Y81576D01*
X284584Y80560D01*
X283568Y79544D01*
Y78528D01*
X238868D02*
X239884D01*
X240900Y79544D01*
X241916Y78528D01*
X242932D01*
Y79544D01*
X241916Y80560D01*
X242932Y81576D01*
Y82592D01*
X241916D01*
X240900Y81576D01*
X239884Y82592D01*
X238868D01*
Y81576D01*
X239884Y80560D01*
X238868Y79544D01*
Y78528D01*
X284068Y70028D02*
X285084D01*
X286100Y71044D01*
X287116Y70028D01*
X288132D01*
Y71044D01*
X287116Y72060D01*
X288132Y73076D01*
Y74092D01*
X287116D01*
X286100Y73076D01*
X285084Y74092D01*
X284068D01*
Y73076D01*
X285084Y72060D01*
X284068Y71044D01*
Y70028D01*
X283568Y61528D02*
X284584D01*
X285600Y62544D01*
X286616Y61528D01*
X287632D01*
Y62544D01*
X286616Y63560D01*
X287632Y64576D01*
Y65592D01*
X286616D01*
X285600Y64576D01*
X284584Y65592D01*
X283568D01*
Y64576D01*
X284584Y63560D01*
X283568Y62544D01*
Y61528D01*
X238868D02*
X239884D01*
X240900Y62544D01*
X241916Y61528D01*
X242932D01*
Y62544D01*
X241916Y63560D01*
X242932Y64576D01*
Y65592D01*
X241916D01*
X240900Y64576D01*
X239884Y65592D01*
X238868D01*
Y64576D01*
X239884Y63560D01*
X238868Y62544D01*
Y61528D01*
X238368Y70028D02*
X239384D01*
X240400Y71044D01*
X241416Y70028D01*
X242432D01*
Y71044D01*
X241416Y72060D01*
X242432Y73076D01*
Y74092D01*
X241416D01*
X240400Y73076D01*
X239384Y74092D01*
X238368D01*
Y73076D01*
X239384Y72060D01*
X238368Y71044D01*
Y70028D01*
X189868Y84528D02*
X190884D01*
X191900Y85544D01*
X192916Y84528D01*
X193932D01*
Y85544D01*
X192916Y86560D01*
X193932Y87576D01*
Y88592D01*
X192916D01*
X191900Y87576D01*
X190884Y88592D01*
X189868D01*
Y87576D01*
X190884Y86560D01*
X189868Y85544D01*
Y84528D01*
X173868Y81528D02*
X174884D01*
X175900Y82544D01*
X176916Y81528D01*
X177932D01*
Y82544D01*
X176916Y83560D01*
X177932Y84576D01*
Y85592D01*
X176916D01*
X175900Y84576D01*
X174884Y85592D01*
X173868D01*
Y84576D01*
X174884Y83560D01*
X173868Y82544D01*
Y81528D01*
X221218Y287378D02*
X222234D01*
X223250Y288394D01*
X224266Y287378D01*
X225282D01*
Y288394D01*
X224266Y289410D01*
X225282Y290426D01*
Y291442D01*
X224266D01*
X223250Y290426D01*
X222234Y291442D01*
X221218D01*
Y290426D01*
X222234Y289410D01*
X221218Y288394D01*
Y287378D01*
X208109Y153428D02*
X209125D01*
X210141Y154444D01*
X211157Y153428D01*
X212173D01*
Y154444D01*
X211157Y155460D01*
X212173Y156476D01*
Y157492D01*
X211157D01*
X210141Y156476D01*
X209125Y157492D01*
X208109D01*
Y156476D01*
X209125Y155460D01*
X208109Y154444D01*
Y153428D01*
X211008Y261283D02*
X212024D01*
X213040Y262299D01*
X214056Y261283D01*
X215072D01*
Y262299D01*
X214056Y263315D01*
X215072Y264331D01*
Y265347D01*
X214056D01*
X213040Y264331D01*
X212024Y265347D01*
X211008D01*
Y264331D01*
X212024Y263315D01*
X211008Y262299D01*
Y261283D01*
X210917Y253922D02*
X211933D01*
X212949Y254938D01*
X213965Y253922D01*
X214981D01*
Y254938D01*
X213965Y255954D01*
X214981Y256970D01*
Y257986D01*
X213965D01*
X212949Y256970D01*
X211933Y257986D01*
X210917D01*
Y256970D01*
X211933Y255954D01*
X210917Y254938D01*
Y253922D01*
X329547Y254359D02*
X330563D01*
X331579Y255375D01*
X332595Y254359D01*
X333611D01*
Y255375D01*
X332595Y256391D01*
X333611Y257407D01*
Y258423D01*
X332595D01*
X331579Y257407D01*
X330563Y258423D01*
X329547D01*
Y257407D01*
X330563Y256391D01*
X329547Y255375D01*
Y254359D01*
X260968Y178968D02*
X261984D01*
X263000Y179984D01*
X264016Y178968D01*
X265032D01*
Y179984D01*
X264016Y181000D01*
X265032Y182016D01*
Y183032D01*
X264016D01*
X263000Y182016D01*
X261984Y183032D01*
X260968D01*
Y182016D01*
X261984Y181000D01*
X260968Y179984D01*
Y178968D01*
X267171Y196647D02*
X268188D01*
X269203Y197663D01*
X270219Y196647D01*
X271236D01*
Y197663D01*
X270219Y198679D01*
X271236Y199695D01*
Y200711D01*
X270219D01*
X269203Y199695D01*
X268188Y200711D01*
X267171D01*
Y199695D01*
X268188Y198679D01*
X267171Y197663D01*
Y196647D01*
X62377Y411926D02*
X63393D01*
X64409Y412942D01*
X65425Y411926D01*
X66441D01*
Y412942D01*
X65425Y413958D01*
X66441Y414974D01*
Y415990D01*
X65425D01*
X64409Y414974D01*
X63393Y415990D01*
X62377D01*
Y414974D01*
X63393Y413958D01*
X62377Y412942D01*
Y411926D01*
X92968Y445968D02*
X93984D01*
X95000Y446984D01*
X96016Y445968D01*
X97032D01*
Y446984D01*
X96016Y448000D01*
X97032Y449016D01*
Y450032D01*
X96016D01*
X95000Y449016D01*
X93984Y450032D01*
X92968D01*
Y449016D01*
X93984Y448000D01*
X92968Y446984D01*
Y445968D01*
X143968Y401968D02*
X144984D01*
X146000Y402984D01*
X147016Y401968D01*
X148032D01*
Y402984D01*
X147016Y404000D01*
X148032Y405016D01*
Y406032D01*
X147016D01*
X146000Y405016D01*
X144984Y406032D01*
X143968D01*
Y405016D01*
X144984Y404000D01*
X143968Y402984D01*
Y401968D01*
X120968Y378968D02*
X121984D01*
X123000Y379984D01*
X124016Y378968D01*
X125032D01*
Y379984D01*
X124016Y381000D01*
X125032Y382016D01*
Y383032D01*
X124016D01*
X123000Y382016D01*
X121984Y383032D01*
X120968D01*
Y382016D01*
X121984Y381000D01*
X120968Y379984D01*
Y378968D01*
X125006Y350330D02*
X126022D01*
X127038Y351346D01*
X128054Y350330D01*
X129070D01*
Y351346D01*
X128054Y352362D01*
X129070Y353378D01*
Y354394D01*
X128054D01*
X127038Y353378D01*
X126022Y354394D01*
X125006D01*
Y353378D01*
X126022Y352362D01*
X125006Y351346D01*
Y350330D01*
X139988Y377440D02*
X141004D01*
X142020Y378456D01*
X143036Y377440D01*
X144052D01*
Y378456D01*
X143036Y379473D01*
X144052Y380489D01*
Y381505D01*
X143036D01*
X142020Y380489D01*
X141004Y381505D01*
X139988D01*
Y380489D01*
X141004Y379473D01*
X139988Y378456D01*
Y377440D01*
X113802Y375758D02*
X114818D01*
X115834Y376774D01*
X116850Y375758D01*
X117866D01*
Y376774D01*
X116850Y377790D01*
X117866Y378806D01*
Y379822D01*
X116850D01*
X115834Y378806D01*
X114818Y379822D01*
X113802D01*
Y378806D01*
X114818Y377790D01*
X113802Y376774D01*
Y375758D01*
X113914Y404559D02*
X114930D01*
X115946Y405575D01*
X116962Y404559D01*
X117978D01*
Y405575D01*
X116962Y406591D01*
X117978Y407607D01*
Y408623D01*
X116962D01*
X115946Y407607D01*
X114930Y408623D01*
X113914D01*
Y407607D01*
X114930Y406591D01*
X113914Y405575D01*
Y404559D01*
X142968Y385968D02*
X143984D01*
X145000Y386984D01*
X146016Y385968D01*
X147032D01*
Y386984D01*
X146016Y388000D01*
X147032Y389016D01*
Y390032D01*
X146016D01*
X145000Y389016D01*
X143984Y390032D01*
X142968D01*
Y389016D01*
X143984Y388000D01*
X142968Y386984D01*
Y385968D01*
X145180Y438460D02*
X146196D01*
X147212Y439476D01*
X148228Y438460D01*
X149244D01*
Y439476D01*
X148228Y440492D01*
X149244Y441508D01*
Y442524D01*
X148228D01*
X147212Y441508D01*
X146196Y442524D01*
X145180D01*
Y441508D01*
X146196Y440492D01*
X145180Y439476D01*
Y438460D01*
X141179Y410472D02*
X142195D01*
X143211Y411488D01*
X144227Y410472D01*
X145243D01*
Y411488D01*
X144227Y412504D01*
X145243Y413520D01*
Y414536D01*
X144227D01*
X143211Y413520D01*
X142195Y414536D01*
X141179D01*
Y413520D01*
X142195Y412504D01*
X141179Y411488D01*
Y410472D01*
X115380Y459840D02*
X116396D01*
X117412Y460856D01*
X118428Y459840D01*
X119444D01*
Y460856D01*
X118428Y461872D01*
X119444Y462888D01*
Y463904D01*
X118428D01*
X117412Y462888D01*
X116396Y463904D01*
X115380D01*
Y462888D01*
X116396Y461872D01*
X115380Y460856D01*
Y459840D01*
X129218Y272628D02*
X130234D01*
X131250Y273644D01*
X132266Y272628D01*
X133282D01*
Y273644D01*
X132266Y274660D01*
X133282Y275676D01*
Y276692D01*
X132266D01*
X131250Y275676D01*
X130234Y276692D01*
X129218D01*
Y275676D01*
X130234Y274660D01*
X129218Y273644D01*
Y272628D01*
X58948Y292160D02*
X59964D01*
X60980Y293176D01*
X61996Y292160D01*
X63012D01*
Y293176D01*
X61996Y294192D01*
X63012Y295208D01*
Y296224D01*
X61996D01*
X60980Y295208D01*
X59964Y296224D01*
X58948D01*
Y295208D01*
X59964Y294192D01*
X58948Y293176D01*
Y292160D01*
X79218Y172628D02*
X80234D01*
X81250Y173644D01*
X82266Y172628D01*
X83282D01*
Y173644D01*
X82266Y174660D01*
X83282Y175676D01*
Y176692D01*
X82266D01*
X81250Y175676D01*
X80234Y176692D01*
X79218D01*
Y175676D01*
X80234Y174660D01*
X79218Y173644D01*
Y172628D01*
X126218D02*
X127234D01*
X128250Y173644D01*
X129266Y172628D01*
X130282D01*
Y173644D01*
X129266Y174660D01*
X130282Y175676D01*
Y176692D01*
X129266D01*
X128250Y175676D01*
X127234Y176692D01*
X126218D01*
Y175676D01*
X127234Y174660D01*
X126218Y173644D01*
Y172628D01*
Y155628D02*
X127234D01*
X128250Y156644D01*
X129266Y155628D01*
X130282D01*
Y156644D01*
X129266Y157660D01*
X130282Y158676D01*
Y159692D01*
X129266D01*
X128250Y158676D01*
X127234Y159692D01*
X126218D01*
Y158676D01*
X127234Y157660D01*
X126218Y156644D01*
Y155628D01*
X46218Y315628D02*
X47234D01*
X48250Y316644D01*
X49266Y315628D01*
X50282D01*
Y316644D01*
X49266Y317660D01*
X50282Y318676D01*
Y319692D01*
X49266D01*
X48250Y318676D01*
X47234Y319692D01*
X46218D01*
Y318676D01*
X47234Y317660D01*
X46218Y316644D01*
Y315628D01*
X9150Y299697D02*
X10166D01*
X11182Y300713D01*
X12198Y299697D01*
X13214D01*
Y300713D01*
X12198Y301728D01*
X13214Y302745D01*
Y303761D01*
X12198D01*
X11182Y302745D01*
X10166Y303761D01*
X9150D01*
Y302745D01*
X10166Y301728D01*
X9150Y300713D01*
Y299697D01*
X276224Y240415D02*
X277240D01*
X278256Y241431D01*
X279272Y240415D01*
X280288D01*
Y241431D01*
X279272Y242447D01*
X280288Y243463D01*
Y244479D01*
X279272D01*
X278256Y243463D01*
X277240Y244479D01*
X276224D01*
Y243463D01*
X277240Y242447D01*
X276224Y241431D01*
Y240415D01*
X650968Y128968D02*
X651984D01*
X653000Y129984D01*
X654016Y128968D01*
X655032D01*
Y129984D01*
X654016Y131000D01*
X655032Y132016D01*
Y133032D01*
X654016D01*
X653000Y132016D01*
X651984Y133032D01*
X650968D01*
Y132016D01*
X651984Y131000D01*
X650968Y129984D01*
Y128968D01*
X105968Y272968D02*
X106984D01*
X108000Y273984D01*
X109016Y272968D01*
X110032D01*
Y273984D01*
X109016Y275000D01*
X110032Y276016D01*
Y277032D01*
X109016D01*
X108000Y276016D01*
X106984Y277032D01*
X105968D01*
Y276016D01*
X106984Y275000D01*
X105968Y273984D01*
Y272968D01*
X108968Y259968D02*
X109984D01*
X111000Y260984D01*
X112016Y259968D01*
X113032D01*
Y260984D01*
X112016Y262000D01*
X113032Y263016D01*
Y264032D01*
X112016D01*
X111000Y263016D01*
X109984Y264032D01*
X108968D01*
Y263016D01*
X109984Y262000D01*
X108968Y260984D01*
Y259968D01*
X116968D02*
X117984D01*
X119000Y260984D01*
X120016Y259968D01*
X121032D01*
Y260984D01*
X120016Y262000D01*
X121032Y263016D01*
Y264032D01*
X120016D01*
X119000Y263016D01*
X117984Y264032D01*
X116968D01*
Y263016D01*
X117984Y262000D01*
X116968Y260984D01*
Y259968D01*
X77011Y331784D02*
X78027D01*
X79043Y332800D01*
X80059Y331784D01*
X81075D01*
Y332800D01*
X80059Y333816D01*
X81075Y334832D01*
Y335848D01*
X80059D01*
X79043Y334832D01*
X78027Y335848D01*
X77011D01*
Y334832D01*
X78027Y333816D01*
X77011Y332800D01*
Y331784D01*
X92775Y292290D02*
X93791D01*
X94807Y293306D01*
X95823Y292290D01*
X96839D01*
Y293306D01*
X95823Y294322D01*
X96839Y295338D01*
Y296354D01*
X95823D01*
X94807Y295338D01*
X93791Y296354D01*
X92775D01*
Y295338D01*
X93791Y294322D01*
X92775Y293306D01*
Y292290D01*
X101053Y317288D02*
X102070D01*
X103085Y318304D01*
X104101Y317288D01*
X105118D01*
Y318304D01*
X104101Y319320D01*
X105118Y320336D01*
Y321352D01*
X104101D01*
X103085Y320336D01*
X102070Y321352D01*
X101053D01*
Y320336D01*
X102070Y319320D01*
X101053Y318304D01*
Y317288D01*
X72599Y360635D02*
X73615D01*
X74630Y361651D01*
X75647Y360635D01*
X76663D01*
Y361651D01*
X75647Y362667D01*
X76663Y363683D01*
Y364699D01*
X75647D01*
X74630Y363683D01*
X73615Y364699D01*
X72599D01*
Y363683D01*
X73615Y362667D01*
X72599Y361651D01*
Y360635D01*
X101599Y415746D02*
X102615D01*
X103631Y416762D01*
X104647Y415746D01*
X105663D01*
Y416762D01*
X104647Y417778D01*
X105663Y418794D01*
Y419810D01*
X104647D01*
X103631Y418794D01*
X102615Y419810D01*
X101599D01*
Y418794D01*
X102615Y417778D01*
X101599Y416762D01*
Y415746D01*
X34968Y349968D02*
X35984D01*
X37000Y350984D01*
X38016Y349968D01*
X39032D01*
Y350984D01*
X38016Y352000D01*
X39032Y353016D01*
Y354032D01*
X38016D01*
X37000Y353016D01*
X35984Y354032D01*
X34968D01*
Y353016D01*
X35984Y352000D01*
X34968Y350984D01*
Y349968D01*
X69319Y269608D02*
X70335D01*
X71351Y270624D01*
X72367Y269608D01*
X73383D01*
Y270624D01*
X72367Y271640D01*
X73383Y272656D01*
Y273672D01*
X72367D01*
X71351Y272656D01*
X70335Y273672D01*
X69319D01*
Y272656D01*
X70335Y271640D01*
X69319Y270624D01*
Y269608D01*
X556968Y457968D02*
X557984D01*
X559000Y458984D01*
X560016Y457968D01*
X561032D01*
Y458984D01*
X560016Y460000D01*
X561032Y461016D01*
Y462032D01*
X560016D01*
X559000Y461016D01*
X557984Y462032D01*
X556968D01*
Y461016D01*
X557984Y460000D01*
X556968Y458984D01*
Y457968D01*
X563968Y454968D02*
X564984D01*
X566000Y455984D01*
X567016Y454968D01*
X568032D01*
Y455984D01*
X567016Y457000D01*
X568032Y458016D01*
Y459032D01*
X567016D01*
X566000Y458016D01*
X564984Y459032D01*
X563968D01*
Y458016D01*
X564984Y457000D01*
X563968Y455984D01*
Y454968D01*
X620968Y256968D02*
X621984D01*
X623000Y257984D01*
X624016Y256968D01*
X625032D01*
Y257984D01*
X624016Y259000D01*
X625032Y260016D01*
Y261032D01*
X624016D01*
X623000Y260016D01*
X621984Y261032D01*
X620968D01*
Y260016D01*
X621984Y259000D01*
X620968Y257984D01*
Y256968D01*
X573053Y299828D02*
X574069D01*
X575085Y300844D01*
X576101Y299828D01*
X577117D01*
Y300844D01*
X576101Y301860D01*
X577117Y302876D01*
Y303892D01*
X576101D01*
X575085Y302876D01*
X574069Y303892D01*
X573053D01*
Y302876D01*
X574069Y301860D01*
X573053Y300844D01*
Y299828D01*
X578163Y294634D02*
X579179D01*
X580196Y295650D01*
X581212Y294634D01*
X582228D01*
Y295650D01*
X581212Y296666D01*
X582228Y297682D01*
Y298698D01*
X581212D01*
X580196Y297682D01*
X579179Y298698D01*
X578163D01*
Y297682D01*
X579179Y296666D01*
X578163Y295650D01*
Y294634D01*
X588551Y295357D02*
X589567D01*
X590583Y296373D01*
X591599Y295357D01*
X592615D01*
Y296373D01*
X591599Y297388D01*
X592615Y298405D01*
Y299421D01*
X591599D01*
X590583Y298405D01*
X589567Y299421D01*
X588551D01*
Y298405D01*
X589567Y297388D01*
X588551Y296373D01*
Y295357D01*
X643072Y239557D02*
X644088D01*
X645104Y240573D01*
X646120Y239557D01*
X647136D01*
Y240573D01*
X646120Y241589D01*
X647136Y242605D01*
Y243621D01*
X646120D01*
X645104Y242605D01*
X644088Y243621D01*
X643072D01*
Y242605D01*
X644088Y241589D01*
X643072Y240573D01*
Y239557D01*
X612468Y148130D02*
X613484D01*
X614500Y149145D01*
X615516Y148130D01*
X616532D01*
Y149145D01*
X615516Y150162D01*
X616532Y151178D01*
Y152193D01*
X615516D01*
X614500Y151178D01*
X613484Y152193D01*
X612468D01*
Y151178D01*
X613484Y150162D01*
X612468Y149145D01*
Y148130D01*
X612619Y140470D02*
X613635D01*
X614651Y141486D01*
X615667Y140470D01*
X616683D01*
Y141486D01*
X615667Y142502D01*
X616683Y143518D01*
Y144534D01*
X615667D01*
X614651Y143518D01*
X613635Y144534D01*
X612619D01*
Y143518D01*
X613635Y142502D01*
X612619Y141486D01*
Y140470D01*
X612468Y163130D02*
X613484D01*
X614500Y164146D01*
X615516Y163130D01*
X616532D01*
Y164146D01*
X615516Y165161D01*
X616532Y166178D01*
Y167194D01*
X615516D01*
X614500Y166178D01*
X613484Y167194D01*
X612468D01*
Y166178D01*
X613484Y165161D01*
X612468Y164146D01*
Y163130D01*
X612468Y177129D02*
X613484D01*
X614500Y178146D01*
X615516Y177129D01*
X616532D01*
Y178146D01*
X615516Y179161D01*
X616532Y180177D01*
Y181194D01*
X615516D01*
X614500Y180177D01*
X613484Y181194D01*
X612468D01*
Y180177D01*
X613484Y179161D01*
X612468Y178146D01*
Y177129D01*
X612468Y191129D02*
X613484D01*
X614500Y192146D01*
X615516Y191129D01*
X616532D01*
Y192146D01*
X615516Y193162D01*
X616532Y194177D01*
Y195194D01*
X615516D01*
X614500Y194177D01*
X613484Y195194D01*
X612468D01*
Y194177D01*
X613484Y193162D01*
X612468Y192146D01*
Y191129D01*
X612426Y214031D02*
X613442D01*
X614458Y215047D01*
X615474Y214031D01*
X616490D01*
Y215047D01*
X615474Y216063D01*
X616490Y217079D01*
Y218095D01*
X615474D01*
X614458Y217079D01*
X613442Y218095D01*
X612426D01*
Y217079D01*
X613442Y216063D01*
X612426Y215047D01*
Y214031D01*
X584968Y106968D02*
X585984D01*
X587000Y107984D01*
X588016Y106968D01*
X589032D01*
Y107984D01*
X588016Y109000D01*
X589032Y110016D01*
Y111032D01*
X588016D01*
X587000Y110016D01*
X585984Y111032D01*
X584968D01*
Y110016D01*
X585984Y109000D01*
X584968Y107984D01*
Y106968D01*
X551393Y99170D02*
X552409D01*
X553425Y100186D01*
X554441Y99170D01*
X555457D01*
Y100186D01*
X554441Y101202D01*
X555457Y102218D01*
Y103234D01*
X554441D01*
X553425Y102218D01*
X552409Y103234D01*
X551393D01*
Y102218D01*
X552409Y101202D01*
X551393Y100186D01*
Y99170D01*
X138683Y340869D02*
X139699D01*
X140715Y341885D01*
X141731Y340869D01*
X142747D01*
Y341885D01*
X141731Y342901D01*
X142747Y343918D01*
Y344934D01*
X141731D01*
X140715Y343918D01*
X139699Y344934D01*
X138683D01*
Y343918D01*
X139699Y342901D01*
X138683Y341885D01*
Y340869D01*
X441957Y246773D02*
X442973D01*
X443989Y247789D01*
X445005Y246773D01*
X446021D01*
Y247789D01*
X445005Y248805D01*
X446021Y249821D01*
Y250837D01*
X445005D01*
X443989Y249821D01*
X442973Y250837D01*
X441957D01*
Y249821D01*
X442973Y248805D01*
X441957Y247789D01*
Y246773D01*
X643968Y332968D02*
X644984D01*
X646000Y333984D01*
X647016Y332968D01*
X648032D01*
Y333984D01*
X647016Y335000D01*
X648032Y336016D01*
Y337032D01*
X647016D01*
X646000Y336016D01*
X644984Y337032D01*
X643968D01*
Y336016D01*
X644984Y335000D01*
X643968Y333984D01*
Y332968D01*
X62528Y401503D02*
X63544D01*
X64560Y402519D01*
X65576Y401503D01*
X66592D01*
Y402519D01*
X65576Y403535D01*
X66592Y404551D01*
Y405567D01*
X65576D01*
X64560Y404551D01*
X63544Y405567D01*
X62528D01*
Y404551D01*
X63544Y403535D01*
X62528Y402519D01*
Y401503D01*
X390247Y259124D02*
X391263D01*
X392279Y260140D01*
X393295Y259124D01*
X394311D01*
Y260140D01*
X393295Y261156D01*
X394311Y262172D01*
Y263188D01*
X393295D01*
X392279Y262172D01*
X391263Y263188D01*
X390247D01*
Y262172D01*
X391263Y261156D01*
X390247Y260140D01*
Y259124D01*
X604342Y286268D02*
X605358D01*
X606374Y287284D01*
X607390Y286268D01*
X608406D01*
Y287284D01*
X607390Y288300D01*
X608406Y289316D01*
Y290332D01*
X607390D01*
X606374Y289316D01*
X605358Y290332D01*
X604342D01*
Y289316D01*
X605358Y288300D01*
X604342Y287284D01*
Y286268D01*
X286560Y374637D02*
X287575D01*
X288591Y375653D01*
X289608Y374637D01*
X290623D01*
Y375653D01*
X289608Y376669D01*
X290623Y377685D01*
Y378701D01*
X289608D01*
X288591Y377685D01*
X287575Y378701D01*
X286560D01*
Y377685D01*
X287575Y376669D01*
X286560Y375653D01*
Y374637D01*
X201084Y351947D02*
X202099D01*
X203116Y352963D01*
X204132Y351947D01*
X205147D01*
Y352963D01*
X204132Y353979D01*
X205147Y354995D01*
Y356011D01*
X204132D01*
X203116Y354995D01*
X202099Y356011D01*
X201084D01*
Y354995D01*
X202099Y353979D01*
X201084Y352963D01*
Y351947D01*
X612968Y326968D02*
X613984D01*
X615000Y327984D01*
X616016Y326968D01*
X617032D01*
Y327984D01*
X616016Y329000D01*
X617032Y330016D01*
Y331032D01*
X616016D01*
X615000Y330016D01*
X613984Y331032D01*
X612968D01*
Y330016D01*
X613984Y329000D01*
X612968Y327984D01*
Y326968D01*
X615382Y381846D02*
X616398D01*
X617414Y382862D01*
X618430Y381846D01*
X619446D01*
Y382862D01*
X618430Y383878D01*
X619446Y384894D01*
Y385910D01*
X618430D01*
X617414Y384894D01*
X616398Y385910D01*
X615382D01*
Y384894D01*
X616398Y383878D01*
X615382Y382862D01*
Y381846D01*
X595968Y389968D02*
X596984D01*
X598000Y390984D01*
X599016Y389968D01*
X600032D01*
Y390984D01*
X599016Y392000D01*
X600032Y393016D01*
Y394032D01*
X599016D01*
X598000Y393016D01*
X596984Y394032D01*
X595968D01*
Y393016D01*
X596984Y392000D01*
X595968Y390984D01*
Y389968D01*
Y397968D02*
X596984D01*
X598000Y398984D01*
X599016Y397968D01*
X600032D01*
Y398984D01*
X599016Y400000D01*
X600032Y401016D01*
Y402032D01*
X599016D01*
X598000Y401016D01*
X596984Y402032D01*
X595968D01*
Y401016D01*
X596984Y400000D01*
X595968Y398984D01*
Y397968D01*
X604989Y398325D02*
X606005D01*
X607021Y399341D01*
X608037Y398325D01*
X609053D01*
Y399341D01*
X608037Y400357D01*
X609053Y401373D01*
Y402389D01*
X608037D01*
X607021Y401373D01*
X606005Y402389D01*
X604989D01*
Y401373D01*
X606005Y400357D01*
X604989Y399341D01*
Y398325D01*
X407568Y355368D02*
X408584D01*
X409600Y356384D01*
X410616Y355368D01*
X411632D01*
Y356384D01*
X410616Y357400D01*
X411632Y358416D01*
Y359432D01*
X410616D01*
X409600Y358416D01*
X408584Y359432D01*
X407568D01*
Y358416D01*
X408584Y357400D01*
X407568Y356384D01*
Y355368D01*
Y381368D02*
X408584D01*
X409600Y382384D01*
X410616Y381368D01*
X411632D01*
Y382384D01*
X410616Y383400D01*
X411632Y384416D01*
Y385432D01*
X410616D01*
X409600Y384416D01*
X408584Y385432D01*
X407568D01*
Y384416D01*
X408584Y383400D01*
X407568Y382384D01*
Y381368D01*
X488568Y55368D02*
X489584D01*
X490600Y56384D01*
X491616Y55368D01*
X492632D01*
Y56384D01*
X491616Y57400D01*
X492632Y58416D01*
Y59432D01*
X491616D01*
X490600Y58416D01*
X489584Y59432D01*
X488568D01*
Y58416D01*
X489584Y57400D01*
X488568Y56384D01*
Y55368D01*
X391568Y16368D02*
X392584D01*
X393600Y17384D01*
X394616Y16368D01*
X395632D01*
Y17384D01*
X394616Y18400D01*
X395632Y19416D01*
Y20432D01*
X394616D01*
X393600Y19416D01*
X392584Y20432D01*
X391568D01*
Y19416D01*
X392584Y18400D01*
X391568Y17384D01*
Y16368D01*
X327568Y38368D02*
X328584D01*
X329600Y39384D01*
X330616Y38368D01*
X331632D01*
Y39384D01*
X330616Y40400D01*
X331632Y41416D01*
Y42432D01*
X330616D01*
X329600Y41416D01*
X328584Y42432D01*
X327568D01*
Y41416D01*
X328584Y40400D01*
X327568Y39384D01*
Y38368D01*
X277568D02*
X278584D01*
X279600Y39384D01*
X280616Y38368D01*
X281632D01*
Y39384D01*
X280616Y40400D01*
X281632Y41416D01*
Y42432D01*
X280616D01*
X279600Y41416D01*
X278584Y42432D01*
X277568D01*
Y41416D01*
X278584Y40400D01*
X277568Y39384D01*
Y38368D01*
X210968Y245968D02*
X211984D01*
X213000Y246984D01*
X214016Y245968D01*
X215032D01*
Y246984D01*
X214016Y248000D01*
X215032Y249016D01*
Y250032D01*
X214016D01*
X213000Y249016D01*
X211984Y250032D01*
X210968D01*
Y249016D01*
X211984Y248000D01*
X210968Y246984D01*
Y245968D01*
X658568Y198368D02*
X659584D01*
X660600Y199384D01*
X661616Y198368D01*
X662632D01*
Y199384D01*
X661616Y200400D01*
X662632Y201416D01*
Y202432D01*
X661616D01*
X660600Y201416D01*
X659584Y202432D01*
X658568D01*
Y201416D01*
X659584Y200400D01*
X658568Y199384D01*
Y198368D01*
X214351Y269626D02*
X215367D01*
X216383Y270642D01*
X217399Y269626D01*
X218415D01*
Y270642D01*
X217399Y271658D01*
X218415Y272674D01*
Y273690D01*
X217399D01*
X216383Y272674D01*
X215367Y273690D01*
X214351D01*
Y272674D01*
X215367Y271658D01*
X214351Y270642D01*
Y269626D01*
X272718Y277339D02*
X273734D01*
X274750Y278355D01*
X275766Y277339D01*
X276782D01*
Y278355D01*
X275766Y279371D01*
X276782Y280387D01*
Y281403D01*
X275766D01*
X274750Y280387D01*
X273734Y281403D01*
X272718D01*
Y280387D01*
X273734Y279371D01*
X272718Y278355D01*
Y277339D01*
X265698Y270318D02*
X266714D01*
X267730Y271334D01*
X268746Y270318D01*
X269762D01*
Y271334D01*
X268746Y272350D01*
X269762Y273366D01*
Y274382D01*
X268746D01*
X267730Y273366D01*
X266714Y274382D01*
X265698D01*
Y273366D01*
X266714Y272350D01*
X265698Y271334D01*
Y270318D01*
X221857Y217358D02*
X222873D01*
X223889Y218374D01*
X224905Y217358D01*
X225921D01*
Y218374D01*
X224905Y219389D01*
X225921Y220406D01*
Y221422D01*
X224905D01*
X223889Y220406D01*
X222873Y221422D01*
X221857D01*
Y220406D01*
X222873Y219389D01*
X221857Y218374D01*
Y217358D01*
X138428Y259728D02*
X139444D01*
X140460Y260744D01*
X141476Y259728D01*
X142492D01*
Y260744D01*
X141476Y261760D01*
X142492Y262776D01*
Y263792D01*
X141476D01*
X140460Y262776D01*
X139444Y263792D01*
X138428D01*
Y262776D01*
X139444Y261760D01*
X138428Y260744D01*
Y259728D01*
X186428Y269728D02*
X187444D01*
X188460Y270744D01*
X189476Y269728D01*
X190492D01*
Y270744D01*
X189476Y271760D01*
X190492Y272776D01*
Y273792D01*
X189476D01*
X188460Y272776D01*
X187444Y273792D01*
X186428D01*
Y272776D01*
X187444Y271760D01*
X186428Y270744D01*
Y269728D01*
X453428Y346728D02*
X454444D01*
X455460Y347744D01*
X456476Y346728D01*
X457492D01*
Y347744D01*
X456476Y348760D01*
X457492Y349776D01*
Y350792D01*
X456476D01*
X455460Y349776D01*
X454444Y350792D01*
X453428D01*
Y349776D01*
X454444Y348760D01*
X453428Y347744D01*
Y346728D01*
X138903Y356112D02*
X139919D01*
X140935Y357128D01*
X141951Y356112D01*
X142967D01*
Y357128D01*
X141951Y358144D01*
X142967Y359160D01*
Y360176D01*
X141951D01*
X140935Y359160D01*
X139919Y360176D01*
X138903D01*
Y359160D01*
X139919Y358144D01*
X138903Y357128D01*
Y356112D01*
X407428Y364593D02*
X408444D01*
X409460Y365609D01*
X410476Y364593D01*
X411492D01*
Y365609D01*
X410476Y366625D01*
X411492Y367641D01*
Y368657D01*
X410476D01*
X409460Y367641D01*
X408444Y368657D01*
X407428D01*
Y367641D01*
X408444Y366625D01*
X407428Y365609D01*
Y364593D01*
Y371863D02*
X408444D01*
X409460Y372879D01*
X410476Y371863D01*
X411492D01*
Y372879D01*
X410476Y373895D01*
X411492Y374911D01*
Y375927D01*
X410476D01*
X409460Y374911D01*
X408444Y375927D01*
X407428D01*
Y374911D01*
X408444Y373895D01*
X407428Y372879D01*
Y371863D01*
X449167Y314413D02*
X450183D01*
X451199Y315429D01*
X452215Y314413D01*
X453231D01*
Y315429D01*
X452215Y316445D01*
X453231Y317461D01*
Y318477D01*
X452215D01*
X451199Y317461D01*
X450183Y318477D01*
X449167D01*
Y317461D01*
X450183Y316445D01*
X449167Y315429D01*
Y314413D01*
X456154Y359065D02*
X457170D01*
X458186Y360081D01*
X459202Y359065D01*
X460218D01*
Y360081D01*
X459202Y361097D01*
X460218Y362113D01*
Y363129D01*
X459202D01*
X458186Y362113D01*
X457170Y363129D01*
X456154D01*
Y362113D01*
X457170Y361097D01*
X456154Y360081D01*
Y359065D01*
X143054Y460064D02*
X144070D01*
X145086Y461080D01*
X146102Y460064D01*
X147118D01*
Y461080D01*
X146102Y462096D01*
X147118Y463112D01*
Y464128D01*
X146102D01*
X145086Y463112D01*
X144070Y464128D01*
X143054D01*
Y463112D01*
X144070Y462096D01*
X143054Y461080D01*
Y460064D01*
X106558Y362588D02*
X107574D01*
X108590Y363604D01*
X109606Y362588D01*
X110622D01*
Y363604D01*
X109606Y364620D01*
X110622Y365636D01*
Y366652D01*
X109606D01*
X108590Y365636D01*
X107574Y366652D01*
X106558D01*
Y365636D01*
X107574Y364620D01*
X106558Y363604D01*
Y362588D01*
X165548Y447548D02*
X166564D01*
X167580Y448564D01*
X168596Y447548D01*
X169612D01*
Y448564D01*
X168596Y449580D01*
X169612Y450596D01*
Y451612D01*
X168596D01*
X167580Y450596D01*
X166564Y451612D01*
X165548D01*
Y450596D01*
X166564Y449580D01*
X165548Y448564D01*
Y447548D01*
X431248Y412248D02*
X432264D01*
X433280Y413264D01*
X434296Y412248D01*
X435312D01*
Y413264D01*
X434296Y414280D01*
X435312Y415296D01*
Y416312D01*
X434296D01*
X433280Y415296D01*
X432264Y416312D01*
X431248D01*
Y415296D01*
X432264Y414280D01*
X431248Y413264D01*
Y412248D01*
X572974Y361108D02*
X573990D01*
X575006Y362124D01*
X576022Y361108D01*
X577038D01*
Y362124D01*
X576022Y363140D01*
X577038Y364156D01*
Y365172D01*
X576022D01*
X575006Y364156D01*
X573990Y365172D01*
X572974D01*
Y364156D01*
X573990Y363140D01*
X572974Y362124D01*
Y361108D01*
X522172Y323437D02*
X523188D01*
X524204Y324453D01*
X525220Y323437D01*
X526236D01*
Y324453D01*
X525220Y325469D01*
X526236Y326485D01*
Y327501D01*
X525220D01*
X524204Y326485D01*
X523188Y327501D01*
X522172D01*
Y326485D01*
X523188Y325469D01*
X522172Y324453D01*
Y323437D01*
X526250Y309303D02*
X527266D01*
X528282Y310319D01*
X529298Y309303D01*
X530314D01*
Y310319D01*
X529298Y311335D01*
X530314Y312351D01*
Y313367D01*
X529298D01*
X528282Y312351D01*
X527266Y313367D01*
X526250D01*
Y312351D01*
X527266Y311335D01*
X526250Y310319D01*
Y309303D01*
X526204Y316578D02*
X527220D01*
X528236Y317594D01*
X529252Y316578D01*
X530268D01*
Y317594D01*
X529252Y318610D01*
X530268Y319626D01*
Y320642D01*
X529252D01*
X528236Y319626D01*
X527220Y320642D01*
X526204D01*
Y319626D01*
X527220Y318610D01*
X526204Y317594D01*
Y316578D01*
X180968Y352968D02*
X181984D01*
X183000Y353984D01*
X184016Y352968D01*
X185032D01*
Y353984D01*
X184016Y355000D01*
X185032Y356016D01*
Y357032D01*
X184016D01*
X183000Y356016D01*
X181984Y357032D01*
X180968D01*
Y356016D01*
X181984Y355000D01*
X180968Y353984D01*
Y352968D01*
X188411Y351971D02*
X189427D01*
X190443Y352987D01*
X191459Y351971D01*
X192475D01*
Y352987D01*
X191459Y354003D01*
X192475Y355019D01*
Y356035D01*
X191459D01*
X190443Y355019D01*
X189427Y356035D01*
X188411D01*
Y355019D01*
X189427Y354003D01*
X188411Y352987D01*
Y351971D01*
X566254Y164023D02*
X567270D01*
X568285Y165039D01*
X569301Y164023D01*
X570317D01*
Y165039D01*
X569301Y166055D01*
X570317Y167071D01*
Y168087D01*
X569301D01*
X568285Y167071D01*
X567270Y168087D01*
X566254D01*
Y167071D01*
X567270Y166055D01*
X566254Y165039D01*
Y164023D01*
X556101Y110976D02*
X557117D01*
X558133Y111992D01*
X559148Y110976D01*
X560164D01*
Y111992D01*
X559148Y113008D01*
X560164Y114024D01*
Y115040D01*
X559148D01*
X558133Y114024D01*
X557117Y115040D01*
X556101D01*
Y114024D01*
X557117Y113008D01*
X556101Y111992D01*
Y110976D01*
X485068Y162069D02*
X486084D01*
X487100Y163085D01*
X488116Y162069D01*
X489132D01*
Y163085D01*
X488116Y164100D01*
X489132Y165117D01*
Y166133D01*
X488116D01*
X487100Y165117D01*
X486084Y166133D01*
X485068D01*
Y165117D01*
X486084Y164100D01*
X485068Y163085D01*
Y162069D01*
X585260Y236666D02*
X586276D01*
X587292Y237682D01*
X588308Y236666D01*
X589324D01*
Y237682D01*
X588308Y238698D01*
X589324Y239714D01*
Y240730D01*
X588308D01*
X587292Y239714D01*
X586276Y240730D01*
X585260D01*
Y239714D01*
X586276Y238698D01*
X585260Y237682D01*
Y236666D01*
X586968Y228968D02*
X587984D01*
X589000Y229984D01*
X590016Y228968D01*
X591032D01*
Y229984D01*
X590016Y231000D01*
X591032Y232016D01*
Y233032D01*
X590016D01*
X589000Y232016D01*
X587984Y233032D01*
X586968D01*
Y232016D01*
X587984Y231000D01*
X586968Y229984D01*
Y228968D01*
X503968Y228062D02*
X504984D01*
X506000Y229079D01*
X507016Y228062D01*
X508032D01*
Y229079D01*
X507016Y230095D01*
X508032Y231110D01*
Y232127D01*
X507016D01*
X506000Y231110D01*
X504984Y232127D01*
X503968D01*
Y231110D01*
X504984Y230095D01*
X503968Y229079D01*
Y228062D01*
X546435Y184501D02*
X547451D01*
X548467Y185517D01*
X549483Y184501D01*
X550499D01*
Y185517D01*
X549483Y186533D01*
X550499Y187549D01*
Y188565D01*
X549483D01*
X548467Y187549D01*
X547451Y188565D01*
X546435D01*
Y187549D01*
X547451Y186533D01*
X546435Y185517D01*
Y184501D01*
X538985Y196014D02*
X540001D01*
X541017Y197030D01*
X542033Y196014D01*
X543049D01*
Y197030D01*
X542033Y198046D01*
X543049Y199062D01*
Y200078D01*
X542033D01*
X541017Y199062D01*
X540001Y200078D01*
X538985D01*
Y199062D01*
X540001Y198046D01*
X538985Y197030D01*
Y196014D01*
X538770Y256784D02*
X539786D01*
X540802Y257800D01*
X541818Y256784D01*
X542834D01*
Y257800D01*
X541818Y258816D01*
X542834Y259832D01*
Y260848D01*
X541818D01*
X540802Y259832D01*
X539786Y260848D01*
X538770D01*
Y259832D01*
X539786Y258816D01*
X538770Y257800D01*
Y256784D01*
X420535Y141941D02*
X421551D01*
X422567Y142957D01*
X423583Y141941D01*
X424599D01*
Y142957D01*
X423583Y143973D01*
X424599Y144989D01*
Y146005D01*
X423583D01*
X422567Y144989D01*
X421551Y146005D01*
X420535D01*
Y144989D01*
X421551Y143973D01*
X420535Y142957D01*
Y141941D01*
X357996Y162266D02*
X359012D01*
X360028Y163282D01*
X361044Y162266D01*
X362060D01*
Y163282D01*
X361044Y164298D01*
X362060Y165314D01*
Y166330D01*
X361044D01*
X360028Y165314D01*
X359012Y166330D01*
X357996D01*
Y165314D01*
X359012Y164298D01*
X357996Y163282D01*
Y162266D01*
X461642Y269276D02*
X462658D01*
X463674Y270292D01*
X464690Y269276D01*
X465706D01*
Y270292D01*
X464690Y271308D01*
X465706Y272324D01*
Y273340D01*
X464690D01*
X463674Y272324D01*
X462658Y273340D01*
X461642D01*
Y272324D01*
X462658Y271308D01*
X461642Y270292D01*
Y269276D01*
X399435Y267976D02*
X400451D01*
X401467Y268992D01*
X402483Y267976D01*
X403499D01*
Y268992D01*
X402483Y270008D01*
X403499Y271024D01*
Y272040D01*
X402483D01*
X401467Y271024D01*
X400451Y272040D01*
X399435D01*
Y271024D01*
X400451Y270008D01*
X399435Y268992D01*
Y267976D01*
X357968Y267968D02*
X358984D01*
X360000Y268984D01*
X361016Y267968D01*
X362032D01*
Y268984D01*
X361016Y270000D01*
X362032Y271016D01*
Y272032D01*
X361016D01*
X360000Y271016D01*
X358984Y272032D01*
X357968D01*
Y271016D01*
X358984Y270000D01*
X357968Y268984D01*
Y267968D01*
X506134Y203610D02*
X507150D01*
X508166Y204626D01*
X509182Y203610D01*
X510198D01*
Y204626D01*
X509182Y205642D01*
X510198Y206658D01*
Y207674D01*
X509182D01*
X508166Y206658D01*
X507150Y207674D01*
X506134D01*
Y206658D01*
X507150Y205642D01*
X506134Y204626D01*
Y203610D01*
X399185Y142796D02*
X400201D01*
X401217Y143812D01*
X402233Y142796D01*
X403249D01*
Y143812D01*
X402233Y144828D01*
X403249Y145844D01*
Y146860D01*
X402233D01*
X401217Y145844D01*
X400201Y146860D01*
X399185D01*
Y145844D01*
X400201Y144828D01*
X399185Y143812D01*
Y142796D01*
X568299Y246231D02*
X569315D01*
X570331Y247246D01*
X571347Y246231D01*
X572363D01*
Y247246D01*
X571347Y248263D01*
X572363Y249279D01*
Y250294D01*
X571347D01*
X570331Y249279D01*
X569315Y250294D01*
X568299D01*
Y249279D01*
X569315Y248263D01*
X568299Y247246D01*
Y246231D01*
X636218Y315648D02*
X637234D01*
X638250Y316664D01*
X639266Y315648D01*
X640282D01*
Y316664D01*
X639266Y317680D01*
X640282Y318696D01*
Y319712D01*
X639266D01*
X638250Y318696D01*
X637234Y319712D01*
X636218D01*
Y318696D01*
X637234Y317680D01*
X636218Y316664D01*
Y315648D01*
X628218D02*
X629234D01*
X630250Y316664D01*
X631266Y315648D01*
X632282D01*
Y316664D01*
X631266Y317680D01*
X632282Y318696D01*
Y319712D01*
X631266D01*
X630250Y318696D01*
X629234Y319712D01*
X628218D01*
Y318696D01*
X629234Y317680D01*
X628218Y316664D01*
Y315648D01*
X459968Y465968D02*
X460984D01*
X462000Y466984D01*
X463016Y465968D01*
X464032D01*
Y466984D01*
X463016Y468000D01*
X464032Y469016D01*
Y470032D01*
X463016D01*
X462000Y469016D01*
X460984Y470032D01*
X459968D01*
Y469016D01*
X460984Y468000D01*
X459968Y466984D01*
Y465968D01*
X159064Y351954D02*
X160079D01*
X161096Y352970D01*
X162111Y351954D01*
X163127D01*
Y352970D01*
X162111Y353986D01*
X163127Y355002D01*
Y356018D01*
X162111D01*
X161096Y355002D01*
X160079Y356018D01*
X159064D01*
Y355002D01*
X160079Y353986D01*
X159064Y352970D01*
Y351954D01*
X661878Y215988D02*
X662894D01*
X663910Y217004D01*
X664926Y215988D01*
X665942D01*
Y217004D01*
X664926Y218020D01*
X665942Y219036D01*
Y220052D01*
X664926D01*
X663910Y219036D01*
X662894Y220052D01*
X661878D01*
Y219036D01*
X662894Y218020D01*
X661878Y217004D01*
Y215988D01*
X664006Y151576D02*
X665022D01*
X666038Y152592D01*
X667054Y151576D01*
X668070D01*
Y152592D01*
X667054Y153608D01*
X668070Y154624D01*
Y155640D01*
X667054D01*
X666038Y154624D01*
X665022Y155640D01*
X664006D01*
Y154624D01*
X665022Y153608D01*
X664006Y152592D01*
Y151576D01*
X556115Y196988D02*
X557131D01*
X558147Y198004D01*
X559163Y196988D01*
X560179D01*
Y198004D01*
X559163Y199020D01*
X560179Y200036D01*
Y201052D01*
X559163D01*
X558147Y200036D01*
X557131Y201052D01*
X556115D01*
Y200036D01*
X557131Y199020D01*
X556115Y198004D01*
Y196988D01*
X584629Y137026D02*
X585645D01*
X586661Y138042D01*
X587677Y137026D01*
X588693D01*
Y138042D01*
X587677Y139058D01*
X588693Y140074D01*
Y141090D01*
X587677D01*
X586661Y140074D01*
X585645Y141090D01*
X584629D01*
Y140074D01*
X585645Y139058D01*
X584629Y138042D01*
Y137026D01*
X556968Y131968D02*
X557984D01*
X559000Y132984D01*
X560016Y131968D01*
X561032D01*
Y132984D01*
X560016Y134000D01*
X561032Y135016D01*
Y136032D01*
X560016D01*
X559000Y135016D01*
X557984Y136032D01*
X556968D01*
Y135016D01*
X557984Y134000D01*
X556968Y132984D01*
Y131968D01*
X543059Y144877D02*
X544075D01*
X545091Y145893D01*
X546107Y144877D01*
X547123D01*
Y145893D01*
X546107Y146909D01*
X547123Y147925D01*
Y148941D01*
X546107D01*
X545091Y147925D01*
X544075Y148941D01*
X543059D01*
Y147925D01*
X544075Y146909D01*
X543059Y145893D01*
Y144877D01*
X494968Y130484D02*
X495984D01*
X497000Y131500D01*
X498016Y130484D01*
X499032D01*
Y131500D01*
X498016Y132516D01*
X499032Y133532D01*
Y134548D01*
X498016D01*
X497000Y133532D01*
X495984Y134548D01*
X494968D01*
Y133532D01*
X495984Y132516D01*
X494968Y131500D01*
Y130484D01*
X482286Y122378D02*
X483302D01*
X484318Y123394D01*
X485334Y122378D01*
X486350D01*
Y123394D01*
X485334Y124410D01*
X486350Y125426D01*
Y126442D01*
X485334D01*
X484318Y125426D01*
X483302Y126442D01*
X482286D01*
Y125426D01*
X483302Y124410D01*
X482286Y123394D01*
Y122378D01*
X493873Y175317D02*
X494889D01*
X495905Y176333D01*
X496921Y175317D01*
X497937D01*
Y176333D01*
X496921Y177349D01*
X497937Y178365D01*
Y179381D01*
X496921D01*
X495905Y178365D01*
X494889Y179381D01*
X493873D01*
Y178365D01*
X494889Y177349D01*
X493873Y176333D01*
Y175317D01*
X500968Y187968D02*
X501984D01*
X503000Y188984D01*
X504016Y187968D01*
X505032D01*
Y188984D01*
X504016Y190000D01*
X505032Y191016D01*
Y192032D01*
X504016D01*
X503000Y191016D01*
X501984Y192032D01*
X500968D01*
Y191016D01*
X501984Y190000D01*
X500968Y188984D01*
Y187968D01*
X515161Y152616D02*
X516177D01*
X517193Y153632D01*
X518209Y152616D01*
X519225D01*
Y153632D01*
X518209Y154648D01*
X519225Y155664D01*
Y156680D01*
X518209D01*
X517193Y155664D01*
X516177Y156680D01*
X515161D01*
Y155664D01*
X516177Y154648D01*
X515161Y153632D01*
Y152616D01*
X555968Y154316D02*
X556984D01*
X558000Y155331D01*
X559016Y154316D01*
X560032D01*
Y155331D01*
X559016Y156348D01*
X560032Y157364D01*
Y158379D01*
X559016D01*
X558000Y157364D01*
X556984Y158379D01*
X555968D01*
Y157364D01*
X556984Y156348D01*
X555968Y155331D01*
Y154316D01*
X474079Y295677D02*
X475095D01*
X476111Y296693D01*
X477127Y295677D01*
X478143D01*
Y296693D01*
X477127Y297709D01*
X478143Y298725D01*
Y299741D01*
X477127D01*
X476111Y298725D01*
X475095Y299741D01*
X474079D01*
Y298725D01*
X475095Y297709D01*
X474079Y296693D01*
Y295677D01*
X493113Y347813D02*
X494129D01*
X495145Y348829D01*
X496161Y347813D01*
X497177D01*
Y348829D01*
X496161Y349845D01*
X497177Y350861D01*
Y351877D01*
X496161D01*
X495145Y350861D01*
X494129Y351877D01*
X493113D01*
Y350861D01*
X494129Y349845D01*
X493113Y348829D01*
Y347813D01*
X439968Y275968D02*
X440984D01*
X442000Y276984D01*
X443016Y275968D01*
X444032D01*
Y276984D01*
X443016Y278000D01*
X444032Y279016D01*
Y280032D01*
X443016D01*
X442000Y279016D01*
X440984Y280032D01*
X439968D01*
Y279016D01*
X440984Y278000D01*
X439968Y276984D01*
Y275968D01*
X473567Y215616D02*
X474583D01*
X475599Y216632D01*
X476615Y215616D01*
X477631D01*
Y216632D01*
X476615Y217648D01*
X477631Y218664D01*
Y219680D01*
X476615D01*
X475599Y218664D01*
X474583Y219680D01*
X473567D01*
Y218664D01*
X474583Y217648D01*
X473567Y216632D01*
Y215616D01*
X474079Y195860D02*
X475095D01*
X476111Y196876D01*
X477127Y195860D01*
X478143D01*
Y196876D01*
X477127Y197892D01*
X478143Y198908D01*
Y199924D01*
X477127D01*
X476111Y198908D01*
X475095Y199924D01*
X474079D01*
Y198908D01*
X475095Y197892D01*
X474079Y196876D01*
Y195860D01*
X514968Y196315D02*
X515984D01*
X517000Y197332D01*
X518016Y196315D01*
X519032D01*
Y197332D01*
X518016Y198347D01*
X519032Y199363D01*
Y200380D01*
X518016D01*
X517000Y199363D01*
X515984Y200380D01*
X514968D01*
Y199363D01*
X515984Y198347D01*
X514968Y197332D01*
Y196315D01*
X454291Y153537D02*
X455308D01*
X456324Y154553D01*
X457340Y153537D01*
X458355D01*
Y154553D01*
X457340Y155569D01*
X458355Y156585D01*
Y157601D01*
X457340D01*
X456324Y156585D01*
X455308Y157601D01*
X454291D01*
Y156585D01*
X455308Y155569D01*
X454291Y154553D01*
Y153537D01*
X441968Y205968D02*
X442984D01*
X444000Y206984D01*
X445016Y205968D01*
X446032D01*
Y206984D01*
X445016Y208000D01*
X446032Y209016D01*
Y210032D01*
X445016D01*
X444000Y209016D01*
X442984Y210032D01*
X441968D01*
Y209016D01*
X442984Y208000D01*
X441968Y206984D01*
Y205968D01*
X421496Y185968D02*
X422511D01*
X423527Y186984D01*
X424543Y185968D01*
X425560D01*
Y186984D01*
X424543Y188000D01*
X425560Y189016D01*
Y190032D01*
X424543D01*
X423527Y189016D01*
X422511Y190032D01*
X421496D01*
Y189016D01*
X422511Y188000D01*
X421496Y186984D01*
Y185968D01*
X409968Y108968D02*
X410984D01*
X412000Y109984D01*
X413016Y108968D01*
X414032D01*
Y109984D01*
X413016Y111000D01*
X414032Y112016D01*
Y113032D01*
X413016D01*
X412000Y112016D01*
X410984Y113032D01*
X409968D01*
Y112016D01*
X410984Y111000D01*
X409968Y109984D01*
Y108968D01*
X431121Y172968D02*
X432137D01*
X433153Y173984D01*
X434169Y172968D01*
X435185D01*
Y173984D01*
X434169Y175000D01*
X435185Y176016D01*
Y177032D01*
X434169D01*
X433153Y176016D01*
X432137Y177032D01*
X431121D01*
Y176016D01*
X432137Y175000D01*
X431121Y173984D01*
Y172968D01*
X368372Y195128D02*
X369388D01*
X370404Y196144D01*
X371420Y195128D01*
X372436D01*
Y196144D01*
X371420Y197160D01*
X372436Y198176D01*
Y199192D01*
X371420D01*
X370404Y198176D01*
X369388Y199192D01*
X368372D01*
Y198176D01*
X369388Y197160D01*
X368372Y196144D01*
Y195128D01*
X346320Y110616D02*
X347336D01*
X348352Y111632D01*
X349368Y110616D01*
X350384D01*
Y111632D01*
X349368Y112648D01*
X350384Y113664D01*
Y114680D01*
X349368D01*
X348352Y113664D01*
X347336Y114680D01*
X346320D01*
Y113664D01*
X347336Y112648D01*
X346320Y111632D01*
Y110616D01*
X357968Y184968D02*
X358984D01*
X360000Y185984D01*
X361016Y184968D01*
X362032D01*
Y185984D01*
X361016Y187000D01*
X362032Y188016D01*
Y189032D01*
X361016D01*
X360000Y188016D01*
X358984Y189032D01*
X357968D01*
Y188016D01*
X358984Y187000D01*
X357968Y185984D01*
Y184968D01*
X451968Y237968D02*
X452984D01*
X454000Y238984D01*
X455016Y237968D01*
X456032D01*
Y238984D01*
X455016Y240000D01*
X456032Y241016D01*
Y242032D01*
X455016D01*
X454000Y241016D01*
X452984Y242032D01*
X451968D01*
Y241016D01*
X452984Y240000D01*
X451968Y238984D01*
Y237968D01*
X442606Y227093D02*
X443622D01*
X444638Y228109D01*
X445654Y227093D01*
X446670D01*
Y228109D01*
X445654Y229125D01*
X446670Y230141D01*
Y231157D01*
X445654D01*
X444638Y230141D01*
X443622Y231157D01*
X442606D01*
Y230141D01*
X443622Y229125D01*
X442606Y228109D01*
Y227093D01*
X429921Y154535D02*
X430937D01*
X431953Y155551D01*
X432969Y154535D01*
X433985D01*
Y155551D01*
X432969Y156567D01*
X433985Y157583D01*
Y158599D01*
X432969D01*
X431953Y157583D01*
X430937Y158599D01*
X429921D01*
Y157583D01*
X430937Y156567D01*
X429921Y155551D01*
Y154535D01*
X400968Y184930D02*
X401984D01*
X403000Y185946D01*
X404016Y184930D01*
X405032D01*
Y185946D01*
X404016Y186962D01*
X405032Y187978D01*
Y188994D01*
X404016D01*
X403000Y187978D01*
X401984Y188994D01*
X400968D01*
Y187978D01*
X401984Y186962D01*
X400968Y185946D01*
Y184930D01*
X391521Y171844D02*
X392537D01*
X393553Y172860D01*
X394569Y171844D01*
X395585D01*
Y172860D01*
X394569Y173876D01*
X395585Y174892D01*
Y175908D01*
X394569D01*
X393553Y174892D01*
X392537Y175908D01*
X391521D01*
Y174892D01*
X392537Y173876D01*
X391521Y172860D01*
Y171844D01*
X377302Y143953D02*
X378318D01*
X379334Y144969D01*
X380350Y143953D01*
X381366D01*
Y144969D01*
X380350Y145985D01*
X381366Y147001D01*
Y148017D01*
X380350D01*
X379334Y147001D01*
X378318Y148017D01*
X377302D01*
Y147001D01*
X378318Y145985D01*
X377302Y144969D01*
Y143953D01*
X377452Y271304D02*
X378468D01*
X379484Y272320D01*
X380500Y271304D01*
X381516D01*
Y272320D01*
X380500Y273336D01*
X381516Y274352D01*
Y275368D01*
X380500D01*
X379484Y274352D01*
X378468Y275368D01*
X377452D01*
Y274352D01*
X378468Y273336D01*
X377452Y272320D01*
Y271304D01*
X73571Y132676D02*
X74587D01*
X75603Y133692D01*
X76619Y132676D01*
X77635D01*
Y133692D01*
X76619Y134707D01*
X77635Y135723D01*
Y136740D01*
X76619D01*
X75603Y135723D01*
X74587Y136740D01*
X73571D01*
Y135723D01*
X74587Y134707D01*
X73571Y133692D01*
Y132676D01*
X474857Y133356D02*
X475873D01*
X476889Y134372D01*
X477905Y133356D01*
X478921D01*
Y134372D01*
X477905Y135388D01*
X478921Y136404D01*
Y137420D01*
X477905D01*
X476889Y136404D01*
X475873Y137420D01*
X474857D01*
Y136404D01*
X475873Y135388D01*
X474857Y134372D01*
Y133356D01*
X499491Y147491D02*
X500507D01*
X501523Y148507D01*
X502539Y147491D01*
X503555D01*
Y148507D01*
X502539Y149523D01*
X503555Y150539D01*
Y151555D01*
X502539D01*
X501523Y150539D01*
X500507Y151555D01*
X499491D01*
Y150539D01*
X500507Y149523D01*
X499491Y148507D01*
Y147491D01*
X368147Y153146D02*
X369162D01*
X370178Y154163D01*
X371194Y153146D01*
X372211D01*
Y154163D01*
X371194Y155178D01*
X372211Y156194D01*
Y157211D01*
X371194D01*
X370178Y156194D01*
X369162Y157211D01*
X368147D01*
Y156194D01*
X369162Y155178D01*
X368147Y154163D01*
Y153146D01*
X538272Y325759D02*
X539288D01*
X540304Y326775D01*
X541320Y325759D01*
X542336D01*
Y326775D01*
X541320Y327791D01*
X542336Y328807D01*
Y329823D01*
X541320D01*
X540304Y328807D01*
X539288Y329823D01*
X538272D01*
Y328807D01*
X539288Y327791D01*
X538272Y326775D01*
Y325759D01*
X543862Y331548D02*
X544878D01*
X545894Y332564D01*
X546910Y331548D01*
X547926D01*
Y332564D01*
X546910Y333580D01*
X547926Y334596D01*
Y335612D01*
X546910D01*
X545894Y334596D01*
X544878Y335612D01*
X543862D01*
Y334596D01*
X544878Y333580D01*
X543862Y332564D01*
Y331548D01*
X533281Y331349D02*
X534297D01*
X535313Y332365D01*
X536329Y331349D01*
X537345D01*
Y332365D01*
X536329Y333381D01*
X537345Y334397D01*
Y335413D01*
X536329D01*
X535313Y334397D01*
X534297Y335413D01*
X533281D01*
Y334397D01*
X534297Y333381D01*
X533281Y332365D01*
Y331349D01*
X586387Y306726D02*
X587403D01*
X588419Y307742D01*
X589435Y306726D01*
X590451D01*
Y307742D01*
X589435Y308758D01*
X590451Y309774D01*
Y310790D01*
X589435D01*
X588419Y309774D01*
X587403Y310790D01*
X586387D01*
Y309774D01*
X587403Y308758D01*
X586387Y307742D01*
Y306726D01*
X592360Y301613D02*
X593376D01*
X594392Y302629D01*
X595408Y301613D01*
X596424D01*
Y302629D01*
X595408Y303645D01*
X596424Y304661D01*
Y305677D01*
X595408D01*
X594392Y304661D01*
X593376Y305677D01*
X592360D01*
Y304661D01*
X593376Y303645D01*
X592360Y302629D01*
Y301613D01*
X616895Y289289D02*
X617911D01*
X618927Y290305D01*
X619943Y289289D01*
X620959D01*
Y290305D01*
X619943Y291321D01*
X620959Y292337D01*
Y293353D01*
X619943D01*
X618927Y292337D01*
X617911Y293353D01*
X616895D01*
Y292337D01*
X617911Y291321D01*
X616895Y290305D01*
Y289289D01*
X168768Y476401D02*
X169784D01*
X170800Y477417D01*
X171816Y476401D01*
X172832D01*
Y477417D01*
X171816Y478433D01*
X172832Y479449D01*
Y480465D01*
X171816D01*
X170800Y479449D01*
X169784Y480465D01*
X168768D01*
Y479449D01*
X169784Y478433D01*
X168768Y477417D01*
Y476401D01*
X456696Y333968D02*
X457712D01*
X458728Y334984D01*
X459744Y333968D01*
X460760D01*
Y334984D01*
X459744Y336000D01*
X460760Y337016D01*
Y338032D01*
X459744D01*
X458728Y337016D01*
X457712Y338032D01*
X456696D01*
Y337016D01*
X457712Y336000D01*
X456696Y334984D01*
Y333968D01*
X512966Y426965D02*
X513982D01*
X514997Y427981D01*
X516013Y426965D01*
X517029D01*
Y427981D01*
X516013Y428997D01*
X517029Y430014D01*
Y431030D01*
X516013D01*
X514997Y430014D01*
X513982Y431030D01*
X512966D01*
Y430014D01*
X513982Y428997D01*
X512966Y427981D01*
Y426965D01*
X446968Y465968D02*
X447984D01*
X449000Y466984D01*
X450016Y465968D01*
X451032D01*
Y466984D01*
X450016Y468000D01*
X451032Y469016D01*
Y470032D01*
X450016D01*
X449000Y469016D01*
X447984Y470032D01*
X446968D01*
Y469016D01*
X447984Y468000D01*
X446968Y466984D01*
Y465968D01*
X453968Y473968D02*
X454984D01*
X456000Y474984D01*
X457016Y473968D01*
X458032D01*
Y474984D01*
X457016Y476000D01*
X458032Y477016D01*
Y478032D01*
X457016D01*
X456000Y477016D01*
X454984Y478032D01*
X453968D01*
Y477016D01*
X454984Y476000D01*
X453968Y474984D01*
Y473968D01*
X572968Y452968D02*
X573984D01*
X575000Y453984D01*
X576016Y452968D01*
X577032D01*
Y453984D01*
X576016Y455000D01*
X577032Y456016D01*
Y457032D01*
X576016D01*
X575000Y456016D01*
X573984Y457032D01*
X572968D01*
Y456016D01*
X573984Y455000D01*
X572968Y453984D01*
Y452968D01*
X574976Y424740D02*
X575992D01*
X577008Y425756D01*
X578024Y424740D01*
X579040D01*
Y425756D01*
X578024Y426772D01*
X579040Y427788D01*
Y428804D01*
X578024D01*
X577008Y427788D01*
X575992Y428804D01*
X574976D01*
Y427788D01*
X575992Y426772D01*
X574976Y425756D01*
Y424740D01*
X543968Y483968D02*
X544984D01*
X546000Y484984D01*
X547016Y483968D01*
X548032D01*
Y484984D01*
X547016Y486000D01*
X548032Y487016D01*
Y488032D01*
X547016D01*
X546000Y487016D01*
X544984Y488032D01*
X543968D01*
Y487016D01*
X544984Y486000D01*
X543968Y484984D01*
Y483968D01*
X518968D02*
X519984D01*
X521000Y484984D01*
X522016Y483968D01*
X523032D01*
Y484984D01*
X522016Y486000D01*
X523032Y487016D01*
Y488032D01*
X522016D01*
X521000Y487016D01*
X519984Y488032D01*
X518968D01*
Y487016D01*
X519984Y486000D01*
X518968Y484984D01*
Y483968D01*
X481468Y350130D02*
X482484D01*
X483500Y351146D01*
X484516Y350130D01*
X485532D01*
Y351146D01*
X484516Y352161D01*
X485532Y353177D01*
Y354193D01*
X484516D01*
X483500Y353177D01*
X482484Y354193D01*
X481468D01*
Y353177D01*
X482484Y352161D01*
X481468Y351146D01*
Y350130D01*
X481277Y342034D02*
X482293D01*
X483309Y343050D01*
X484325Y342034D01*
X485341D01*
Y343050D01*
X484325Y344066D01*
X485341Y345082D01*
Y346098D01*
X484325D01*
X483309Y345082D01*
X482293Y346098D01*
X481277D01*
Y345082D01*
X482293Y344066D01*
X481277Y343050D01*
Y342034D01*
X612468Y202129D02*
X613484D01*
X614500Y203146D01*
X615516Y202129D01*
X616532D01*
Y203146D01*
X615516Y204161D01*
X616532Y205177D01*
Y206194D01*
X615516D01*
X614500Y205177D01*
X613484Y206194D01*
X612468D01*
Y205177D01*
X613484Y204161D01*
X612468Y203146D01*
Y202129D01*
X669968Y318968D02*
X670984D01*
X672000Y319984D01*
X673016Y318968D01*
X674032D01*
Y319984D01*
X673016Y321000D01*
X674032Y322016D01*
Y323032D01*
X673016D01*
X672000Y322016D01*
X670984Y323032D01*
X669968D01*
Y322016D01*
X670984Y321000D01*
X669968Y319984D01*
Y318968D01*
Y326968D02*
X670984D01*
X672000Y327984D01*
X673016Y326968D01*
X674032D01*
Y327984D01*
X673016Y329000D01*
X674032Y330016D01*
Y331032D01*
X673016D01*
X672000Y330016D01*
X670984Y331032D01*
X669968D01*
Y330016D01*
X670984Y329000D01*
X669968Y327984D01*
Y326968D01*
X589433Y313479D02*
X590449D01*
X591465Y314495D01*
X592481Y313479D01*
X593497D01*
Y314495D01*
X592481Y315511D01*
X593497Y316527D01*
Y317543D01*
X592481D01*
X591465Y316527D01*
X590449Y317543D01*
X589433D01*
Y316527D01*
X590449Y315511D01*
X589433Y314495D01*
Y313479D01*
X675968Y236968D02*
X676984D01*
X678000Y237984D01*
X679016Y236968D01*
X680032D01*
Y237984D01*
X679016Y239000D01*
X680032Y240016D01*
Y241032D01*
X679016D01*
X678000Y240016D01*
X676984Y241032D01*
X675968D01*
Y240016D01*
X676984Y239000D01*
X675968Y237984D01*
Y236968D01*
X237968Y191968D02*
X238984D01*
X240000Y192984D01*
X241016Y191968D01*
X242032D01*
Y192984D01*
X241016Y194000D01*
X242032Y195016D01*
Y196032D01*
X241016D01*
X240000Y195016D01*
X238984Y196032D01*
X237968D01*
Y195016D01*
X238984Y194000D01*
X237968Y192984D01*
Y191968D01*
X284363Y262631D02*
X285379D01*
X286395Y263647D01*
X287411Y262631D01*
X288427D01*
Y263647D01*
X287411Y264663D01*
X288427Y265679D01*
Y266695D01*
X287411D01*
X286395Y265679D01*
X285379Y266695D01*
X284363D01*
Y265679D01*
X285379Y264663D01*
X284363Y263647D01*
Y262631D01*
X157488Y316968D02*
X158504D01*
X159520Y317984D01*
X160536Y316968D01*
X161552D01*
Y317984D01*
X160536Y319000D01*
X161552Y320016D01*
Y321032D01*
X160536D01*
X159520Y320016D01*
X158504Y321032D01*
X157488D01*
Y320016D01*
X158504Y319000D01*
X157488Y317984D01*
Y316968D01*
X238336Y217000D02*
X239352D01*
X240368Y218016D01*
X241384Y217000D01*
X242400D01*
Y218016D01*
X241384Y219032D01*
X242400Y220048D01*
Y221064D01*
X241384D01*
X240368Y220048D01*
X239352Y221064D01*
X238336D01*
Y220048D01*
X239352Y219032D01*
X238336Y218016D01*
Y217000D01*
X279218Y218968D02*
X280234D01*
X281250Y219984D01*
X282266Y218968D01*
X283282D01*
Y219984D01*
X282266Y221000D01*
X283282Y222016D01*
Y223032D01*
X282266D01*
X281250Y222016D01*
X280234Y223032D01*
X279218D01*
Y222016D01*
X280234Y221000D01*
X279218Y219984D01*
Y218968D01*
X284958Y204968D02*
X285974D01*
X286990Y205984D01*
X288006Y204968D01*
X289022D01*
Y205984D01*
X288006Y207000D01*
X289022Y208016D01*
Y209032D01*
X288006D01*
X286990Y208016D01*
X285974Y209032D01*
X284958D01*
Y208016D01*
X285974Y207000D01*
X284958Y205984D01*
Y204968D01*
X323468Y269433D02*
X324484D01*
X325500Y270449D01*
X326516Y269433D01*
X327532D01*
Y270449D01*
X326516Y271465D01*
X327532Y272481D01*
Y273497D01*
X326516D01*
X325500Y272481D01*
X324484Y273497D01*
X323468D01*
Y272481D01*
X324484Y271465D01*
X323468Y270449D01*
Y269433D01*
Y249933D02*
X324484D01*
X325500Y250949D01*
X326516Y249933D01*
X327532D01*
Y250949D01*
X326516Y251965D01*
X327532Y252981D01*
Y253997D01*
X326516D01*
X325500Y252981D01*
X324484Y253997D01*
X323468D01*
Y252981D01*
X324484Y251965D01*
X323468Y250949D01*
Y249933D01*
X323618Y230450D02*
X324634D01*
X325650Y231466D01*
X326666Y230450D01*
X327682D01*
Y231466D01*
X326666Y232482D01*
X327682Y233498D01*
Y234514D01*
X326666D01*
X325650Y233498D01*
X324634Y234514D01*
X323618D01*
Y233498D01*
X324634Y232482D01*
X323618Y231466D01*
Y230450D01*
X261218Y218968D02*
X262234D01*
X263250Y219984D01*
X264266Y218968D01*
X265282D01*
Y219984D01*
X264266Y221000D01*
X265282Y222016D01*
Y223032D01*
X264266D01*
X263250Y222016D01*
X262234Y223032D01*
X261218D01*
Y222016D01*
X262234Y221000D01*
X261218Y219984D01*
Y218968D01*
X271218D02*
X272234D01*
X273250Y219984D01*
X274266Y218968D01*
X275282D01*
Y219984D01*
X274266Y221000D01*
X275282Y222016D01*
Y223032D01*
X274266D01*
X273250Y222016D01*
X272234Y223032D01*
X271218D01*
Y222016D01*
X272234Y221000D01*
X271218Y219984D01*
Y218968D01*
X253218D02*
X254234D01*
X255250Y219984D01*
X256266Y218968D01*
X257282D01*
Y219984D01*
X256266Y221000D01*
X257282Y222016D01*
Y223032D01*
X256266D01*
X255250Y222016D01*
X254234Y223032D01*
X253218D01*
Y222016D01*
X254234Y221000D01*
X253218Y219984D01*
Y218968D01*
X245288Y235908D02*
X246304D01*
X247320Y236924D01*
X248336Y235908D01*
X249352D01*
Y236924D01*
X248336Y237940D01*
X249352Y238956D01*
Y239972D01*
X248336D01*
X247320Y238956D01*
X246304Y239972D01*
X245288D01*
Y238956D01*
X246304Y237940D01*
X245288Y236924D01*
Y235908D01*
X323618Y210950D02*
X324634D01*
X325650Y211966D01*
X326666Y210950D01*
X327682D01*
Y211966D01*
X326666Y212982D01*
X327682Y213998D01*
Y215014D01*
X326666D01*
X325650Y213998D01*
X324634Y215014D01*
X323618D01*
Y213998D01*
X324634Y212982D01*
X323618Y211966D01*
Y210950D01*
X423118Y296728D02*
X424134D01*
X425150Y297744D01*
X426166Y296728D01*
X427182D01*
Y297744D01*
X426166Y298760D01*
X427182Y299776D01*
Y300792D01*
X426166D01*
X425150Y299776D01*
X424134Y300792D01*
X423118D01*
Y299776D01*
X424134Y298760D01*
X423118Y297744D01*
Y296728D01*
X74075Y394277D02*
X75091D01*
X76107Y395293D01*
X77123Y394277D01*
X78139D01*
Y395293D01*
X77123Y396309D01*
X78139Y397325D01*
Y398341D01*
X77123D01*
X76107Y397325D01*
X75091Y398341D01*
X74075D01*
Y397325D01*
X75091Y396309D01*
X74075Y395293D01*
Y394277D01*
X69071Y379257D02*
X70087D01*
X71103Y380273D01*
X72119Y379257D01*
X73135D01*
Y380273D01*
X72119Y381289D01*
X73135Y382305D01*
Y383321D01*
X72119D01*
X71103Y382305D01*
X70087Y383321D01*
X69071D01*
Y382305D01*
X70087Y381289D01*
X69071Y380273D01*
Y379257D01*
X71301Y386177D02*
X72317D01*
X73333Y387193D01*
X74349Y386177D01*
X75365D01*
Y387193D01*
X74349Y388209D01*
X75365Y389225D01*
Y390241D01*
X74349D01*
X73333Y389225D01*
X72317Y390241D01*
X71301D01*
Y389225D01*
X72317Y388209D01*
X71301Y387193D01*
Y386177D01*
X484218Y362998D02*
X485234D01*
X486250Y364014D01*
X487266Y362998D01*
X488282D01*
Y364014D01*
X487266Y365030D01*
X488282Y366046D01*
Y367062D01*
X487266D01*
X486250Y366046D01*
X485234Y367062D01*
X484218D01*
Y366046D01*
X485234Y365030D01*
X484218Y364014D01*
Y362998D01*
X262359Y400139D02*
X263375D01*
X264391Y401155D01*
X265407Y400139D01*
X266423D01*
Y401155D01*
X265407Y402171D01*
X266423Y403187D01*
Y404203D01*
X265407D01*
X264391Y403187D01*
X263375Y404203D01*
X262359D01*
Y403187D01*
X263375Y402171D01*
X262359Y401155D01*
Y400139D01*
X257218Y394998D02*
X258234D01*
X259250Y396014D01*
X260266Y394998D01*
X261282D01*
Y396014D01*
X260266Y397030D01*
X261282Y398046D01*
Y399062D01*
X260266D01*
X259250Y398046D01*
X258234Y399062D01*
X257218D01*
Y398046D01*
X258234Y397030D01*
X257218Y396014D01*
Y394998D01*
X456710Y384999D02*
X457726D01*
X458742Y386015D01*
X459758Y384999D01*
X460774D01*
Y386015D01*
X459758Y387031D01*
X460774Y388047D01*
Y389063D01*
X459758D01*
X458742Y388047D01*
X457726Y389063D01*
X456710D01*
Y388047D01*
X457726Y387031D01*
X456710Y386015D01*
Y384999D01*
X647218Y315648D02*
X648234D01*
X649250Y316664D01*
X650266Y315648D01*
X651282D01*
Y316664D01*
X650266Y317680D01*
X651282Y318696D01*
Y319712D01*
X650266D01*
X649250Y318696D01*
X648234Y319712D01*
X647218D01*
Y318696D01*
X648234Y317680D01*
X647218Y316664D01*
Y315648D01*
X614809Y365919D02*
X615825D01*
X616841Y366935D01*
X617857Y365919D01*
X618873D01*
Y366935D01*
X617857Y367951D01*
X618873Y368967D01*
Y369983D01*
X617857D01*
X616841Y368967D01*
X615825Y369983D01*
X614809D01*
Y368967D01*
X615825Y367951D01*
X614809Y366935D01*
Y365919D01*
X601948Y424248D02*
X602964D01*
X603980Y425264D01*
X604996Y424248D01*
X606012D01*
Y425264D01*
X604996Y426280D01*
X606012Y427296D01*
Y428312D01*
X604996D01*
X603980Y427296D01*
X602964Y428312D01*
X601948D01*
Y427296D01*
X602964Y426280D01*
X601948Y425264D01*
Y424248D01*
X459208Y295358D02*
X460224D01*
X461241Y296374D01*
X462257Y295358D01*
X463273D01*
Y296374D01*
X462257Y297390D01*
X463273Y298406D01*
Y299422D01*
X462257D01*
X461241Y298406D01*
X460224Y299422D01*
X459208D01*
Y298406D01*
X460224Y297390D01*
X459208Y296374D01*
Y295358D01*
X94743Y394255D02*
X95759D01*
X96775Y395271D01*
X97791Y394255D01*
X98807D01*
Y395271D01*
X97791Y396287D01*
X98807Y397303D01*
Y398319D01*
X97791D01*
X96775Y397303D01*
X95759Y398319D01*
X94743D01*
Y397303D01*
X95759Y396287D01*
X94743Y395271D01*
Y394255D01*
X620428Y497728D02*
X621444D01*
X622460Y498744D01*
X623476Y497728D01*
X624492D01*
Y498744D01*
X623476Y499760D01*
X624492Y500776D01*
Y501792D01*
X623476D01*
X622460Y500776D01*
X621444Y501792D01*
X620428D01*
Y500776D01*
X621444Y499760D01*
X620428Y498744D01*
Y497728D01*
X184907Y375210D02*
X185923D01*
X186939Y376226D01*
X187955Y375210D01*
X188971D01*
Y376226D01*
X187955Y377242D01*
X188971Y378258D01*
Y379274D01*
X187955D01*
X186939Y378258D01*
X185923Y379274D01*
X184907D01*
Y378258D01*
X185923Y377242D01*
X184907Y376226D01*
Y375210D01*
X58968Y132468D02*
X59984D01*
X61000Y133484D01*
X62016Y132468D01*
X63032D01*
Y133484D01*
X62016Y134500D01*
X63032Y135516D01*
Y136532D01*
X62016D01*
X61000Y135516D01*
X59984Y136532D01*
X58968D01*
Y135516D01*
X59984Y134500D01*
X58968Y133484D01*
Y132468D01*
X69468Y255468D02*
X70484D01*
X71500Y256484D01*
X72516Y255468D01*
X73532D01*
Y256484D01*
X72516Y257500D01*
X73532Y258516D01*
Y259532D01*
X72516D01*
X71500Y258516D01*
X70484Y259532D01*
X69468D01*
Y258516D01*
X70484Y257500D01*
X69468Y256484D01*
Y255468D01*
Y221468D02*
X70484D01*
X71500Y222484D01*
X72516Y221468D01*
X73532D01*
Y222484D01*
X72516Y223500D01*
X73532Y224516D01*
Y225532D01*
X72516D01*
X71500Y224516D01*
X70484Y225532D01*
X69468D01*
Y224516D01*
X70484Y223500D01*
X69468Y222484D01*
Y221468D01*
Y238468D02*
X70484D01*
X71500Y239484D01*
X72516Y238468D01*
X73532D01*
Y239484D01*
X72516Y240500D01*
X73532Y241516D01*
Y242532D01*
X72516D01*
X71500Y241516D01*
X70484Y242532D01*
X69468D01*
Y241516D01*
X70484Y240500D01*
X69468Y239484D01*
Y238468D01*
Y187468D02*
X70484D01*
X71500Y188484D01*
X72516Y187468D01*
X73532D01*
Y188484D01*
X72516Y189500D01*
X73532Y190516D01*
Y191532D01*
X72516D01*
X71500Y190516D01*
X70484Y191532D01*
X69468D01*
Y190516D01*
X70484Y189500D01*
X69468Y188484D01*
Y187468D01*
Y204468D02*
X70484D01*
X71500Y205484D01*
X72516Y204468D01*
X73532D01*
Y205484D01*
X72516Y206500D01*
X73532Y207516D01*
Y208532D01*
X72516D01*
X71500Y207516D01*
X70484Y208532D01*
X69468D01*
Y207516D01*
X70484Y206500D01*
X69468Y205484D01*
Y204468D01*
Y170468D02*
X70484D01*
X71500Y171484D01*
X72516Y170468D01*
X73532D01*
Y171484D01*
X72516Y172500D01*
X73532Y173516D01*
Y174532D01*
X72516D01*
X71500Y173516D01*
X70484Y174532D01*
X69468D01*
Y173516D01*
X70484Y172500D01*
X69468Y171484D01*
Y170468D01*
Y153468D02*
X70484D01*
X71500Y154484D01*
X72516Y153468D01*
X73532D01*
Y154484D01*
X72516Y155500D01*
X73532Y156516D01*
Y157532D01*
X72516D01*
X71500Y156516D01*
X70484Y157532D01*
X69468D01*
Y156516D01*
X70484Y155500D01*
X69468Y154484D01*
Y153468D01*
X120718Y221218D02*
X121734D01*
X122750Y222234D01*
X123766Y221218D01*
X124782D01*
Y222234D01*
X123766Y223250D01*
X124782Y224266D01*
Y225282D01*
X123766D01*
X122750Y224266D01*
X121734Y225282D01*
X120718D01*
Y224266D01*
X121734Y223250D01*
X120718Y222234D01*
Y221218D01*
Y204718D02*
X121734D01*
X122750Y205734D01*
X123766Y204718D01*
X124782D01*
Y205734D01*
X123766Y206750D01*
X124782Y207766D01*
Y208782D01*
X123766D01*
X122750Y207766D01*
X121734Y208782D01*
X120718D01*
Y207766D01*
X121734Y206750D01*
X120718Y205734D01*
Y204718D01*
X137218D02*
X138234D01*
X139250Y205734D01*
X140266Y204718D01*
X141282D01*
Y205734D01*
X140266Y206750D01*
X141282Y207766D01*
Y208782D01*
X140266D01*
X139250Y207766D01*
X138234Y208782D01*
X137218D01*
Y207766D01*
X138234Y206750D01*
X137218Y205734D01*
Y204718D01*
Y221218D02*
X138234D01*
X139250Y222234D01*
X140266Y221218D01*
X141282D01*
Y222234D01*
X140266Y223250D01*
X141282Y224266D01*
Y225282D01*
X140266D01*
X139250Y224266D01*
X138234Y225282D01*
X137218D01*
Y224266D01*
X138234Y223250D01*
X137218Y222234D01*
Y221218D01*
X670523Y133968D02*
X671539D01*
X672555Y134984D01*
X673571Y133968D01*
X674587D01*
Y134984D01*
X673571Y136000D01*
X674587Y137016D01*
Y138032D01*
X673571D01*
X672555Y137016D01*
X671539Y138032D01*
X670523D01*
Y137016D01*
X671539Y136000D01*
X670523Y134984D01*
Y133968D01*
X647968Y479968D02*
X648984D01*
X650000Y480984D01*
X651016Y479968D01*
X652032D01*
Y480984D01*
X651016Y482000D01*
X652032Y483016D01*
Y484032D01*
X651016D01*
X650000Y483016D01*
X648984Y484032D01*
X647968D01*
Y483016D01*
X648984Y482000D01*
X647968Y480984D01*
Y479968D01*
X245968Y466968D02*
X246984D01*
X248000Y467984D01*
X249016Y466968D01*
X250032D01*
Y467984D01*
X249016Y469000D01*
X250032Y470016D01*
Y471032D01*
X249016D01*
X248000Y470016D01*
X246984Y471032D01*
X245968D01*
Y470016D01*
X246984Y469000D01*
X245968Y467984D01*
Y466968D01*
X56466Y436498D02*
X57482D01*
X58498Y437514D01*
X59514Y436498D01*
X60530D01*
Y437514D01*
X59514Y438530D01*
X60530Y439546D01*
Y440562D01*
X59514D01*
X58498Y439546D01*
X57482Y440562D01*
X56466D01*
Y439546D01*
X57482Y438530D01*
X56466Y437514D01*
Y436498D01*
X7966Y451998D02*
X8982D01*
X9998Y453014D01*
X11014Y451998D01*
X12030D01*
Y453014D01*
X11014Y454030D01*
X12030Y455046D01*
Y456062D01*
X11014D01*
X9998Y455046D01*
X8982Y456062D01*
X7966D01*
Y455046D01*
X8982Y454030D01*
X7966Y453014D01*
Y451998D01*
D167*
X637032Y508000D02*
G03*
X637032Y508000I-2032J0D01*
G01*
X611632D02*
G03*
X611632Y508000I-2032J0D01*
G01*
X586232D02*
G03*
X586232Y508000I-2032J0D01*
G01*
X560832D02*
G03*
X560832Y508000I-2032J0D01*
G01*
X535432D02*
G03*
X535432Y508000I-2032J0D01*
G01*
X510032D02*
G03*
X510032Y508000I-2032J0D01*
G01*
X484632D02*
G03*
X484632Y508000I-2032J0D01*
G01*
X459232D02*
G03*
X459232Y508000I-2032J0D01*
G01*
X418592D02*
G03*
X418592Y508000I-2032J0D01*
G01*
X393192D02*
G03*
X393192Y508000I-2032J0D01*
G01*
X367792D02*
G03*
X367792Y508000I-2032J0D01*
G01*
X342392D02*
G03*
X342392Y508000I-2032J0D01*
G01*
X316992D02*
G03*
X316992Y508000I-2032J0D01*
G01*
X291592D02*
G03*
X291592Y508000I-2032J0D01*
G01*
X266192D02*
G03*
X266192Y508000I-2032J0D01*
G01*
X240792D02*
G03*
X240792Y508000I-2032J0D01*
G01*
X215392D02*
G03*
X215392Y508000I-2032J0D01*
G01*
X189992D02*
G03*
X189992Y508000I-2032J0D01*
G01*
X281432Y25400D02*
G03*
X281432Y25400I-2032J0D01*
G01*
X306832D02*
G03*
X306832Y25400I-2032J0D01*
G01*
X332232D02*
G03*
X332232Y25400I-2032J0D01*
G01*
X357632D02*
G03*
X357632Y25400I-2032J0D01*
G01*
X383032D02*
G03*
X383032Y25400I-2032J0D01*
G01*
X408432D02*
G03*
X408432Y25400I-2032J0D01*
G01*
X433832D02*
G03*
X433832Y25400I-2032J0D01*
G01*
X459232D02*
G03*
X459232Y25400I-2032J0D01*
G01*
X510032D02*
G03*
X510032Y25400I-2032J0D01*
G01*
X535432D02*
G03*
X535432Y25400I-2032J0D01*
G01*
X560832D02*
G03*
X560832Y25400I-2032J0D01*
G01*
X586232D02*
G03*
X586232Y25400I-2032J0D01*
G01*
X611632D02*
G03*
X611632Y25400I-2032J0D01*
G01*
X637032D02*
G03*
X637032Y25400I-2032J0D01*
G01*
M02*
