M48
;Layer_Color=9474304
;FILE_FORMAT=2:5
INCH,LZ
;TYPE=PLATED
T01F00S00C0.01181
T03F00S00C0.03346
T04F00S00C0.03346
T05F00S00C0.03740
;TYPE=NON_PLATED
T07F00S00C0.01772
T08F00S00C0.12598
%
T01
X0024016Y0052953
X0029765Y0053034
X0051Y0050575
X0062579Y0035713
X0069252Y0032898
X0075551Y0034079
X0066601Y0021867
X0094843Y0025024
X0094646Y002837
X0094843Y0031717
X0099705Y0035063
X0103642
X0107579
X0112441Y0031717
X0112638Y002837
X0112441Y0025024
X0110079Y0015906
X0099173Y0019512
X0125945
X0129764Y0015906
X0144127Y0015877
X0144424Y0019491
X0154961Y0007244
X0162205Y0043701
X0137146Y004435
X0133004Y0049013
X01275Y0045345
X0117421Y0051992
X0108131
X0099357
X0187752Y0053302
X0190676Y004898
X0195669Y0052171
X019561Y0041908
X019315Y0022599
X0213495Y0042665
X0217884Y0039843
X0223074Y0039801
X0228359Y0041324
X0231102Y0042913
X0230969Y0054747
X0241989Y0056103
X0257087Y0051575
X0264786Y0053543
X0220079Y0052756
X0219737Y0044491
X0219685Y0061554
X0223734Y0065376
X0215932Y0073438
X0212999Y0077971
X0219743Y0078354
X022454Y0097741
X0231217Y0093976
X023189Y0090945
X0241913Y0085064
X0241929Y0080379
X0241929Y0076048
X0241929Y0070536
X0241929Y0065024
Y0059119
X026222Y0060476
X0260079Y0078898
X0261382Y0085835
X0266929Y0094095
X0253978Y0095114
X0245276Y0101969
X0243672Y0114693
X023873Y0113504
X0232513Y0117082
X0234013Y0119545
X0231661Y0121558
X023286Y0124217
X0226411Y0118843
X0228423Y0116798
X0217077Y012929
X0214919Y0131331
X0212718Y0129051
X0223969Y014139
X022638Y0142968
X0242851Y0144862
X0243076Y0151133
X0248923Y0147261
X0251297Y0148904
X0255687Y0149994
X0250785Y0155094
X0238985Y0157621
X0235433Y015748
Y0154331
X0237788Y0167827
X0227168Y016802
X0226378Y0179134
X0222835Y0179921
X0220079Y0181102
X0214961Y0191339
X0232283Y0185039
X0235196Y0185793
X0245063Y0196756
X0255906Y0189764
X0254331Y013189
X025561Y0125071
X025128
X024813
X0242126Y0129528
X0264567
Y0126378
X0212914Y0101896
X0214603Y0057838
X0203619Y0060885
X019745Y0058867
X0191772Y0064606
X0195238Y0069823
X0198031Y0074803
X0200065Y0080962
X0203543Y007809
X0187445Y007791
X0187244Y0085688
X0174803Y008189
X0175054Y0090207
X017874Y0094488
X0174799Y0097955
X0171706Y0101403
X0174016Y0109449
X0167525Y0108178
X0165689Y0105982
X0158058Y0106302
X015444Y0102817
X0149403Y0107613
X0141732Y0106299
X0128149Y0106876
Y0099199
X0130543Y0100941
X0128209Y0091528
X0128209Y0083851
X0112988Y0081496
X0110729Y0087008
X0107579
X0103642
X0100492
X0094633Y0086233
X0088145Y0086374
X0086614Y0083858
X0094488Y0076378
X0105986Y007822
X0103543Y007126
X0103642Y0058169
X0082732Y0061205
X0083858Y0097638
X0083838Y0100769
X0083874Y0103667
X008519Y0106952
X0087894Y0113941
X0089548Y0126382
X0092633Y0126439
X0094129Y0129587
X0097736Y0128671
X008828Y0128975
X0087712Y0131871
X0088759Y0138983
X0079967Y0139362
X0074978Y0139371
X0072047Y0139764
X0063423Y0139365
X0064781Y0149975
X0061573Y0149903
X0057087Y0152756
X005748Y0159055
X0056382Y0162403
X0057958Y0173422
X0057121Y0181928
X0065976Y0177
X0067244Y0188359
X0076441Y0184568
X0097638Y0184646
X0091335Y0170666
X0094945Y0158961
X0104091Y0158335
X0102067Y0156311
X0099336Y0148382
X0094549Y0147612
X0090898Y0148442
X0087008Y0148425
X0073598Y0148521
X0079018Y016231
X0108949Y01615
X0108508Y0150211
X0113619Y0148295
X0110236Y0144095
X0108957Y0130855
X0108169Y0109988
X0105405Y0107225
X0101009Y0103541
X0112754Y0104198
X0113023Y0094878
X010955Y0095452
X009737Y0093677
X0092402Y0094608
X0074016Y0096063
X0074197Y0106992
X0062803Y0125591
X0059887Y0126053
X0057025Y0125842
X0167382Y0117622
X0181591Y0117083
X0187445Y0117208
X0186444Y0124194
X0177638Y0124584
X0180601Y0132283
X0179315Y0137307
X0180388Y0142164
X0180607Y0152374
X0170986Y0153177
X0170583Y0163102
X0177503Y0169047
X0186768Y0167897
X0191732Y0157874
X0195205Y0157755
X0194089Y015465
X0194038Y015148
X0191498Y0146785
X0191437Y0143713
X0190355Y0138646
X0190279Y0135459
X0194907Y0134866
X0194939Y0137734
X0195358Y0131513
X0206584Y0131201
X020638Y0128137
X0207967Y0125437
X0207985Y0122573
X0203964Y0125988
X0210753Y0131252
X0208583Y0144922
X0208829Y0152602
X0206216Y0151412
X0203298Y0155863
X02025Y0159028
X0207709Y0157799
X0206684Y0168834
X0202755Y0168897
X0205118Y0191339
X0179528Y0187402
X018189Y0184252
X0176772
X016126Y0150945
X0161205Y0147203
Y0144341
X016126Y0140709
X0182549Y0106814
X0207472Y0109172
X0199213Y0090588
X0162365Y008641
X0165185Y0083138
X0166743Y0074016
X0158661Y0073607
X0154942Y0068455
X0157959Y0057019
X0166365Y0056682
X017006Y0061641
X0170533Y0068898
X0179655Y0061248
X014574Y0061094
X0149344Y0057474
X0141743Y0064684
X0141732Y0073622
X0145828Y0077622
X0054823Y0081398
X0048327
Y0087894
X0054823
X0055299Y0103055
X004685Y010315
X0043701
X004252Y0108268
X0051673Y0108134
X0049015Y0124218
X0040585Y0125716
X0037326Y0115875
X0024008Y0115824
X0028091Y0106945
X002815Y0101378
Y0094685
Y0087992
Y0081299
Y0074606
Y0067913
X0031988Y0068764
X002815Y0061221
X0050492Y0062071
Y0068764
X0053725Y0129524
X00554Y0135001
X0055486Y0141001
X0050015Y0138725
X0042752Y0143551
X0045604Y0148736
X0048425Y015
X0055913Y0149399
X0045648Y0160075
X0040799Y0164479
X00381Y0156018
X0029963Y0156027
X0028871Y0152838
X0027993Y0150114
X0029027Y0147149
X0029382Y0142782
X0037085Y0146012
X0031119Y0131423
X0018996Y0125063
X0014567Y0138583
X0004402Y0118791
X0003936Y0178752
X0023031Y017265
X0025358Y0162976
X0025417Y0158872
X0037402Y0176378
X0046225Y0181839
X0027652Y0196383
T03
X007Y001
X008
X009
T04
X011Y001
X012
X013
X014
X015
X016
X017
X018
X02
X021
X022
X023
X024
X025
Y02
X024
X023
X022
X021
X02
X019
X018
X0164
X0154
X0144
X0134
X0124
X0114
X0104
X0094
X0084
X0074
T05
X02505Y01
Y011
Y012
X02605
Y011
Y01
X0084Y0160213
Y0170213
X0074Y0170213
Y0160213
X0064Y0160213
Y0170213
T07
X0017815Y0136008
Y016215
T08
X0055Y001
X026Y003
Y014
X006Y02
M30
